<svg class="main-svg" xmlns="http://www.w3.org/2000/svg" xmlns:xlink="http://www.w3.org/1999/xlink" width="960" height="856" style="" viewBox="0 0 960 856"><rect x="0" y="0" width="960" height="856" style="fill: rgb(0, 0, 0); fill-opacity: 0;"/><defs id="defs-44aa4f"><g class="clips"><clipPath id="clip44aa4fxyplot" class="plotclip"><rect width="802" height="704"/></clipPath><clipPath class="axesclip" id="clip44aa4fx"><rect x="122" y="0" width="802" height="856"/></clipPath><clipPath class="axesclip" id="clip44aa4fy"><rect x="0" y="80" width="960" height="704"/></clipPath><clipPath class="axesclip" id="clip44aa4fxy"><rect x="122" y="80" width="802" height="704"/></clipPath></g><g class="gradients"/><g class="patterns"/></defs><g class="bglayer"><rect class="bg" x="122" y="80" width="802" height="704" style="fill: rgb(0, 0, 0); fill-opacity: 0; stroke-width: 0;"/></g><g class="layer-below"><g class="imagelayer"/><g class="shapelayer"/></g><g class="cartesianlayer"><g class="subplot xy"><g class="layer-subplot"><g class="shapelayer"/><g class="imagelayer"/></g><g class="minor-gridlayer"><g class="x"/><g class="y"/></g><g class="gridlayer"><g class="x"/><g class="y"/></g><g class="zerolinelayer"><path class="xzl zl crisp" transform="translate(467.06,0)" d="M0,80v704" style="stroke: rgb(0, 0, 0); stroke-opacity: 1; stroke-width: 2px;"/></g><g class="layer-between"><g class="shapelayer"/><g class="imagelayer"/></g><path class="xlines-below"/><path class="ylines-below"/><g class="overlines-below"/><g class="xaxislayer-below"/><g class="yaxislayer-below"/><g class="overaxes-below"/><g class="overplot"><g class="xy" transform="translate(122,80)" clip-path="url(#clip44aa4fxyplot)"><g class="scatterlayer mlayer"><g class="trace scatter trace9c86d6" style="stroke-miterlimit: 2; opacity: 1;"><g class="fills"/><g class="errorbars"><g class="errorbar" style="opacity: 1;"><path class="xerror" d="M48.05,659.18v8m0,-4H43.41m0,-4v8" style="vector-effect: none; stroke-width: 1.8px; stroke: rgb(127, 147, 166); stroke-opacity: 1;"/></g></g><g class="lines"/><g class="points"><path class="point" transform="translate(45.73,663.18)" d="M4.5,0A4.5,4.5 0 1,1 0,-4.5A4.5,4.5 0 0,1 4.5,0Z" style="opacity: 1; stroke-width: 1.4px; fill: rgb(127, 147, 166); fill-opacity: 0.42; stroke: rgb(127, 147, 166); stroke-opacity: 1;"/></g><g class="text"/></g><g class="trace scatter trace3e488b" style="stroke-miterlimit: 2; opacity: 1;"><g class="fills"/><g class="errorbars"><g class="errorbar" style="opacity: 1;"><path class="xerror" d="M54.57,634.28v8m0,-4H49.48m0,-4v8" style="vector-effect: none; stroke-width: 1.8px; stroke: rgb(127, 147, 166); stroke-opacity: 1;"/></g></g><g class="lines"/><g class="points"><path class="point" transform="translate(52.02,638.28)" d="M4.5,0A4.5,4.5 0 1,1 0,-4.5A4.5,4.5 0 0,1 4.5,0Z" style="opacity: 1; stroke-width: 1.4px; fill: rgb(127, 147, 166); fill-opacity: 0.42; stroke: rgb(127, 147, 166); stroke-opacity: 1;"/></g><g class="text"/></g><g class="trace scatter tracea54b68" style="stroke-miterlimit: 2; opacity: 1;"><g class="fills"/><g class="errorbars"><g class="errorbar" style="opacity: 1;"><path class="xerror" d="M64.13,609.39v8m0,-4H59.66m0,-4v8" style="vector-effect: none; stroke-width: 1.8px; stroke: rgb(127, 147, 166); stroke-opacity: 1;"/></g></g><g class="lines"/><g class="points"><path class="point" transform="translate(61.9,613.39)" d="M4.5,0A4.5,4.5 0 1,1 0,-4.5A4.5,4.5 0 0,1 4.5,0Z" style="opacity: 1; stroke-width: 1.4px; fill: rgb(127, 147, 166); fill-opacity: 0.42; stroke: rgb(127, 147, 166); stroke-opacity: 1;"/></g><g class="text"/></g><g class="trace scatter trace5ad044" style="stroke-miterlimit: 2; opacity: 1;"><g class="fills"/><g class="errorbars"><g class="errorbar" style="opacity: 1;"><path class="xerror" d="M97.57,584.49v8m0,-4H92.58m0,-4v8" style="vector-effect: none; stroke-width: 1.8px; stroke: rgb(127, 147, 166); stroke-opacity: 1;"/></g></g><g class="lines"/><g class="points"><path class="point" transform="translate(95.07,588.49)" d="M4.5,0A4.5,4.5 0 1,1 0,-4.5A4.5,4.5 0 0,1 4.5,0Z" style="opacity: 1; stroke-width: 1.4px; fill: rgb(127, 147, 166); fill-opacity: 0.42; stroke: rgb(127, 147, 166); stroke-opacity: 1;"/></g><g class="text"/></g><g class="trace scatter trace5da734" style="stroke-miterlimit: 2; opacity: 1;"><g class="fills"/><g class="errorbars"><g class="errorbar" style="opacity: 1;"><path class="xerror" d="M112.31,559.6v8m0,-4H107.33m0,-4v8" style="vector-effect: none; stroke-width: 1.8px; stroke: rgb(127, 147, 166); stroke-opacity: 1;"/></g></g><g class="lines"/><g class="points"><path class="point" transform="translate(109.82,563.6)" d="M4.5,0A4.5,4.5 0 1,1 0,-4.5A4.5,4.5 0 0,1 4.5,0Z" style="opacity: 1; stroke-width: 1.4px; fill: rgb(127, 147, 166); fill-opacity: 0.42; stroke: rgb(127, 147, 166); stroke-opacity: 1;"/></g><g class="text"/></g><g class="trace scatter tracec8c0f5" style="stroke-miterlimit: 2; opacity: 1;"><g class="fills"/><g class="errorbars"><g class="errorbar" style="opacity: 1;"><path class="xerror" d="M119.67,534.71v8m0,-4H113.79m0,-4v8" style="vector-effect: none; stroke-width: 1.8px; stroke: rgb(127, 147, 166); stroke-opacity: 1;"/></g></g><g class="lines"/><g class="points"><path class="point" transform="translate(116.73,538.71)" d="M4.5,0A4.5,4.5 0 1,1 0,-4.5A4.5,4.5 0 0,1 4.5,0Z" style="opacity: 1; stroke-width: 1.4px; fill: rgb(127, 147, 166); fill-opacity: 0.42; stroke: rgb(127, 147, 166); stroke-opacity: 1;"/></g><g class="text"/></g><g class="trace scatter trace51b18d" style="stroke-miterlimit: 2; opacity: 1;"><g class="fills"/><g class="errorbars"><g class="errorbar" style="opacity: 1;"><path class="xerror" d="M128.05,509.80999999999995v8m0,-4H123m0,-4v8" style="vector-effect: none; stroke-width: 1.8px; stroke: rgb(127, 147, 166); stroke-opacity: 1;"/></g></g><g class="lines"/><g class="points"><path class="point" transform="translate(125.52,513.81)" d="M4.5,0A4.5,4.5 0 1,1 0,-4.5A4.5,4.5 0 0,1 4.5,0Z" style="opacity: 1; stroke-width: 1.4px; fill: rgb(127, 147, 166); fill-opacity: 0.42; stroke: rgb(127, 147, 166); stroke-opacity: 1;"/></g><g class="text"/></g><g class="trace scatter tracead0ada" style="stroke-miterlimit: 2; opacity: 1;"><g class="fills"/><g class="errorbars"><g class="errorbar" style="opacity: 1;"><path class="xerror" d="M132.46,484.92v8m0,-4H127.32m0,-4v8" style="vector-effect: none; stroke-width: 1.8px; stroke: rgb(207, 134, 75); stroke-opacity: 1;"/></g></g><g class="lines"/><g class="points"><path class="point" transform="translate(129.88,488.92)" d="M4.5,0A4.5,4.5 0 1,1 0,-4.5A4.5,4.5 0 0,1 4.5,0Z" style="opacity: 1; stroke-width: 1.4px; fill: rgb(207, 134, 75); fill-opacity: 0.42; stroke: rgb(207, 134, 75); stroke-opacity: 1;"/></g><g class="text"/></g><g class="trace scatter trace4bd76e" style="stroke-miterlimit: 2; opacity: 1;"><g class="fills"/><g class="errorbars"><g class="errorbar" style="opacity: 1;"><path class="xerror" d="M163.66,460.02v8m0,-4H157.86m0,-4v8" style="vector-effect: none; stroke-width: 1.8px; stroke: rgb(127, 147, 166); stroke-opacity: 1;"/></g></g><g class="lines"/><g class="points"><path class="point" transform="translate(160.75,464.02)" d="M4.5,0A4.5,4.5 0 1,1 0,-4.5A4.5,4.5 0 0,1 4.5,0Z" style="opacity: 1; stroke-width: 1.4px; fill: rgb(127, 147, 166); fill-opacity: 0.42; stroke: rgb(127, 147, 166); stroke-opacity: 1;"/></g><g class="text"/></g><g class="trace scatter traceb1fe87" style="stroke-miterlimit: 2; opacity: 1;"><g class="fills"/><g class="errorbars"><g class="errorbar" style="opacity: 1;"><path class="xerror" d="M165.42,435.13v8m0,-4H160.08m0,-4v8" style="vector-effect: none; stroke-width: 1.8px; stroke: rgb(127, 147, 166); stroke-opacity: 1;"/></g></g><g class="lines"/><g class="points"><path class="point" transform="translate(162.75,439.13)" d="M4.5,0A4.5,4.5 0 1,1 0,-4.5A4.5,4.5 0 0,1 4.5,0Z" style="opacity: 1; stroke-width: 1.4px; fill: rgb(127, 147, 166); fill-opacity: 0.42; stroke: rgb(127, 147, 166); stroke-opacity: 1;"/></g><g class="text"/></g><g class="trace scatter trace6534c0" style="stroke-miterlimit: 2; opacity: 1;"><g class="fills"/><g class="errorbars"><g class="errorbar" style="opacity: 1;"><path class="xerror" d="M199.75,410.24v8m0,-4H192.51m0,-4v8" style="vector-effect: none; stroke-width: 1.8px; stroke: rgb(127, 147, 166); stroke-opacity: 1;"/></g></g><g class="lines"/><g class="points"><path class="point" transform="translate(196.12,414.24)" d="M4.5,0A4.5,4.5 0 1,1 0,-4.5A4.5,4.5 0 0,1 4.5,0Z" style="opacity: 1; stroke-width: 1.4px; fill: rgb(127, 147, 166); fill-opacity: 0.42; stroke: rgb(127, 147, 166); stroke-opacity: 1;"/></g><g class="text"/></g><g class="trace scatter trace0ce4e1" style="stroke-miterlimit: 2; opacity: 1;"><g class="fills"/><g class="errorbars"><g class="errorbar" style="opacity: 1;"><path class="xerror" d="M199.71,385.34v8m0,-4H193.85m0,-4v8" style="vector-effect: none; stroke-width: 1.8px; stroke: rgb(127, 147, 166); stroke-opacity: 1;"/></g></g><g class="lines"/><g class="points"><path class="point" transform="translate(196.78,389.34)" d="M4.5,0A4.5,4.5 0 1,1 0,-4.5A4.5,4.5 0 0,1 4.5,0Z" style="opacity: 1; stroke-width: 1.4px; fill: rgb(127, 147, 166); fill-opacity: 0.42; stroke: rgb(127, 147, 166); stroke-opacity: 1;"/></g><g class="text"/></g><g class="trace scatter trace66f6cf" style="stroke-miterlimit: 2; opacity: 1;"><g class="fills"/><g class="errorbars"><g class="errorbar" style="opacity: 1;"><path class="xerror" d="M251.36,360.45v8m0,-4H245.71m0,-4v8" style="vector-effect: none; stroke-width: 1.8px; stroke: rgb(127, 147, 166); stroke-opacity: 1;"/></g></g><g class="lines"/><g class="points"><path class="point" transform="translate(248.53,364.45)" d="M4.5,0A4.5,4.5 0 1,1 0,-4.5A4.5,4.5 0 0,1 4.5,0Z" style="opacity: 1; stroke-width: 1.4px; fill: rgb(127, 147, 166); fill-opacity: 0.42; stroke: rgb(127, 147, 166); stroke-opacity: 1;"/></g><g class="text"/></g><g class="trace scatter trace487854" style="stroke-miterlimit: 2; opacity: 1;"><g class="fills"/><g class="errorbars"><g class="errorbar" style="opacity: 1;"><path class="xerror" d="M318.58,335.55v8m0,-4H312.52m0,-4v8" style="vector-effect: none; stroke-width: 1.8px; stroke: rgb(127, 147, 166); stroke-opacity: 1;"/></g></g><g class="lines"/><g class="points"><path class="point" transform="translate(315.55,339.55)" d="M4.5,0A4.5,4.5 0 1,1 0,-4.5A4.5,4.5 0 0,1 4.5,0Z" style="opacity: 1; stroke-width: 1.4px; fill: rgb(127, 147, 166); fill-opacity: 0.42; stroke: rgb(127, 147, 166); stroke-opacity: 1;"/></g><g class="text"/></g><g class="trace scatter tracea3b694" style="stroke-miterlimit: 2; opacity: 1;"><g class="fills"/><g class="errorbars"><g class="errorbar" style="opacity: 1;"><path class="xerror" d="M345.06,310.66v8m0,-4H345.06m0,-4v8" style="vector-effect: none; stroke-width: 1.8px; stroke: rgb(127, 147, 166); stroke-opacity: 1;"/></g></g><g class="lines"/><g class="points"><path class="point" transform="translate(345.06,314.66)" d="M4.5,0A4.5,4.5 0 1,1 0,-4.5A4.5,4.5 0 0,1 4.5,0Z" style="opacity: 1; stroke-width: 1.4px; fill: rgb(127, 147, 166); fill-opacity: 0.42; stroke: rgb(127, 147, 166); stroke-opacity: 1;"/></g><g class="text"/></g><g class="trace scatter trace377bd6" style="stroke-miterlimit: 2; opacity: 1;"><g class="fills"/><g class="errorbars"><g class="errorbar" style="opacity: 1;"><path class="xerror" d="M358.99,285.77v8m0,-4H347.07m0,-4v8" style="vector-effect: none; stroke-width: 1.8px; stroke: rgb(127, 147, 166); stroke-opacity: 1;"/></g></g><g class="lines"/><g class="points"><path class="point" transform="translate(353.01,289.77)" d="M4.5,0A4.5,4.5 0 1,1 0,-4.5A4.5,4.5 0 0,1 4.5,0Z" style="opacity: 1; stroke-width: 1.4px; fill: rgb(127, 147, 166); fill-opacity: 0.42; stroke: rgb(127, 147, 166); stroke-opacity: 1;"/></g><g class="text"/></g><g class="trace scatter tracef21fce" style="stroke-miterlimit: 2; opacity: 1;"><g class="fills"/><g class="errorbars"><g class="errorbar" style="opacity: 1;"><path class="xerror" d="M418.11,260.87v8m0,-4H408.82m0,-4v8" style="vector-effect: none; stroke-width: 1.8px; stroke: rgb(127, 147, 166); stroke-opacity: 1;"/></g></g><g class="lines"/><g class="points"><path class="point" transform="translate(413.45,264.87)" d="M4.5,0A4.5,4.5 0 1,1 0,-4.5A4.5,4.5 0 0,1 4.5,0Z" style="opacity: 1; stroke-width: 1.4px; fill: rgb(127, 147, 166); fill-opacity: 0.42; stroke: rgb(127, 147, 166); stroke-opacity: 1;"/></g><g class="text"/></g><g class="trace scatter traceebeb56" style="stroke-miterlimit: 2; opacity: 1;"><g class="fills"/><g class="errorbars"><g class="errorbar" style="opacity: 1;"><path class="xerror" d="M429.75,235.98v8m0,-4H419.26m0,-4v8" style="vector-effect: none; stroke-width: 1.8px; stroke: rgb(127, 147, 166); stroke-opacity: 1;"/></g></g><g class="lines"/><g class="points"><path class="point" transform="translate(424.49,239.98)" d="M4.5,0A4.5,4.5 0 1,1 0,-4.5A4.5,4.5 0 0,1 4.5,0Z" style="opacity: 1; stroke-width: 1.4px; fill: rgb(127, 147, 166); fill-opacity: 0.42; stroke: rgb(127, 147, 166); stroke-opacity: 1;"/></g><g class="text"/></g><g class="trace scatter tracefa484b" style="stroke-miterlimit: 2; opacity: 1;"><g class="fills"/><g class="errorbars"><g class="errorbar" style="opacity: 1;"><path class="xerror" d="M442.45,211.08v8m0,-4H432.95m0,-4v8" style="vector-effect: none; stroke-width: 1.8px; stroke: rgb(127, 147, 166); stroke-opacity: 1;"/></g></g><g class="lines"/><g class="points"><path class="point" transform="translate(437.69,215.08)" d="M4.5,0A4.5,4.5 0 1,1 0,-4.5A4.5,4.5 0 0,1 4.5,0Z" style="opacity: 1; stroke-width: 1.4px; fill: rgb(127, 147, 166); fill-opacity: 0.42; stroke: rgb(127, 147, 166); stroke-opacity: 1;"/></g><g class="text"/></g><g class="trace scatter trace5069b5" style="stroke-miterlimit: 2; opacity: 1;"><g class="fills"/><g class="errorbars"><g class="errorbar" style="opacity: 1;"><path class="xerror" d="M477.97,186.19v8m0,-4H468.29m0,-4v8" style="vector-effect: none; stroke-width: 1.8px; stroke: rgb(127, 147, 166); stroke-opacity: 1;"/></g></g><g class="lines"/><g class="points"><path class="point" transform="translate(473.12,190.19)" d="M4.5,0A4.5,4.5 0 1,1 0,-4.5A4.5,4.5 0 0,1 4.5,0Z" style="opacity: 1; stroke-width: 1.4px; fill: rgb(127, 147, 166); fill-opacity: 0.42; stroke: rgb(127, 147, 166); stroke-opacity: 1;"/></g><g class="text"/></g><g class="trace scatter trace77daa6" style="stroke-miterlimit: 2; opacity: 1;"><g class="fills"/><g class="errorbars"><g class="errorbar" style="opacity: 1;"><path class="xerror" d="M526.18,161.3v8m0,-4H515.01m0,-4v8" style="vector-effect: none; stroke-width: 1.8px; stroke: rgb(127, 147, 166); stroke-opacity: 1;"/></g></g><g class="lines"/><g class="points"><path class="point" transform="translate(520.58,165.3)" d="M4.5,0A4.5,4.5 0 1,1 0,-4.5A4.5,4.5 0 0,1 4.5,0Z" style="opacity: 1; stroke-width: 1.4px; fill: rgb(127, 147, 166); fill-opacity: 0.42; stroke: rgb(127, 147, 166); stroke-opacity: 1;"/></g><g class="text"/></g><g class="trace scatter traceb086a6" style="stroke-miterlimit: 2; opacity: 1;"><g class="fills"/><g class="errorbars"><g class="errorbar" style="opacity: 1;"><path class="xerror" d="M545.93,136.4v8m0,-4H535.84m0,-4v8" style="vector-effect: none; stroke-width: 1.8px; stroke: rgb(127, 147, 166); stroke-opacity: 1;"/></g></g><g class="lines"/><g class="points"><path class="point" transform="translate(540.87,140.4)" d="M4.5,0A4.5,4.5 0 1,1 0,-4.5A4.5,4.5 0 0,1 4.5,0Z" style="opacity: 1; stroke-width: 1.4px; fill: rgb(127, 147, 166); fill-opacity: 0.42; stroke: rgb(127, 147, 166); stroke-opacity: 1;"/></g><g class="text"/></g><g class="trace scatter traced774d8" style="stroke-miterlimit: 2; opacity: 1;"><g class="fills"/><g class="errorbars"><g class="errorbar" style="opacity: 1;"><path class="xerror" d="M588.57,111.51v8m0,-4H577.63m0,-4v8" style="vector-effect: none; stroke-width: 1.8px; stroke: rgb(127, 147, 166); stroke-opacity: 1;"/></g></g><g class="lines"/><g class="points"><path class="point" transform="translate(583.09,115.51)" d="M4.5,0A4.5,4.5 0 1,1 0,-4.5A4.5,4.5 0 0,1 4.5,0Z" style="opacity: 1; stroke-width: 1.4px; fill: rgb(127, 147, 166); fill-opacity: 0.42; stroke: rgb(127, 147, 166); stroke-opacity: 1;"/></g><g class="text"/></g><g class="trace scatter tracedfbdf1" style="stroke-miterlimit: 2; opacity: 1;"><g class="fills"/><g class="errorbars"><g class="errorbar" style="opacity: 1;"><path class="xerror" d="M675.12,86.61v8m0,-4H653.66m0,-4v8" style="vector-effect: none; stroke-width: 1.8px; stroke: rgb(127, 147, 166); stroke-opacity: 1;"/></g></g><g class="lines"/><g class="points"><path class="point" transform="translate(664.35,90.61)" d="M4.5,0A4.5,4.5 0 1,1 0,-4.5A4.5,4.5 0 0,1 4.5,0Z" style="opacity: 1; stroke-width: 1.4px; fill: rgb(127, 147, 166); fill-opacity: 0.42; stroke: rgb(127, 147, 166); stroke-opacity: 1;"/></g><g class="text"/></g><g class="trace scatter traceea6642" style="stroke-miterlimit: 2; opacity: 1;"><g class="fills"/><g class="errorbars"><g class="errorbar" style="opacity: 1;"><path class="xerror" d="M710.24,61.72v8m0,-4H684.1m0,-4v8" style="vector-effect: none; stroke-width: 1.8px; stroke: rgb(127, 147, 166); stroke-opacity: 1;"/></g></g><g class="lines"/><g class="points"><path class="point" transform="translate(697.11,65.72)" d="M4.5,0A4.5,4.5 0 1,1 0,-4.5A4.5,4.5 0 0,1 4.5,0Z" style="opacity: 1; stroke-width: 1.4px; fill: rgb(127, 147, 166); fill-opacity: 0.42; stroke: rgb(127, 147, 166); stroke-opacity: 1;"/></g><g class="text"/></g><g class="trace scatter trace1fb459" style="stroke-miterlimit: 2; opacity: 1;"><g class="fills"/><g class="errorbars"><g class="errorbar" style="opacity: 1;"><path class="xerror" d="M761.9,36.83v8m0,-4H734.6m0,-4v8" style="vector-effect: none; stroke-width: 1.8px; stroke: rgb(127, 147, 166); stroke-opacity: 1;"/></g></g><g class="lines"/><g class="points"><path class="point" transform="translate(748.18,40.83)" d="M4.5,0A4.5,4.5 0 1,1 0,-4.5A4.5,4.5 0 0,1 4.5,0Z" style="opacity: 1; stroke-width: 1.4px; fill: rgb(127, 147, 166); fill-opacity: 0.42; stroke: rgb(127, 147, 166); stroke-opacity: 1;"/></g><g class="text"/></g></g></g></g><g class="zerolinelayer-above"/><path class="xlines-above crisp" d="M121,784.5H924" style="fill: none; stroke-width: 1px; stroke: rgb(0, 0, 0); stroke-opacity: 1;"/><path class="ylines-above crisp" d="M121.5,80V784" style="fill: none; stroke-width: 1px; stroke: rgb(0, 0, 0); stroke-opacity: 1;"/><g class="overlines-above"/><g class="xaxislayer-above"><g class="xtick"><text text-anchor="middle" x="0" y="800.6" transform="translate(161.5,0)" style="font-family: Arial; font-size: 13px; fill: rgb(0, 0, 0); fill-opacity: 1; white-space: pre;">−30</text></g><g class="xtick"><text text-anchor="middle" x="0" y="800.6" style="font-family: Arial; font-size: 13px; fill: rgb(0, 0, 0); fill-opacity: 1; white-space: pre;" transform="translate(263.36,0)">−20</text></g><g class="xtick"><text text-anchor="middle" x="0" y="800.6" style="font-family: Arial; font-size: 13px; fill: rgb(0, 0, 0); fill-opacity: 1; white-space: pre;" transform="translate(365.21000000000004,0)">−10</text></g><g class="xtick"><text text-anchor="middle" x="0" y="800.6" style="font-family: Arial; font-size: 13px; fill: rgb(0, 0, 0); fill-opacity: 1; white-space: pre;" transform="translate(467.06,0)">0</text></g><g class="xtick"><text text-anchor="middle" x="0" y="800.6" style="font-family: Arial; font-size: 13px; fill: rgb(0, 0, 0); fill-opacity: 1; white-space: pre;" transform="translate(568.9100000000001,0)">10</text></g><g class="xtick"><text text-anchor="middle" x="0" y="800.6" style="font-family: Arial; font-size: 13px; fill: rgb(0, 0, 0); fill-opacity: 1; white-space: pre;" transform="translate(670.76,0)">20</text></g><g class="xtick"><text text-anchor="middle" x="0" y="800.6" style="font-family: Arial; font-size: 13px; fill: rgb(0, 0, 0); fill-opacity: 1; white-space: pre;" transform="translate(772.61,0)">30</text></g><g class="xtick"><text text-anchor="middle" x="0" y="800.6" style="font-family: Arial; font-size: 13px; fill: rgb(0, 0, 0); fill-opacity: 1; white-space: pre;" transform="translate(874.47,0)">40</text></g></g><g class="yaxislayer-above"><g class="ytick"><text text-anchor="end" x="118.4" y="4.55" transform="translate(0,743.18)" style="font-family: Arial; font-size: 13px; fill: rgb(0, 0, 0); fill-opacity: 1; white-space: pre;">Choa Chu Kang</text></g><g class="ytick"><text text-anchor="end" x="118.4" y="4.55" transform="translate(0,718.28)" style="font-family: Arial; font-size: 13px; fill: rgb(0, 0, 0); fill-opacity: 1; white-space: pre;">Sembawang</text></g><g class="ytick"><text text-anchor="end" x="118.4" y="4.55" transform="translate(0,693.39)" style="font-family: Arial; font-size: 13px; fill: rgb(0, 0, 0); fill-opacity: 1; white-space: pre;">Woodlands</text></g><g class="ytick"><text text-anchor="end" x="118.4" y="4.55" transform="translate(0,668.49)" style="font-family: Arial; font-size: 13px; fill: rgb(0, 0, 0); fill-opacity: 1; white-space: pre;">Jurong West</text></g><g class="ytick"><text text-anchor="end" x="118.4" y="4.55" transform="translate(0,643.6)" style="font-family: Arial; font-size: 13px; fill: rgb(0, 0, 0); fill-opacity: 1; white-space: pre;">Sengkang</text></g><g class="ytick"><text text-anchor="end" x="118.4" y="4.55" transform="translate(0,618.71)" style="font-family: Arial; font-size: 13px; fill: rgb(0, 0, 0); fill-opacity: 1; white-space: pre;">Bukit Panjang</text></g><g class="ytick"><text text-anchor="end" x="118.4" y="4.55" transform="translate(0,593.81)" style="font-family: Arial; font-size: 13px; fill: rgb(0, 0, 0); fill-opacity: 1; white-space: pre;">Punggol</text></g><g class="ytick"><text text-anchor="end" x="118.4" y="4.55" transform="translate(0,568.9200000000001)" style="font-family: Arial; font-size: 13px; fill: rgb(0, 0, 0); fill-opacity: 1; white-space: pre;">Yishun</text></g><g class="ytick"><text text-anchor="end" x="118.4" y="4.55" transform="translate(0,544.02)" style="font-family: Arial; font-size: 13px; fill: rgb(0, 0, 0); fill-opacity: 1; white-space: pre;">Pasir Ris</text></g><g class="ytick"><text text-anchor="end" x="118.4" y="4.55" transform="translate(0,519.13)" style="font-family: Arial; font-size: 13px; fill: rgb(0, 0, 0); fill-opacity: 1; white-space: pre;">Bukit Batok</text></g><g class="ytick"><text text-anchor="end" x="118.4" y="4.55" transform="translate(0,494.24)" style="font-family: Arial; font-size: 13px; fill: rgb(0, 0, 0); fill-opacity: 1; white-space: pre;">Jurong East</text></g><g class="ytick"><text text-anchor="end" x="118.4" y="4.55" transform="translate(0,469.34)" style="font-family: Arial; font-size: 13px; fill: rgb(0, 0, 0); fill-opacity: 1; white-space: pre;">Hougang</text></g><g class="ytick"><text text-anchor="end" x="118.4" y="4.55" transform="translate(0,444.45)" style="font-family: Arial; font-size: 13px; fill: rgb(0, 0, 0); fill-opacity: 1; white-space: pre;">Tampines</text></g><g class="ytick"><text text-anchor="end" x="118.4" y="4.55" transform="translate(0,419.55)" style="font-family: Arial; font-size: 13px; fill: rgb(0, 0, 0); fill-opacity: 1; white-space: pre;">Bedok</text></g><g class="ytick"><text text-anchor="end" x="118.4" y="4.55" transform="translate(0,394.66)" style="font-family: Arial; font-size: 13px; fill: rgb(0, 0, 0); fill-opacity: 1; white-space: pre;">Ang Mo Kio</text></g><g class="ytick"><text text-anchor="end" x="118.4" y="4.55" transform="translate(0,369.77)" style="font-family: Arial; font-size: 13px; fill: rgb(0, 0, 0); fill-opacity: 1; white-space: pre;">Serangoon</text></g><g class="ytick"><text text-anchor="end" x="118.4" y="4.55" transform="translate(0,344.87)" style="font-family: Arial; font-size: 13px; fill: rgb(0, 0, 0); fill-opacity: 1; white-space: pre;">Geylang</text></g><g class="ytick"><text text-anchor="end" x="118.4" y="4.55" transform="translate(0,319.98)" style="font-family: Arial; font-size: 13px; fill: rgb(0, 0, 0); fill-opacity: 1; white-space: pre;">Clementi</text></g><g class="ytick"><text text-anchor="end" x="118.4" y="4.55" transform="translate(0,295.08000000000004)" style="font-family: Arial; font-size: 13px; fill: rgb(0, 0, 0); fill-opacity: 1; white-space: pre;">Toa Payoh</text></g><g class="ytick"><text text-anchor="end" x="118.4" y="4.55" transform="translate(0,270.19)" style="font-family: Arial; font-size: 13px; fill: rgb(0, 0, 0); fill-opacity: 1; white-space: pre;">Kallang/Whampoa</text></g><g class="ytick"><text text-anchor="end" x="118.4" y="4.55" transform="translate(0,245.3)" style="font-family: Arial; font-size: 13px; fill: rgb(0, 0, 0); fill-opacity: 1; white-space: pre;">Bishan</text></g><g class="ytick"><text text-anchor="end" x="118.4" y="4.55" transform="translate(0,220.4)" style="font-family: Arial; font-size: 13px; fill: rgb(0, 0, 0); fill-opacity: 1; white-space: pre;">Bukit Merah</text></g><g class="ytick"><text text-anchor="end" x="118.4" y="4.55" transform="translate(0,195.51)" style="font-family: Arial; font-size: 13px; fill: rgb(0, 0, 0); fill-opacity: 1; white-space: pre;">Queenstown</text></g><g class="ytick"><text text-anchor="end" x="118.4" y="4.55" transform="translate(0,170.61)" style="font-family: Arial; font-size: 13px; fill: rgb(0, 0, 0); fill-opacity: 1; white-space: pre;">Marine Parade</text></g><g class="ytick"><text text-anchor="end" x="118.4" y="4.55" transform="translate(0,145.72)" style="font-family: Arial; font-size: 13px; fill: rgb(0, 0, 0); fill-opacity: 1; white-space: pre;">Bukit Timah</text></g><g class="ytick"><text text-anchor="end" x="118.4" y="4.55" transform="translate(0,120.83)" style="font-family: Arial; font-size: 13px; fill: rgb(0, 0, 0); fill-opacity: 1; white-space: pre;">Central Area</text></g></g><g class="overaxes-above"/></g></g><g class="polarlayer"/><g class="smithlayer"/><g class="ternarylayer"/><g class="geolayer"/><g class="funnelarealayer"/><g class="pielayer"/><g class="iciclelayer"/><g class="treemaplayer"/><g class="sunburstlayer"/><g class="glimages"/><defs id="topdefs-44aa4f"><g class="clips"/></defs><g class="layer-above"><g class="imagelayer"/><g class="shapelayer"><g class="shape-group" data-index="0" clip-path="url(#clip44aa4fx)"><path data-index="0" fill-rule="evenodd" d="M467.06,784L467.06,80" style="opacity: 1; stroke: rgb(107, 114, 128); stroke-opacity: 1; fill: rgb(0, 0, 0); fill-opacity: 0; stroke-dasharray: 9px, 9px; stroke-width: 1px;"/></g></g></g><g class="infolayer"><g class="g-gtitle"/><g class="g-xtitle"/><g class="g-ytitle"/><g class="annotation" data-index="0" style="opacity: 1;"><g class="annotation-text-g" transform="rotate(0,191.73,743.18)"><g class="cursor-pointer" transform="translate(166,735)"><rect class="bg" x="0.5" y="0.5" width="51" height="16" style="stroke-width: 1px; stroke: rgb(0, 0, 0); stroke-opacity: 0; fill: rgb(0, 0, 0); fill-opacity: 0;"/><text class="annotation-text" text-anchor="middle" x="25.859375" y="12" style="font-family: Arial; font-size: 11px; fill: rgb(0, 0, 0); fill-opacity: 1; white-space: pre;">-29.4%***</text></g></g></g><g class="annotation" data-index="1" style="opacity: 1;"><g class="annotation-text-g" transform="rotate(0,198.02,718.28)"><g class="cursor-pointer" transform="translate(172,710)"><rect class="bg" x="0.5" y="0.5" width="51" height="16" style="stroke-width: 1px; stroke: rgb(0, 0, 0); stroke-opacity: 0; fill: rgb(0, 0, 0); fill-opacity: 0;"/><text class="annotation-text" text-anchor="middle" x="25.859375" y="12" style="font-family: Arial; font-size: 11px; fill: rgb(0, 0, 0); fill-opacity: 1; white-space: pre;">-28.8%***</text></g></g></g><g class="annotation" data-index="2" style="opacity: 1;"><g class="annotation-text-g" transform="rotate(0,207.9,693.39)"><g class="cursor-pointer" transform="translate(182,685)"><rect class="bg" x="0.5" y="0.5" width="51" height="16" style="stroke-width: 1px; stroke: rgb(0, 0, 0); stroke-opacity: 0; fill: rgb(0, 0, 0); fill-opacity: 0;"/><text class="annotation-text" text-anchor="middle" x="25.859375" y="12" style="font-family: Arial; font-size: 11px; fill: rgb(0, 0, 0); fill-opacity: 1; white-space: pre;">-27.8%***</text></g></g></g><g class="annotation" data-index="3" style="opacity: 1;"><g class="annotation-text-g" transform="rotate(0,241.07,668.49)"><g class="cursor-pointer" transform="translate(215,660)"><rect class="bg" x="0.5" y="0.5" width="51" height="16" style="stroke-width: 1px; stroke: rgb(0, 0, 0); stroke-opacity: 0; fill: rgb(0, 0, 0); fill-opacity: 0;"/><text class="annotation-text" text-anchor="middle" x="25.859375" y="12" style="font-family: Arial; font-size: 11px; fill: rgb(0, 0, 0); fill-opacity: 1; white-space: pre;">-24.5%***</text></g></g></g><g class="annotation" data-index="4" style="opacity: 1;"><g class="annotation-text-g" transform="rotate(0,255.82,643.6)"><g class="cursor-pointer" transform="translate(230,635)"><rect class="bg" x="0.5" y="0.5" width="51" height="16" style="stroke-width: 1px; stroke: rgb(0, 0, 0); stroke-opacity: 0; fill: rgb(0, 0, 0); fill-opacity: 0;"/><text class="annotation-text" text-anchor="middle" x="25.859375" y="12" style="font-family: Arial; font-size: 11px; fill: rgb(0, 0, 0); fill-opacity: 1; white-space: pre;">-23.1%***</text></g></g></g><g class="annotation" data-index="5" style="opacity: 1;"><g class="annotation-text-g" transform="rotate(0,262.73,618.71)"><g class="cursor-pointer" transform="translate(237,610)"><rect class="bg" x="0.5" y="0.5" width="51" height="16" style="stroke-width: 1px; stroke: rgb(0, 0, 0); stroke-opacity: 0; fill: rgb(0, 0, 0); fill-opacity: 0;"/><text class="annotation-text" text-anchor="middle" x="25.859375" y="12" style="font-family: Arial; font-size: 11px; fill: rgb(0, 0, 0); fill-opacity: 1; white-space: pre;">-22.4%***</text></g></g></g><g class="annotation" data-index="6" style="opacity: 1;"><g class="annotation-text-g" transform="rotate(0,271.52,593.81)"><g class="cursor-pointer" transform="translate(246,585)"><rect class="bg" x="0.5" y="0.5" width="51" height="16" style="stroke-width: 1px; stroke: rgb(0, 0, 0); stroke-opacity: 0; fill: rgb(0, 0, 0); fill-opacity: 0;"/><text class="annotation-text" text-anchor="middle" x="25.859375" y="12" style="font-family: Arial; font-size: 11px; fill: rgb(0, 0, 0); fill-opacity: 1; white-space: pre;">-21.6%***</text></g></g></g><g class="annotation" data-index="7" style="opacity: 1;"><g class="annotation-text-g" transform="rotate(0,275.88,568.9200000000001)"><g class="cursor-pointer" transform="translate(250,560)"><rect class="bg" x="0.5" y="0.5" width="51" height="16" style="stroke-width: 1px; stroke: rgb(0, 0, 0); stroke-opacity: 0; fill: rgb(0, 0, 0); fill-opacity: 0;"/><text class="annotation-text" text-anchor="middle" x="25.859375" y="12" style="font-family: Arial; font-size: 11px; fill: rgb(0, 0, 0); fill-opacity: 1; white-space: pre;">-21.1%***</text></g></g></g><g class="annotation" data-index="8" style="opacity: 1;"><g class="annotation-text-g" transform="rotate(0,306.75,544.02)"><g class="cursor-pointer" transform="translate(281,536)"><rect class="bg" x="0.5" y="0.5" width="51" height="16" style="stroke-width: 1px; stroke: rgb(0, 0, 0); stroke-opacity: 0; fill: rgb(0, 0, 0); fill-opacity: 0;"/><text class="annotation-text" text-anchor="middle" x="25.859375" y="12" style="font-family: Arial; font-size: 11px; fill: rgb(0, 0, 0); fill-opacity: 1; white-space: pre;">-18.1%***</text></g></g></g><g class="annotation" data-index="9" style="opacity: 1;"><g class="annotation-text-g" transform="rotate(0,308.75,519.13)"><g class="cursor-pointer" transform="translate(283,511)"><rect class="bg" x="0.5" y="0.5" width="51" height="16" style="stroke-width: 1px; stroke: rgb(0, 0, 0); stroke-opacity: 0; fill: rgb(0, 0, 0); fill-opacity: 0;"/><text class="annotation-text" text-anchor="middle" x="25.859375" y="12" style="font-family: Arial; font-size: 11px; fill: rgb(0, 0, 0); fill-opacity: 1; white-space: pre;">-17.9%***</text></g></g></g><g class="annotation" data-index="10" style="opacity: 1;"><g class="annotation-text-g" transform="rotate(0,342.12,494.24)"><g class="cursor-pointer" transform="translate(316,486)"><rect class="bg" x="0.5" y="0.5" width="51" height="16" style="stroke-width: 1px; stroke: rgb(0, 0, 0); stroke-opacity: 0; fill: rgb(0, 0, 0); fill-opacity: 0;"/><text class="annotation-text" text-anchor="middle" x="25.859375" y="12" style="font-family: Arial; font-size: 11px; fill: rgb(0, 0, 0); fill-opacity: 1; white-space: pre;">-14.6%***</text></g></g></g><g class="annotation" data-index="11" style="opacity: 1;"><g class="annotation-text-g" transform="rotate(0,342.78,469.34)"><g class="cursor-pointer" transform="translate(317,461)"><rect class="bg" x="0.5" y="0.5" width="51" height="16" style="stroke-width: 1px; stroke: rgb(0, 0, 0); stroke-opacity: 0; fill: rgb(0, 0, 0); fill-opacity: 0;"/><text class="annotation-text" text-anchor="middle" x="25.859375" y="12" style="font-family: Arial; font-size: 11px; fill: rgb(0, 0, 0); fill-opacity: 1; white-space: pre;">-14.6%***</text></g></g></g><g class="annotation" data-index="12" style="opacity: 1;"><g class="annotation-text-g" transform="rotate(0,394.53,444.45)"><g class="cursor-pointer" transform="translate(372,436)"><rect class="bg" x="0.5" y="0.5" width="45" height="16" style="stroke-width: 1px; stroke: rgb(0, 0, 0); stroke-opacity: 0; fill: rgb(0, 0, 0); fill-opacity: 0;"/><text class="annotation-text" text-anchor="middle" x="22.796875" y="12" style="font-family: Arial; font-size: 11px; fill: rgb(0, 0, 0); fill-opacity: 1; white-space: pre;">-9.5%***</text></g></g></g><g class="annotation" data-index="13" style="opacity: 1;"><g class="annotation-text-g" transform="rotate(0,461.55,419.55)"><g class="cursor-pointer" transform="translate(439,411)"><rect class="bg" x="0.5" y="0.5" width="45" height="16" style="stroke-width: 1px; stroke: rgb(0, 0, 0); stroke-opacity: 0; fill: rgb(0, 0, 0); fill-opacity: 0;"/><text class="annotation-text" text-anchor="middle" x="22.796875" y="12" style="font-family: Arial; font-size: 11px; fill: rgb(0, 0, 0); fill-opacity: 1; white-space: pre;">-2.9%***</text></g></g></g><g class="annotation" data-index="14" style="opacity: 1;"><g class="annotation-text-g" transform="rotate(0,491.06,394.66)"><g class="cursor-pointer" transform="translate(470,386)"><rect class="bg" x="0.5" y="0.5" width="41" height="16" style="stroke-width: 1px; stroke: rgb(0, 0, 0); stroke-opacity: 0; fill: rgb(0, 0, 0); fill-opacity: 0;"/><text class="annotation-text" text-anchor="middle" x="20.96875" y="12" style="font-family: Arial; font-size: 11px; fill: rgb(0, 0, 0); fill-opacity: 1; white-space: pre;">0.0%***</text></g></g></g><g class="annotation" data-index="15" style="opacity: 1;"><g class="annotation-text-g" transform="rotate(0,499.01,369.77)"><g class="cursor-pointer" transform="translate(478,361)"><rect class="bg" x="0.5" y="0.5" width="41" height="16" style="stroke-width: 1px; stroke: rgb(0, 0, 0); stroke-opacity: 0; fill: rgb(0, 0, 0); fill-opacity: 0;"/><text class="annotation-text" text-anchor="middle" x="20.96875" y="12" style="font-family: Arial; font-size: 11px; fill: rgb(0, 0, 0); fill-opacity: 1; white-space: pre;">0.8%***</text></g></g></g><g class="annotation" data-index="16" style="opacity: 1;"><g class="annotation-text-g" transform="rotate(0,559.45,344.87)"><g class="cursor-pointer" transform="translate(538,336)"><rect class="bg" x="0.5" y="0.5" width="41" height="16" style="stroke-width: 1px; stroke: rgb(0, 0, 0); stroke-opacity: 0; fill: rgb(0, 0, 0); fill-opacity: 0;"/><text class="annotation-text" text-anchor="middle" x="20.96875" y="12" style="font-family: Arial; font-size: 11px; fill: rgb(0, 0, 0); fill-opacity: 1; white-space: pre;">6.7%***</text></g></g></g><g class="annotation" data-index="17" style="opacity: 1;"><g class="annotation-text-g" transform="rotate(0,570.49,319.98)"><g class="cursor-pointer" transform="translate(549,311)"><rect class="bg" x="0.5" y="0.5" width="41" height="16" style="stroke-width: 1px; stroke: rgb(0, 0, 0); stroke-opacity: 0; fill: rgb(0, 0, 0); fill-opacity: 0;"/><text class="annotation-text" text-anchor="middle" x="20.96875" y="12" style="font-family: Arial; font-size: 11px; fill: rgb(0, 0, 0); fill-opacity: 1; white-space: pre;">7.8%***</text></g></g></g><g class="annotation" data-index="18" style="opacity: 1;"><g class="annotation-text-g" transform="rotate(0,583.69,295.08000000000004)"><g class="cursor-pointer" transform="translate(563,287)"><rect class="bg" x="0.5" y="0.5" width="41" height="16" style="stroke-width: 1px; stroke: rgb(0, 0, 0); stroke-opacity: 0; fill: rgb(0, 0, 0); fill-opacity: 0;"/><text class="annotation-text" text-anchor="middle" x="20.96875" y="12" style="font-family: Arial; font-size: 11px; fill: rgb(0, 0, 0); fill-opacity: 1; white-space: pre;">9.1%***</text></g></g></g><g class="annotation" data-index="19" style="opacity: 1;"><g class="annotation-text-g" transform="rotate(0,619.12,270.19)"><g class="cursor-pointer" transform="translate(595,262)"><rect class="bg" x="0.5" y="0.5" width="47" height="16" style="stroke-width: 1px; stroke: rgb(0, 0, 0); stroke-opacity: 0; fill: rgb(0, 0, 0); fill-opacity: 0;"/><text class="annotation-text" text-anchor="middle" x="24.03125" y="12" style="font-family: Arial; font-size: 11px; fill: rgb(0, 0, 0); fill-opacity: 1; white-space: pre;">12.6%***</text></g></g></g><g class="annotation" data-index="20" style="opacity: 1;"><g class="annotation-text-g" transform="rotate(0,666.58,245.3)"><g class="cursor-pointer" transform="translate(643,237)"><rect class="bg" x="0.5" y="0.5" width="47" height="16" style="stroke-width: 1px; stroke: rgb(0, 0, 0); stroke-opacity: 0; fill: rgb(0, 0, 0); fill-opacity: 0;"/><text class="annotation-text" text-anchor="middle" x="24.03125" y="12" style="font-family: Arial; font-size: 11px; fill: rgb(0, 0, 0); fill-opacity: 1; white-space: pre;">17.2%***</text></g></g></g><g class="annotation" data-index="21" style="opacity: 1;"><g class="annotation-text-g" transform="rotate(0,686.87,220.4)"><g class="cursor-pointer" transform="translate(663,212)"><rect class="bg" x="0.5" y="0.5" width="47" height="16" style="stroke-width: 1px; stroke: rgb(0, 0, 0); stroke-opacity: 0; fill: rgb(0, 0, 0); fill-opacity: 0;"/><text class="annotation-text" text-anchor="middle" x="24.03125" y="12" style="font-family: Arial; font-size: 11px; fill: rgb(0, 0, 0); fill-opacity: 1; white-space: pre;">19.2%***</text></g></g></g><g class="annotation" data-index="22" style="opacity: 1;"><g class="annotation-text-g" transform="rotate(0,729.09,195.51)"><g class="cursor-pointer" transform="translate(705,187)"><rect class="bg" x="0.5" y="0.5" width="47" height="16" style="stroke-width: 1px; stroke: rgb(0, 0, 0); stroke-opacity: 0; fill: rgb(0, 0, 0); fill-opacity: 0;"/><text class="annotation-text" text-anchor="middle" x="24.03125" y="12" style="font-family: Arial; font-size: 11px; fill: rgb(0, 0, 0); fill-opacity: 1; white-space: pre;">23.4%***</text></g></g></g><g class="annotation" data-index="23" style="opacity: 1;"><g class="annotation-text-g" transform="rotate(0,810.35,170.61)"><g class="cursor-pointer" transform="translate(786,162)"><rect class="bg" x="0.5" y="0.5" width="47" height="16" style="stroke-width: 1px; stroke: rgb(0, 0, 0); stroke-opacity: 0; fill: rgb(0, 0, 0); fill-opacity: 0;"/><text class="annotation-text" text-anchor="middle" x="24.03125" y="12" style="font-family: Arial; font-size: 11px; fill: rgb(0, 0, 0); fill-opacity: 1; white-space: pre;">31.3%***</text></g></g></g><g class="annotation" data-index="24" style="opacity: 1;"><g class="annotation-text-g" transform="rotate(0,843.11,145.72)"><g class="cursor-pointer" transform="translate(819,137)"><rect class="bg" x="0.5" y="0.5" width="47" height="16" style="stroke-width: 1px; stroke: rgb(0, 0, 0); stroke-opacity: 0; fill: rgb(0, 0, 0); fill-opacity: 0;"/><text class="annotation-text" text-anchor="middle" x="24.03125" y="12" style="font-family: Arial; font-size: 11px; fill: rgb(0, 0, 0); fill-opacity: 1; white-space: pre;">34.6%***</text></g></g></g><g class="annotation" data-index="25" style="opacity: 1;"><g class="annotation-text-g" transform="rotate(0,894.18,120.83)"><g class="cursor-pointer" transform="translate(870,112)"><rect class="bg" x="0.5" y="0.5" width="47" height="16" style="stroke-width: 1px; stroke: rgb(0, 0, 0); stroke-opacity: 0; fill: rgb(0, 0, 0); fill-opacity: 0;"/><text class="annotation-text" text-anchor="middle" x="24.03125" y="12" style="font-family: Arial; font-size: 11px; fill: rgb(0, 0, 0); fill-opacity: 1; white-space: pre;">39.6%***</text></g></g></g></g></svg>