<svg class="main-svg" xmlns="http://www.w3.org/2000/svg" xmlns:xlink="http://www.w3.org/1999/xlink" width="1080" height="720" style="" viewBox="0 0 1080 720"><rect x="0" y="0" width="1080" height="720" style="fill: rgb(0, 0, 0); fill-opacity: 0;"/><defs id="defs-8d6d37"><g class="clips"><clipPath id="clip8d6d37xyplot" class="plotclip"><rect width="972" height="568"/></clipPath><clipPath class="axesclip" id="clip8d6d37x"><rect x="72" y="0" width="972" height="720"/></clipPath><clipPath class="axesclip" id="clip8d6d37y"><rect x="0" y="80" width="1080" height="568"/></clipPath><clipPath class="axesclip" id="clip8d6d37xy"><rect x="72" y="80" width="972" height="568"/></clipPath></g><g class="gradients"/><g class="patterns"/></defs><g class="bglayer"><rect class="bg" x="72" y="80" width="972" height="568" style="fill: rgb(0, 0, 0); fill-opacity: 0; stroke-width: 0;"/></g><g class="layer-below"><g class="imagelayer"/><g class="shapelayer"/></g><g class="cartesianlayer"><g class="subplot xy"><g class="layer-subplot"><g class="shapelayer"/><g class="imagelayer"/></g><g class="minor-gridlayer"><g class="x"/><g class="y"/></g><g class="gridlayer"><g class="x"/><g class="y"/></g><g class="zerolinelayer"/><g class="layer-between"><g class="shapelayer"/><g class="imagelayer"/></g><path class="xlines-below"/><path class="ylines-below"/><g class="overlines-below"/><g class="xaxislayer-below"/><g class="yaxislayer-below"/><g class="overaxes-below"/><g class="overplot"><g class="xy" transform="translate(72,80)" clip-path="url(#clip8d6d37xyplot)"><g class="scatterlayer mlayer"><g class="trace scatter tracef79f34" style="stroke-miterlimit: 2; opacity: 1;"><g class="fills"/><g class="errorbars"/><g class="lines"/><g class="points"><path class="point" transform="translate(122.54,524.6)" d="M12,0A12,12 0 1,1 0,-12A12,12 0 0,1 12,0Z" style="opacity: 0.7; stroke-width: 1px; fill: rgb(127, 147, 166); fill-opacity: 0.38; stroke: rgb(127, 147, 166); stroke-opacity: 1;"/><path class="point" transform="translate(240.42,500.2)" d="M12,0A12,12 0 1,1 0,-12A12,12 0 0,1 12,0Z" style="opacity: 0.7; stroke-width: 1px; fill: rgb(127, 147, 166); fill-opacity: 0.38; stroke: rgb(127, 147, 166); stroke-opacity: 1;"/><path class="point" transform="translate(574.41,154.55)" d="M12,0A12,12 0 1,1 0,-12A12,12 0 0,1 12,0Z" style="opacity: 0.7; stroke-width: 1px; fill: rgb(127, 147, 166); fill-opacity: 0.38; stroke: rgb(127, 147, 166); stroke-opacity: 1;"/><path class="point" transform="translate(338.65,429.72)" d="M12,0A12,12 0 1,1 0,-12A12,12 0 0,1 12,0Z" style="opacity: 0.7; stroke-width: 1px; fill: rgb(127, 147, 166); fill-opacity: 0.38; stroke: rgb(127, 147, 166); stroke-opacity: 1;"/><path class="point" transform="translate(279.71,191.15)" d="M12,0A12,12 0 1,1 0,-12A12,12 0 0,1 12,0Z" style="opacity: 0.7; stroke-width: 1px; fill: rgb(127, 147, 166); fill-opacity: 0.38; stroke: rgb(127, 147, 166); stroke-opacity: 1;"/><path class="point" transform="translate(515.47,431.07)" d="M12,0A12,12 0 1,1 0,-12A12,12 0 0,1 12,0Z" style="opacity: 0.7; stroke-width: 1px; fill: rgb(127, 147, 166); fill-opacity: 0.38; stroke: rgb(127, 147, 166); stroke-opacity: 1;"/><path class="point" transform="translate(554.76,43.4)" d="M12,0A12,12 0 1,1 0,-12A12,12 0 0,1 12,0Z" style="opacity: 0.7; stroke-width: 1px; fill: rgb(127, 147, 166); fill-opacity: 0.38; stroke: rgb(127, 147, 166); stroke-opacity: 1;"/><path class="point" transform="translate(122.54,323.99)" d="M12,0A12,12 0 1,1 0,-12A12,12 0 0,1 12,0Z" style="opacity: 0.7; stroke-width: 1px; fill: rgb(127, 147, 166); fill-opacity: 0.38; stroke: rgb(127, 147, 166); stroke-opacity: 1;"/><path class="point" transform="translate(594.06,416.16)" d="M12,0A12,12 0 1,1 0,-12A12,12 0 0,1 12,0Z" style="opacity: 0.7; stroke-width: 1px; fill: rgb(127, 147, 166); fill-opacity: 0.38; stroke: rgb(127, 147, 166); stroke-opacity: 1;"/><path class="point" transform="translate(122.54,416.16)" d="M12,0A12,12 0 1,1 0,-12A12,12 0 0,1 12,0Z" style="opacity: 0.7; stroke-width: 1px; fill: rgb(127, 147, 166); fill-opacity: 0.38; stroke: rgb(127, 147, 166); stroke-opacity: 1;"/><path class="point" transform="translate(161.83,459.54)" d="M12,0A12,12 0 1,1 0,-12A12,12 0 0,1 12,0Z" style="opacity: 0.7; stroke-width: 1px; fill: rgb(127, 147, 166); fill-opacity: 0.38; stroke: rgb(127, 147, 166); stroke-opacity: 1;"/><path class="point" transform="translate(456.53,409.38)" d="M12,0A12,12 0 1,1 0,-12A12,12 0 0,1 12,0Z" style="opacity: 0.7; stroke-width: 1px; fill: rgb(127, 147, 166); fill-opacity: 0.38; stroke: rgb(127, 147, 166); stroke-opacity: 1;"/><path class="point" transform="translate(358.3,483.94)" d="M12,0A12,12 0 1,1 0,-12A12,12 0 0,1 12,0Z" style="opacity: 0.7; stroke-width: 1px; fill: rgb(127, 147, 166); fill-opacity: 0.38; stroke: rgb(127, 147, 166); stroke-opacity: 1;"/><path class="point" transform="translate(554.76,459.54)" d="M12,0A12,12 0 1,1 0,-12A12,12 0 0,1 12,0Z" style="opacity: 0.7; stroke-width: 1px; fill: rgb(127, 147, 166); fill-opacity: 0.38; stroke: rgb(127, 147, 166); stroke-opacity: 1;"/><path class="point" transform="translate(260.07,307.72)" d="M12,0A12,12 0 1,1 0,-12A12,12 0 0,1 12,0Z" style="opacity: 0.7; stroke-width: 1px; fill: rgb(127, 147, 166); fill-opacity: 0.38; stroke: rgb(127, 147, 166); stroke-opacity: 1;"/><path class="point" transform="translate(63.6,429.11)" d="M12,0A12,12 0 1,1 0,-12A12,12 0 0,1 12,0Z" style="opacity: 0.7; stroke-width: 1px; fill: rgb(127, 147, 166); fill-opacity: 0.38; stroke: rgb(127, 147, 166); stroke-opacity: 1;"/><path class="point" transform="translate(908.4,303.65)" d="M12,0A12,12 0 1,1 0,-12A12,12 0 0,1 12,0Z" style="opacity: 0.7; stroke-width: 1px; fill: rgb(127, 147, 166); fill-opacity: 0.38; stroke: rgb(127, 147, 166); stroke-opacity: 1;"/><path class="point" transform="translate(338.65,361.94)" d="M12,0A12,12 0 1,1 0,-12A12,12 0 0,1 12,0Z" style="opacity: 0.7; stroke-width: 1px; fill: rgb(127, 147, 166); fill-opacity: 0.38; stroke: rgb(127, 147, 166); stroke-opacity: 1;"/><path class="point" transform="translate(142.19,181.66)" d="M12,0A12,12 0 1,1 0,-12A12,12 0 0,1 12,0Z" style="opacity: 0.7; stroke-width: 1px; fill: rgb(127, 147, 166); fill-opacity: 0.38; stroke: rgb(127, 147, 166); stroke-opacity: 1;"/><path class="point" transform="translate(358.3,401.4)" d="M12,0A12,12 0 1,1 0,-12A12,12 0 0,1 12,0Z" style="opacity: 0.7; stroke-width: 1px; fill: rgb(127, 147, 166); fill-opacity: 0.38; stroke: rgb(127, 147, 166); stroke-opacity: 1;"/><path class="point" transform="translate(358.3,375.5)" d="M12,0A12,12 0 1,1 0,-12A12,12 0 0,1 12,0Z" style="opacity: 0.7; stroke-width: 1px; fill: rgb(127, 147, 166); fill-opacity: 0.38; stroke: rgb(127, 147, 166); stroke-opacity: 1;"/><path class="point" transform="translate(476.18,361.94)" d="M12,0A12,12 0 1,1 0,-12A12,12 0 0,1 12,0Z" style="opacity: 0.7; stroke-width: 1px; fill: rgb(127, 147, 166); fill-opacity: 0.38; stroke: rgb(127, 147, 166); stroke-opacity: 1;"/><path class="point" transform="translate(554.76,348.39)" d="M12,0A12,12 0 1,1 0,-12A12,12 0 0,1 12,0Z" style="opacity: 0.7; stroke-width: 1px; fill: rgb(127, 147, 166); fill-opacity: 0.38; stroke: rgb(127, 147, 166); stroke-opacity: 1;"/><path class="point" transform="translate(122.54,409.38)" d="M12,0A12,12 0 1,1 0,-12A12,12 0 0,1 12,0Z" style="opacity: 0.7; stroke-width: 1px; fill: rgb(127, 147, 166); fill-opacity: 0.38; stroke: rgb(127, 147, 166); stroke-opacity: 1;"/><path class="point" transform="translate(515.47,450.05)" d="M12,0A12,12 0 1,1 0,-12A12,12 0 0,1 12,0Z" style="opacity: 0.7; stroke-width: 1px; fill: rgb(127, 147, 166); fill-opacity: 0.38; stroke: rgb(127, 147, 166); stroke-opacity: 1;"/></g><g class="text"><g class="textpoint" transform="translate(0,-19.25)"><text x="122.54" y="524.6" text-anchor="middle" style="font-family: Arial; font-size: 13px; fill: rgb(0, 0, 0); fill-opacity: 1; white-space: pre;">Ang Mo Kio</text></g><g class="textpoint" transform="translate(0,-19.25)"><text x="240.42" y="500.2" text-anchor="middle" style="font-family: Arial; font-size: 13px; fill: rgb(0, 0, 0); fill-opacity: 1; white-space: pre;">Bedok</text></g><g class="textpoint" transform="translate(0,-19.25)"><text x="574.41" y="154.55" text-anchor="middle" style="font-family: Arial; font-size: 13px; fill: rgb(0, 0, 0); fill-opacity: 1; white-space: pre;">Bishan</text></g><g class="textpoint" transform="translate(0,-19.25)"><text x="338.65" y="429.72" text-anchor="middle" style="font-family: Arial; font-size: 13px; fill: rgb(0, 0, 0); fill-opacity: 1; white-space: pre;">Bukit Batok</text></g><g class="textpoint" transform="translate(0,-19.25)"><text x="279.71" y="191.15" text-anchor="middle" style="font-family: Arial; font-size: 13px; fill: rgb(0, 0, 0); fill-opacity: 1; white-space: pre;">Bukit Merah</text></g><g class="textpoint" transform="translate(0,-19.25)"><text x="515.47" y="431.07" text-anchor="middle" style="font-family: Arial; font-size: 13px; fill: rgb(0, 0, 0); fill-opacity: 1; white-space: pre;">Bukit Panjang</text></g><g class="textpoint" transform="translate(0,-19.25)"><text x="554.76" y="43.4" text-anchor="middle" style="font-family: Arial; font-size: 13px; fill: rgb(0, 0, 0); fill-opacity: 1; white-space: pre;">Bukit Timah</text></g><g class="textpoint" transform="translate(0,-19.25)"><text x="122.54" y="323.99" text-anchor="middle" style="font-family: Arial; font-size: 13px; fill: rgb(0, 0, 0); fill-opacity: 1; white-space: pre;">Central Area</text></g><g class="textpoint" transform="translate(0,-19.25)"><text x="594.06" y="416.16" text-anchor="middle" style="font-family: Arial; font-size: 13px; fill: rgb(0, 0, 0); fill-opacity: 1; white-space: pre;">Choa Chu Kang</text></g><g class="textpoint" transform="translate(0,-19.25)"><text x="122.54" y="416.16" text-anchor="middle" style="font-family: Arial; font-size: 13px; fill: rgb(0, 0, 0); fill-opacity: 1; white-space: pre;">Clementi</text></g><g class="textpoint" transform="translate(0,-19.25)"><text x="161.83" y="459.54" text-anchor="middle" style="font-family: Arial; font-size: 13px; fill: rgb(0, 0, 0); fill-opacity: 1; white-space: pre;">Geylang</text></g><g class="textpoint" transform="translate(0,-19.25)"><text x="456.53" y="409.38" text-anchor="middle" style="font-family: Arial; font-size: 13px; fill: rgb(0, 0, 0); fill-opacity: 1; white-space: pre;">Hougang</text></g><g class="textpoint" transform="translate(0,-19.25)"><text x="358.3" y="483.94" text-anchor="middle" style="font-family: Arial; font-size: 13px; fill: rgb(0, 0, 0); fill-opacity: 1; white-space: pre;">Jurong East</text></g><g class="textpoint" transform="translate(0,-19.25)"><text x="554.76" y="459.54" text-anchor="middle" style="font-family: Arial; font-size: 13px; fill: rgb(0, 0, 0); fill-opacity: 1; white-space: pre;">Jurong West</text></g><g class="textpoint" transform="translate(0,-19.25)"><text x="260.07" y="307.72" text-anchor="middle" style="font-family: Arial; font-size: 13px; fill: rgb(0, 0, 0); fill-opacity: 1; white-space: pre;">Kallang/Whampoa</text></g><g class="textpoint" transform="translate(0,-19.25)"><text x="63.6" y="429.11" text-anchor="middle" style="font-family: Arial; font-size: 13px; fill: rgb(0, 0, 0); fill-opacity: 1; white-space: pre;">Marine Parade</text></g><g class="textpoint" transform="translate(0,-19.25)"><text x="908.4" y="303.65" text-anchor="middle" style="font-family: Arial; font-size: 13px; fill: rgb(0, 0, 0); fill-opacity: 1; white-space: pre;">Pasir Ris</text></g><g class="textpoint" transform="translate(0,-19.25)"><text x="338.65" y="361.94" text-anchor="middle" style="font-family: Arial; font-size: 13px; fill: rgb(0, 0, 0); fill-opacity: 1; white-space: pre;">Punggol</text></g><g class="textpoint" transform="translate(0,-19.25)"><text x="142.19" y="181.66" text-anchor="middle" style="font-family: Arial; font-size: 13px; fill: rgb(0, 0, 0); fill-opacity: 1; white-space: pre;">Queenstown</text></g><g class="textpoint" transform="translate(0,-19.25)"><text x="358.3" y="401.4" text-anchor="middle" style="font-family: Arial; font-size: 13px; fill: rgb(0, 0, 0); fill-opacity: 1; white-space: pre;">Sembawang</text></g><g class="textpoint" transform="translate(0,-19.25)"><text x="358.3" y="375.5" text-anchor="middle" style="font-family: Arial; font-size: 13px; fill: rgb(0, 0, 0); fill-opacity: 1; white-space: pre;">Sengkang</text></g><g class="textpoint" transform="translate(0,-19.25)"><text x="476.18" y="361.94" text-anchor="middle" style="font-family: Arial; font-size: 13px; fill: rgb(0, 0, 0); fill-opacity: 1; white-space: pre;">Serangoon</text></g><g class="textpoint" transform="translate(0,-19.25)"><text x="554.76" y="348.39" text-anchor="middle" style="font-family: Arial; font-size: 13px; fill: rgb(0, 0, 0); fill-opacity: 1; white-space: pre;">Tampines</text></g><g class="textpoint" transform="translate(0,-19.25)"><text x="122.54" y="409.38" text-anchor="middle" style="font-family: Arial; font-size: 13px; fill: rgb(0, 0, 0); fill-opacity: 1; white-space: pre;">Toa Payoh</text></g><g class="textpoint" transform="translate(0,-19.25)"><text x="515.47" y="450.05" text-anchor="middle" style="font-family: Arial; font-size: 13px; fill: rgb(0, 0, 0); fill-opacity: 1; white-space: pre;">Woodlands</text></g></g></g><g class="trace scatter trace12bb5c" style="stroke-miterlimit: 2; opacity: 1;"><g class="fills"/><g class="errorbars"/><g class="lines"/><g class="points"><path class="point" transform="translate(319,497.49)" d="M14,0A14,14 0 1,1 0,-14A14,14 0 0,1 14,0Z" style="opacity: 0.7; stroke-width: 1.2px; fill: rgb(207, 134, 75); fill-opacity: 0.48; stroke: rgb(207, 134, 75); stroke-opacity: 1;"/></g><g class="text"><g class="textpoint" transform="translate(0,-21.75)"><text x="319" y="497.49" text-anchor="middle" style="font-family: Arial; font-size: 13px; fill: rgb(0, 0, 0); fill-opacity: 1; white-space: pre;">Yishun</text></g></g></g></g></g></g><g class="zerolinelayer-above"/><path class="xlines-above crisp" d="M71,648.5H1044" style="fill: none; stroke-width: 1px; stroke: rgb(0, 0, 0); stroke-opacity: 1;"/><path class="ylines-above crisp" d="M71.5,80V648" style="fill: none; stroke-width: 1px; stroke: rgb(0, 0, 0); stroke-opacity: 1;"/><g class="overlines-above"/><g class="xaxislayer-above"><g class="xtick"><text text-anchor="middle" x="0" y="664.6" transform="translate(155.25,0)" style="font-family: Arial; font-size: 13px; fill: rgb(0, 0, 0); fill-opacity: 1; white-space: pre;">80</text></g><g class="xtick"><text text-anchor="middle" x="0" y="664.6" style="font-family: Arial; font-size: 13px; fill: rgb(0, 0, 0); fill-opacity: 1; white-space: pre;" transform="translate(253.48,0)">85</text></g><g class="xtick"><text text-anchor="middle" x="0" y="664.6" style="font-family: Arial; font-size: 13px; fill: rgb(0, 0, 0); fill-opacity: 1; white-space: pre;" transform="translate(351.71,0)">90</text></g><g class="xtick"><text text-anchor="middle" x="0" y="664.6" style="font-family: Arial; font-size: 13px; fill: rgb(0, 0, 0); fill-opacity: 1; white-space: pre;" transform="translate(449.94,0)">95</text></g><g class="xtick"><text text-anchor="middle" x="0" y="664.6" style="font-family: Arial; font-size: 13px; fill: rgb(0, 0, 0); fill-opacity: 1; white-space: pre;" transform="translate(548.1800000000001,0)">100</text></g><g class="xtick"><text text-anchor="middle" x="0" y="664.6" style="font-family: Arial; font-size: 13px; fill: rgb(0, 0, 0); fill-opacity: 1; white-space: pre;" transform="translate(646.41,0)">105</text></g><g class="xtick"><text text-anchor="middle" x="0" y="664.6" style="font-family: Arial; font-size: 13px; fill: rgb(0, 0, 0); fill-opacity: 1; white-space: pre;" transform="translate(744.64,0)">110</text></g><g class="xtick"><text text-anchor="middle" x="0" y="664.6" style="font-family: Arial; font-size: 13px; fill: rgb(0, 0, 0); fill-opacity: 1; white-space: pre;" transform="translate(842.87,0)">115</text></g><g class="xtick"><text text-anchor="middle" x="0" y="664.6" style="font-family: Arial; font-size: 13px; fill: rgb(0, 0, 0); fill-opacity: 1; white-space: pre;" transform="translate(941.11,0)">120</text></g><g class="xtick"><text text-anchor="middle" x="0" y="664.6" style="font-family: Arial; font-size: 13px; fill: rgb(0, 0, 0); fill-opacity: 1; white-space: pre;" transform="translate(1039.3400000000001,0)">125</text></g></g><g class="yaxislayer-above"><g class="ytick"><text text-anchor="end" x="68.4" y="4.55" transform="translate(0,631.71)" style="font-family: Arial; font-size: 13px; fill: rgb(0, 0, 0); fill-opacity: 1; white-space: pre;">400k</text></g><g class="ytick"><text text-anchor="end" x="68.4" y="4.55" style="font-family: Arial; font-size: 13px; fill: rgb(0, 0, 0); fill-opacity: 1; white-space: pre;" transform="translate(0,563.94)">450k</text></g><g class="ytick"><text text-anchor="end" x="68.4" y="4.55" style="font-family: Arial; font-size: 13px; fill: rgb(0, 0, 0); fill-opacity: 1; white-space: pre;" transform="translate(0,496.16)">500k</text></g><g class="ytick"><text text-anchor="end" x="68.4" y="4.55" style="font-family: Arial; font-size: 13px; fill: rgb(0, 0, 0); fill-opacity: 1; white-space: pre;" transform="translate(0,428.39)">550k</text></g><g class="ytick"><text text-anchor="end" x="68.4" y="4.55" style="font-family: Arial; font-size: 13px; fill: rgb(0, 0, 0); fill-opacity: 1; white-space: pre;" transform="translate(0,360.61)">600k</text></g><g class="ytick"><text text-anchor="end" x="68.4" y="4.55" style="font-family: Arial; font-size: 13px; fill: rgb(0, 0, 0); fill-opacity: 1; white-space: pre;" transform="translate(0,292.84000000000003)">650k</text></g><g class="ytick"><text text-anchor="end" x="68.4" y="4.55" style="font-family: Arial; font-size: 13px; fill: rgb(0, 0, 0); fill-opacity: 1; white-space: pre;" transform="translate(0,225.06)">700k</text></g><g class="ytick"><text text-anchor="end" x="68.4" y="4.55" style="font-family: Arial; font-size: 13px; fill: rgb(0, 0, 0); fill-opacity: 1; white-space: pre;" transform="translate(0,157.29000000000002)">750k</text></g><g class="ytick"><text text-anchor="end" x="68.4" y="4.55" style="font-family: Arial; font-size: 13px; fill: rgb(0, 0, 0); fill-opacity: 1; white-space: pre;" transform="translate(0,89.51)">800k</text></g></g><g class="overaxes-above"/></g></g><g class="polarlayer"/><g class="smithlayer"/><g class="ternarylayer"/><g class="geolayer"/><g class="funnelarealayer"/><g class="pielayer"/><g class="iciclelayer"/><g class="treemaplayer"/><g class="sunburstlayer"/><g class="glimages"/><defs id="topdefs-8d6d37"><g class="clips"/><clipPath id="legend8d6d37"><rect width="191" height="29" x="0" y="0"/></clipPath></defs><g class="layer-above"><g class="imagelayer"/><g class="shapelayer"/></g><g class="infolayer"><g class="legend" pointer-events="all" transform="translate(853,39.639999999999986)"><rect class="bg" shape-rendering="crispEdges" style="stroke: rgb(0, 0, 0); stroke-opacity: 0; fill: rgb(0, 0, 0); fill-opacity: 0; stroke-width: 0px;" width="191" height="29" x="0" y="0"/><g class="scrollbox" transform="" clip-path="url(#legend8d6d37)"><g class="groups"><g class="traces" transform="translate(0,14.5)" style="opacity: 1;"><text class="legendtext" text-anchor="start" x="40" y="4.680000000000001" style="font-family: Arial; font-size: 12px; fill: rgb(0, 0, 0); fill-opacity: 1; white-space: pre;">Other towns</text><g class="layers" style="opacity: 1;"><g class="legendfill"/><g class="legendlines"/><g class="legendsymbols"><g class="legendpoints"><path class="scatterpts" transform="translate(20,0)" d="M8,0A8,8 0 1,1 0,-8A8,8 0 0,1 8,0Z" style="opacity: 0.7; stroke-width: 1px; fill: rgb(127, 147, 166); fill-opacity: 0.38; stroke: rgb(127, 147, 166); stroke-opacity: 1;"/></g></g></g><rect class="legendtoggle" x="0" y="-9.5" width="107.203125" height="19" style="fill: rgb(0, 0, 0); fill-opacity: 0;"/></g><g class="traces" transform="translate(109.703125,14.5)" style="opacity: 1;"><text class="legendtext" text-anchor="start" x="40" y="4.680000000000001" style="font-family: Arial; font-size: 12px; fill: rgb(0, 0, 0); fill-opacity: 1; white-space: pre;">Yishun</text><g class="layers" style="opacity: 1;"><g class="legendfill"/><g class="legendlines"/><g class="legendsymbols"><g class="legendpoints"><path class="scatterpts" transform="translate(20,0)" d="M8,0A8,8 0 1,1 0,-8A8,8 0 0,1 8,0Z" style="opacity: 0.7; stroke-width: 1.2px; fill: rgb(207, 134, 75); fill-opacity: 0.48; stroke: rgb(207, 134, 75); stroke-opacity: 1;"/></g></g></g><rect class="legendtoggle" x="0" y="-9.5" width="78.75" height="19" style="fill: rgb(0, 0, 0); fill-opacity: 0;"/></g></g></g><rect class="scrollbar" rx="20" ry="3" width="0" height="0" style="fill: rgb(128, 139, 164); fill-opacity: 1;" x="0" y="0"/></g><g class="g-gtitle"/><g class="g-xtitle"/><g class="g-ytitle"/></g></svg>