<svg class="main-svg" xmlns="http://www.w3.org/2000/svg" xmlns:xlink="http://www.w3.org/1999/xlink" width="960" height="640" style="" viewBox="0 0 960 640"><rect x="0" y="0" width="960" height="640" style="fill: rgb(0, 0, 0); fill-opacity: 0;"/><defs id="defs-3d96cd"><g class="clips"><clipPath id="clip3d96cdxyplot" class="plotclip"><rect width="812" height="488"/></clipPath><clipPath class="axesclip" id="clip3d96cdx"><rect x="112" y="0" width="812" height="640"/></clipPath><clipPath class="axesclip" id="clip3d96cdy"><rect x="0" y="80" width="960" height="488"/></clipPath><clipPath class="axesclip" id="clip3d96cdxy"><rect x="112" y="80" width="812" height="488"/></clipPath></g><g class="gradients"/><g class="patterns"/></defs><g class="bglayer"><rect class="bg" x="112" y="80" width="812" height="488" style="fill: rgb(0, 0, 0); fill-opacity: 0; stroke-width: 0;"/></g><g class="layer-below"><g class="imagelayer"/><g class="shapelayer"/></g><g class="cartesianlayer"><g class="subplot xy"><g class="layer-subplot"><g class="shapelayer"/><g class="imagelayer"/></g><g class="minor-gridlayer"><g class="x"/><g class="y"/></g><g class="gridlayer"><g class="x"/><g class="y"/></g><g class="zerolinelayer"><path class="xzl zl crisp" transform="translate(487.82,0)" d="M0,80v488" style="stroke: rgb(0, 0, 0); stroke-opacity: 1; stroke-width: 2px;"/></g><g class="layer-between"><g class="shapelayer"/><g class="imagelayer"/></g><path class="xlines-below"/><path class="ylines-below"/><g class="overlines-below"/><g class="xaxislayer-below"/><g class="yaxislayer-below"/><g class="overaxes-below"/><g class="overplot"><g class="xy" transform="translate(112,80)" clip-path="url(#clip3d96cdxyplot)"><g class="scatterlayer mlayer"><g class="trace scatter trace99ae1d" style="stroke-miterlimit: 2; opacity: 1;"><g class="fills"/><g class="errorbars"><g class="errorbar" style="opacity: 1;"><path class="xerror" d="M50.16,453.98v8m0,-4H42.3m0,-4v8" style="vector-effect: none; stroke-width: 1.8px; stroke: rgb(207, 134, 75); stroke-opacity: 1;"/></g></g><g class="lines"/><g class="points"><path class="point" transform="translate(46.23,457.98)" d="M4.5,0A4.5,4.5 0 1,1 0,-4.5A4.5,4.5 0 0,1 4.5,0Z" style="opacity: 1; stroke-width: 1.4px; fill: rgb(207, 134, 75); fill-opacity: 0.42; stroke: rgb(207, 134, 75); stroke-opacity: 1;"/></g><g class="text"/></g><g class="trace scatter trace85b665" style="stroke-miterlimit: 2; opacity: 1;"><g class="fills"/><g class="errorbars"><g class="errorbar" style="opacity: 1;"><path class="xerror" d="M358.02,392.84v8m0,-4H357.88m0,-4v8" style="vector-effect: none; stroke-width: 1.8px; stroke: rgb(123, 143, 121); stroke-opacity: 1;"/></g></g><g class="lines"/><g class="points"><path class="point" transform="translate(357.95,396.84)" d="M4.5,0A4.5,4.5 0 1,1 0,-4.5A4.5,4.5 0 0,1 4.5,0Z" style="opacity: 1; stroke-width: 1.4px; fill: rgb(123, 143, 121); fill-opacity: 0.42; stroke: rgb(123, 143, 121); stroke-opacity: 1;"/></g><g class="text"/></g><g class="trace scatter traceeb2872" style="stroke-miterlimit: 2; opacity: 1;"><g class="fills"/><g class="errorbars"><g class="errorbar" style="opacity: 1;"><path class="xerror" d="M367.04,331.7v8m0,-4H363.18m0,-4v8" style="vector-effect: none; stroke-width: 1.8px; stroke: rgb(127, 147, 166); stroke-opacity: 1;"/></g></g><g class="lines"/><g class="points"><path class="point" transform="translate(365.11,335.7)" d="M4.5,0A4.5,4.5 0 1,1 0,-4.5A4.5,4.5 0 0,1 4.5,0Z" style="opacity: 1; stroke-width: 1.4px; fill: rgb(127, 147, 166); fill-opacity: 0.42; stroke: rgb(127, 147, 166); stroke-opacity: 1;"/></g><g class="text"/></g><g class="trace scatter trace845366" style="stroke-miterlimit: 2; opacity: 1;"><g class="fills"/><g class="errorbars"><g class="errorbar" style="opacity: 1;"><path class="xerror" d="M434.42,270.57v8m0,-4H430.13m0,-4v8" style="vector-effect: none; stroke-width: 1.8px; stroke: rgb(127, 147, 166); stroke-opacity: 1;"/></g></g><g class="lines"/><g class="points"><path class="point" transform="translate(432.28,274.57)" d="M4.5,0A4.5,4.5 0 1,1 0,-4.5A4.5,4.5 0 0,1 4.5,0Z" style="opacity: 1; stroke-width: 1.4px; fill: rgb(127, 147, 166); fill-opacity: 0.42; stroke: rgb(127, 147, 166); stroke-opacity: 1;"/></g><g class="text"/></g><g class="trace scatter trace1ad5fd" style="stroke-miterlimit: 2; opacity: 1;"><g class="fills"/><g class="errorbars"><g class="errorbar" style="opacity: 1;"><path class="xerror" d="M474.38,209.43v8m0,-4H468.23m0,-4v8" style="vector-effect: none; stroke-width: 1.8px; stroke: rgb(127, 147, 166); stroke-opacity: 1;"/></g></g><g class="lines"/><g class="points"><path class="point" transform="translate(471.3,213.43)" d="M4.5,0A4.5,4.5 0 1,1 0,-4.5A4.5,4.5 0 0,1 4.5,0Z" style="opacity: 1; stroke-width: 1.4px; fill: rgb(127, 147, 166); fill-opacity: 0.42; stroke: rgb(127, 147, 166); stroke-opacity: 1;"/></g><g class="text"/></g><g class="trace scatter tracefbcd36" style="stroke-miterlimit: 2; opacity: 1;"><g class="fills"/><g class="errorbars"><g class="errorbar" style="opacity: 1;"><path class="xerror" d="M520.33,148.3v8m0,-4H508.84m0,-4v8" style="vector-effect: none; stroke-width: 1.8px; stroke: rgb(127, 147, 166); stroke-opacity: 1;"/></g></g><g class="lines"/><g class="points"><path class="point" transform="translate(514.57,152.3)" d="M4.5,0A4.5,4.5 0 1,1 0,-4.5A4.5,4.5 0 0,1 4.5,0Z" style="opacity: 1; stroke-width: 1.4px; fill: rgb(127, 147, 166); fill-opacity: 0.42; stroke: rgb(127, 147, 166); stroke-opacity: 1;"/></g><g class="text"/></g><g class="trace scatter trace286ccd" style="stroke-miterlimit: 2; opacity: 1;"><g class="fills"/><g class="errorbars"><g class="errorbar" style="opacity: 1;"><path class="xerror" d="M712.97,87.16v8m0,-4H634.26m0,-4v8" style="vector-effect: none; stroke-width: 1.8px; stroke: rgb(127, 147, 166); stroke-opacity: 1;"/></g></g><g class="lines"/><g class="points"><path class="point" transform="translate(673.2,91.16)" d="M4.5,0A4.5,4.5 0 1,1 0,-4.5A4.5,4.5 0 0,1 4.5,0Z" style="opacity: 1; stroke-width: 1.4px; fill: rgb(127, 147, 166); fill-opacity: 0.42; stroke: rgb(127, 147, 166); stroke-opacity: 1;"/></g><g class="text"/></g><g class="trace scatter trace827683" style="stroke-miterlimit: 2; opacity: 1;"><g class="fills"/><g class="errorbars"><g class="errorbar" style="opacity: 1;"><path class="xerror" d="M771.4,26.03v8m0,-4H710.88m0,-4v8" style="vector-effect: none; stroke-width: 1.8px; stroke: rgb(127, 147, 166); stroke-opacity: 1;"/></g></g><g class="lines"/><g class="points"><path class="point" transform="translate(740.9,30.03)" d="M4.5,0A4.5,4.5 0 1,1 0,-4.5A4.5,4.5 0 0,1 4.5,0Z" style="opacity: 1; stroke-width: 1.4px; fill: rgb(127, 147, 166); fill-opacity: 0.42; stroke: rgb(127, 147, 166); stroke-opacity: 1;"/></g><g class="text"/></g></g></g></g><g class="zerolinelayer-above"/><path class="xlines-above crisp" d="M111,568.5H924" style="fill: none; stroke-width: 1px; stroke: rgb(0, 0, 0); stroke-opacity: 1;"/><path class="ylines-above crisp" d="M111.5,80V568" style="fill: none; stroke-width: 1px; stroke: rgb(0, 0, 0); stroke-opacity: 1;"/><g class="overlines-above"/><g class="xaxislayer-above"><g class="xtick"><text text-anchor="middle" x="0" y="584.6" transform="translate(175.79,0)" style="font-family: Arial; font-size: 13px; fill: rgb(0, 0, 0); fill-opacity: 1; white-space: pre;">−20</text></g><g class="xtick"><text text-anchor="middle" x="0" y="584.6" style="font-family: Arial; font-size: 13px; fill: rgb(0, 0, 0); fill-opacity: 1; white-space: pre;" transform="translate(331.8,0)">−10</text></g><g class="xtick"><text text-anchor="middle" x="0" y="584.6" style="font-family: Arial; font-size: 13px; fill: rgb(0, 0, 0); fill-opacity: 1; white-space: pre;" transform="translate(487.82,0)">0</text></g><g class="xtick"><text text-anchor="middle" x="0" y="584.6" style="font-family: Arial; font-size: 13px; fill: rgb(0, 0, 0); fill-opacity: 1; white-space: pre;" transform="translate(643.83,0)">10</text></g><g class="xtick"><text text-anchor="middle" x="0" y="584.6" style="font-family: Arial; font-size: 13px; fill: rgb(0, 0, 0); fill-opacity: 1; white-space: pre;" transform="translate(799.84,0)">20</text></g></g><g class="yaxislayer-above"><g class="ytick"><text text-anchor="end" x="108.4" y="4.55" transform="translate(0,537.98)" style="font-family: Arial; font-size: 13px; fill: rgb(0, 0, 0); fill-opacity: 1; white-space: pre;">Yishun</text></g><g class="ytick"><text text-anchor="end" x="108.4" y="4.55" transform="translate(0,476.84)" style="font-family: Arial; font-size: 13px; fill: rgb(0, 0, 0); fill-opacity: 1; white-space: pre;">Flat age</text></g><g class="ytick"><text text-anchor="end" x="108.4" y="4.55" transform="translate(0,415.7)" style="font-family: Arial; font-size: 13px; fill: rgb(0, 0, 0); fill-opacity: 1; white-space: pre;">5 Room</text></g><g class="ytick"><text text-anchor="end" x="108.4" y="4.55" transform="translate(0,354.57)" style="font-family: Arial; font-size: 13px; fill: rgb(0, 0, 0); fill-opacity: 1; white-space: pre;">3 Room</text></g><g class="ytick"><text text-anchor="end" x="108.4" y="4.55" transform="translate(0,293.43)" style="font-family: Arial; font-size: 13px; fill: rgb(0, 0, 0); fill-opacity: 1; white-space: pre;">Executive</text></g><g class="ytick"><text text-anchor="end" x="108.4" y="4.55" transform="translate(0,232.3)" style="font-family: Arial; font-size: 13px; fill: rgb(0, 0, 0); fill-opacity: 1; white-space: pre;">2 Room</text></g><g class="ytick"><text text-anchor="end" x="108.4" y="4.55" transform="translate(0,171.16)" style="font-family: Arial; font-size: 13px; fill: rgb(0, 0, 0); fill-opacity: 1; white-space: pre;">Multi-Generation</text></g><g class="ytick"><text text-anchor="end" x="108.4" y="4.55" transform="translate(0,110.03)" style="font-family: Arial; font-size: 13px; fill: rgb(0, 0, 0); fill-opacity: 1; white-space: pre;">1 Room</text></g></g><g class="overaxes-above"/></g></g><g class="polarlayer"/><g class="smithlayer"/><g class="ternarylayer"/><g class="geolayer"/><g class="funnelarealayer"/><g class="pielayer"/><g class="iciclelayer"/><g class="treemaplayer"/><g class="sunburstlayer"/><g class="glimages"/><defs id="topdefs-3d96cd"><g class="clips"/></defs><g class="layer-above"><g class="imagelayer"/><g class="shapelayer"><g class="shape-group" data-index="0" clip-path="url(#clip3d96cdx)"><path data-index="0" fill-rule="evenodd" d="M487.82,568L487.82,80" style="opacity: 1; stroke: rgb(107, 114, 128); stroke-opacity: 1; fill: rgb(0, 0, 0); fill-opacity: 0; stroke-dasharray: 9px, 9px; stroke-width: 1px;"/></g></g></g><g class="infolayer"><g class="g-gtitle"/><g class="g-xtitle"/><g class="g-ytitle"/><g class="annotation" data-index="0" style="opacity: 1;"><g class="annotation-text-g" transform="rotate(0,182.23,537.98)"><g class="cursor-pointer" transform="translate(156,529)"><rect class="bg" x="0.5" y="0.5" width="51" height="16" style="stroke-width: 1px; stroke: rgb(0, 0, 0); stroke-opacity: 0; fill: rgb(0, 0, 0); fill-opacity: 0;"/><text class="annotation-text" text-anchor="middle" x="25.859375" y="12" style="font-family: Arial; font-size: 11px; fill: rgb(0, 0, 0); fill-opacity: 1; white-space: pre;">-21.1%***</text></g></g></g><g class="annotation" data-index="1" style="opacity: 1;"><g class="annotation-text-g" transform="rotate(0,493.95,476.84)"><g class="cursor-pointer" transform="translate(471,468)"><rect class="bg" x="0.5" y="0.5" width="45" height="16" style="stroke-width: 1px; stroke: rgb(0, 0, 0); stroke-opacity: 0; fill: rgb(0, 0, 0); fill-opacity: 0;"/><text class="annotation-text" text-anchor="middle" x="22.796875" y="12" style="font-family: Arial; font-size: 11px; fill: rgb(0, 0, 0); fill-opacity: 1; white-space: pre;">-1.1%***</text></g></g></g><g class="annotation" data-index="2" style="opacity: 1;"><g class="annotation-text-g" transform="rotate(0,501.11,415.7)"><g class="cursor-pointer" transform="translate(478,407)"><rect class="bg" x="0.5" y="0.5" width="45" height="16" style="stroke-width: 1px; stroke: rgb(0, 0, 0); stroke-opacity: 0; fill: rgb(0, 0, 0); fill-opacity: 0;"/><text class="annotation-text" text-anchor="middle" x="22.796875" y="12" style="font-family: Arial; font-size: 11px; fill: rgb(0, 0, 0); fill-opacity: 1; white-space: pre;">-0.7%***</text></g></g></g><g class="annotation" data-index="3" style="opacity: 1;"><g class="annotation-text-g" transform="rotate(0,568.28,354.57)"><g class="cursor-pointer" transform="translate(547,346)"><rect class="bg" x="0.5" y="0.5" width="41" height="16" style="stroke-width: 1px; stroke: rgb(0, 0, 0); stroke-opacity: 0; fill: rgb(0, 0, 0); fill-opacity: 0;"/><text class="annotation-text" text-anchor="middle" x="20.96875" y="12" style="font-family: Arial; font-size: 11px; fill: rgb(0, 0, 0); fill-opacity: 1; white-space: pre;">3.6%***</text></g></g></g><g class="annotation" data-index="4" style="opacity: 1;"><g class="annotation-text-g" transform="rotate(0,607.3,293.43)"><g class="cursor-pointer" transform="translate(586,285)"><rect class="bg" x="0.5" y="0.5" width="41" height="16" style="stroke-width: 1px; stroke: rgb(0, 0, 0); stroke-opacity: 0; fill: rgb(0, 0, 0); fill-opacity: 0;"/><text class="annotation-text" text-anchor="middle" x="20.96875" y="12" style="font-family: Arial; font-size: 11px; fill: rgb(0, 0, 0); fill-opacity: 1; white-space: pre;">6.1%***</text></g></g></g><g class="annotation" data-index="5" style="opacity: 1;"><g class="annotation-text-g" transform="rotate(0,650.57,232.3)"><g class="cursor-pointer" transform="translate(630,224)"><rect class="bg" x="0.5" y="0.5" width="41" height="16" style="stroke-width: 1px; stroke: rgb(0, 0, 0); stroke-opacity: 0; fill: rgb(0, 0, 0); fill-opacity: 0;"/><text class="annotation-text" text-anchor="middle" x="20.96875" y="12" style="font-family: Arial; font-size: 11px; fill: rgb(0, 0, 0); fill-opacity: 1; white-space: pre;">8.9%***</text></g></g></g><g class="annotation" data-index="6" style="opacity: 1;"><g class="annotation-text-g" transform="rotate(0,809.2,171.16)"><g class="cursor-pointer" transform="translate(785,163)"><rect class="bg" x="0.5" y="0.5" width="47" height="16" style="stroke-width: 1px; stroke: rgb(0, 0, 0); stroke-opacity: 0; fill: rgb(0, 0, 0); fill-opacity: 0;"/><text class="annotation-text" text-anchor="middle" x="24.03125" y="12" style="font-family: Arial; font-size: 11px; fill: rgb(0, 0, 0); fill-opacity: 1; white-space: pre;">19.1%***</text></g></g></g><g class="annotation" data-index="7" style="opacity: 1;"><g class="annotation-text-g" transform="rotate(0,876.9,110.03)"><g class="cursor-pointer" transform="translate(853,102)"><rect class="bg" x="0.5" y="0.5" width="47" height="16" style="stroke-width: 1px; stroke: rgb(0, 0, 0); stroke-opacity: 0; fill: rgb(0, 0, 0); fill-opacity: 0;"/><text class="annotation-text" text-anchor="middle" x="24.03125" y="12" style="font-family: Arial; font-size: 11px; fill: rgb(0, 0, 0); fill-opacity: 1; white-space: pre;">23.4%***</text></g></g></g></g></svg>