<svg class="main-svg" xmlns="http://www.w3.org/2000/svg" xmlns:xlink="http://www.w3.org/1999/xlink" width="700" height="500" style="" viewBox="0 0 700 500"><rect x="0" y="0" width="700" height="500" style="fill: rgb(0, 0, 0); fill-opacity: 0;"/><defs id="defs-58b236"><g class="clips"><clipPath id="clip58b236xyplot" class="plotclip"><rect width="171.02222222222224" height="305"/></clipPath><clipPath id="clip58b236x2y2plot" class="plotclip"><rect width="171.02222222222224" height="305"/></clipPath><clipPath id="clip58b236x3y3plot" class="plotclip"><rect width="171.0222222222222" height="305"/></clipPath><clipPath class="axesclip" id="clip58b236x"><rect x="72" y="0" width="171.02222222222224" height="500"/></clipPath><clipPath class="axesclip" id="clip58b236y"><rect x="0" y="80" width="700" height="305"/></clipPath><clipPath class="axesclip" id="clip58b236xy"><rect x="72" y="80" width="171.02222222222224" height="305"/></clipPath><clipPath class="axesclip" id="clip58b236y2"><rect x="0" y="80" width="700" height="305"/></clipPath><clipPath class="axesclip" id="clip58b236xy2"><rect x="72" y="80" width="171.02222222222224" height="305"/></clipPath><clipPath class="axesclip" id="clip58b236y3"><rect x="0" y="80" width="700" height="305"/></clipPath><clipPath class="axesclip" id="clip58b236xy3"><rect x="72" y="80" width="171.02222222222224" height="305"/></clipPath><clipPath class="axesclip" id="clip58b236x2"><rect x="282.48888888888894" y="0" width="171.02222222222224" height="500"/></clipPath><clipPath class="axesclip" id="clip58b236x2y"><rect x="282.48888888888894" y="80" width="171.02222222222224" height="305"/></clipPath><clipPath class="axesclip" id="clip58b236x2y2"><rect x="282.48888888888894" y="80" width="171.02222222222224" height="305"/></clipPath><clipPath class="axesclip" id="clip58b236x2y3"><rect x="282.48888888888894" y="80" width="171.02222222222224" height="305"/></clipPath><clipPath class="axesclip" id="clip58b236x3"><rect x="492.9777777777778" y="0" width="171.0222222222222" height="500"/></clipPath><clipPath class="axesclip" id="clip58b236x3y"><rect x="492.9777777777778" y="80" width="171.0222222222222" height="305"/></clipPath><clipPath class="axesclip" id="clip58b236x3y2"><rect x="492.9777777777778" y="80" width="171.0222222222222" height="305"/></clipPath><clipPath class="axesclip" id="clip58b236x3y3"><rect x="492.9777777777778" y="80" width="171.0222222222222" height="305"/></clipPath></g><g class="gradients"/><g class="patterns"/></defs><g class="bglayer"><rect class="bg" x="72" y="80" width="171.02222222222224" height="305" style="fill: rgb(0, 0, 0); fill-opacity: 0; stroke-width: 0;"/><rect class="bg" x="282.48888888888894" y="80" width="171.02222222222224" height="305" style="fill: rgb(0, 0, 0); fill-opacity: 0; stroke-width: 0;"/><rect class="bg" x="492.9777777777778" y="80" width="171.0222222222222" height="305" style="fill: rgb(0, 0, 0); fill-opacity: 0; stroke-width: 0;"/></g><g class="layer-below"><g class="imagelayer"/><g class="shapelayer"/></g><g class="cartesianlayer"><g class="subplot xy"><g class="layer-subplot"><g class="shapelayer"/><g class="imagelayer"/></g><g class="minor-gridlayer"><g class="x"/><g class="y"/></g><g class="gridlayer"><g class="x"/><g class="y"/></g><g class="zerolinelayer"/><g class="layer-between"><g class="shapelayer"/><g class="imagelayer"/></g><path class="xlines-below"/><path class="ylines-below"/><g class="overlines-below"/><g class="xaxislayer-below"/><g class="yaxislayer-below"/><g class="overaxes-below"/><g class="overplot"><g class="xy" transform="translate(72,80)" clip-path="url(#clip58b236xyplot)"><g class="boxlayer mlayer"><g class="trace boxes" style="opacity: 1;"><path class="box" d="M7.54,194.18H21.46M7.54,227.83H21.46V166.74H7.54ZM14.5,227.83V279.53M14.5,166.74V23.52M11.02,279.53H17.98M11.02,23.52H17.98" style="vector-effect: none; stroke-width: 1.2px; stroke: rgb(127, 147, 166); stroke-opacity: 1; fill: rgb(127, 147, 166); fill-opacity: 0.22;"/></g><g class="trace boxes" style="opacity: 1;"><path class="box" d="M35.95,190.3H49.86M35.95,223.67H49.86V149.43H35.95ZM42.9,223.67V279.33M42.9,149.43V41.17M39.42,279.33H46.38M39.42,41.17H46.38" style="vector-effect: none; stroke-width: 1.2px; stroke: rgb(127, 147, 166); stroke-opacity: 1; fill: rgb(127, 147, 166); fill-opacity: 0.22;"/></g><g class="trace boxes" style="opacity: 1;"><path class="box" d="M64.35,173.3H78.27M64.35,203.75H78.27V145.59H64.35ZM71.31,203.75V261.85M71.31,145.59V68.7M67.83,261.85H74.79M67.83,68.7H74.79" style="vector-effect: none; stroke-width: 1.2px; stroke: rgb(127, 147, 166); stroke-opacity: 1; fill: rgb(127, 147, 166); fill-opacity: 0.22;"/></g><g class="trace boxes" style="opacity: 1;"><path class="box" d="M92.75,186.28H106.67M92.75,218.31H106.67V161.93H92.75ZM99.71,218.31V271.97M99.71,161.93V59.13M96.23,271.97H103.19M96.23,59.13H103.19" style="vector-effect: none; stroke-width: 1.2px; stroke: rgb(127, 147, 166); stroke-opacity: 1; fill: rgb(127, 147, 166); fill-opacity: 0.22;"/></g><g class="trace boxes" style="opacity: 1;"><path class="box" d="M121.16,183.42H135.08M121.16,204.71H135.08V154.23H121.16ZM128.12,204.71V252.09M128.12,154.23V57.87M124.64,252.09H131.6M124.64,57.87H131.6" style="vector-effect: none; stroke-width: 1.2px; stroke: rgb(127, 147, 166); stroke-opacity: 1; fill: rgb(127, 147, 166); fill-opacity: 0.22;"/></g><g class="trace boxes" style="opacity: 1;"><path class="box" d="M149.56,180.63H163.48M149.56,217.83H163.48V147.28H149.56ZM156.52,217.83V264.18M156.52,147.28V19.95M153.04,264.18H160M153.04,19.95H160" style="vector-effect: none; stroke-width: 1.2px; stroke: rgb(207, 134, 75); stroke-opacity: 1; fill: rgb(207, 134, 75); fill-opacity: 0.22;"/></g></g></g></g><g class="zerolinelayer-above"/><path class="xlines-above crisp" d="M71,385.5H243.02222222222224" style="fill: none; stroke-width: 1px; stroke: rgb(0, 0, 0); stroke-opacity: 1;"/><path class="ylines-above crisp" d="M71.5,80V385" style="fill: none; stroke-width: 1px; stroke: rgb(0, 0, 0); stroke-opacity: 1;"/><g class="overlines-above"/><g class="xaxislayer-above"><g class="xtick"><text text-anchor="start" x="0" y="401.6" transform="translate(86.5,0) rotate(90,0,395.1)" style="font-family: Arial; font-size: 13px; fill: rgb(0, 0, 0); fill-opacity: 1; white-space: pre;">Jurong West</text></g><g class="xtick"><text text-anchor="start" x="0" y="401.6" transform="translate(114.9,0) rotate(90,0,395.1)" style="font-family: Arial; font-size: 13px; fill: rgb(0, 0, 0); fill-opacity: 1; white-space: pre;">Woodlands</text></g><g class="xtick"><text text-anchor="start" x="0" y="401.6" transform="translate(143.31,0) rotate(90,0,395.1)" style="font-family: Arial; font-size: 13px; fill: rgb(0, 0, 0); fill-opacity: 1; white-space: pre;">Choa Chu Kang</text></g><g class="xtick"><text text-anchor="start" x="0" y="401.6" transform="translate(171.70999999999998,0) rotate(90,0,395.1)" style="font-family: Arial; font-size: 13px; fill: rgb(0, 0, 0); fill-opacity: 1; white-space: pre;">Jurong East</text></g><g class="xtick"><text text-anchor="start" x="0" y="401.6" transform="translate(200.12,0) rotate(90,0,395.1)" style="font-family: Arial; font-size: 13px; fill: rgb(0, 0, 0); fill-opacity: 1; white-space: pre;">Bukit Panjang</text></g><g class="xtick"><text text-anchor="start" x="0" y="401.6" transform="translate(228.52,0) rotate(90,0,395.1)" style="font-family: Arial; font-size: 13px; fill: rgb(0, 0, 0); fill-opacity: 1; white-space: pre;">Yishun</text></g></g><g class="yaxislayer-above"><g class="ytick"><text text-anchor="end" x="68.4" y="4.55" transform="translate(0,381.57)" style="font-family: Arial; font-size: 13px; fill: rgb(0, 0, 0); fill-opacity: 1; white-space: pre;">2k</text></g><g class="ytick"><text text-anchor="end" x="68.4" y="4.55" style="font-family: Arial; font-size: 13px; fill: rgb(0, 0, 0); fill-opacity: 1; white-space: pre;" transform="translate(0,343.14)">3k</text></g><g class="ytick"><text text-anchor="end" x="68.4" y="4.55" style="font-family: Arial; font-size: 13px; fill: rgb(0, 0, 0); fill-opacity: 1; white-space: pre;" transform="translate(0,304.71000000000004)">4k</text></g><g class="ytick"><text text-anchor="end" x="68.4" y="4.55" style="font-family: Arial; font-size: 13px; fill: rgb(0, 0, 0); fill-opacity: 1; white-space: pre;" transform="translate(0,266.28)">5k</text></g><g class="ytick"><text text-anchor="end" x="68.4" y="4.55" style="font-family: Arial; font-size: 13px; fill: rgb(0, 0, 0); fill-opacity: 1; white-space: pre;" transform="translate(0,227.85)">6k</text></g><g class="ytick"><text text-anchor="end" x="68.4" y="4.55" style="font-family: Arial; font-size: 13px; fill: rgb(0, 0, 0); fill-opacity: 1; white-space: pre;" transform="translate(0,189.42000000000002)">7k</text></g><g class="ytick"><text text-anchor="end" x="68.4" y="4.55" style="font-family: Arial; font-size: 13px; fill: rgb(0, 0, 0); fill-opacity: 1; white-space: pre;" transform="translate(0,150.99)">8k</text></g><g class="ytick"><text text-anchor="end" x="68.4" y="4.55" style="font-family: Arial; font-size: 13px; fill: rgb(0, 0, 0); fill-opacity: 1; white-space: pre;" transform="translate(0,112.56)">9k</text></g></g><g class="overaxes-above"/></g><g class="subplot x2y2"><g class="layer-subplot"><g class="shapelayer"/><g class="imagelayer"/></g><g class="minor-gridlayer"><g class="x2"/><g class="y2"/></g><g class="gridlayer"><g class="x2"/><g class="y2"/></g><g class="zerolinelayer"/><g class="layer-between"><g class="shapelayer"/><g class="imagelayer"/></g><path class="xlines-below"/><path class="ylines-below"/><g class="overlines-below"/><g class="xaxislayer-below"/><g class="yaxislayer-below"/><g class="overaxes-below"/><g class="overplot"><g class="x2y2" transform="translate(282.48888888888894,80)" clip-path="url(#clip58b236x2y2plot)"><g class="boxlayer mlayer"><g class="trace boxes" style="opacity: 1;"><path class="box" d="M7.54,200.22H21.46M7.54,228.06H21.46V169.2H7.54ZM14.5,228.06V279.13M14.5,169.2V30.76M11.02,279.13H17.98M11.02,30.76H17.98" style="vector-effect: none; stroke-width: 1.2px; stroke: rgb(127, 147, 166); stroke-opacity: 1; fill: rgb(127, 147, 166); fill-opacity: 0.22;"/></g><g class="trace boxes" style="opacity: 1;"><path class="box" d="M35.95,198.53H49.86M35.95,235.69H49.86V167.07H35.95ZM42.9,235.69V285.35M42.9,167.07V68.52M39.42,285.35H46.38M39.42,68.52H46.38" style="vector-effect: none; stroke-width: 1.2px; stroke: rgb(127, 147, 166); stroke-opacity: 1; fill: rgb(127, 147, 166); fill-opacity: 0.22;"/></g><g class="trace boxes" style="opacity: 1;"><path class="box" d="M64.35,195.43H78.27M64.35,231.72H78.27V171.82H64.35ZM71.31,231.72V282.18M71.31,171.82V90.21M67.83,282.18H74.79M67.83,90.21H74.79" style="vector-effect: none; stroke-width: 1.2px; stroke: rgb(127, 147, 166); stroke-opacity: 1; fill: rgb(127, 147, 166); fill-opacity: 0.22;"/></g><g class="trace boxes" style="opacity: 1;"><path class="box" d="M92.75,193.97H106.67M92.75,216H106.67V170.25H92.75ZM99.71,216V272.14M99.71,170.25V82.48M96.23,272.14H103.19M96.23,82.48H103.19" style="vector-effect: none; stroke-width: 1.2px; stroke: rgb(127, 147, 166); stroke-opacity: 1; fill: rgb(127, 147, 166); fill-opacity: 0.22;"/></g><g class="trace boxes" style="opacity: 1;"><path class="box" d="M121.16,190.51H135.08M121.16,213.32H135.08V165.62H121.16ZM128.12,213.32V273.12M128.12,165.62V15.25M124.64,273.12H131.6M124.64,15.25H131.6" style="vector-effect: none; stroke-width: 1.2px; stroke: rgb(127, 147, 166); stroke-opacity: 1; fill: rgb(127, 147, 166); fill-opacity: 0.22;"/></g><g class="trace boxes" style="opacity: 1;"><path class="box" d="M149.56,191.88H163.48M149.56,222.88H163.48V159.42H149.56ZM156.52,222.88V289.75M156.52,159.42V36.32M153.04,289.75H160M153.04,36.32H160" style="vector-effect: none; stroke-width: 1.2px; stroke: rgb(207, 134, 75); stroke-opacity: 1; fill: rgb(207, 134, 75); fill-opacity: 0.22;"/></g></g></g></g><g class="zerolinelayer-above"/><path class="xlines-above crisp" d="M281.48888888888894,385.5H453.5111111111112" style="fill: none; stroke-width: 1px; stroke: rgb(0, 0, 0); stroke-opacity: 1;"/><path class="ylines-above crisp" d="M281.98888888888894,80V385" style="fill: none; stroke-width: 1px; stroke: rgb(0, 0, 0); stroke-opacity: 1;"/><g class="overlines-above"/><g class="xaxislayer-above"><g class="x2tick"><text text-anchor="start" x="0" y="401.6" transform="translate(296.98888888888894,0) rotate(90,0,395.1)" style="font-family: Arial; font-size: 13px; fill: rgb(0, 0, 0); fill-opacity: 1; white-space: pre;">Jurong West</text></g><g class="x2tick"><text text-anchor="start" x="0" y="401.6" transform="translate(325.3888888888889,0) rotate(90,0,395.1)" style="font-family: Arial; font-size: 13px; fill: rgb(0, 0, 0); fill-opacity: 1; white-space: pre;">Woodlands</text></g><g class="x2tick"><text text-anchor="start" x="0" y="401.6" transform="translate(353.79888888888894,0) rotate(90,0,395.1)" style="font-family: Arial; font-size: 13px; fill: rgb(0, 0, 0); fill-opacity: 1; white-space: pre;">Choa Chu Kang</text></g><g class="x2tick"><text text-anchor="start" x="0" y="401.6" transform="translate(382.1988888888889,0) rotate(90,0,395.1)" style="font-family: Arial; font-size: 13px; fill: rgb(0, 0, 0); fill-opacity: 1; white-space: pre;">Jurong East</text></g><g class="x2tick"><text text-anchor="start" x="0" y="401.6" transform="translate(410.60888888888894,0) rotate(90,0,395.1)" style="font-family: Arial; font-size: 13px; fill: rgb(0, 0, 0); fill-opacity: 1; white-space: pre;">Bukit Panjang</text></g><g class="x2tick"><text text-anchor="start" x="0" y="401.6" transform="translate(439.0088888888889,0) rotate(90,0,395.1)" style="font-family: Arial; font-size: 13px; fill: rgb(0, 0, 0); fill-opacity: 1; white-space: pre;">Yishun</text></g></g><g class="yaxislayer-above"/><g class="overaxes-above"/></g><g class="subplot x3y3"><g class="layer-subplot"><g class="shapelayer"/><g class="imagelayer"/></g><g class="minor-gridlayer"><g class="x3"/><g class="y3"/></g><g class="gridlayer"><g class="x3"/><g class="y3"/></g><g class="zerolinelayer"/><g class="layer-between"><g class="shapelayer"/><g class="imagelayer"/></g><path class="xlines-below"/><path class="ylines-below"/><g class="overlines-below"/><g class="xaxislayer-below"/><g class="yaxislayer-below"/><g class="overaxes-below"/><g class="overplot"><g class="x3y3" transform="translate(492.9777777777778,80)" clip-path="url(#clip58b236x3y3plot)"><g class="boxlayer mlayer"><g class="trace boxes" style="opacity: 1;"><path class="box" d="M7.54,202.93H21.46M7.54,227.86H21.46V179.3H7.54ZM14.5,227.86V279.8M14.5,179.3V39.37M11.02,279.8H17.98M11.02,39.37H17.98" style="vector-effect: none; stroke-width: 1.2px; stroke: rgb(127, 147, 166); stroke-opacity: 1; fill: rgb(127, 147, 166); fill-opacity: 0.22;"/></g><g class="trace boxes" style="opacity: 1;"><path class="box" d="M35.95,204.3H49.86M35.95,241.39H49.86V176.83H35.95ZM42.9,241.39V288.21M42.9,176.83V91.06M39.42,288.21H46.38M39.42,91.06H46.38" style="vector-effect: none; stroke-width: 1.2px; stroke: rgb(127, 147, 166); stroke-opacity: 1; fill: rgb(127, 147, 166); fill-opacity: 0.22;"/></g><g class="trace boxes" style="opacity: 1;"><path class="box" d="M64.35,199.2H78.27M64.35,235.35H78.27V175.42H64.35ZM71.31,235.35V278.97M71.31,175.42V100.5M67.83,278.97H74.79M67.83,100.5H74.79" style="vector-effect: none; stroke-width: 1.2px; stroke: rgb(127, 147, 166); stroke-opacity: 1; fill: rgb(127, 147, 166); fill-opacity: 0.22;"/></g><g class="trace boxes" style="opacity: 1;"><path class="box" d="M92.75,191.35H106.67M92.75,218.18H106.67V170.34H92.75ZM99.71,218.18V277.3M99.71,170.34V93.09M96.23,277.3H103.19M96.23,93.09H103.19" style="vector-effect: none; stroke-width: 1.2px; stroke: rgb(127, 147, 166); stroke-opacity: 1; fill: rgb(127, 147, 166); fill-opacity: 0.22;"/></g><g class="trace boxes" style="opacity: 1;"><path class="box" d="M121.16,188.02H135.08M121.16,212.66H135.08V160.66H121.16ZM128.12,212.66V264.73M128.12,160.66V32.91M124.64,264.73H131.6M124.64,32.91H131.6" style="vector-effect: none; stroke-width: 1.2px; stroke: rgb(127, 147, 166); stroke-opacity: 1; fill: rgb(127, 147, 166); fill-opacity: 0.22;"/></g><g class="trace boxes" style="opacity: 1;"><path class="box" d="M149.56,189.43H163.48M149.56,216.47H163.48V158.83H149.56ZM156.52,216.47V274.48M156.52,158.83V42.17M153.04,274.48H160M153.04,42.17H160" style="vector-effect: none; stroke-width: 1.2px; stroke: rgb(207, 134, 75); stroke-opacity: 1; fill: rgb(207, 134, 75); fill-opacity: 0.22;"/></g></g></g></g><g class="zerolinelayer-above"/><path class="xlines-above crisp" d="M491.9777777777778,385.5H664" style="fill: none; stroke-width: 1px; stroke: rgb(0, 0, 0); stroke-opacity: 1;"/><path class="ylines-above crisp" d="M492.4777777777778,80V385" style="fill: none; stroke-width: 1px; stroke: rgb(0, 0, 0); stroke-opacity: 1;"/><g class="overlines-above"/><g class="xaxislayer-above"><g class="x3tick"><text text-anchor="start" x="0" y="401.6" transform="translate(507.4777777777778,0) rotate(90,0,395.1)" style="font-family: Arial; font-size: 13px; fill: rgb(0, 0, 0); fill-opacity: 1; white-space: pre;">Jurong West</text></g><g class="x3tick"><text text-anchor="start" x="0" y="401.6" transform="translate(535.8777777777779,0) rotate(90,0,395.1)" style="font-family: Arial; font-size: 13px; fill: rgb(0, 0, 0); fill-opacity: 1; white-space: pre;">Woodlands</text></g><g class="x3tick"><text text-anchor="start" x="0" y="401.6" transform="translate(564.2877777777778,0) rotate(90,0,395.1)" style="font-family: Arial; font-size: 13px; fill: rgb(0, 0, 0); fill-opacity: 1; white-space: pre;">Choa Chu Kang</text></g><g class="x3tick"><text text-anchor="start" x="0" y="401.6" transform="translate(592.6877777777778,0) rotate(90,0,395.1)" style="font-family: Arial; font-size: 13px; fill: rgb(0, 0, 0); fill-opacity: 1; white-space: pre;">Jurong East</text></g><g class="x3tick"><text text-anchor="start" x="0" y="401.6" transform="translate(621.0977777777778,0) rotate(90,0,395.1)" style="font-family: Arial; font-size: 13px; fill: rgb(0, 0, 0); fill-opacity: 1; white-space: pre;">Bukit Panjang</text></g><g class="x3tick"><text text-anchor="start" x="0" y="401.6" transform="translate(649.4977777777779,0) rotate(90,0,395.1)" style="font-family: Arial; font-size: 13px; fill: rgb(0, 0, 0); fill-opacity: 1; white-space: pre;">Yishun</text></g></g><g class="yaxislayer-above"/><g class="overaxes-above"/></g></g><g class="polarlayer"/><g class="smithlayer"/><g class="ternarylayer"/><g class="geolayer"/><g class="funnelarealayer"/><g class="pielayer"/><g class="iciclelayer"/><g class="treemaplayer"/><g class="sunburstlayer"/><g class="glimages"/><defs id="topdefs-58b236"><g class="clips"/></defs><g class="layer-above"><g class="imagelayer"/><g class="shapelayer"/></g><g class="infolayer"><g class="g-gtitle"/><g class="g-xtitle"/><g class="g-x2title"/><g class="g-x3title"/><g class="g-ytitle"/><g class="g-y2title"/><g class="g-y3title"/><g class="annotation" data-index="0" style="opacity: 1;"><g class="annotation-text-g" transform="rotate(0,157.51111111111112,71)"><g class="cursor-pointer" transform="translate(132,62)"><rect class="bg" x="0.5" y="0.5" width="50" height="17" style="stroke-width: 1px; stroke: rgb(0, 0, 0); stroke-opacity: 0; fill: rgb(0, 0, 0); fill-opacity: 0;"/><text class="annotation-text" text-anchor="middle" x="25.671875" y="13" style="font-family: Arial; font-size: 12px; fill: rgb(0, 0, 0); fill-opacity: 1; white-space: pre;">3 ROOM</text></g></g></g><g class="annotation" data-index="1" style="opacity: 1;"><g class="annotation-text-g" transform="rotate(0,368,71)"><g class="cursor-pointer" transform="translate(343,62)"><rect class="bg" x="0.5" y="0.5" width="50" height="17" style="stroke-width: 1px; stroke: rgb(0, 0, 0); stroke-opacity: 0; fill: rgb(0, 0, 0); fill-opacity: 0;"/><text class="annotation-text" text-anchor="middle" x="25.671875" y="13" style="font-family: Arial; font-size: 12px; fill: rgb(0, 0, 0); fill-opacity: 1; white-space: pre;">4 ROOM</text></g></g></g><g class="annotation" data-index="2" style="opacity: 1;"><g class="annotation-text-g" transform="rotate(0,578.4888888888889,71)"><g class="cursor-pointer" transform="translate(553,62)"><rect class="bg" x="0.5" y="0.5" width="50" height="17" style="stroke-width: 1px; stroke: rgb(0, 0, 0); stroke-opacity: 0; fill: rgb(0, 0, 0); fill-opacity: 0;"/><text class="annotation-text" text-anchor="middle" x="25.671875" y="13" style="font-family: Arial; font-size: 12px; fill: rgb(0, 0, 0); fill-opacity: 1; white-space: pre;">5 ROOM</text></g></g></g><g class="annotation" data-index="3" style="opacity: 1;"><g class="annotation-text-g" transform="rotate(0,86.5,256.18)"><g class="cursor-pointer" transform="translate(72,248)"><rect class="bg" x="0.5" y="0.5" width="28" height="16" style="stroke-width: 1px; stroke: rgb(0, 0, 0); stroke-opacity: 0; fill: rgb(0, 0, 0); fill-opacity: 0;"/><text class="annotation-text" text-anchor="middle" x="14.25" y="12" style="font-family: Arial; font-size: 11px; fill: rgb(0, 0, 0); fill-opacity: 1; white-space: pre;">4795</text></g></g></g><g class="annotation" data-index="4" style="opacity: 1;"><g class="annotation-text-g" transform="rotate(0,114.9,252.3)"><g class="cursor-pointer" transform="translate(100,244)"><rect class="bg" x="0.5" y="0.5" width="28" height="16" style="stroke-width: 1px; stroke: rgb(0, 0, 0); stroke-opacity: 0; fill: rgb(0, 0, 0); fill-opacity: 0;"/><text class="annotation-text" text-anchor="middle" x="14.25" y="12" style="font-family: Arial; font-size: 11px; fill: rgb(0, 0, 0); fill-opacity: 1; white-space: pre;">4896</text></g></g></g><g class="annotation" data-index="5" style="opacity: 1;"><g class="annotation-text-g" transform="rotate(0,143.31,235.3)"><g class="cursor-pointer" transform="translate(129,227)"><rect class="bg" x="0.5" y="0.5" width="28" height="16" style="stroke-width: 1px; stroke: rgb(0, 0, 0); stroke-opacity: 0; fill: rgb(0, 0, 0); fill-opacity: 0;"/><text class="annotation-text" text-anchor="middle" x="14.25" y="12" style="font-family: Arial; font-size: 11px; fill: rgb(0, 0, 0); fill-opacity: 1; white-space: pre;">5338</text></g></g></g><g class="annotation" data-index="6" style="opacity: 1;"><g class="annotation-text-g" transform="rotate(0,171.70999999999998,248.27999999999997)"><g class="cursor-pointer" transform="translate(157,240)"><rect class="bg" x="0.5" y="0.5" width="28" height="16" style="stroke-width: 1px; stroke: rgb(0, 0, 0); stroke-opacity: 0; fill: rgb(0, 0, 0); fill-opacity: 0;"/><text class="annotation-text" text-anchor="middle" x="14.25" y="12" style="font-family: Arial; font-size: 11px; fill: rgb(0, 0, 0); fill-opacity: 1; white-space: pre;">5000</text></g></g></g><g class="annotation" data-index="7" style="opacity: 1;"><g class="annotation-text-g" transform="rotate(0,200.12,245.41999999999996)"><g class="cursor-pointer" transform="translate(186,237)"><rect class="bg" x="0.5" y="0.5" width="28" height="16" style="stroke-width: 1px; stroke: rgb(0, 0, 0); stroke-opacity: 0; fill: rgb(0, 0, 0); fill-opacity: 0;"/><text class="annotation-text" text-anchor="middle" x="14.25" y="12" style="font-family: Arial; font-size: 11px; fill: rgb(0, 0, 0); fill-opacity: 1; white-space: pre;">5075</text></g></g></g><g class="annotation" data-index="8" style="opacity: 1;"><g class="annotation-text-g" transform="rotate(0,228.52,242.63)"><g class="cursor-pointer" transform="translate(214,234)"><rect class="bg" x="0.5" y="0.5" width="28" height="16" style="stroke-width: 1px; stroke: rgb(0, 0, 0); stroke-opacity: 0; fill: rgb(0, 0, 0); fill-opacity: 0;"/><text class="annotation-text" text-anchor="middle" x="14.25" y="12" style="font-family: Arial; font-size: 11px; fill: rgb(0, 0, 0); fill-opacity: 1; white-space: pre;">5147</text></g></g></g><g class="annotation" data-index="9" style="opacity: 1;"><g class="annotation-text-g" transform="rotate(0,296.98888888888894,262.22)"><g class="cursor-pointer" transform="translate(282,254)"><rect class="bg" x="0.5" y="0.5" width="28" height="16" style="stroke-width: 1px; stroke: rgb(0, 0, 0); stroke-opacity: 0; fill: rgb(0, 0, 0); fill-opacity: 0;"/><text class="annotation-text" text-anchor="middle" x="14.25" y="12" style="font-family: Arial; font-size: 11px; fill: rgb(0, 0, 0); fill-opacity: 1; white-space: pre;">4637</text></g></g></g><g class="annotation" data-index="10" style="opacity: 1;"><g class="annotation-text-g" transform="rotate(0,325.3888888888889,260.53)"><g class="cursor-pointer" transform="translate(311,252)"><rect class="bg" x="0.5" y="0.5" width="28" height="16" style="stroke-width: 1px; stroke: rgb(0, 0, 0); stroke-opacity: 0; fill: rgb(0, 0, 0); fill-opacity: 0;"/><text class="annotation-text" text-anchor="middle" x="14.25" y="12" style="font-family: Arial; font-size: 11px; fill: rgb(0, 0, 0); fill-opacity: 1; white-space: pre;">4681</text></g></g></g><g class="annotation" data-index="11" style="opacity: 1;"><g class="annotation-text-g" transform="rotate(0,353.79888888888894,257.43)"><g class="cursor-pointer" transform="translate(339,249)"><rect class="bg" x="0.5" y="0.5" width="28" height="16" style="stroke-width: 1px; stroke: rgb(0, 0, 0); stroke-opacity: 0; fill: rgb(0, 0, 0); fill-opacity: 0;"/><text class="annotation-text" text-anchor="middle" x="14.25" y="12" style="font-family: Arial; font-size: 11px; fill: rgb(0, 0, 0); fill-opacity: 1; white-space: pre;">4762</text></g></g></g><g class="annotation" data-index="12" style="opacity: 1;"><g class="annotation-text-g" transform="rotate(0,382.1988888888889,255.97000000000003)"><g class="cursor-pointer" transform="translate(368,247)"><rect class="bg" x="0.5" y="0.5" width="28" height="16" style="stroke-width: 1px; stroke: rgb(0, 0, 0); stroke-opacity: 0; fill: rgb(0, 0, 0); fill-opacity: 0;"/><text class="annotation-text" text-anchor="middle" x="14.25" y="12" style="font-family: Arial; font-size: 11px; fill: rgb(0, 0, 0); fill-opacity: 1; white-space: pre;">4800</text></g></g></g><g class="annotation" data-index="13" style="opacity: 1;"><g class="annotation-text-g" transform="rotate(0,410.60888888888894,252.51)"><g class="cursor-pointer" transform="translate(396,244)"><rect class="bg" x="0.5" y="0.5" width="28" height="16" style="stroke-width: 1px; stroke: rgb(0, 0, 0); stroke-opacity: 0; fill: rgb(0, 0, 0); fill-opacity: 0;"/><text class="annotation-text" text-anchor="middle" x="14.25" y="12" style="font-family: Arial; font-size: 11px; fill: rgb(0, 0, 0); fill-opacity: 1; white-space: pre;">4890</text></g></g></g><g class="annotation" data-index="14" style="opacity: 1;"><g class="annotation-text-g" transform="rotate(0,439.0088888888889,253.88)"><g class="cursor-pointer" transform="translate(425,245)"><rect class="bg" x="0.5" y="0.5" width="28" height="16" style="stroke-width: 1px; stroke: rgb(0, 0, 0); stroke-opacity: 0; fill: rgb(0, 0, 0); fill-opacity: 0;"/><text class="annotation-text" text-anchor="middle" x="14.25" y="12" style="font-family: Arial; font-size: 11px; fill: rgb(0, 0, 0); fill-opacity: 1; white-space: pre;">4854</text></g></g></g><g class="annotation" data-index="15" style="opacity: 1;"><g class="annotation-text-g" transform="rotate(0,507.4777777777778,264.93)"><g class="cursor-pointer" transform="translate(493,256)"><rect class="bg" x="0.5" y="0.5" width="28" height="16" style="stroke-width: 1px; stroke: rgb(0, 0, 0); stroke-opacity: 0; fill: rgb(0, 0, 0); fill-opacity: 0;"/><text class="annotation-text" text-anchor="middle" x="14.25" y="12" style="font-family: Arial; font-size: 11px; fill: rgb(0, 0, 0); fill-opacity: 1; white-space: pre;">4567</text></g></g></g><g class="annotation" data-index="16" style="opacity: 1;"><g class="annotation-text-g" transform="rotate(0,535.8777777777779,266.3)"><g class="cursor-pointer" transform="translate(521,258)"><rect class="bg" x="0.5" y="0.5" width="28" height="16" style="stroke-width: 1px; stroke: rgb(0, 0, 0); stroke-opacity: 0; fill: rgb(0, 0, 0); fill-opacity: 0;"/><text class="annotation-text" text-anchor="middle" x="14.25" y="12" style="font-family: Arial; font-size: 11px; fill: rgb(0, 0, 0); fill-opacity: 1; white-space: pre;">4531</text></g></g></g><g class="annotation" data-index="17" style="opacity: 1;"><g class="annotation-text-g" transform="rotate(0,564.2877777777778,261.2)"><g class="cursor-pointer" transform="translate(550,253)"><rect class="bg" x="0.5" y="0.5" width="28" height="16" style="stroke-width: 1px; stroke: rgb(0, 0, 0); stroke-opacity: 0; fill: rgb(0, 0, 0); fill-opacity: 0;"/><text class="annotation-text" text-anchor="middle" x="14.25" y="12" style="font-family: Arial; font-size: 11px; fill: rgb(0, 0, 0); fill-opacity: 1; white-space: pre;">4664</text></g></g></g><g class="annotation" data-index="18" style="opacity: 1;"><g class="annotation-text-g" transform="rotate(0,592.6877777777778,253.35000000000002)"><g class="cursor-pointer" transform="translate(578,245)"><rect class="bg" x="0.5" y="0.5" width="28" height="16" style="stroke-width: 1px; stroke: rgb(0, 0, 0); stroke-opacity: 0; fill: rgb(0, 0, 0); fill-opacity: 0;"/><text class="annotation-text" text-anchor="middle" x="14.25" y="12" style="font-family: Arial; font-size: 11px; fill: rgb(0, 0, 0); fill-opacity: 1; white-space: pre;">4868</text></g></g></g><g class="annotation" data-index="19" style="opacity: 1;"><g class="annotation-text-g" transform="rotate(0,621.0977777777778,250.01999999999998)"><g class="cursor-pointer" transform="translate(607,242)"><rect class="bg" x="0.5" y="0.5" width="28" height="16" style="stroke-width: 1px; stroke: rgb(0, 0, 0); stroke-opacity: 0; fill: rgb(0, 0, 0); fill-opacity: 0;"/><text class="annotation-text" text-anchor="middle" x="14.25" y="12" style="font-family: Arial; font-size: 11px; fill: rgb(0, 0, 0); fill-opacity: 1; white-space: pre;">4955</text></g></g></g><g class="annotation" data-index="20" style="opacity: 1;"><g class="annotation-text-g" transform="rotate(0,649.4977777777779,251.43)"><g class="cursor-pointer" transform="translate(635,243)"><rect class="bg" x="0.5" y="0.5" width="28" height="16" style="stroke-width: 1px; stroke: rgb(0, 0, 0); stroke-opacity: 0; fill: rgb(0, 0, 0); fill-opacity: 0;"/><text class="annotation-text" text-anchor="middle" x="14.25" y="12" style="font-family: Arial; font-size: 11px; fill: rgb(0, 0, 0); fill-opacity: 1; white-space: pre;">4918</text></g></g></g></g></svg>