<svg class="main-svg" xmlns="http://www.w3.org/2000/svg" xmlns:xlink="http://www.w3.org/1999/xlink" width="700" height="500" style="" viewBox="0 0 700 500"><rect x="0" y="0" width="700" height="500" style="fill: rgb(0, 0, 0); fill-opacity: 0;"/><defs id="defs-443b01"><g class="clips"><clipPath id="clip443b01xyplot" class="plotclip"><rect width="592" height="304"/></clipPath><clipPath class="axesclip" id="clip443b01x"><rect x="72" y="0" width="592" height="500"/></clipPath><clipPath class="axesclip" id="clip443b01y"><rect x="0" y="112" width="700" height="304"/></clipPath><clipPath class="axesclip" id="clip443b01xy"><rect x="72" y="112" width="592" height="304"/></clipPath></g><g class="gradients"/><g class="patterns"/></defs><g class="bglayer"><rect class="bg" x="72" y="112" width="592" height="304" style="fill: rgb(0, 0, 0); fill-opacity: 0; stroke-width: 0;"/></g><g class="layer-below"><g class="imagelayer"/><g class="shapelayer"/></g><g class="cartesianlayer"><g class="subplot xy"><g class="layer-subplot"><g class="shapelayer"/><g class="imagelayer"/></g><g class="minor-gridlayer"><g class="x"/><g class="y"/></g><g class="gridlayer"><g class="x"/><g class="y"/></g><g class="zerolinelayer"><path class="yzl zl crisp" transform="translate(0,182.2)" d="M72,0h592" style="stroke: rgb(0, 0, 0); stroke-opacity: 1; stroke-width: 2px;"/></g><g class="layer-between"><g class="shapelayer"/><g class="imagelayer"/></g><path class="xlines-below"/><path class="ylines-below"/><g class="overlines-below"/><g class="xaxislayer-below"/><g class="yaxislayer-below"/><g class="overaxes-below"/><g class="overplot"><g class="xy" transform="translate(72,112)" clip-path="url(#clip443b01xyplot)"><g class="scatterlayer mlayer"><g class="trace scatter trace435f30" style="stroke-miterlimit: 2; opacity: 1;"><g class="fills"/><g class="errorbars"/><g class="lines"><path class="js-line" d="M53.96,70.2L112.05,60.87L131.41,65.85" style="vector-effect: none; fill: none; stroke: rgb(184, 195, 204); stroke-opacity: 1; stroke-width: 2px; opacity: 1;"/></g><g class="points"><path class="point" transform="translate(53.96,70.2)" d="M4,0A4,4 0 1,1 0,-4A4,4 0 0,1 4,0Z" style="opacity: 1; stroke-width: 2px; fill: rgb(184, 195, 204); fill-opacity: 0.22; stroke: rgb(184, 195, 204); stroke-opacity: 1;"/><path class="point" transform="translate(112.05,60.87)" d="M4,0A4,4 0 1,1 0,-4A4,4 0 0,1 4,0Z" style="opacity: 1; stroke-width: 2px; fill: rgb(184, 195, 204); fill-opacity: 0.22; stroke: rgb(184, 195, 204); stroke-opacity: 1;"/><path class="point" transform="translate(131.41,65.85)" d="M4,0A4,4 0 1,1 0,-4A4,4 0 0,1 4,0Z" style="opacity: 1; stroke-width: 2px; fill: rgb(184, 195, 204); fill-opacity: 0.22; stroke: rgb(184, 195, 204); stroke-opacity: 1;"/></g><g class="text"/></g><g class="trace scatter trace098327" style="stroke-miterlimit: 2; opacity: 1;"><g class="fills"/><g class="errorbars"/><g class="lines"/><g class="points"/><g class="text"><g class="textpoint" transform="translate(0,2.75)"><text x="53.96" y="70.2" text-anchor="end" style="font-family: Arial; font-size: 11px; fill: rgb(184, 195, 204); fill-opacity: 1; white-space: pre;">0.0</text></g><g class="textpoint" transform="translate(0,2.75)"><text x="131.41" y="65.85" text-anchor="start" style="font-family: Arial; font-size: 11px; fill: rgb(184, 195, 204); fill-opacity: 1; white-space: pre;">1.0</text></g></g></g><g class="trace scatter tracee3468e" style="stroke-miterlimit: 2; opacity: 1;"><g class="fills"/><g class="errorbars"/><g class="lines"><path class="js-line" d="M34.6,70.2L53.96,81.25L63.64,67.62L73.33,71.22L83.01,98.8L92.69,65.06L102.37,87.48L112.05,96.66L121.73,78.39L131.41,83.79L141.1,82.66L150.78,82.22L160.46,88.98L170.14,83.57L179.82,20.2L189.5,60.89L199.19,81.34L208.87,75.23L218.55,76.94L296,30.27L354.09,97.79L421.86,79.99L431.54,47.41L460.59,86.64L470.27,65.25L479.95,65.53L489.63,75.6L499.31,71.29L508.99,68.78L518.67,72.78L528.36,78.97L538.04,79.39L547.72,78.69L557.4,79.04" style="vector-effect: none; fill: none; stroke: rgb(149, 167, 182); stroke-opacity: 1; stroke-width: 2px; opacity: 1;"/></g><g class="points"><path class="point" transform="translate(34.6,70.2)" d="M4,0A4,4 0 1,1 0,-4A4,4 0 0,1 4,0Z" style="opacity: 1; stroke-width: 2px; fill: rgb(149, 167, 182); fill-opacity: 0.22; stroke: rgb(149, 167, 182); stroke-opacity: 1;"/><path class="point" transform="translate(44.28,75.87)" d="M4,0A4,4 0 1,1 0,-4A4,4 0 0,1 4,0Z" style="opacity: 1; stroke-width: 2px; fill: rgb(149, 167, 182); fill-opacity: 0.22; stroke: rgb(149, 167, 182); stroke-opacity: 1;"/><path class="point" transform="translate(53.96,81.25)" d="M4,0A4,4 0 1,1 0,-4A4,4 0 0,1 4,0Z" style="opacity: 1; stroke-width: 2px; fill: rgb(149, 167, 182); fill-opacity: 0.22; stroke: rgb(149, 167, 182); stroke-opacity: 1;"/><path class="point" transform="translate(63.64,67.62)" d="M4,0A4,4 0 1,1 0,-4A4,4 0 0,1 4,0Z" style="opacity: 1; stroke-width: 2px; fill: rgb(149, 167, 182); fill-opacity: 0.22; stroke: rgb(149, 167, 182); stroke-opacity: 1;"/><path class="point" transform="translate(73.33,71.22)" d="M4,0A4,4 0 1,1 0,-4A4,4 0 0,1 4,0Z" style="opacity: 1; stroke-width: 2px; fill: rgb(149, 167, 182); fill-opacity: 0.22; stroke: rgb(149, 167, 182); stroke-opacity: 1;"/><path class="point" transform="translate(83.01,98.8)" d="M4,0A4,4 0 1,1 0,-4A4,4 0 0,1 4,0Z" style="opacity: 1; stroke-width: 2px; fill: rgb(149, 167, 182); fill-opacity: 0.22; stroke: rgb(149, 167, 182); stroke-opacity: 1;"/><path class="point" transform="translate(92.69,65.06)" d="M4,0A4,4 0 1,1 0,-4A4,4 0 0,1 4,0Z" style="opacity: 1; stroke-width: 2px; fill: rgb(149, 167, 182); fill-opacity: 0.22; stroke: rgb(149, 167, 182); stroke-opacity: 1;"/><path class="point" transform="translate(102.37,87.48)" d="M4,0A4,4 0 1,1 0,-4A4,4 0 0,1 4,0Z" style="opacity: 1; stroke-width: 2px; fill: rgb(149, 167, 182); fill-opacity: 0.22; stroke: rgb(149, 167, 182); stroke-opacity: 1;"/><path class="point" transform="translate(112.05,96.66)" d="M4,0A4,4 0 1,1 0,-4A4,4 0 0,1 4,0Z" style="opacity: 1; stroke-width: 2px; fill: rgb(149, 167, 182); fill-opacity: 0.22; stroke: rgb(149, 167, 182); stroke-opacity: 1;"/><path class="point" transform="translate(121.73,78.39)" d="M4,0A4,4 0 1,1 0,-4A4,4 0 0,1 4,0Z" style="opacity: 1; stroke-width: 2px; fill: rgb(149, 167, 182); fill-opacity: 0.22; stroke: rgb(149, 167, 182); stroke-opacity: 1;"/><path class="point" transform="translate(131.41,83.79)" d="M4,0A4,4 0 1,1 0,-4A4,4 0 0,1 4,0Z" style="opacity: 1; stroke-width: 2px; fill: rgb(149, 167, 182); fill-opacity: 0.22; stroke: rgb(149, 167, 182); stroke-opacity: 1;"/><path class="point" transform="translate(141.1,82.66)" d="M4,0A4,4 0 1,1 0,-4A4,4 0 0,1 4,0Z" style="opacity: 1; stroke-width: 2px; fill: rgb(149, 167, 182); fill-opacity: 0.22; stroke: rgb(149, 167, 182); stroke-opacity: 1;"/><path class="point" transform="translate(150.78,82.22)" d="M4,0A4,4 0 1,1 0,-4A4,4 0 0,1 4,0Z" style="opacity: 1; stroke-width: 2px; fill: rgb(149, 167, 182); fill-opacity: 0.22; stroke: rgb(149, 167, 182); stroke-opacity: 1;"/><path class="point" transform="translate(160.46,88.98)" d="M4,0A4,4 0 1,1 0,-4A4,4 0 0,1 4,0Z" style="opacity: 1; stroke-width: 2px; fill: rgb(149, 167, 182); fill-opacity: 0.22; stroke: rgb(149, 167, 182); stroke-opacity: 1;"/><path class="point" transform="translate(170.14,83.57)" d="M4,0A4,4 0 1,1 0,-4A4,4 0 0,1 4,0Z" style="opacity: 1; stroke-width: 2px; fill: rgb(149, 167, 182); fill-opacity: 0.22; stroke: rgb(149, 167, 182); stroke-opacity: 1;"/><path class="point" transform="translate(179.82,20.2)" d="M4,0A4,4 0 1,1 0,-4A4,4 0 0,1 4,0Z" style="opacity: 1; stroke-width: 2px; fill: rgb(149, 167, 182); fill-opacity: 0.22; stroke: rgb(149, 167, 182); stroke-opacity: 1;"/><path class="point" transform="translate(189.5,60.89)" d="M4,0A4,4 0 1,1 0,-4A4,4 0 0,1 4,0Z" style="opacity: 1; stroke-width: 2px; fill: rgb(149, 167, 182); fill-opacity: 0.22; stroke: rgb(149, 167, 182); stroke-opacity: 1;"/><path class="point" transform="translate(199.19,81.34)" d="M4,0A4,4 0 1,1 0,-4A4,4 0 0,1 4,0Z" style="opacity: 1; stroke-width: 2px; fill: rgb(149, 167, 182); fill-opacity: 0.22; stroke: rgb(149, 167, 182); stroke-opacity: 1;"/><path class="point" transform="translate(208.87,75.23)" d="M4,0A4,4 0 1,1 0,-4A4,4 0 0,1 4,0Z" style="opacity: 1; stroke-width: 2px; fill: rgb(149, 167, 182); fill-opacity: 0.22; stroke: rgb(149, 167, 182); stroke-opacity: 1;"/><path class="point" transform="translate(218.55,76.94)" d="M4,0A4,4 0 1,1 0,-4A4,4 0 0,1 4,0Z" style="opacity: 1; stroke-width: 2px; fill: rgb(149, 167, 182); fill-opacity: 0.22; stroke: rgb(149, 167, 182); stroke-opacity: 1;"/><path class="point" transform="translate(296,30.27)" d="M4,0A4,4 0 1,1 0,-4A4,4 0 0,1 4,0Z" style="opacity: 1; stroke-width: 2px; fill: rgb(149, 167, 182); fill-opacity: 0.22; stroke: rgb(149, 167, 182); stroke-opacity: 1;"/><path class="point" transform="translate(354.09,97.79)" d="M4,0A4,4 0 1,1 0,-4A4,4 0 0,1 4,0Z" style="opacity: 1; stroke-width: 2px; fill: rgb(149, 167, 182); fill-opacity: 0.22; stroke: rgb(149, 167, 182); stroke-opacity: 1;"/><path class="point" transform="translate(421.86,79.99)" d="M4,0A4,4 0 1,1 0,-4A4,4 0 0,1 4,0Z" style="opacity: 1; stroke-width: 2px; fill: rgb(149, 167, 182); fill-opacity: 0.22; stroke: rgb(149, 167, 182); stroke-opacity: 1;"/><path class="point" transform="translate(431.54,47.41)" d="M4,0A4,4 0 1,1 0,-4A4,4 0 0,1 4,0Z" style="opacity: 1; stroke-width: 2px; fill: rgb(149, 167, 182); fill-opacity: 0.22; stroke: rgb(149, 167, 182); stroke-opacity: 1;"/><path class="point" transform="translate(460.59,86.64)" d="M4,0A4,4 0 1,1 0,-4A4,4 0 0,1 4,0Z" style="opacity: 1; stroke-width: 2px; fill: rgb(149, 167, 182); fill-opacity: 0.22; stroke: rgb(149, 167, 182); stroke-opacity: 1;"/><path class="point" transform="translate(470.27,65.25)" d="M4,0A4,4 0 1,1 0,-4A4,4 0 0,1 4,0Z" style="opacity: 1; stroke-width: 2px; fill: rgb(149, 167, 182); fill-opacity: 0.22; stroke: rgb(149, 167, 182); stroke-opacity: 1;"/><path class="point" transform="translate(479.95,65.53)" d="M4,0A4,4 0 1,1 0,-4A4,4 0 0,1 4,0Z" style="opacity: 1; stroke-width: 2px; fill: rgb(149, 167, 182); fill-opacity: 0.22; stroke: rgb(149, 167, 182); stroke-opacity: 1;"/><path class="point" transform="translate(489.63,75.6)" d="M4,0A4,4 0 1,1 0,-4A4,4 0 0,1 4,0Z" style="opacity: 1; stroke-width: 2px; fill: rgb(149, 167, 182); fill-opacity: 0.22; stroke: rgb(149, 167, 182); stroke-opacity: 1;"/><path class="point" transform="translate(499.31,71.29)" d="M4,0A4,4 0 1,1 0,-4A4,4 0 0,1 4,0Z" style="opacity: 1; stroke-width: 2px; fill: rgb(149, 167, 182); fill-opacity: 0.22; stroke: rgb(149, 167, 182); stroke-opacity: 1;"/><path class="point" transform="translate(508.99,68.78)" d="M4,0A4,4 0 1,1 0,-4A4,4 0 0,1 4,0Z" style="opacity: 1; stroke-width: 2px; fill: rgb(149, 167, 182); fill-opacity: 0.22; stroke: rgb(149, 167, 182); stroke-opacity: 1;"/><path class="point" transform="translate(518.67,72.78)" d="M4,0A4,4 0 1,1 0,-4A4,4 0 0,1 4,0Z" style="opacity: 1; stroke-width: 2px; fill: rgb(149, 167, 182); fill-opacity: 0.22; stroke: rgb(149, 167, 182); stroke-opacity: 1;"/><path class="point" transform="translate(528.36,78.97)" d="M4,0A4,4 0 1,1 0,-4A4,4 0 0,1 4,0Z" style="opacity: 1; stroke-width: 2px; fill: rgb(149, 167, 182); fill-opacity: 0.22; stroke: rgb(149, 167, 182); stroke-opacity: 1;"/><path class="point" transform="translate(538.04,79.39)" d="M4,0A4,4 0 1,1 0,-4A4,4 0 0,1 4,0Z" style="opacity: 1; stroke-width: 2px; fill: rgb(149, 167, 182); fill-opacity: 0.22; stroke: rgb(149, 167, 182); stroke-opacity: 1;"/><path class="point" transform="translate(547.72,78.69)" d="M4,0A4,4 0 1,1 0,-4A4,4 0 0,1 4,0Z" style="opacity: 1; stroke-width: 2px; fill: rgb(149, 167, 182); fill-opacity: 0.22; stroke: rgb(149, 167, 182); stroke-opacity: 1;"/><path class="point" transform="translate(557.4,79.04)" d="M4,0A4,4 0 1,1 0,-4A4,4 0 0,1 4,0Z" style="opacity: 1; stroke-width: 2px; fill: rgb(149, 167, 182); fill-opacity: 0.22; stroke: rgb(149, 167, 182); stroke-opacity: 1;"/></g><g class="text"/></g><g class="trace scatter trace7fa142" style="stroke-miterlimit: 2; opacity: 1;"><g class="fills"/><g class="errorbars"/><g class="lines"/><g class="points"/><g class="text"><g class="textpoint" transform="translate(0,2.75)"><text x="34.6" y="70.2" text-anchor="end" style="font-family: Arial; font-size: 11px; fill: rgb(149, 167, 182); fill-opacity: 1; white-space: pre;">0.0</text></g><g class="textpoint" transform="translate(0,2.75)"><text x="557.4" y="79.04" text-anchor="start" style="font-family: Arial; font-size: 11px; fill: rgb(149, 167, 182); fill-opacity: 1; white-space: pre;">-2.0</text></g></g></g><g class="trace scatter trace87f66d" style="stroke-miterlimit: 2; opacity: 1;"><g class="fills"/><g class="errorbars"/><g class="lines"><path class="js-line" d="M121.73,70.2L131.41,138.16L141.1,126.33L150.78,118.39L160.46,126.12L170.14,134.55L179.82,158.37L189.5,155.39L199.19,181.48L208.87,184.88L218.55,190.07L228.23,196.06L237.91,199.7L247.59,195.08L257.27,164.08L266.96,192.21L276.64,183.3L286.32,193.6L296,122.61L305.68,156.93L315.36,203.29L325.04,217.73L334.73,213.86L344.41,223.92L354.09,255.36L363.77,263.57L373.45,283.55L383.13,283.8L392.81,281.46" style="vector-effect: none; fill: none; stroke: rgb(216, 181, 91); stroke-opacity: 1; stroke-width: 2px; opacity: 1;"/></g><g class="points"><path class="point" transform="translate(121.73,70.2)" d="M4,0A4,4 0 1,1 0,-4A4,4 0 0,1 4,0Z" style="opacity: 1; stroke-width: 2px; fill: rgb(216, 181, 91); fill-opacity: 0.22; stroke: rgb(216, 181, 91); stroke-opacity: 1;"/><path class="point" transform="translate(131.41,138.16)" d="M4,0A4,4 0 1,1 0,-4A4,4 0 0,1 4,0Z" style="opacity: 1; stroke-width: 2px; fill: rgb(216, 181, 91); fill-opacity: 0.22; stroke: rgb(216, 181, 91); stroke-opacity: 1;"/><path class="point" transform="translate(141.1,126.33)" d="M4,0A4,4 0 1,1 0,-4A4,4 0 0,1 4,0Z" style="opacity: 1; stroke-width: 2px; fill: rgb(216, 181, 91); fill-opacity: 0.22; stroke: rgb(216, 181, 91); stroke-opacity: 1;"/><path class="point" transform="translate(150.78,118.39)" d="M4,0A4,4 0 1,1 0,-4A4,4 0 0,1 4,0Z" style="opacity: 1; stroke-width: 2px; fill: rgb(216, 181, 91); fill-opacity: 0.22; stroke: rgb(216, 181, 91); stroke-opacity: 1;"/><path class="point" transform="translate(160.46,126.12)" d="M4,0A4,4 0 1,1 0,-4A4,4 0 0,1 4,0Z" style="opacity: 1; stroke-width: 2px; fill: rgb(216, 181, 91); fill-opacity: 0.22; stroke: rgb(216, 181, 91); stroke-opacity: 1;"/><path class="point" transform="translate(170.14,134.55)" d="M4,0A4,4 0 1,1 0,-4A4,4 0 0,1 4,0Z" style="opacity: 1; stroke-width: 2px; fill: rgb(216, 181, 91); fill-opacity: 0.22; stroke: rgb(216, 181, 91); stroke-opacity: 1;"/><path class="point" transform="translate(179.82,158.37)" d="M4,0A4,4 0 1,1 0,-4A4,4 0 0,1 4,0Z" style="opacity: 1; stroke-width: 2px; fill: rgb(216, 181, 91); fill-opacity: 0.22; stroke: rgb(216, 181, 91); stroke-opacity: 1;"/><path class="point" transform="translate(189.5,155.39)" d="M4,0A4,4 0 1,1 0,-4A4,4 0 0,1 4,0Z" style="opacity: 1; stroke-width: 2px; fill: rgb(216, 181, 91); fill-opacity: 0.22; stroke: rgb(216, 181, 91); stroke-opacity: 1;"/><path class="point" transform="translate(199.19,181.48)" d="M4,0A4,4 0 1,1 0,-4A4,4 0 0,1 4,0Z" style="opacity: 1; stroke-width: 2px; fill: rgb(216, 181, 91); fill-opacity: 0.22; stroke: rgb(216, 181, 91); stroke-opacity: 1;"/><path class="point" transform="translate(208.87,184.88)" d="M4,0A4,4 0 1,1 0,-4A4,4 0 0,1 4,0Z" style="opacity: 1; stroke-width: 2px; fill: rgb(216, 181, 91); fill-opacity: 0.22; stroke: rgb(216, 181, 91); stroke-opacity: 1;"/><path class="point" transform="translate(218.55,190.07)" d="M4,0A4,4 0 1,1 0,-4A4,4 0 0,1 4,0Z" style="opacity: 1; stroke-width: 2px; fill: rgb(216, 181, 91); fill-opacity: 0.22; stroke: rgb(216, 181, 91); stroke-opacity: 1;"/><path class="point" transform="translate(228.23,196.06)" d="M4,0A4,4 0 1,1 0,-4A4,4 0 0,1 4,0Z" style="opacity: 1; stroke-width: 2px; fill: rgb(216, 181, 91); fill-opacity: 0.22; stroke: rgb(216, 181, 91); stroke-opacity: 1;"/><path class="point" transform="translate(237.91,199.7)" d="M4,0A4,4 0 1,1 0,-4A4,4 0 0,1 4,0Z" style="opacity: 1; stroke-width: 2px; fill: rgb(216, 181, 91); fill-opacity: 0.22; stroke: rgb(216, 181, 91); stroke-opacity: 1;"/><path class="point" transform="translate(247.59,195.08)" d="M4,0A4,4 0 1,1 0,-4A4,4 0 0,1 4,0Z" style="opacity: 1; stroke-width: 2px; fill: rgb(216, 181, 91); fill-opacity: 0.22; stroke: rgb(216, 181, 91); stroke-opacity: 1;"/><path class="point" transform="translate(257.27,164.08)" d="M4,0A4,4 0 1,1 0,-4A4,4 0 0,1 4,0Z" style="opacity: 1; stroke-width: 2px; fill: rgb(216, 181, 91); fill-opacity: 0.22; stroke: rgb(216, 181, 91); stroke-opacity: 1;"/><path class="point" transform="translate(266.96,192.21)" d="M4,0A4,4 0 1,1 0,-4A4,4 0 0,1 4,0Z" style="opacity: 1; stroke-width: 2px; fill: rgb(216, 181, 91); fill-opacity: 0.22; stroke: rgb(216, 181, 91); stroke-opacity: 1;"/><path class="point" transform="translate(276.64,183.3)" d="M4,0A4,4 0 1,1 0,-4A4,4 0 0,1 4,0Z" style="opacity: 1; stroke-width: 2px; fill: rgb(216, 181, 91); fill-opacity: 0.22; stroke: rgb(216, 181, 91); stroke-opacity: 1;"/><path class="point" transform="translate(286.32,193.6)" d="M4,0A4,4 0 1,1 0,-4A4,4 0 0,1 4,0Z" style="opacity: 1; stroke-width: 2px; fill: rgb(216, 181, 91); fill-opacity: 0.22; stroke: rgb(216, 181, 91); stroke-opacity: 1;"/><path class="point" transform="translate(296,122.61)" d="M4,0A4,4 0 1,1 0,-4A4,4 0 0,1 4,0Z" style="opacity: 1; stroke-width: 2px; fill: rgb(216, 181, 91); fill-opacity: 0.22; stroke: rgb(216, 181, 91); stroke-opacity: 1;"/><path class="point" transform="translate(305.68,156.93)" d="M4,0A4,4 0 1,1 0,-4A4,4 0 0,1 4,0Z" style="opacity: 1; stroke-width: 2px; fill: rgb(216, 181, 91); fill-opacity: 0.22; stroke: rgb(216, 181, 91); stroke-opacity: 1;"/><path class="point" transform="translate(315.36,203.29)" d="M4,0A4,4 0 1,1 0,-4A4,4 0 0,1 4,0Z" style="opacity: 1; stroke-width: 2px; fill: rgb(216, 181, 91); fill-opacity: 0.22; stroke: rgb(216, 181, 91); stroke-opacity: 1;"/><path class="point" transform="translate(325.04,217.73)" d="M4,0A4,4 0 1,1 0,-4A4,4 0 0,1 4,0Z" style="opacity: 1; stroke-width: 2px; fill: rgb(216, 181, 91); fill-opacity: 0.22; stroke: rgb(216, 181, 91); stroke-opacity: 1;"/><path class="point" transform="translate(334.73,213.86)" d="M4,0A4,4 0 1,1 0,-4A4,4 0 0,1 4,0Z" style="opacity: 1; stroke-width: 2px; fill: rgb(216, 181, 91); fill-opacity: 0.22; stroke: rgb(216, 181, 91); stroke-opacity: 1;"/><path class="point" transform="translate(344.41,223.92)" d="M4,0A4,4 0 1,1 0,-4A4,4 0 0,1 4,0Z" style="opacity: 1; stroke-width: 2px; fill: rgb(216, 181, 91); fill-opacity: 0.22; stroke: rgb(216, 181, 91); stroke-opacity: 1;"/><path class="point" transform="translate(354.09,255.36)" d="M4,0A4,4 0 1,1 0,-4A4,4 0 0,1 4,0Z" style="opacity: 1; stroke-width: 2px; fill: rgb(216, 181, 91); fill-opacity: 0.22; stroke: rgb(216, 181, 91); stroke-opacity: 1;"/><path class="point" transform="translate(363.77,263.57)" d="M4,0A4,4 0 1,1 0,-4A4,4 0 0,1 4,0Z" style="opacity: 1; stroke-width: 2px; fill: rgb(216, 181, 91); fill-opacity: 0.22; stroke: rgb(216, 181, 91); stroke-opacity: 1;"/><path class="point" transform="translate(373.45,283.55)" d="M4,0A4,4 0 1,1 0,-4A4,4 0 0,1 4,0Z" style="opacity: 1; stroke-width: 2px; fill: rgb(216, 181, 91); fill-opacity: 0.22; stroke: rgb(216, 181, 91); stroke-opacity: 1;"/><path class="point" transform="translate(383.13,283.8)" d="M4,0A4,4 0 1,1 0,-4A4,4 0 0,1 4,0Z" style="opacity: 1; stroke-width: 2px; fill: rgb(216, 181, 91); fill-opacity: 0.22; stroke: rgb(216, 181, 91); stroke-opacity: 1;"/><path class="point" transform="translate(392.81,281.46)" d="M4,0A4,4 0 1,1 0,-4A4,4 0 0,1 4,0Z" style="opacity: 1; stroke-width: 2px; fill: rgb(216, 181, 91); fill-opacity: 0.22; stroke: rgb(216, 181, 91); stroke-opacity: 1;"/></g><g class="text"/></g><g class="trace scatter trace3c064f" style="stroke-miterlimit: 2; opacity: 1;"><g class="fills"/><g class="errorbars"/><g class="lines"/><g class="points"/><g class="text"><g class="textpoint" transform="translate(0,2.75)"><text x="121.73" y="70.2" text-anchor="end" style="font-family: Arial; font-size: 11px; fill: rgb(216, 181, 91); fill-opacity: 1; white-space: pre;">0.0</text></g><g class="textpoint" transform="translate(0,2.75)"><text x="392.81" y="281.46" text-anchor="start" style="font-family: Arial; font-size: 11px; fill: rgb(216, 181, 91); fill-opacity: 1; white-space: pre;">-46.9</text></g></g></g></g></g></g><g class="zerolinelayer-above"/><path class="xlines-above crisp" d="M71,416.5H664" style="fill: none; stroke-width: 1px; stroke: rgb(0, 0, 0); stroke-opacity: 1;"/><path class="ylines-above crisp" d="M71.5,112V416" style="fill: none; stroke-width: 1px; stroke: rgb(0, 0, 0); stroke-opacity: 1;"/><g class="overlines-above"/><g class="xaxislayer-above"><g class="xtick"><text text-anchor="middle" x="0" y="436.2" transform="translate(135.64,0)" style="font-family: Arial; font-size: 16px; fill: rgb(0, 0, 0); fill-opacity: 1; white-space: pre;">1970</text></g><g class="xtick"><text text-anchor="middle" x="0" y="436.2" style="font-family: Arial; font-size: 16px; fill: rgb(0, 0, 0); fill-opacity: 1; white-space: pre;" transform="translate(232.46,0)">1980</text></g><g class="xtick"><text text-anchor="middle" x="0" y="436.2" style="font-family: Arial; font-size: 16px; fill: rgb(0, 0, 0); fill-opacity: 1; white-space: pre;" transform="translate(329.27,0)">1990</text></g><g class="xtick"><text text-anchor="middle" x="0" y="436.2" style="font-family: Arial; font-size: 16px; fill: rgb(0, 0, 0); fill-opacity: 1; white-space: pre;" transform="translate(426.09,0)">2000</text></g><g class="xtick"><text text-anchor="middle" x="0" y="436.2" style="font-family: Arial; font-size: 16px; fill: rgb(0, 0, 0); fill-opacity: 1; white-space: pre;" transform="translate(522.9,0)">2010</text></g><g class="xtick"><text text-anchor="middle" x="0" y="436.2" style="font-family: Arial; font-size: 16px; fill: rgb(0, 0, 0); fill-opacity: 1; white-space: pre;" transform="translate(619.72,0)">2020</text></g></g><g class="yaxislayer-above"><g class="ytick"><text text-anchor="end" x="67.8" y="5.6" transform="translate(0,407.22)" style="font-family: Arial; font-size: 16px; fill: rgb(0, 0, 0); fill-opacity: 1; white-space: pre;">−50</text></g><g class="ytick"><text text-anchor="end" x="67.8" y="5.6" style="font-family: Arial; font-size: 16px; fill: rgb(0, 0, 0); fill-opacity: 1; white-space: pre;" transform="translate(0,362.21000000000004)">−40</text></g><g class="ytick"><text text-anchor="end" x="67.8" y="5.6" style="font-family: Arial; font-size: 16px; fill: rgb(0, 0, 0); fill-opacity: 1; white-space: pre;" transform="translate(0,317.21000000000004)">−30</text></g><g class="ytick"><text text-anchor="end" x="67.8" y="5.6" style="font-family: Arial; font-size: 16px; fill: rgb(0, 0, 0); fill-opacity: 1; white-space: pre;" transform="translate(0,272.21000000000004)">−20</text></g><g class="ytick"><text text-anchor="end" x="67.8" y="5.6" style="font-family: Arial; font-size: 16px; fill: rgb(0, 0, 0); fill-opacity: 1; white-space: pre;" transform="translate(0,227.2)">−10</text></g><g class="ytick"><text text-anchor="end" x="67.8" y="5.6" style="font-family: Arial; font-size: 16px; fill: rgb(0, 0, 0); fill-opacity: 1; white-space: pre;" transform="translate(0,182.2)">0</text></g><g class="ytick"><text text-anchor="end" x="67.8" y="5.6" style="font-family: Arial; font-size: 16px; fill: rgb(0, 0, 0); fill-opacity: 1; white-space: pre;" transform="translate(0,137.2)">10</text></g></g><g class="overaxes-above"/></g></g><g class="polarlayer"/><g class="smithlayer"/><g class="ternarylayer"/><g class="geolayer"/><g class="funnelarealayer"/><g class="pielayer"/><g class="iciclelayer"/><g class="treemaplayer"/><g class="sunburstlayer"/><g class="glimages"/><defs id="topdefs-443b01"><g class="clips"/><clipPath id="legend443b01"><rect width="339" height="33" x="0" y="0"/></clipPath></defs><g class="layer-above"><g class="imagelayer"/><g class="shapelayer"/></g><g class="infolayer"><g class="legend" pointer-events="all" transform="translate(325,72.91999999999999)"><rect class="bg" shape-rendering="crispEdges" style="stroke: rgb(0, 0, 0); stroke-opacity: 0; fill: rgb(0, 0, 0); fill-opacity: 0; stroke-width: 0px;" width="339" height="33" x="0" y="0"/><g class="scrollbox" transform="" clip-path="url(#legend443b01)"><g class="groups"><g class="traces" transform="translate(0,16.25)" style="opacity: 1;"><text class="legendtext" text-anchor="start" x="40" y="5.85" style="font-family: Arial; font-size: 15px; fill: rgb(0, 0, 0); fill-opacity: 1; white-space: pre;">1 ROOM</text><g class="layers" style="opacity: 1;"><g class="legendfill"/><g class="legendlines"><path class="js-line" d="M5,0h30" style="fill: none; stroke: rgb(184, 195, 204); stroke-opacity: 1; stroke-width: 2px;"/></g><g class="legendsymbols"><g class="legendpoints"><path class="scatterpts" transform="translate(20,0)" d="M4,0A4,4 0 1,1 0,-4A4,4 0 0,1 4,0Z" style="opacity: 1; stroke-width: 2px; fill: rgb(184, 195, 204); fill-opacity: 0.22; stroke: rgb(184, 195, 204); stroke-opacity: 1;"/></g></g></g><rect class="legendtoggle" x="0" y="-11.25" width="101.6875" height="22.5" style="fill: rgb(0, 0, 0); fill-opacity: 0;"/></g><g class="traces" transform="translate(104.1875,16.25)" style="opacity: 1;"><text class="legendtext" text-anchor="start" x="40" y="5.85" style="font-family: Arial; font-size: 15px; fill: rgb(0, 0, 0); fill-opacity: 1; white-space: pre;">2 ROOM</text><g class="layers" style="opacity: 1;"><g class="legendfill"/><g class="legendlines"><path class="js-line" d="M5,0h30" style="fill: none; stroke: rgb(149, 167, 182); stroke-opacity: 1; stroke-width: 2px;"/></g><g class="legendsymbols"><g class="legendpoints"><path class="scatterpts" transform="translate(20,0)" d="M4,0A4,4 0 1,1 0,-4A4,4 0 0,1 4,0Z" style="opacity: 1; stroke-width: 2px; fill: rgb(149, 167, 182); fill-opacity: 0.22; stroke: rgb(149, 167, 182); stroke-opacity: 1;"/></g></g></g><rect class="legendtoggle" x="0" y="-11.25" width="101.6875" height="22.5" style="fill: rgb(0, 0, 0); fill-opacity: 0;"/></g><g class="traces" transform="translate(208.375,16.25)" style="opacity: 1;"><text class="legendtext" text-anchor="start" x="40" y="5.85" style="font-family: Arial; font-size: 15px; fill: rgb(0, 0, 0); fill-opacity: 1; white-space: pre;">EXECUTIVE</text><g class="layers" style="opacity: 1;"><g class="legendfill"/><g class="legendlines"><path class="js-line" d="M5,0h30" style="fill: none; stroke: rgb(216, 181, 91); stroke-opacity: 1; stroke-width: 2px;"/></g><g class="legendsymbols"><g class="legendpoints"><path class="scatterpts" transform="translate(20,0)" d="M4,0A4,4 0 1,1 0,-4A4,4 0 0,1 4,0Z" style="opacity: 1; stroke-width: 2px; fill: rgb(216, 181, 91); fill-opacity: 0.22; stroke: rgb(216, 181, 91); stroke-opacity: 1;"/></g></g></g><rect class="legendtoggle" x="0" y="-11.25" width="127.53125" height="22.5" style="fill: rgb(0, 0, 0); fill-opacity: 0;"/></g></g></g><rect class="scrollbar" rx="20" ry="3" width="0" height="0" style="fill: rgb(128, 139, 164); fill-opacity: 1;" x="0" y="0"/></g><g class="g-gtitle"><text class="gtitle" x="35" y="56" text-anchor="start" dy="0em" style="opacity: 1; font-family: Georgia; font-size: 28px; fill: rgb(0, 0, 0); fill-opacity: 1; white-space: pre;">Year-dummy coefficients: sparse and niche flat types</text></g><g class="g-xtitle"/><g class="g-ytitle"/></g></svg>