<svg class="main-svg" xmlns="http://www.w3.org/2000/svg" xmlns:xlink="http://www.w3.org/1999/xlink" width="700" height="500" style="" viewBox="0 0 700 500"><rect x="0" y="0" width="700" height="500" style="fill: rgb(0, 0, 0); fill-opacity: 0;"/><defs id="defs-7b6fb8"><g class="clips"><clipPath id="clip7b6fb8xyplot" class="plotclip"><rect width="592" height="304"/></clipPath><clipPath class="axesclip" id="clip7b6fb8x"><rect x="72" y="0" width="592" height="500"/></clipPath><clipPath class="axesclip" id="clip7b6fb8y"><rect x="0" y="112" width="700" height="304"/></clipPath><clipPath class="axesclip" id="clip7b6fb8xy"><rect x="72" y="112" width="592" height="304"/></clipPath></g><g class="gradients"/><g class="patterns"/></defs><g class="bglayer"><rect class="bg" x="72" y="112" width="592" height="304" style="fill: rgb(0, 0, 0); fill-opacity: 0; stroke-width: 0;"/></g><g class="layer-below"><g class="imagelayer"/><g class="shapelayer"/></g><g class="cartesianlayer"><g class="subplot xy"><g class="layer-subplot"><g class="shapelayer"/><g class="imagelayer"/></g><g class="minor-gridlayer"><g class="x"/><g class="y"/></g><g class="gridlayer"><g class="x"/><g class="y"/></g><g class="zerolinelayer"/><g class="layer-between"><g class="shapelayer"/><g class="imagelayer"/></g><path class="xlines-below"/><path class="ylines-below"/><g class="overlines-below"/><g class="xaxislayer-below"/><g class="yaxislayer-below"/><g class="overaxes-below"/><g class="overplot"><g class="xy" transform="translate(72,112)" clip-path="url(#clip7b6fb8xyplot)"><g class="scatterlayer mlayer"><g class="trace scatter trace488e60" style="stroke-miterlimit: 2; opacity: 1;"><g class="fills"/><g class="errorbars"/><g class="lines"><path class="js-line" d="M34.6,266.12L84.39,283.8L109.29,281.2L134.18,274.44L183.97,283.8L208.87,246.93L233.76,283.8L258.66,283.8L283.55,249.29L308.45,242.33L333.34,244.64L358.24,245.07L383.13,254.54L408.03,251.23L432.92,250.46L457.82,247.06L482.71,247.23L507.61,247.65L532.5,247.11L557.4,248.49" style="vector-effect: none; fill: none; stroke: rgb(169, 183, 196); stroke-opacity: 1; stroke-width: 2px; opacity: 1;"/></g><g class="points"><path class="point" transform="translate(34.6,266.12)" d="M4,0A4,4 0 1,1 0,-4A4,4 0 0,1 4,0Z" style="opacity: 1; stroke-width: 2px; fill: rgb(169, 183, 196); fill-opacity: 0.22; stroke: rgb(169, 183, 196); stroke-opacity: 1;"/><path class="point" transform="translate(84.39,283.8)" d="M4,0A4,4 0 1,1 0,-4A4,4 0 0,1 4,0Z" style="opacity: 1; stroke-width: 2px; fill: rgb(169, 183, 196); fill-opacity: 0.22; stroke: rgb(169, 183, 196); stroke-opacity: 1;"/><path class="point" transform="translate(109.29,281.2)" d="M4,0A4,4 0 1,1 0,-4A4,4 0 0,1 4,0Z" style="opacity: 1; stroke-width: 2px; fill: rgb(169, 183, 196); fill-opacity: 0.22; stroke: rgb(169, 183, 196); stroke-opacity: 1;"/><path class="point" transform="translate(134.18,274.44)" d="M4,0A4,4 0 1,1 0,-4A4,4 0 0,1 4,0Z" style="opacity: 1; stroke-width: 2px; fill: rgb(169, 183, 196); fill-opacity: 0.22; stroke: rgb(169, 183, 196); stroke-opacity: 1;"/><path class="point" transform="translate(183.97,283.8)" d="M4,0A4,4 0 1,1 0,-4A4,4 0 0,1 4,0Z" style="opacity: 1; stroke-width: 2px; fill: rgb(169, 183, 196); fill-opacity: 0.22; stroke: rgb(169, 183, 196); stroke-opacity: 1;"/><path class="point" transform="translate(208.87,246.93)" d="M4,0A4,4 0 1,1 0,-4A4,4 0 0,1 4,0Z" style="opacity: 1; stroke-width: 2px; fill: rgb(169, 183, 196); fill-opacity: 0.22; stroke: rgb(169, 183, 196); stroke-opacity: 1;"/><path class="point" transform="translate(233.76,283.8)" d="M4,0A4,4 0 1,1 0,-4A4,4 0 0,1 4,0Z" style="opacity: 1; stroke-width: 2px; fill: rgb(169, 183, 196); fill-opacity: 0.22; stroke: rgb(169, 183, 196); stroke-opacity: 1;"/><path class="point" transform="translate(258.66,283.8)" d="M4,0A4,4 0 1,1 0,-4A4,4 0 0,1 4,0Z" style="opacity: 1; stroke-width: 2px; fill: rgb(169, 183, 196); fill-opacity: 0.22; stroke: rgb(169, 183, 196); stroke-opacity: 1;"/><path class="point" transform="translate(283.55,249.29)" d="M4,0A4,4 0 1,1 0,-4A4,4 0 0,1 4,0Z" style="opacity: 1; stroke-width: 2px; fill: rgb(169, 183, 196); fill-opacity: 0.22; stroke: rgb(169, 183, 196); stroke-opacity: 1;"/><path class="point" transform="translate(308.45,242.33)" d="M4,0A4,4 0 1,1 0,-4A4,4 0 0,1 4,0Z" style="opacity: 1; stroke-width: 2px; fill: rgb(169, 183, 196); fill-opacity: 0.22; stroke: rgb(169, 183, 196); stroke-opacity: 1;"/><path class="point" transform="translate(333.34,244.64)" d="M4,0A4,4 0 1,1 0,-4A4,4 0 0,1 4,0Z" style="opacity: 1; stroke-width: 2px; fill: rgb(169, 183, 196); fill-opacity: 0.22; stroke: rgb(169, 183, 196); stroke-opacity: 1;"/><path class="point" transform="translate(358.24,245.07)" d="M4,0A4,4 0 1,1 0,-4A4,4 0 0,1 4,0Z" style="opacity: 1; stroke-width: 2px; fill: rgb(169, 183, 196); fill-opacity: 0.22; stroke: rgb(169, 183, 196); stroke-opacity: 1;"/><path class="point" transform="translate(383.13,254.54)" d="M4,0A4,4 0 1,1 0,-4A4,4 0 0,1 4,0Z" style="opacity: 1; stroke-width: 2px; fill: rgb(169, 183, 196); fill-opacity: 0.22; stroke: rgb(169, 183, 196); stroke-opacity: 1;"/><path class="point" transform="translate(408.03,251.23)" d="M4,0A4,4 0 1,1 0,-4A4,4 0 0,1 4,0Z" style="opacity: 1; stroke-width: 2px; fill: rgb(169, 183, 196); fill-opacity: 0.22; stroke: rgb(169, 183, 196); stroke-opacity: 1;"/><path class="point" transform="translate(432.92,250.46)" d="M4,0A4,4 0 1,1 0,-4A4,4 0 0,1 4,0Z" style="opacity: 1; stroke-width: 2px; fill: rgb(169, 183, 196); fill-opacity: 0.22; stroke: rgb(169, 183, 196); stroke-opacity: 1;"/><path class="point" transform="translate(457.82,247.06)" d="M4,0A4,4 0 1,1 0,-4A4,4 0 0,1 4,0Z" style="opacity: 1; stroke-width: 2px; fill: rgb(169, 183, 196); fill-opacity: 0.22; stroke: rgb(169, 183, 196); stroke-opacity: 1;"/><path class="point" transform="translate(482.71,247.23)" d="M4,0A4,4 0 1,1 0,-4A4,4 0 0,1 4,0Z" style="opacity: 1; stroke-width: 2px; fill: rgb(169, 183, 196); fill-opacity: 0.22; stroke: rgb(169, 183, 196); stroke-opacity: 1;"/><path class="point" transform="translate(507.61,247.65)" d="M4,0A4,4 0 1,1 0,-4A4,4 0 0,1 4,0Z" style="opacity: 1; stroke-width: 2px; fill: rgb(169, 183, 196); fill-opacity: 0.22; stroke: rgb(169, 183, 196); stroke-opacity: 1;"/><path class="point" transform="translate(532.5,247.11)" d="M4,0A4,4 0 1,1 0,-4A4,4 0 0,1 4,0Z" style="opacity: 1; stroke-width: 2px; fill: rgb(169, 183, 196); fill-opacity: 0.22; stroke: rgb(169, 183, 196); stroke-opacity: 1;"/><path class="point" transform="translate(557.4,248.49)" d="M4,0A4,4 0 1,1 0,-4A4,4 0 0,1 4,0Z" style="opacity: 1; stroke-width: 2px; fill: rgb(169, 183, 196); fill-opacity: 0.22; stroke: rgb(169, 183, 196); stroke-opacity: 1;"/></g><g class="text"/></g><g class="trace scatter trace2c7fb4" style="stroke-miterlimit: 2; opacity: 1;"><g class="fills"/><g class="errorbars"/><g class="lines"/><g class="points"/><g class="text"><g class="textpoint" transform="translate(0,2.75)"><text x="34.6" y="266.12" text-anchor="end" style="font-family: Arial; font-size: 11px; fill: rgb(169, 183, 196); fill-opacity: 1; white-space: pre;">63.8</text></g><g class="textpoint" transform="translate(0,2.75)"><text x="557.4" y="248.49" text-anchor="start" style="font-family: Arial; font-size: 11px; fill: rgb(169, 183, 196); fill-opacity: 1; white-space: pre;">67.5</text></g></g></g><g class="trace scatter tracea87ead" style="stroke-miterlimit: 2; opacity: 1;"><g class="fills"/><g class="errorbars"/><g class="lines"><path class="js-line" d="M34.6,117.87L59.5,133.77L84.39,144.49L109.29,144.58L134.18,141.38L159.08,131.63L183.97,142.04L208.87,136.62L233.76,140.53L258.66,148.39L283.55,124.8L308.45,125.83L333.34,128.59L358.24,126.55L383.13,139.9L408.03,133.26L432.92,134.31L457.82,130.82L482.71,129.91L507.61,130.98L532.5,130.56L557.4,127.51" style="vector-effect: none; fill: none; stroke: rgb(207, 134, 75); stroke-opacity: 1; stroke-width: 2px; opacity: 1;"/></g><g class="points"><path class="point" transform="translate(34.6,117.87)" d="M4,0A4,4 0 1,1 0,-4A4,4 0 0,1 4,0Z" style="opacity: 1; stroke-width: 2px; fill: rgb(207, 134, 75); fill-opacity: 0.22; stroke: rgb(207, 134, 75); stroke-opacity: 1;"/><path class="point" transform="translate(59.5,133.77)" d="M4,0A4,4 0 1,1 0,-4A4,4 0 0,1 4,0Z" style="opacity: 1; stroke-width: 2px; fill: rgb(207, 134, 75); fill-opacity: 0.22; stroke: rgb(207, 134, 75); stroke-opacity: 1;"/><path class="point" transform="translate(84.39,144.49)" d="M4,0A4,4 0 1,1 0,-4A4,4 0 0,1 4,0Z" style="opacity: 1; stroke-width: 2px; fill: rgb(207, 134, 75); fill-opacity: 0.22; stroke: rgb(207, 134, 75); stroke-opacity: 1;"/><path class="point" transform="translate(109.29,144.58)" d="M4,0A4,4 0 1,1 0,-4A4,4 0 0,1 4,0Z" style="opacity: 1; stroke-width: 2px; fill: rgb(207, 134, 75); fill-opacity: 0.22; stroke: rgb(207, 134, 75); stroke-opacity: 1;"/><path class="point" transform="translate(134.18,141.38)" d="M4,0A4,4 0 1,1 0,-4A4,4 0 0,1 4,0Z" style="opacity: 1; stroke-width: 2px; fill: rgb(207, 134, 75); fill-opacity: 0.22; stroke: rgb(207, 134, 75); stroke-opacity: 1;"/><path class="point" transform="translate(159.08,131.63)" d="M4,0A4,4 0 1,1 0,-4A4,4 0 0,1 4,0Z" style="opacity: 1; stroke-width: 2px; fill: rgb(207, 134, 75); fill-opacity: 0.22; stroke: rgb(207, 134, 75); stroke-opacity: 1;"/><path class="point" transform="translate(183.97,142.04)" d="M4,0A4,4 0 1,1 0,-4A4,4 0 0,1 4,0Z" style="opacity: 1; stroke-width: 2px; fill: rgb(207, 134, 75); fill-opacity: 0.22; stroke: rgb(207, 134, 75); stroke-opacity: 1;"/><path class="point" transform="translate(208.87,136.62)" d="M4,0A4,4 0 1,1 0,-4A4,4 0 0,1 4,0Z" style="opacity: 1; stroke-width: 2px; fill: rgb(207, 134, 75); fill-opacity: 0.22; stroke: rgb(207, 134, 75); stroke-opacity: 1;"/><path class="point" transform="translate(233.76,140.53)" d="M4,0A4,4 0 1,1 0,-4A4,4 0 0,1 4,0Z" style="opacity: 1; stroke-width: 2px; fill: rgb(207, 134, 75); fill-opacity: 0.22; stroke: rgb(207, 134, 75); stroke-opacity: 1;"/><path class="point" transform="translate(258.66,148.39)" d="M4,0A4,4 0 1,1 0,-4A4,4 0 0,1 4,0Z" style="opacity: 1; stroke-width: 2px; fill: rgb(207, 134, 75); fill-opacity: 0.22; stroke: rgb(207, 134, 75); stroke-opacity: 1;"/><path class="point" transform="translate(283.55,124.8)" d="M4,0A4,4 0 1,1 0,-4A4,4 0 0,1 4,0Z" style="opacity: 1; stroke-width: 2px; fill: rgb(207, 134, 75); fill-opacity: 0.22; stroke: rgb(207, 134, 75); stroke-opacity: 1;"/><path class="point" transform="translate(308.45,125.83)" d="M4,0A4,4 0 1,1 0,-4A4,4 0 0,1 4,0Z" style="opacity: 1; stroke-width: 2px; fill: rgb(207, 134, 75); fill-opacity: 0.22; stroke: rgb(207, 134, 75); stroke-opacity: 1;"/><path class="point" transform="translate(333.34,128.59)" d="M4,0A4,4 0 1,1 0,-4A4,4 0 0,1 4,0Z" style="opacity: 1; stroke-width: 2px; fill: rgb(207, 134, 75); fill-opacity: 0.22; stroke: rgb(207, 134, 75); stroke-opacity: 1;"/><path class="point" transform="translate(358.24,126.55)" d="M4,0A4,4 0 1,1 0,-4A4,4 0 0,1 4,0Z" style="opacity: 1; stroke-width: 2px; fill: rgb(207, 134, 75); fill-opacity: 0.22; stroke: rgb(207, 134, 75); stroke-opacity: 1;"/><path class="point" transform="translate(383.13,139.9)" d="M4,0A4,4 0 1,1 0,-4A4,4 0 0,1 4,0Z" style="opacity: 1; stroke-width: 2px; fill: rgb(207, 134, 75); fill-opacity: 0.22; stroke: rgb(207, 134, 75); stroke-opacity: 1;"/><path class="point" transform="translate(408.03,133.26)" d="M4,0A4,4 0 1,1 0,-4A4,4 0 0,1 4,0Z" style="opacity: 1; stroke-width: 2px; fill: rgb(207, 134, 75); fill-opacity: 0.22; stroke: rgb(207, 134, 75); stroke-opacity: 1;"/><path class="point" transform="translate(432.92,134.31)" d="M4,0A4,4 0 1,1 0,-4A4,4 0 0,1 4,0Z" style="opacity: 1; stroke-width: 2px; fill: rgb(207, 134, 75); fill-opacity: 0.22; stroke: rgb(207, 134, 75); stroke-opacity: 1;"/><path class="point" transform="translate(457.82,130.82)" d="M4,0A4,4 0 1,1 0,-4A4,4 0 0,1 4,0Z" style="opacity: 1; stroke-width: 2px; fill: rgb(207, 134, 75); fill-opacity: 0.22; stroke: rgb(207, 134, 75); stroke-opacity: 1;"/><path class="point" transform="translate(482.71,129.91)" d="M4,0A4,4 0 1,1 0,-4A4,4 0 0,1 4,0Z" style="opacity: 1; stroke-width: 2px; fill: rgb(207, 134, 75); fill-opacity: 0.22; stroke: rgb(207, 134, 75); stroke-opacity: 1;"/><path class="point" transform="translate(507.61,130.98)" d="M4,0A4,4 0 1,1 0,-4A4,4 0 0,1 4,0Z" style="opacity: 1; stroke-width: 2px; fill: rgb(207, 134, 75); fill-opacity: 0.22; stroke: rgb(207, 134, 75); stroke-opacity: 1;"/><path class="point" transform="translate(532.5,130.56)" d="M4,0A4,4 0 1,1 0,-4A4,4 0 0,1 4,0Z" style="opacity: 1; stroke-width: 2px; fill: rgb(207, 134, 75); fill-opacity: 0.22; stroke: rgb(207, 134, 75); stroke-opacity: 1;"/><path class="point" transform="translate(557.4,127.51)" d="M4,0A4,4 0 1,1 0,-4A4,4 0 0,1 4,0Z" style="opacity: 1; stroke-width: 2px; fill: rgb(207, 134, 75); fill-opacity: 0.22; stroke: rgb(207, 134, 75); stroke-opacity: 1;"/></g><g class="text"/></g><g class="trace scatter trace22de53" style="stroke-miterlimit: 2; opacity: 1;"><g class="fills"/><g class="errorbars"/><g class="lines"/><g class="points"/><g class="text"><g class="textpoint" transform="translate(0,2.75)"><text x="34.6" y="117.87" text-anchor="end" style="font-family: Arial; font-size: 11px; fill: rgb(207, 134, 75); fill-opacity: 1; white-space: pre;">95.5</text></g><g class="textpoint" transform="translate(0,2.75)"><text x="557.4" y="127.51" text-anchor="start" style="font-family: Arial; font-size: 11px; fill: rgb(207, 134, 75); fill-opacity: 1; white-space: pre;">93.4</text></g></g></g><g class="trace scatter trace45b436" style="stroke-miterlimit: 2; opacity: 1;"><g class="fills"/><g class="errorbars"/><g class="lines"><path class="js-line" d="M34.6,27.48L59.5,43.82L84.39,47.81L109.29,46.92L134.18,44.14L159.08,41.67L183.97,45.13L208.87,26.52L233.76,48.99L258.66,49.08L283.55,38.59L308.45,40.5L333.34,20.2L358.24,28.24L383.13,51.2L408.03,39.45L432.92,38.64L457.82,37.08L482.71,34.72L532.5,33.53L557.4,35.56" style="vector-effect: none; fill: none; stroke: rgb(123, 143, 121); stroke-opacity: 1; stroke-width: 2px; opacity: 1;"/></g><g class="points"><path class="point" transform="translate(34.6,27.48)" d="M4,0A4,4 0 1,1 0,-4A4,4 0 0,1 4,0Z" style="opacity: 1; stroke-width: 2px; fill: rgb(123, 143, 121); fill-opacity: 0.22; stroke: rgb(123, 143, 121); stroke-opacity: 1;"/><path class="point" transform="translate(59.5,43.82)" d="M4,0A4,4 0 1,1 0,-4A4,4 0 0,1 4,0Z" style="opacity: 1; stroke-width: 2px; fill: rgb(123, 143, 121); fill-opacity: 0.22; stroke: rgb(123, 143, 121); stroke-opacity: 1;"/><path class="point" transform="translate(84.39,47.81)" d="M4,0A4,4 0 1,1 0,-4A4,4 0 0,1 4,0Z" style="opacity: 1; stroke-width: 2px; fill: rgb(123, 143, 121); fill-opacity: 0.22; stroke: rgb(123, 143, 121); stroke-opacity: 1;"/><path class="point" transform="translate(109.29,46.92)" d="M4,0A4,4 0 1,1 0,-4A4,4 0 0,1 4,0Z" style="opacity: 1; stroke-width: 2px; fill: rgb(123, 143, 121); fill-opacity: 0.22; stroke: rgb(123, 143, 121); stroke-opacity: 1;"/><path class="point" transform="translate(134.18,44.14)" d="M4,0A4,4 0 1,1 0,-4A4,4 0 0,1 4,0Z" style="opacity: 1; stroke-width: 2px; fill: rgb(123, 143, 121); fill-opacity: 0.22; stroke: rgb(123, 143, 121); stroke-opacity: 1;"/><path class="point" transform="translate(159.08,41.67)" d="M4,0A4,4 0 1,1 0,-4A4,4 0 0,1 4,0Z" style="opacity: 1; stroke-width: 2px; fill: rgb(123, 143, 121); fill-opacity: 0.22; stroke: rgb(123, 143, 121); stroke-opacity: 1;"/><path class="point" transform="translate(183.97,45.13)" d="M4,0A4,4 0 1,1 0,-4A4,4 0 0,1 4,0Z" style="opacity: 1; stroke-width: 2px; fill: rgb(123, 143, 121); fill-opacity: 0.22; stroke: rgb(123, 143, 121); stroke-opacity: 1;"/><path class="point" transform="translate(208.87,26.52)" d="M4,0A4,4 0 1,1 0,-4A4,4 0 0,1 4,0Z" style="opacity: 1; stroke-width: 2px; fill: rgb(123, 143, 121); fill-opacity: 0.22; stroke: rgb(123, 143, 121); stroke-opacity: 1;"/><path class="point" transform="translate(233.76,48.99)" d="M4,0A4,4 0 1,1 0,-4A4,4 0 0,1 4,0Z" style="opacity: 1; stroke-width: 2px; fill: rgb(123, 143, 121); fill-opacity: 0.22; stroke: rgb(123, 143, 121); stroke-opacity: 1;"/><path class="point" transform="translate(258.66,49.08)" d="M4,0A4,4 0 1,1 0,-4A4,4 0 0,1 4,0Z" style="opacity: 1; stroke-width: 2px; fill: rgb(123, 143, 121); fill-opacity: 0.22; stroke: rgb(123, 143, 121); stroke-opacity: 1;"/><path class="point" transform="translate(283.55,38.59)" d="M4,0A4,4 0 1,1 0,-4A4,4 0 0,1 4,0Z" style="opacity: 1; stroke-width: 2px; fill: rgb(123, 143, 121); fill-opacity: 0.22; stroke: rgb(123, 143, 121); stroke-opacity: 1;"/><path class="point" transform="translate(308.45,40.5)" d="M4,0A4,4 0 1,1 0,-4A4,4 0 0,1 4,0Z" style="opacity: 1; stroke-width: 2px; fill: rgb(123, 143, 121); fill-opacity: 0.22; stroke: rgb(123, 143, 121); stroke-opacity: 1;"/><path class="point" transform="translate(333.34,20.2)" d="M4,0A4,4 0 1,1 0,-4A4,4 0 0,1 4,0Z" style="opacity: 1; stroke-width: 2px; fill: rgb(123, 143, 121); fill-opacity: 0.22; stroke: rgb(123, 143, 121); stroke-opacity: 1;"/><path class="point" transform="translate(358.24,28.24)" d="M4,0A4,4 0 1,1 0,-4A4,4 0 0,1 4,0Z" style="opacity: 1; stroke-width: 2px; fill: rgb(123, 143, 121); fill-opacity: 0.22; stroke: rgb(123, 143, 121); stroke-opacity: 1;"/><path class="point" transform="translate(383.13,51.2)" d="M4,0A4,4 0 1,1 0,-4A4,4 0 0,1 4,0Z" style="opacity: 1; stroke-width: 2px; fill: rgb(123, 143, 121); fill-opacity: 0.22; stroke: rgb(123, 143, 121); stroke-opacity: 1;"/><path class="point" transform="translate(408.03,39.45)" d="M4,0A4,4 0 1,1 0,-4A4,4 0 0,1 4,0Z" style="opacity: 1; stroke-width: 2px; fill: rgb(123, 143, 121); fill-opacity: 0.22; stroke: rgb(123, 143, 121); stroke-opacity: 1;"/><path class="point" transform="translate(432.92,38.64)" d="M4,0A4,4 0 1,1 0,-4A4,4 0 0,1 4,0Z" style="opacity: 1; stroke-width: 2px; fill: rgb(123, 143, 121); fill-opacity: 0.22; stroke: rgb(123, 143, 121); stroke-opacity: 1;"/><path class="point" transform="translate(457.82,37.08)" d="M4,0A4,4 0 1,1 0,-4A4,4 0 0,1 4,0Z" style="opacity: 1; stroke-width: 2px; fill: rgb(123, 143, 121); fill-opacity: 0.22; stroke: rgb(123, 143, 121); stroke-opacity: 1;"/><path class="point" transform="translate(482.71,34.72)" d="M4,0A4,4 0 1,1 0,-4A4,4 0 0,1 4,0Z" style="opacity: 1; stroke-width: 2px; fill: rgb(123, 143, 121); fill-opacity: 0.22; stroke: rgb(123, 143, 121); stroke-opacity: 1;"/><path class="point" transform="translate(507.61,34.22)" d="M4,0A4,4 0 1,1 0,-4A4,4 0 0,1 4,0Z" style="opacity: 1; stroke-width: 2px; fill: rgb(123, 143, 121); fill-opacity: 0.22; stroke: rgb(123, 143, 121); stroke-opacity: 1;"/><path class="point" transform="translate(532.5,33.53)" d="M4,0A4,4 0 1,1 0,-4A4,4 0 0,1 4,0Z" style="opacity: 1; stroke-width: 2px; fill: rgb(123, 143, 121); fill-opacity: 0.22; stroke: rgb(123, 143, 121); stroke-opacity: 1;"/><path class="point" transform="translate(557.4,35.56)" d="M4,0A4,4 0 1,1 0,-4A4,4 0 0,1 4,0Z" style="opacity: 1; stroke-width: 2px; fill: rgb(123, 143, 121); fill-opacity: 0.22; stroke: rgb(123, 143, 121); stroke-opacity: 1;"/></g><g class="text"/></g><g class="trace scatter trace335586" style="stroke-miterlimit: 2; opacity: 1;"><g class="fills"/><g class="errorbars"/><g class="lines"/><g class="points"/><g class="text"><g class="textpoint" transform="translate(0,2.75)"><text x="34.6" y="27.48" text-anchor="end" style="font-family: Arial; font-size: 11px; fill: rgb(123, 143, 121); fill-opacity: 1; white-space: pre;">114.8</text></g><g class="textpoint" transform="translate(0,2.75)"><text x="557.4" y="35.56" text-anchor="start" style="font-family: Arial; font-size: 11px; fill: rgb(123, 143, 121); fill-opacity: 1; white-space: pre;">113.1</text></g></g></g></g></g></g><g class="zerolinelayer-above"/><path class="xlines-above crisp" d="M71,416.5H664" style="fill: none; stroke-width: 1px; stroke: rgb(0, 0, 0); stroke-opacity: 1;"/><path class="ylines-above crisp" d="M71.5,112V416" style="fill: none; stroke-width: 1px; stroke: rgb(0, 0, 0); stroke-opacity: 1;"/><g class="overlines-above"/><g class="xaxislayer-above"><g class="xtick"><text text-anchor="middle" x="0" y="436.2" transform="translate(106.6,0)" style="font-family: Arial; font-size: 16px; fill: rgb(0, 0, 0); fill-opacity: 1; white-space: pre;">2000</text></g><g class="xtick"><text text-anchor="middle" x="0" y="436.2" style="font-family: Arial; font-size: 16px; fill: rgb(0, 0, 0); fill-opacity: 1; white-space: pre;" transform="translate(231.08,0)">2005</text></g><g class="xtick"><text text-anchor="middle" x="0" y="436.2" style="font-family: Arial; font-size: 16px; fill: rgb(0, 0, 0); fill-opacity: 1; white-space: pre;" transform="translate(355.55,0)">2010</text></g><g class="xtick"><text text-anchor="middle" x="0" y="436.2" style="font-family: Arial; font-size: 16px; fill: rgb(0, 0, 0); fill-opacity: 1; white-space: pre;" transform="translate(480.03,0)">2015</text></g><g class="xtick"><text text-anchor="middle" x="0" y="436.2" style="font-family: Arial; font-size: 16px; fill: rgb(0, 0, 0); fill-opacity: 1; white-space: pre;" transform="translate(604.5,0)">2020</text></g></g><g class="yaxislayer-above"><g class="ytick"><text text-anchor="end" x="67.8" y="5.6" transform="translate(0,395.8)" style="font-family: Arial; font-size: 16px; fill: rgb(0, 0, 0); fill-opacity: 1; white-space: pre;">60</text></g><g class="ytick"><text text-anchor="end" x="67.8" y="5.6" style="font-family: Arial; font-size: 16px; fill: rgb(0, 0, 0); fill-opacity: 1; white-space: pre;" transform="translate(0,349.02)">70</text></g><g class="ytick"><text text-anchor="end" x="67.8" y="5.6" style="font-family: Arial; font-size: 16px; fill: rgb(0, 0, 0); fill-opacity: 1; white-space: pre;" transform="translate(0,302.24)">80</text></g><g class="ytick"><text text-anchor="end" x="67.8" y="5.6" style="font-family: Arial; font-size: 16px; fill: rgb(0, 0, 0); fill-opacity: 1; white-space: pre;" transform="translate(0,255.47)">90</text></g><g class="ytick"><text text-anchor="end" x="67.8" y="5.6" style="font-family: Arial; font-size: 16px; fill: rgb(0, 0, 0); fill-opacity: 1; white-space: pre;" transform="translate(0,208.69)">100</text></g><g class="ytick"><text text-anchor="end" x="67.8" y="5.6" style="font-family: Arial; font-size: 16px; fill: rgb(0, 0, 0); fill-opacity: 1; white-space: pre;" transform="translate(0,161.91)">110</text></g><g class="ytick"><text text-anchor="end" x="67.8" y="5.6" style="font-family: Arial; font-size: 16px; fill: rgb(0, 0, 0); fill-opacity: 1; white-space: pre;" transform="translate(0,115.13)">120</text></g></g><g class="overaxes-above"/></g></g><g class="polarlayer"/><g class="smithlayer"/><g class="ternarylayer"/><g class="geolayer"/><g class="funnelarealayer"/><g class="pielayer"/><g class="iciclelayer"/><g class="treemaplayer"/><g class="sunburstlayer"/><g class="glimages"/><defs id="topdefs-7b6fb8"><g class="clips"/><clipPath id="legend7b6fb8"><rect width="313" height="33" x="0" y="0"/></clipPath></defs><g class="layer-above"><g class="imagelayer"/><g class="shapelayer"/></g><g class="infolayer"><g class="legend" pointer-events="all" transform="translate(351,72.91999999999999)"><rect class="bg" shape-rendering="crispEdges" style="stroke: rgb(0, 0, 0); stroke-opacity: 0; fill: rgb(0, 0, 0); fill-opacity: 0; stroke-width: 0px;" width="313" height="33" x="0" y="0"/><g class="scrollbox" transform="" clip-path="url(#legend7b6fb8)"><g class="groups"><g class="traces" transform="translate(0,16.25)" style="opacity: 1;"><text class="legendtext" text-anchor="start" x="40" y="5.85" style="font-family: Arial; font-size: 15px; fill: rgb(0, 0, 0); fill-opacity: 1; white-space: pre;">3 ROOM</text><g class="layers" style="opacity: 1;"><g class="legendfill"/><g class="legendlines"><path class="js-line" d="M5,0h30" style="fill: none; stroke: rgb(169, 183, 196); stroke-opacity: 1; stroke-width: 2px;"/></g><g class="legendsymbols"><g class="legendpoints"><path class="scatterpts" transform="translate(20,0)" d="M4,0A4,4 0 1,1 0,-4A4,4 0 0,1 4,0Z" style="opacity: 1; stroke-width: 2px; fill: rgb(169, 183, 196); fill-opacity: 0.22; stroke: rgb(169, 183, 196); stroke-opacity: 1;"/></g></g></g><rect class="legendtoggle" x="0" y="-11.25" width="101.6875" height="22.5" style="fill: rgb(0, 0, 0); fill-opacity: 0;"/></g><g class="traces" transform="translate(104.1875,16.25)" style="opacity: 1;"><text class="legendtext" text-anchor="start" x="40" y="5.85" style="font-family: Arial; font-size: 15px; fill: rgb(0, 0, 0); fill-opacity: 1; white-space: pre;">4 ROOM</text><g class="layers" style="opacity: 1;"><g class="legendfill"/><g class="legendlines"><path class="js-line" d="M5,0h30" style="fill: none; stroke: rgb(207, 134, 75); stroke-opacity: 1; stroke-width: 2px;"/></g><g class="legendsymbols"><g class="legendpoints"><path class="scatterpts" transform="translate(20,0)" d="M4,0A4,4 0 1,1 0,-4A4,4 0 0,1 4,0Z" style="opacity: 1; stroke-width: 2px; fill: rgb(207, 134, 75); fill-opacity: 0.22; stroke: rgb(207, 134, 75); stroke-opacity: 1;"/></g></g></g><rect class="legendtoggle" x="0" y="-11.25" width="101.6875" height="22.5" style="fill: rgb(0, 0, 0); fill-opacity: 0;"/></g><g class="traces" transform="translate(208.375,16.25)" style="opacity: 1;"><text class="legendtext" text-anchor="start" x="40" y="5.85" style="font-family: Arial; font-size: 15px; fill: rgb(0, 0, 0); fill-opacity: 1; white-space: pre;">5 ROOM</text><g class="layers" style="opacity: 1;"><g class="legendfill"/><g class="legendlines"><path class="js-line" d="M5,0h30" style="fill: none; stroke: rgb(123, 143, 121); stroke-opacity: 1; stroke-width: 2px;"/></g><g class="legendsymbols"><g class="legendpoints"><path class="scatterpts" transform="translate(20,0)" d="M4,0A4,4 0 1,1 0,-4A4,4 0 0,1 4,0Z" style="opacity: 1; stroke-width: 2px; fill: rgb(123, 143, 121); fill-opacity: 0.22; stroke: rgb(123, 143, 121); stroke-opacity: 1;"/></g></g></g><rect class="legendtoggle" x="0" y="-11.25" width="101.6875" height="22.5" style="fill: rgb(0, 0, 0); fill-opacity: 0;"/></g></g></g><rect class="scrollbar" rx="20" ry="3" width="0" height="0" style="fill: rgb(128, 139, 164); fill-opacity: 1;" x="0" y="0"/></g><g class="g-gtitle"><text class="gtitle" x="35" y="56" text-anchor="start" dy="0em" style="opacity: 1; font-family: Georgia; font-size: 28px; fill: rgb(0, 0, 0); fill-opacity: 1; white-space: pre;">Recent completion years: common flat types</text></g><g class="g-xtitle"/><g class="g-ytitle"/></g></svg>