<svg class="main-svg" xmlns="http://www.w3.org/2000/svg" xmlns:xlink="http://www.w3.org/1999/xlink" width="700" height="500" style="" viewBox="0 0 700 500"><rect x="0" y="0" width="700" height="500" style="fill: rgb(0, 0, 0); fill-opacity: 0;"/><defs id="defs-a68eb1"><g class="clips"><clipPath id="clipa68eb1xyplot" class="plotclip"><rect width="592" height="304"/></clipPath><clipPath class="axesclip" id="clipa68eb1x"><rect x="72" y="0" width="592" height="500"/></clipPath><clipPath class="axesclip" id="clipa68eb1y"><rect x="0" y="112" width="700" height="304"/></clipPath><clipPath class="axesclip" id="clipa68eb1xy"><rect x="72" y="112" width="592" height="304"/></clipPath></g><g class="gradients"/><g class="patterns"/></defs><g class="bglayer"><rect class="bg" x="72" y="112" width="592" height="304" style="fill: rgb(0, 0, 0); fill-opacity: 0; stroke-width: 0;"/></g><g class="layer-below"><g class="imagelayer"/><g class="shapelayer"/></g><g class="cartesianlayer"><g class="subplot xy"><g class="layer-subplot"><g class="shapelayer"/><g class="imagelayer"/></g><g class="minor-gridlayer"><g class="x"/><g class="y"/></g><g class="gridlayer"><g class="x"/><g class="y"/></g><g class="zerolinelayer"/><g class="layer-between"><g class="shapelayer"/><g class="imagelayer"/></g><path class="xlines-below"/><path class="ylines-below"/><g class="overlines-below"/><g class="xaxislayer-below"/><g class="yaxislayer-below"/><g class="overaxes-below"/><g class="overplot"><g class="xy" transform="translate(72,112)" clip-path="url(#clipa68eb1xyplot)"><g class="scatterlayer mlayer"><g class="trace scatter traceafc632" style="stroke-miterlimit: 2; opacity: 1;"><g class="fills"/><g class="errorbars"/><g class="lines"><path class="js-line" d="M34.6,283.8L208.87,271.52L233.76,249.1L308.45,273.8L333.34,261.76L358.24,262.47L383.13,266.94L408.03,265.12L432.92,264.12L457.82,264.12L482.71,270.15L532.5,269.5L557.4,270.56" style="vector-effect: none; fill: none; stroke: rgb(149, 167, 182); stroke-opacity: 1; stroke-width: 2px; opacity: 1;"/></g><g class="points"><path class="point" transform="translate(34.6,283.8)" d="M4,0A4,4 0 1,1 0,-4A4,4 0 0,1 4,0Z" style="opacity: 1; stroke-width: 2px; fill: rgb(149, 167, 182); fill-opacity: 0.22; stroke: rgb(149, 167, 182); stroke-opacity: 1;"/><path class="point" transform="translate(208.87,271.52)" d="M4,0A4,4 0 1,1 0,-4A4,4 0 0,1 4,0Z" style="opacity: 1; stroke-width: 2px; fill: rgb(149, 167, 182); fill-opacity: 0.22; stroke: rgb(149, 167, 182); stroke-opacity: 1;"/><path class="point" transform="translate(233.76,249.1)" d="M4,0A4,4 0 1,1 0,-4A4,4 0 0,1 4,0Z" style="opacity: 1; stroke-width: 2px; fill: rgb(149, 167, 182); fill-opacity: 0.22; stroke: rgb(149, 167, 182); stroke-opacity: 1;"/><path class="point" transform="translate(308.45,273.8)" d="M4,0A4,4 0 1,1 0,-4A4,4 0 0,1 4,0Z" style="opacity: 1; stroke-width: 2px; fill: rgb(149, 167, 182); fill-opacity: 0.22; stroke: rgb(149, 167, 182); stroke-opacity: 1;"/><path class="point" transform="translate(333.34,261.76)" d="M4,0A4,4 0 1,1 0,-4A4,4 0 0,1 4,0Z" style="opacity: 1; stroke-width: 2px; fill: rgb(149, 167, 182); fill-opacity: 0.22; stroke: rgb(149, 167, 182); stroke-opacity: 1;"/><path class="point" transform="translate(358.24,262.47)" d="M4,0A4,4 0 1,1 0,-4A4,4 0 0,1 4,0Z" style="opacity: 1; stroke-width: 2px; fill: rgb(149, 167, 182); fill-opacity: 0.22; stroke: rgb(149, 167, 182); stroke-opacity: 1;"/><path class="point" transform="translate(383.13,266.94)" d="M4,0A4,4 0 1,1 0,-4A4,4 0 0,1 4,0Z" style="opacity: 1; stroke-width: 2px; fill: rgb(149, 167, 182); fill-opacity: 0.22; stroke: rgb(149, 167, 182); stroke-opacity: 1;"/><path class="point" transform="translate(408.03,265.12)" d="M4,0A4,4 0 1,1 0,-4A4,4 0 0,1 4,0Z" style="opacity: 1; stroke-width: 2px; fill: rgb(149, 167, 182); fill-opacity: 0.22; stroke: rgb(149, 167, 182); stroke-opacity: 1;"/><path class="point" transform="translate(432.92,264.12)" d="M4,0A4,4 0 1,1 0,-4A4,4 0 0,1 4,0Z" style="opacity: 1; stroke-width: 2px; fill: rgb(149, 167, 182); fill-opacity: 0.22; stroke: rgb(149, 167, 182); stroke-opacity: 1;"/><path class="point" transform="translate(457.82,264.12)" d="M4,0A4,4 0 1,1 0,-4A4,4 0 0,1 4,0Z" style="opacity: 1; stroke-width: 2px; fill: rgb(149, 167, 182); fill-opacity: 0.22; stroke: rgb(149, 167, 182); stroke-opacity: 1;"/><path class="point" transform="translate(482.71,270.15)" d="M4,0A4,4 0 1,1 0,-4A4,4 0 0,1 4,0Z" style="opacity: 1; stroke-width: 2px; fill: rgb(149, 167, 182); fill-opacity: 0.22; stroke: rgb(149, 167, 182); stroke-opacity: 1;"/><path class="point" transform="translate(507.61,270.12)" d="M4,0A4,4 0 1,1 0,-4A4,4 0 0,1 4,0Z" style="opacity: 1; stroke-width: 2px; fill: rgb(149, 167, 182); fill-opacity: 0.22; stroke: rgb(149, 167, 182); stroke-opacity: 1;"/><path class="point" transform="translate(532.5,269.5)" d="M4,0A4,4 0 1,1 0,-4A4,4 0 0,1 4,0Z" style="opacity: 1; stroke-width: 2px; fill: rgb(149, 167, 182); fill-opacity: 0.22; stroke: rgb(149, 167, 182); stroke-opacity: 1;"/><path class="point" transform="translate(557.4,270.56)" d="M4,0A4,4 0 1,1 0,-4A4,4 0 0,1 4,0Z" style="opacity: 1; stroke-width: 2px; fill: rgb(149, 167, 182); fill-opacity: 0.22; stroke: rgb(149, 167, 182); stroke-opacity: 1;"/></g><g class="text"/></g><g class="trace scatter trace5e3351" style="stroke-miterlimit: 2; opacity: 1;"><g class="fills"/><g class="errorbars"/><g class="lines"/><g class="points"/><g class="text"><g class="textpoint" transform="translate(0,2.75)"><text x="34.6" y="283.8" text-anchor="end" style="font-family: Arial; font-size: 11px; fill: rgb(149, 167, 182); fill-opacity: 1; white-space: pre;">40.0</text></g><g class="textpoint" transform="translate(0,2.75)"><text x="557.4" y="270.56" text-anchor="start" style="font-family: Arial; font-size: 11px; fill: rgb(149, 167, 182); fill-opacity: 1; white-space: pre;">44.7</text></g></g></g><g class="trace scatter trace035843" style="stroke-miterlimit: 2; opacity: 1;"><g class="fills"/><g class="errorbars"/><g class="lines"><path class="js-line" d="M34.6,20.2L59.5,26.09L84.39,37.79L109.29,38.21L134.18,36.37" style="vector-effect: none; fill: none; stroke: rgb(216, 181, 91); stroke-opacity: 1; stroke-width: 2px; opacity: 1;"/></g><g class="points"><path class="point" transform="translate(34.6,20.2)" d="M4,0A4,4 0 1,1 0,-4A4,4 0 0,1 4,0Z" style="opacity: 1; stroke-width: 2px; fill: rgb(216, 181, 91); fill-opacity: 0.22; stroke: rgb(216, 181, 91); stroke-opacity: 1;"/><path class="point" transform="translate(59.5,26.09)" d="M4,0A4,4 0 1,1 0,-4A4,4 0 0,1 4,0Z" style="opacity: 1; stroke-width: 2px; fill: rgb(216, 181, 91); fill-opacity: 0.22; stroke: rgb(216, 181, 91); stroke-opacity: 1;"/><path class="point" transform="translate(84.39,37.79)" d="M4,0A4,4 0 1,1 0,-4A4,4 0 0,1 4,0Z" style="opacity: 1; stroke-width: 2px; fill: rgb(216, 181, 91); fill-opacity: 0.22; stroke: rgb(216, 181, 91); stroke-opacity: 1;"/><path class="point" transform="translate(109.29,38.21)" d="M4,0A4,4 0 1,1 0,-4A4,4 0 0,1 4,0Z" style="opacity: 1; stroke-width: 2px; fill: rgb(216, 181, 91); fill-opacity: 0.22; stroke: rgb(216, 181, 91); stroke-opacity: 1;"/><path class="point" transform="translate(134.18,36.37)" d="M4,0A4,4 0 1,1 0,-4A4,4 0 0,1 4,0Z" style="opacity: 1; stroke-width: 2px; fill: rgb(216, 181, 91); fill-opacity: 0.22; stroke: rgb(216, 181, 91); stroke-opacity: 1;"/></g><g class="text"/></g><g class="trace scatter trace6f5bd8" style="stroke-miterlimit: 2; opacity: 1;"><g class="fills"/><g class="errorbars"/><g class="lines"/><g class="points"/><g class="text"><g class="textpoint" transform="translate(0,2.75)"><text x="34.6" y="20.2" text-anchor="end" style="font-family: Arial; font-size: 11px; fill: rgb(216, 181, 91); fill-opacity: 1; white-space: pre;">133.8</text></g><g class="textpoint" transform="translate(0,2.75)"><text x="134.18" y="36.37" text-anchor="start" style="font-family: Arial; font-size: 11px; fill: rgb(216, 181, 91); fill-opacity: 1; white-space: pre;">128.0</text></g></g></g></g></g></g><g class="zerolinelayer-above"/><path class="xlines-above crisp" d="M71,416.5H664" style="fill: none; stroke-width: 1px; stroke: rgb(0, 0, 0); stroke-opacity: 1;"/><path class="ylines-above crisp" d="M71.5,112V416" style="fill: none; stroke-width: 1px; stroke: rgb(0, 0, 0); stroke-opacity: 1;"/><g class="overlines-above"/><g class="xaxislayer-above"><g class="xtick"><text text-anchor="middle" x="0" y="436.2" transform="translate(106.6,0)" style="font-family: Arial; font-size: 16px; fill: rgb(0, 0, 0); fill-opacity: 1; white-space: pre;">2000</text></g><g class="xtick"><text text-anchor="middle" x="0" y="436.2" style="font-family: Arial; font-size: 16px; fill: rgb(0, 0, 0); fill-opacity: 1; white-space: pre;" transform="translate(231.08,0)">2005</text></g><g class="xtick"><text text-anchor="middle" x="0" y="436.2" style="font-family: Arial; font-size: 16px; fill: rgb(0, 0, 0); fill-opacity: 1; white-space: pre;" transform="translate(355.55,0)">2010</text></g><g class="xtick"><text text-anchor="middle" x="0" y="436.2" style="font-family: Arial; font-size: 16px; fill: rgb(0, 0, 0); fill-opacity: 1; white-space: pre;" transform="translate(480.03,0)">2015</text></g><g class="xtick"><text text-anchor="middle" x="0" y="436.2" style="font-family: Arial; font-size: 16px; fill: rgb(0, 0, 0); fill-opacity: 1; white-space: pre;" transform="translate(604.5,0)">2020</text></g></g><g class="yaxislayer-above"><g class="ytick"><text text-anchor="end" x="67.8" y="5.6" transform="translate(0,395.8)" style="font-family: Arial; font-size: 16px; fill: rgb(0, 0, 0); fill-opacity: 1; white-space: pre;">40</text></g><g class="ytick"><text text-anchor="end" x="67.8" y="5.6" style="font-family: Arial; font-size: 16px; fill: rgb(0, 0, 0); fill-opacity: 1; white-space: pre;" transform="translate(0,339.57)">60</text></g><g class="ytick"><text text-anchor="end" x="67.8" y="5.6" style="font-family: Arial; font-size: 16px; fill: rgb(0, 0, 0); fill-opacity: 1; white-space: pre;" transform="translate(0,283.33000000000004)">80</text></g><g class="ytick"><text text-anchor="end" x="67.8" y="5.6" style="font-family: Arial; font-size: 16px; fill: rgb(0, 0, 0); fill-opacity: 1; white-space: pre;" transform="translate(0,227.1)">100</text></g><g class="ytick"><text text-anchor="end" x="67.8" y="5.6" style="font-family: Arial; font-size: 16px; fill: rgb(0, 0, 0); fill-opacity: 1; white-space: pre;" transform="translate(0,170.87)">120</text></g><g class="ytick"><text text-anchor="end" x="67.8" y="5.6" style="font-family: Arial; font-size: 16px; fill: rgb(0, 0, 0); fill-opacity: 1; white-space: pre;" transform="translate(0,114.63)">140</text></g></g><g class="overaxes-above"/></g></g><g class="polarlayer"/><g class="smithlayer"/><g class="ternarylayer"/><g class="geolayer"/><g class="funnelarealayer"/><g class="pielayer"/><g class="iciclelayer"/><g class="treemaplayer"/><g class="sunburstlayer"/><g class="glimages"/><defs id="topdefs-a68eb1"><g class="clips"/><clipPath id="legenda68eb1"><rect width="235" height="33" x="0" y="0"/></clipPath></defs><g class="layer-above"><g class="imagelayer"/><g class="shapelayer"/></g><g class="infolayer"><g class="legend" pointer-events="all" transform="translate(429,72.91999999999999)"><rect class="bg" shape-rendering="crispEdges" style="stroke: rgb(0, 0, 0); stroke-opacity: 0; fill: rgb(0, 0, 0); fill-opacity: 0; stroke-width: 0px;" width="235" height="33" x="0" y="0"/><g class="scrollbox" transform="" clip-path="url(#legenda68eb1)"><g class="groups"><g class="traces" transform="translate(0,16.25)" style="opacity: 1;"><text class="legendtext" text-anchor="start" x="40" y="5.85" style="font-family: Arial; font-size: 15px; fill: rgb(0, 0, 0); fill-opacity: 1; white-space: pre;">2 ROOM</text><g class="layers" style="opacity: 1;"><g class="legendfill"/><g class="legendlines"><path class="js-line" d="M5,0h30" style="fill: none; stroke: rgb(149, 167, 182); stroke-opacity: 1; stroke-width: 2px;"/></g><g class="legendsymbols"><g class="legendpoints"><path class="scatterpts" transform="translate(20,0)" d="M4,0A4,4 0 1,1 0,-4A4,4 0 0,1 4,0Z" style="opacity: 1; stroke-width: 2px; fill: rgb(149, 167, 182); fill-opacity: 0.22; stroke: rgb(149, 167, 182); stroke-opacity: 1;"/></g></g></g><rect class="legendtoggle" x="0" y="-11.25" width="101.6875" height="22.5" style="fill: rgb(0, 0, 0); fill-opacity: 0;"/></g><g class="traces" transform="translate(104.1875,16.25)" style="opacity: 1;"><text class="legendtext" text-anchor="start" x="40" y="5.85" style="font-family: Arial; font-size: 15px; fill: rgb(0, 0, 0); fill-opacity: 1; white-space: pre;">EXECUTIVE</text><g class="layers" style="opacity: 1;"><g class="legendfill"/><g class="legendlines"><path class="js-line" d="M5,0h30" style="fill: none; stroke: rgb(216, 181, 91); stroke-opacity: 1; stroke-width: 2px;"/></g><g class="legendsymbols"><g class="legendpoints"><path class="scatterpts" transform="translate(20,0)" d="M4,0A4,4 0 1,1 0,-4A4,4 0 0,1 4,0Z" style="opacity: 1; stroke-width: 2px; fill: rgb(216, 181, 91); fill-opacity: 0.22; stroke: rgb(216, 181, 91); stroke-opacity: 1;"/></g></g></g><rect class="legendtoggle" x="0" y="-11.25" width="127.53125" height="22.5" style="fill: rgb(0, 0, 0); fill-opacity: 0;"/></g></g></g><rect class="scrollbar" rx="20" ry="3" width="0" height="0" style="fill: rgb(128, 139, 164); fill-opacity: 1;" x="0" y="0"/></g><g class="g-gtitle"><text class="gtitle" x="35" y="56" text-anchor="start" dy="0em" style="opacity: 1; font-family: Georgia; font-size: 28px; fill: rgb(0, 0, 0); fill-opacity: 1; white-space: pre;">Recent completion years: sparse and niche flat types</text></g><g class="g-xtitle"/><g class="g-ytitle"/></g></svg>