<svg class="main-svg" xmlns="http://www.w3.org/2000/svg" xmlns:xlink="http://www.w3.org/1999/xlink" width="700" height="500" style="" viewBox="0 0 700 500"><rect x="0" y="0" width="700" height="500" style="fill: rgb(0, 0, 0); fill-opacity: 0;"/><defs id="defs-60ee0f"><g class="clips"><clipPath id="clip60ee0fxyplot" class="plotclip"><rect width="592" height="304"/></clipPath><clipPath class="axesclip" id="clip60ee0fx"><rect x="72" y="0" width="592" height="500"/></clipPath><clipPath class="axesclip" id="clip60ee0fy"><rect x="0" y="112" width="700" height="304"/></clipPath><clipPath class="axesclip" id="clip60ee0fxy"><rect x="72" y="112" width="592" height="304"/></clipPath></g><g class="gradients"/><g class="patterns"/></defs><g class="bglayer"><rect class="bg" x="72" y="112" width="592" height="304" style="fill: rgb(0, 0, 0); fill-opacity: 0; stroke-width: 0;"/></g><g class="layer-below"><g class="imagelayer"/><g class="shapelayer"/></g><g class="cartesianlayer"><g class="subplot xy"><g class="layer-subplot"><g class="shapelayer"/><g class="imagelayer"/></g><g class="minor-gridlayer"><g class="x"/><g class="y"/></g><g class="gridlayer"><g class="x"/><g class="y"/></g><g class="zerolinelayer"/><g class="layer-between"><g class="shapelayer"/><g class="imagelayer"/></g><path class="xlines-below"/><path class="ylines-below"/><g class="overlines-below"/><g class="xaxislayer-below"/><g class="yaxislayer-below"/><g class="overaxes-below"/><g class="overplot"><g class="xy" transform="translate(72,112)" clip-path="url(#clip60ee0fxyplot)"><g class="scatterlayer mlayer"><g class="trace scatter trace2dcdc9" style="stroke-miterlimit: 2; opacity: 1;"><g class="fills"/><g class="errorbars"/><g class="lines"><path class="js-line" d="M63.12,283.8L120.15,280.08L139.16,280.08" style="vector-effect: none; fill: none; stroke: rgb(184, 195, 204); stroke-opacity: 1; stroke-width: 2px; opacity: 1;"/></g><g class="points"><path class="point" transform="translate(63.12,283.8)" d="M4,0A4,4 0 1,1 0,-4A4,4 0 0,1 4,0Z" style="opacity: 1; stroke-width: 2px; fill: rgb(184, 195, 204); fill-opacity: 0.22; stroke: rgb(184, 195, 204); stroke-opacity: 1;"/><path class="point" transform="translate(120.15,280.08)" d="M4,0A4,4 0 1,1 0,-4A4,4 0 0,1 4,0Z" style="opacity: 1; stroke-width: 2px; fill: rgb(184, 195, 204); fill-opacity: 0.22; stroke: rgb(184, 195, 204); stroke-opacity: 1;"/><path class="point" transform="translate(139.16,280.08)" d="M4,0A4,4 0 1,1 0,-4A4,4 0 0,1 4,0Z" style="opacity: 1; stroke-width: 2px; fill: rgb(184, 195, 204); fill-opacity: 0.22; stroke: rgb(184, 195, 204); stroke-opacity: 1;"/></g><g class="text"/></g><g class="trace scatter traceda0853" style="stroke-miterlimit: 2; opacity: 1;"><g class="fills"/><g class="errorbars"/><g class="lines"/><g class="points"/><g class="text"><g class="textpoint" transform="translate(0,2.75)"><text x="63.12" y="283.8" text-anchor="end" style="font-family: Arial; font-size: 11px; fill: rgb(184, 195, 204); fill-opacity: 1; white-space: pre;">28.9</text></g><g class="textpoint" transform="translate(0,2.75)"><text x="139.16" y="280.08" text-anchor="start" style="font-family: Arial; font-size: 11px; fill: rgb(184, 195, 204); fill-opacity: 1; white-space: pre;">31.0</text></g></g></g><g class="trace scatter traceaf211a" style="stroke-miterlimit: 2; opacity: 1;"><g class="fills"/><g class="errorbars"/><g class="lines"><path class="js-line" d="M44.11,253.65L53.61,255.38L63.12,258.02L72.62,251.59L82.13,254.99L91.63,262.97L101.14,252.24L110.64,264.64L120.15,258.58L129.65,254.55L139.16,255.84L158.17,256.48L167.68,256.78L177.18,256.78L186.69,237.84L196.19,250.98L205.7,254.99L224.71,254.75L300.75,236.51L357.79,263.95L424.32,256.13L433.83,241.83L462.35,257.58L471.85,249.91L481.36,250.36L490.86,253.21L500.37,252.05L519.38,251.41L528.88,255.26L557.4,255.52" style="vector-effect: none; fill: none; stroke: rgb(149, 167, 182); stroke-opacity: 1; stroke-width: 2px; opacity: 1;"/></g><g class="points"><path class="point" transform="translate(44.11,253.65)" d="M4,0A4,4 0 1,1 0,-4A4,4 0 0,1 4,0Z" style="opacity: 1; stroke-width: 2px; fill: rgb(149, 167, 182); fill-opacity: 0.22; stroke: rgb(149, 167, 182); stroke-opacity: 1;"/><path class="point" transform="translate(53.61,255.38)" d="M4,0A4,4 0 1,1 0,-4A4,4 0 0,1 4,0Z" style="opacity: 1; stroke-width: 2px; fill: rgb(149, 167, 182); fill-opacity: 0.22; stroke: rgb(149, 167, 182); stroke-opacity: 1;"/><path class="point" transform="translate(63.12,258.02)" d="M4,0A4,4 0 1,1 0,-4A4,4 0 0,1 4,0Z" style="opacity: 1; stroke-width: 2px; fill: rgb(149, 167, 182); fill-opacity: 0.22; stroke: rgb(149, 167, 182); stroke-opacity: 1;"/><path class="point" transform="translate(72.62,251.59)" d="M4,0A4,4 0 1,1 0,-4A4,4 0 0,1 4,0Z" style="opacity: 1; stroke-width: 2px; fill: rgb(149, 167, 182); fill-opacity: 0.22; stroke: rgb(149, 167, 182); stroke-opacity: 1;"/><path class="point" transform="translate(82.13,254.99)" d="M4,0A4,4 0 1,1 0,-4A4,4 0 0,1 4,0Z" style="opacity: 1; stroke-width: 2px; fill: rgb(149, 167, 182); fill-opacity: 0.22; stroke: rgb(149, 167, 182); stroke-opacity: 1;"/><path class="point" transform="translate(91.63,262.97)" d="M4,0A4,4 0 1,1 0,-4A4,4 0 0,1 4,0Z" style="opacity: 1; stroke-width: 2px; fill: rgb(149, 167, 182); fill-opacity: 0.22; stroke: rgb(149, 167, 182); stroke-opacity: 1;"/><path class="point" transform="translate(101.14,252.24)" d="M4,0A4,4 0 1,1 0,-4A4,4 0 0,1 4,0Z" style="opacity: 1; stroke-width: 2px; fill: rgb(149, 167, 182); fill-opacity: 0.22; stroke: rgb(149, 167, 182); stroke-opacity: 1;"/><path class="point" transform="translate(110.64,264.64)" d="M4,0A4,4 0 1,1 0,-4A4,4 0 0,1 4,0Z" style="opacity: 1; stroke-width: 2px; fill: rgb(149, 167, 182); fill-opacity: 0.22; stroke: rgb(149, 167, 182); stroke-opacity: 1;"/><path class="point" transform="translate(120.15,258.58)" d="M4,0A4,4 0 1,1 0,-4A4,4 0 0,1 4,0Z" style="opacity: 1; stroke-width: 2px; fill: rgb(149, 167, 182); fill-opacity: 0.22; stroke: rgb(149, 167, 182); stroke-opacity: 1;"/><path class="point" transform="translate(129.65,254.55)" d="M4,0A4,4 0 1,1 0,-4A4,4 0 0,1 4,0Z" style="opacity: 1; stroke-width: 2px; fill: rgb(149, 167, 182); fill-opacity: 0.22; stroke: rgb(149, 167, 182); stroke-opacity: 1;"/><path class="point" transform="translate(139.16,255.84)" d="M4,0A4,4 0 1,1 0,-4A4,4 0 0,1 4,0Z" style="opacity: 1; stroke-width: 2px; fill: rgb(149, 167, 182); fill-opacity: 0.22; stroke: rgb(149, 167, 182); stroke-opacity: 1;"/><path class="point" transform="translate(148.67,256.47)" d="M4,0A4,4 0 1,1 0,-4A4,4 0 0,1 4,0Z" style="opacity: 1; stroke-width: 2px; fill: rgb(149, 167, 182); fill-opacity: 0.22; stroke: rgb(149, 167, 182); stroke-opacity: 1;"/><path class="point" transform="translate(158.17,256.48)" d="M4,0A4,4 0 1,1 0,-4A4,4 0 0,1 4,0Z" style="opacity: 1; stroke-width: 2px; fill: rgb(149, 167, 182); fill-opacity: 0.22; stroke: rgb(149, 167, 182); stroke-opacity: 1;"/><path class="point" transform="translate(167.68,256.78)" d="M4,0A4,4 0 1,1 0,-4A4,4 0 0,1 4,0Z" style="opacity: 1; stroke-width: 2px; fill: rgb(149, 167, 182); fill-opacity: 0.22; stroke: rgb(149, 167, 182); stroke-opacity: 1;"/><path class="point" transform="translate(177.18,256.78)" d="M4,0A4,4 0 1,1 0,-4A4,4 0 0,1 4,0Z" style="opacity: 1; stroke-width: 2px; fill: rgb(149, 167, 182); fill-opacity: 0.22; stroke: rgb(149, 167, 182); stroke-opacity: 1;"/><path class="point" transform="translate(186.69,237.84)" d="M4,0A4,4 0 1,1 0,-4A4,4 0 0,1 4,0Z" style="opacity: 1; stroke-width: 2px; fill: rgb(149, 167, 182); fill-opacity: 0.22; stroke: rgb(149, 167, 182); stroke-opacity: 1;"/><path class="point" transform="translate(196.19,250.98)" d="M4,0A4,4 0 1,1 0,-4A4,4 0 0,1 4,0Z" style="opacity: 1; stroke-width: 2px; fill: rgb(149, 167, 182); fill-opacity: 0.22; stroke: rgb(149, 167, 182); stroke-opacity: 1;"/><path class="point" transform="translate(205.7,254.99)" d="M4,0A4,4 0 1,1 0,-4A4,4 0 0,1 4,0Z" style="opacity: 1; stroke-width: 2px; fill: rgb(149, 167, 182); fill-opacity: 0.22; stroke: rgb(149, 167, 182); stroke-opacity: 1;"/><path class="point" transform="translate(215.2,254.99)" d="M4,0A4,4 0 1,1 0,-4A4,4 0 0,1 4,0Z" style="opacity: 1; stroke-width: 2px; fill: rgb(149, 167, 182); fill-opacity: 0.22; stroke: rgb(149, 167, 182); stroke-opacity: 1;"/><path class="point" transform="translate(224.71,254.75)" d="M4,0A4,4 0 1,1 0,-4A4,4 0 0,1 4,0Z" style="opacity: 1; stroke-width: 2px; fill: rgb(149, 167, 182); fill-opacity: 0.22; stroke: rgb(149, 167, 182); stroke-opacity: 1;"/><path class="point" transform="translate(300.75,236.51)" d="M4,0A4,4 0 1,1 0,-4A4,4 0 0,1 4,0Z" style="opacity: 1; stroke-width: 2px; fill: rgb(149, 167, 182); fill-opacity: 0.22; stroke: rgb(149, 167, 182); stroke-opacity: 1;"/><path class="point" transform="translate(357.79,263.95)" d="M4,0A4,4 0 1,1 0,-4A4,4 0 0,1 4,0Z" style="opacity: 1; stroke-width: 2px; fill: rgb(149, 167, 182); fill-opacity: 0.22; stroke: rgb(149, 167, 182); stroke-opacity: 1;"/><path class="point" transform="translate(424.32,256.13)" d="M4,0A4,4 0 1,1 0,-4A4,4 0 0,1 4,0Z" style="opacity: 1; stroke-width: 2px; fill: rgb(149, 167, 182); fill-opacity: 0.22; stroke: rgb(149, 167, 182); stroke-opacity: 1;"/><path class="point" transform="translate(433.83,241.83)" d="M4,0A4,4 0 1,1 0,-4A4,4 0 0,1 4,0Z" style="opacity: 1; stroke-width: 2px; fill: rgb(149, 167, 182); fill-opacity: 0.22; stroke: rgb(149, 167, 182); stroke-opacity: 1;"/><path class="point" transform="translate(462.35,257.58)" d="M4,0A4,4 0 1,1 0,-4A4,4 0 0,1 4,0Z" style="opacity: 1; stroke-width: 2px; fill: rgb(149, 167, 182); fill-opacity: 0.22; stroke: rgb(149, 167, 182); stroke-opacity: 1;"/><path class="point" transform="translate(471.85,249.91)" d="M4,0A4,4 0 1,1 0,-4A4,4 0 0,1 4,0Z" style="opacity: 1; stroke-width: 2px; fill: rgb(149, 167, 182); fill-opacity: 0.22; stroke: rgb(149, 167, 182); stroke-opacity: 1;"/><path class="point" transform="translate(481.36,250.36)" d="M4,0A4,4 0 1,1 0,-4A4,4 0 0,1 4,0Z" style="opacity: 1; stroke-width: 2px; fill: rgb(149, 167, 182); fill-opacity: 0.22; stroke: rgb(149, 167, 182); stroke-opacity: 1;"/><path class="point" transform="translate(490.86,253.21)" d="M4,0A4,4 0 1,1 0,-4A4,4 0 0,1 4,0Z" style="opacity: 1; stroke-width: 2px; fill: rgb(149, 167, 182); fill-opacity: 0.22; stroke: rgb(149, 167, 182); stroke-opacity: 1;"/><path class="point" transform="translate(500.37,252.05)" d="M4,0A4,4 0 1,1 0,-4A4,4 0 0,1 4,0Z" style="opacity: 1; stroke-width: 2px; fill: rgb(149, 167, 182); fill-opacity: 0.22; stroke: rgb(149, 167, 182); stroke-opacity: 1;"/><path class="point" transform="translate(509.87,251.41)" d="M4,0A4,4 0 1,1 0,-4A4,4 0 0,1 4,0Z" style="opacity: 1; stroke-width: 2px; fill: rgb(149, 167, 182); fill-opacity: 0.22; stroke: rgb(149, 167, 182); stroke-opacity: 1;"/><path class="point" transform="translate(519.38,251.41)" d="M4,0A4,4 0 1,1 0,-4A4,4 0 0,1 4,0Z" style="opacity: 1; stroke-width: 2px; fill: rgb(149, 167, 182); fill-opacity: 0.22; stroke: rgb(149, 167, 182); stroke-opacity: 1;"/><path class="point" transform="translate(528.88,255.26)" d="M4,0A4,4 0 1,1 0,-4A4,4 0 0,1 4,0Z" style="opacity: 1; stroke-width: 2px; fill: rgb(149, 167, 182); fill-opacity: 0.22; stroke: rgb(149, 167, 182); stroke-opacity: 1;"/><path class="point" transform="translate(538.39,255.23)" d="M4,0A4,4 0 1,1 0,-4A4,4 0 0,1 4,0Z" style="opacity: 1; stroke-width: 2px; fill: rgb(149, 167, 182); fill-opacity: 0.22; stroke: rgb(149, 167, 182); stroke-opacity: 1;"/><path class="point" transform="translate(547.89,254.84)" d="M4,0A4,4 0 1,1 0,-4A4,4 0 0,1 4,0Z" style="opacity: 1; stroke-width: 2px; fill: rgb(149, 167, 182); fill-opacity: 0.22; stroke: rgb(149, 167, 182); stroke-opacity: 1;"/><path class="point" transform="translate(557.4,255.52)" d="M4,0A4,4 0 1,1 0,-4A4,4 0 0,1 4,0Z" style="opacity: 1; stroke-width: 2px; fill: rgb(149, 167, 182); fill-opacity: 0.22; stroke: rgb(149, 167, 182); stroke-opacity: 1;"/></g><g class="text"/></g><g class="trace scatter trace509c6e" style="stroke-miterlimit: 2; opacity: 1;"><g class="fills"/><g class="errorbars"/><g class="lines"/><g class="points"/><g class="text"><g class="textpoint" transform="translate(0,2.75)"><text x="44.11" y="253.65" text-anchor="end" style="font-family: Arial; font-size: 11px; fill: rgb(149, 167, 182); fill-opacity: 1; white-space: pre;">45.8</text></g><g class="textpoint" transform="translate(0,2.75)"><text x="557.4" y="255.52" text-anchor="start" style="font-family: Arial; font-size: 11px; fill: rgb(149, 167, 182); fill-opacity: 1; white-space: pre;">44.7</text></g></g></g><g class="trace scatter tracea77a65" style="stroke-miterlimit: 2; opacity: 1;"><g class="fills"/><g class="errorbars"/><g class="lines"><path class="js-line" d="M129.65,20.2L139.16,49.19L148.67,44.55L158.17,41.19L167.68,43.32L177.18,46.56L186.69,57.39L196.19,57.15L205.7,66.74L215.2,68.2L224.71,70.8L234.21,73.47L243.72,73.93L253.23,71.82L262.73,59.87L272.24,71.21L281.74,69.22L291.25,71.66L300.75,42.8L310.26,56.66L319.76,74.75L329.27,80.57L338.77,79.55L348.28,83.43L357.79,95.92L367.29,99.67L376.8,107.14L386.3,107.4L395.81,106.23" style="vector-effect: none; fill: none; stroke: rgb(216, 181, 91); stroke-opacity: 1; stroke-width: 2px; opacity: 1;"/></g><g class="points"><path class="point" transform="translate(129.65,20.2)" d="M4,0A4,4 0 1,1 0,-4A4,4 0 0,1 4,0Z" style="opacity: 1; stroke-width: 2px; fill: rgb(216, 181, 91); fill-opacity: 0.22; stroke: rgb(216, 181, 91); stroke-opacity: 1;"/><path class="point" transform="translate(139.16,49.19)" d="M4,0A4,4 0 1,1 0,-4A4,4 0 0,1 4,0Z" style="opacity: 1; stroke-width: 2px; fill: rgb(216, 181, 91); fill-opacity: 0.22; stroke: rgb(216, 181, 91); stroke-opacity: 1;"/><path class="point" transform="translate(148.67,44.55)" d="M4,0A4,4 0 1,1 0,-4A4,4 0 0,1 4,0Z" style="opacity: 1; stroke-width: 2px; fill: rgb(216, 181, 91); fill-opacity: 0.22; stroke: rgb(216, 181, 91); stroke-opacity: 1;"/><path class="point" transform="translate(158.17,41.19)" d="M4,0A4,4 0 1,1 0,-4A4,4 0 0,1 4,0Z" style="opacity: 1; stroke-width: 2px; fill: rgb(216, 181, 91); fill-opacity: 0.22; stroke: rgb(216, 181, 91); stroke-opacity: 1;"/><path class="point" transform="translate(167.68,43.32)" d="M4,0A4,4 0 1,1 0,-4A4,4 0 0,1 4,0Z" style="opacity: 1; stroke-width: 2px; fill: rgb(216, 181, 91); fill-opacity: 0.22; stroke: rgb(216, 181, 91); stroke-opacity: 1;"/><path class="point" transform="translate(177.18,46.56)" d="M4,0A4,4 0 1,1 0,-4A4,4 0 0,1 4,0Z" style="opacity: 1; stroke-width: 2px; fill: rgb(216, 181, 91); fill-opacity: 0.22; stroke: rgb(216, 181, 91); stroke-opacity: 1;"/><path class="point" transform="translate(186.69,57.39)" d="M4,0A4,4 0 1,1 0,-4A4,4 0 0,1 4,0Z" style="opacity: 1; stroke-width: 2px; fill: rgb(216, 181, 91); fill-opacity: 0.22; stroke: rgb(216, 181, 91); stroke-opacity: 1;"/><path class="point" transform="translate(196.19,57.15)" d="M4,0A4,4 0 1,1 0,-4A4,4 0 0,1 4,0Z" style="opacity: 1; stroke-width: 2px; fill: rgb(216, 181, 91); fill-opacity: 0.22; stroke: rgb(216, 181, 91); stroke-opacity: 1;"/><path class="point" transform="translate(205.7,66.74)" d="M4,0A4,4 0 1,1 0,-4A4,4 0 0,1 4,0Z" style="opacity: 1; stroke-width: 2px; fill: rgb(216, 181, 91); fill-opacity: 0.22; stroke: rgb(216, 181, 91); stroke-opacity: 1;"/><path class="point" transform="translate(215.2,68.2)" d="M4,0A4,4 0 1,1 0,-4A4,4 0 0,1 4,0Z" style="opacity: 1; stroke-width: 2px; fill: rgb(216, 181, 91); fill-opacity: 0.22; stroke: rgb(216, 181, 91); stroke-opacity: 1;"/><path class="point" transform="translate(224.71,70.8)" d="M4,0A4,4 0 1,1 0,-4A4,4 0 0,1 4,0Z" style="opacity: 1; stroke-width: 2px; fill: rgb(216, 181, 91); fill-opacity: 0.22; stroke: rgb(216, 181, 91); stroke-opacity: 1;"/><path class="point" transform="translate(234.21,73.47)" d="M4,0A4,4 0 1,1 0,-4A4,4 0 0,1 4,0Z" style="opacity: 1; stroke-width: 2px; fill: rgb(216, 181, 91); fill-opacity: 0.22; stroke: rgb(216, 181, 91); stroke-opacity: 1;"/><path class="point" transform="translate(243.72,73.93)" d="M4,0A4,4 0 1,1 0,-4A4,4 0 0,1 4,0Z" style="opacity: 1; stroke-width: 2px; fill: rgb(216, 181, 91); fill-opacity: 0.22; stroke: rgb(216, 181, 91); stroke-opacity: 1;"/><path class="point" transform="translate(253.23,71.82)" d="M4,0A4,4 0 1,1 0,-4A4,4 0 0,1 4,0Z" style="opacity: 1; stroke-width: 2px; fill: rgb(216, 181, 91); fill-opacity: 0.22; stroke: rgb(216, 181, 91); stroke-opacity: 1;"/><path class="point" transform="translate(262.73,59.87)" d="M4,0A4,4 0 1,1 0,-4A4,4 0 0,1 4,0Z" style="opacity: 1; stroke-width: 2px; fill: rgb(216, 181, 91); fill-opacity: 0.22; stroke: rgb(216, 181, 91); stroke-opacity: 1;"/><path class="point" transform="translate(272.24,71.21)" d="M4,0A4,4 0 1,1 0,-4A4,4 0 0,1 4,0Z" style="opacity: 1; stroke-width: 2px; fill: rgb(216, 181, 91); fill-opacity: 0.22; stroke: rgb(216, 181, 91); stroke-opacity: 1;"/><path class="point" transform="translate(281.74,69.22)" d="M4,0A4,4 0 1,1 0,-4A4,4 0 0,1 4,0Z" style="opacity: 1; stroke-width: 2px; fill: rgb(216, 181, 91); fill-opacity: 0.22; stroke: rgb(216, 181, 91); stroke-opacity: 1;"/><path class="point" transform="translate(291.25,71.66)" d="M4,0A4,4 0 1,1 0,-4A4,4 0 0,1 4,0Z" style="opacity: 1; stroke-width: 2px; fill: rgb(216, 181, 91); fill-opacity: 0.22; stroke: rgb(216, 181, 91); stroke-opacity: 1;"/><path class="point" transform="translate(300.75,42.8)" d="M4,0A4,4 0 1,1 0,-4A4,4 0 0,1 4,0Z" style="opacity: 1; stroke-width: 2px; fill: rgb(216, 181, 91); fill-opacity: 0.22; stroke: rgb(216, 181, 91); stroke-opacity: 1;"/><path class="point" transform="translate(310.26,56.66)" d="M4,0A4,4 0 1,1 0,-4A4,4 0 0,1 4,0Z" style="opacity: 1; stroke-width: 2px; fill: rgb(216, 181, 91); fill-opacity: 0.22; stroke: rgb(216, 181, 91); stroke-opacity: 1;"/><path class="point" transform="translate(319.76,74.75)" d="M4,0A4,4 0 1,1 0,-4A4,4 0 0,1 4,0Z" style="opacity: 1; stroke-width: 2px; fill: rgb(216, 181, 91); fill-opacity: 0.22; stroke: rgb(216, 181, 91); stroke-opacity: 1;"/><path class="point" transform="translate(329.27,80.57)" d="M4,0A4,4 0 1,1 0,-4A4,4 0 0,1 4,0Z" style="opacity: 1; stroke-width: 2px; fill: rgb(216, 181, 91); fill-opacity: 0.22; stroke: rgb(216, 181, 91); stroke-opacity: 1;"/><path class="point" transform="translate(338.77,79.55)" d="M4,0A4,4 0 1,1 0,-4A4,4 0 0,1 4,0Z" style="opacity: 1; stroke-width: 2px; fill: rgb(216, 181, 91); fill-opacity: 0.22; stroke: rgb(216, 181, 91); stroke-opacity: 1;"/><path class="point" transform="translate(348.28,83.43)" d="M4,0A4,4 0 1,1 0,-4A4,4 0 0,1 4,0Z" style="opacity: 1; stroke-width: 2px; fill: rgb(216, 181, 91); fill-opacity: 0.22; stroke: rgb(216, 181, 91); stroke-opacity: 1;"/><path class="point" transform="translate(357.79,95.92)" d="M4,0A4,4 0 1,1 0,-4A4,4 0 0,1 4,0Z" style="opacity: 1; stroke-width: 2px; fill: rgb(216, 181, 91); fill-opacity: 0.22; stroke: rgb(216, 181, 91); stroke-opacity: 1;"/><path class="point" transform="translate(367.29,99.67)" d="M4,0A4,4 0 1,1 0,-4A4,4 0 0,1 4,0Z" style="opacity: 1; stroke-width: 2px; fill: rgb(216, 181, 91); fill-opacity: 0.22; stroke: rgb(216, 181, 91); stroke-opacity: 1;"/><path class="point" transform="translate(376.8,107.14)" d="M4,0A4,4 0 1,1 0,-4A4,4 0 0,1 4,0Z" style="opacity: 1; stroke-width: 2px; fill: rgb(216, 181, 91); fill-opacity: 0.22; stroke: rgb(216, 181, 91); stroke-opacity: 1;"/><path class="point" transform="translate(386.3,107.4)" d="M4,0A4,4 0 1,1 0,-4A4,4 0 0,1 4,0Z" style="opacity: 1; stroke-width: 2px; fill: rgb(216, 181, 91); fill-opacity: 0.22; stroke: rgb(216, 181, 91); stroke-opacity: 1;"/><path class="point" transform="translate(395.81,106.23)" d="M4,0A4,4 0 1,1 0,-4A4,4 0 0,1 4,0Z" style="opacity: 1; stroke-width: 2px; fill: rgb(216, 181, 91); fill-opacity: 0.22; stroke: rgb(216, 181, 91); stroke-opacity: 1;"/></g><g class="text"/></g><g class="trace scatter trace51e481" style="stroke-miterlimit: 2; opacity: 1;"><g class="fills"/><g class="errorbars"/><g class="lines"/><g class="points"/><g class="text"><g class="textpoint" transform="translate(0,2.75)"><text x="129.65" y="20.2" text-anchor="end" style="font-family: Arial; font-size: 11px; fill: rgb(216, 181, 91); fill-opacity: 1; white-space: pre;">176.0</text></g><g class="textpoint" transform="translate(0,2.75)"><text x="395.81" y="106.23" text-anchor="start" style="font-family: Arial; font-size: 11px; fill: rgb(216, 181, 91); fill-opacity: 1; white-space: pre;">128.0</text></g></g></g><g class="trace scatter trace7806bb" style="stroke-miterlimit: 2; opacity: 1;"><g class="fills"/><g class="errorbars"/><g class="lines"><path class="js-line" d="M34.6,214.79L44.11,231.03L53.61,227.22L63.12,235.08L72.62,221.16L82.13,231.46L91.63,205.46L101.14,215.29L110.64,206.16L120.15,200.43L129.65,195.89L139.16,190.29L148.67,188.33L158.17,189.91L167.68,190.33L177.18,189.8L186.69,180.95L196.19,185.61L205.7,166.77L215.2,167.52L224.71,167.01L234.21,162.75L243.72,152L253.23,137.34L262.73,136.31L272.24,123.57L281.74,118.63L291.25,115.71L300.75,104.65L310.26,102.47L319.76,120.53L329.27,135.73L338.77,135.29L348.28,131.95L357.79,144.22L367.29,144.13L376.8,152.52L386.3,150.03L395.81,153.82L405.31,153.48L414.82,162.55L424.32,180L433.83,162.21L443.33,177.72L452.84,171.64L462.35,161.79L471.85,175.39L481.36,174.32L490.86,188.77L500.37,176.07L509.87,169.21L519.38,167.69L528.88,175.7L538.39,183.8L547.89,179.33L557.4,179.01" style="vector-effect: none; fill: none; stroke: rgb(127, 147, 166); stroke-opacity: 1; stroke-width: 2px; opacity: 1;"/></g><g class="points"><path class="point" transform="translate(34.6,214.79)" d="M4,0A4,4 0 1,1 0,-4A4,4 0 0,1 4,0Z" style="opacity: 1; stroke-width: 2px; fill: rgb(127, 147, 166); fill-opacity: 0.22; stroke: rgb(127, 147, 166); stroke-opacity: 1;"/><path class="point" transform="translate(44.11,231.03)" d="M4,0A4,4 0 1,1 0,-4A4,4 0 0,1 4,0Z" style="opacity: 1; stroke-width: 2px; fill: rgb(127, 147, 166); fill-opacity: 0.22; stroke: rgb(127, 147, 166); stroke-opacity: 1;"/><path class="point" transform="translate(53.61,227.22)" d="M4,0A4,4 0 1,1 0,-4A4,4 0 0,1 4,0Z" style="opacity: 1; stroke-width: 2px; fill: rgb(127, 147, 166); fill-opacity: 0.22; stroke: rgb(127, 147, 166); stroke-opacity: 1;"/><path class="point" transform="translate(63.12,235.08)" d="M4,0A4,4 0 1,1 0,-4A4,4 0 0,1 4,0Z" style="opacity: 1; stroke-width: 2px; fill: rgb(127, 147, 166); fill-opacity: 0.22; stroke: rgb(127, 147, 166); stroke-opacity: 1;"/><path class="point" transform="translate(72.62,221.16)" d="M4,0A4,4 0 1,1 0,-4A4,4 0 0,1 4,0Z" style="opacity: 1; stroke-width: 2px; fill: rgb(127, 147, 166); fill-opacity: 0.22; stroke: rgb(127, 147, 166); stroke-opacity: 1;"/><path class="point" transform="translate(82.13,231.46)" d="M4,0A4,4 0 1,1 0,-4A4,4 0 0,1 4,0Z" style="opacity: 1; stroke-width: 2px; fill: rgb(127, 147, 166); fill-opacity: 0.22; stroke: rgb(127, 147, 166); stroke-opacity: 1;"/><path class="point" transform="translate(91.63,205.46)" d="M4,0A4,4 0 1,1 0,-4A4,4 0 0,1 4,0Z" style="opacity: 1; stroke-width: 2px; fill: rgb(127, 147, 166); fill-opacity: 0.22; stroke: rgb(127, 147, 166); stroke-opacity: 1;"/><path class="point" transform="translate(101.14,215.29)" d="M4,0A4,4 0 1,1 0,-4A4,4 0 0,1 4,0Z" style="opacity: 1; stroke-width: 2px; fill: rgb(127, 147, 166); fill-opacity: 0.22; stroke: rgb(127, 147, 166); stroke-opacity: 1;"/><path class="point" transform="translate(110.64,206.16)" d="M4,0A4,4 0 1,1 0,-4A4,4 0 0,1 4,0Z" style="opacity: 1; stroke-width: 2px; fill: rgb(127, 147, 166); fill-opacity: 0.22; stroke: rgb(127, 147, 166); stroke-opacity: 1;"/><path class="point" transform="translate(120.15,200.43)" d="M4,0A4,4 0 1,1 0,-4A4,4 0 0,1 4,0Z" style="opacity: 1; stroke-width: 2px; fill: rgb(127, 147, 166); fill-opacity: 0.22; stroke: rgb(127, 147, 166); stroke-opacity: 1;"/><path class="point" transform="translate(129.65,195.89)" d="M4,0A4,4 0 1,1 0,-4A4,4 0 0,1 4,0Z" style="opacity: 1; stroke-width: 2px; fill: rgb(127, 147, 166); fill-opacity: 0.22; stroke: rgb(127, 147, 166); stroke-opacity: 1;"/><path class="point" transform="translate(139.16,190.29)" d="M4,0A4,4 0 1,1 0,-4A4,4 0 0,1 4,0Z" style="opacity: 1; stroke-width: 2px; fill: rgb(127, 147, 166); fill-opacity: 0.22; stroke: rgb(127, 147, 166); stroke-opacity: 1;"/><path class="point" transform="translate(148.67,188.33)" d="M4,0A4,4 0 1,1 0,-4A4,4 0 0,1 4,0Z" style="opacity: 1; stroke-width: 2px; fill: rgb(127, 147, 166); fill-opacity: 0.22; stroke: rgb(127, 147, 166); stroke-opacity: 1;"/><path class="point" transform="translate(158.17,189.91)" d="M4,0A4,4 0 1,1 0,-4A4,4 0 0,1 4,0Z" style="opacity: 1; stroke-width: 2px; fill: rgb(127, 147, 166); fill-opacity: 0.22; stroke: rgb(127, 147, 166); stroke-opacity: 1;"/><path class="point" transform="translate(167.68,190.33)" d="M4,0A4,4 0 1,1 0,-4A4,4 0 0,1 4,0Z" style="opacity: 1; stroke-width: 2px; fill: rgb(127, 147, 166); fill-opacity: 0.22; stroke: rgb(127, 147, 166); stroke-opacity: 1;"/><path class="point" transform="translate(177.18,189.8)" d="M4,0A4,4 0 1,1 0,-4A4,4 0 0,1 4,0Z" style="opacity: 1; stroke-width: 2px; fill: rgb(127, 147, 166); fill-opacity: 0.22; stroke: rgb(127, 147, 166); stroke-opacity: 1;"/><path class="point" transform="translate(186.69,180.95)" d="M4,0A4,4 0 1,1 0,-4A4,4 0 0,1 4,0Z" style="opacity: 1; stroke-width: 2px; fill: rgb(127, 147, 166); fill-opacity: 0.22; stroke: rgb(127, 147, 166); stroke-opacity: 1;"/><path class="point" transform="translate(196.19,185.61)" d="M4,0A4,4 0 1,1 0,-4A4,4 0 0,1 4,0Z" style="opacity: 1; stroke-width: 2px; fill: rgb(127, 147, 166); fill-opacity: 0.22; stroke: rgb(127, 147, 166); stroke-opacity: 1;"/><path class="point" transform="translate(205.7,166.77)" d="M4,0A4,4 0 1,1 0,-4A4,4 0 0,1 4,0Z" style="opacity: 1; stroke-width: 2px; fill: rgb(127, 147, 166); fill-opacity: 0.22; stroke: rgb(127, 147, 166); stroke-opacity: 1;"/><path class="point" transform="translate(215.2,167.52)" d="M4,0A4,4 0 1,1 0,-4A4,4 0 0,1 4,0Z" style="opacity: 1; stroke-width: 2px; fill: rgb(127, 147, 166); fill-opacity: 0.22; stroke: rgb(127, 147, 166); stroke-opacity: 1;"/><path class="point" transform="translate(224.71,167.01)" d="M4,0A4,4 0 1,1 0,-4A4,4 0 0,1 4,0Z" style="opacity: 1; stroke-width: 2px; fill: rgb(127, 147, 166); fill-opacity: 0.22; stroke: rgb(127, 147, 166); stroke-opacity: 1;"/><path class="point" transform="translate(234.21,162.75)" d="M4,0A4,4 0 1,1 0,-4A4,4 0 0,1 4,0Z" style="opacity: 1; stroke-width: 2px; fill: rgb(127, 147, 166); fill-opacity: 0.22; stroke: rgb(127, 147, 166); stroke-opacity: 1;"/><path class="point" transform="translate(243.72,152)" d="M4,0A4,4 0 1,1 0,-4A4,4 0 0,1 4,0Z" style="opacity: 1; stroke-width: 2px; fill: rgb(127, 147, 166); fill-opacity: 0.22; stroke: rgb(127, 147, 166); stroke-opacity: 1;"/><path class="point" transform="translate(253.23,137.34)" d="M4,0A4,4 0 1,1 0,-4A4,4 0 0,1 4,0Z" style="opacity: 1; stroke-width: 2px; fill: rgb(127, 147, 166); fill-opacity: 0.22; stroke: rgb(127, 147, 166); stroke-opacity: 1;"/><path class="point" transform="translate(262.73,136.31)" d="M4,0A4,4 0 1,1 0,-4A4,4 0 0,1 4,0Z" style="opacity: 1; stroke-width: 2px; fill: rgb(127, 147, 166); fill-opacity: 0.22; stroke: rgb(127, 147, 166); stroke-opacity: 1;"/><path class="point" transform="translate(272.24,123.57)" d="M4,0A4,4 0 1,1 0,-4A4,4 0 0,1 4,0Z" style="opacity: 1; stroke-width: 2px; fill: rgb(127, 147, 166); fill-opacity: 0.22; stroke: rgb(127, 147, 166); stroke-opacity: 1;"/><path class="point" transform="translate(281.74,118.63)" d="M4,0A4,4 0 1,1 0,-4A4,4 0 0,1 4,0Z" style="opacity: 1; stroke-width: 2px; fill: rgb(127, 147, 166); fill-opacity: 0.22; stroke: rgb(127, 147, 166); stroke-opacity: 1;"/><path class="point" transform="translate(291.25,115.71)" d="M4,0A4,4 0 1,1 0,-4A4,4 0 0,1 4,0Z" style="opacity: 1; stroke-width: 2px; fill: rgb(127, 147, 166); fill-opacity: 0.22; stroke: rgb(127, 147, 166); stroke-opacity: 1;"/><path class="point" transform="translate(300.75,104.65)" d="M4,0A4,4 0 1,1 0,-4A4,4 0 0,1 4,0Z" style="opacity: 1; stroke-width: 2px; fill: rgb(127, 147, 166); fill-opacity: 0.22; stroke: rgb(127, 147, 166); stroke-opacity: 1;"/><path class="point" transform="translate(310.26,102.47)" d="M4,0A4,4 0 1,1 0,-4A4,4 0 0,1 4,0Z" style="opacity: 1; stroke-width: 2px; fill: rgb(127, 147, 166); fill-opacity: 0.22; stroke: rgb(127, 147, 166); stroke-opacity: 1;"/><path class="point" transform="translate(319.76,120.53)" d="M4,0A4,4 0 1,1 0,-4A4,4 0 0,1 4,0Z" style="opacity: 1; stroke-width: 2px; fill: rgb(127, 147, 166); fill-opacity: 0.22; stroke: rgb(127, 147, 166); stroke-opacity: 1;"/><path class="point" transform="translate(329.27,135.73)" d="M4,0A4,4 0 1,1 0,-4A4,4 0 0,1 4,0Z" style="opacity: 1; stroke-width: 2px; fill: rgb(127, 147, 166); fill-opacity: 0.22; stroke: rgb(127, 147, 166); stroke-opacity: 1;"/><path class="point" transform="translate(338.77,135.29)" d="M4,0A4,4 0 1,1 0,-4A4,4 0 0,1 4,0Z" style="opacity: 1; stroke-width: 2px; fill: rgb(127, 147, 166); fill-opacity: 0.22; stroke: rgb(127, 147, 166); stroke-opacity: 1;"/><path class="point" transform="translate(348.28,131.95)" d="M4,0A4,4 0 1,1 0,-4A4,4 0 0,1 4,0Z" style="opacity: 1; stroke-width: 2px; fill: rgb(127, 147, 166); fill-opacity: 0.22; stroke: rgb(127, 147, 166); stroke-opacity: 1;"/><path class="point" transform="translate(357.79,144.22)" d="M4,0A4,4 0 1,1 0,-4A4,4 0 0,1 4,0Z" style="opacity: 1; stroke-width: 2px; fill: rgb(127, 147, 166); fill-opacity: 0.22; stroke: rgb(127, 147, 166); stroke-opacity: 1;"/><path class="point" transform="translate(367.29,144.13)" d="M4,0A4,4 0 1,1 0,-4A4,4 0 0,1 4,0Z" style="opacity: 1; stroke-width: 2px; fill: rgb(127, 147, 166); fill-opacity: 0.22; stroke: rgb(127, 147, 166); stroke-opacity: 1;"/><path class="point" transform="translate(376.8,152.52)" d="M4,0A4,4 0 1,1 0,-4A4,4 0 0,1 4,0Z" style="opacity: 1; stroke-width: 2px; fill: rgb(127, 147, 166); fill-opacity: 0.22; stroke: rgb(127, 147, 166); stroke-opacity: 1;"/><path class="point" transform="translate(386.3,150.03)" d="M4,0A4,4 0 1,1 0,-4A4,4 0 0,1 4,0Z" style="opacity: 1; stroke-width: 2px; fill: rgb(127, 147, 166); fill-opacity: 0.22; stroke: rgb(127, 147, 166); stroke-opacity: 1;"/><path class="point" transform="translate(395.81,153.82)" d="M4,0A4,4 0 1,1 0,-4A4,4 0 0,1 4,0Z" style="opacity: 1; stroke-width: 2px; fill: rgb(127, 147, 166); fill-opacity: 0.22; stroke: rgb(127, 147, 166); stroke-opacity: 1;"/><path class="point" transform="translate(405.31,153.48)" d="M4,0A4,4 0 1,1 0,-4A4,4 0 0,1 4,0Z" style="opacity: 1; stroke-width: 2px; fill: rgb(127, 147, 166); fill-opacity: 0.22; stroke: rgb(127, 147, 166); stroke-opacity: 1;"/><path class="point" transform="translate(414.82,162.55)" d="M4,0A4,4 0 1,1 0,-4A4,4 0 0,1 4,0Z" style="opacity: 1; stroke-width: 2px; fill: rgb(127, 147, 166); fill-opacity: 0.22; stroke: rgb(127, 147, 166); stroke-opacity: 1;"/><path class="point" transform="translate(424.32,180)" d="M4,0A4,4 0 1,1 0,-4A4,4 0 0,1 4,0Z" style="opacity: 1; stroke-width: 2px; fill: rgb(127, 147, 166); fill-opacity: 0.22; stroke: rgb(127, 147, 166); stroke-opacity: 1;"/><path class="point" transform="translate(433.83,162.21)" d="M4,0A4,4 0 1,1 0,-4A4,4 0 0,1 4,0Z" style="opacity: 1; stroke-width: 2px; fill: rgb(127, 147, 166); fill-opacity: 0.22; stroke: rgb(127, 147, 166); stroke-opacity: 1;"/><path class="point" transform="translate(443.33,177.72)" d="M4,0A4,4 0 1,1 0,-4A4,4 0 0,1 4,0Z" style="opacity: 1; stroke-width: 2px; fill: rgb(127, 147, 166); fill-opacity: 0.22; stroke: rgb(127, 147, 166); stroke-opacity: 1;"/><path class="point" transform="translate(452.84,171.64)" d="M4,0A4,4 0 1,1 0,-4A4,4 0 0,1 4,0Z" style="opacity: 1; stroke-width: 2px; fill: rgb(127, 147, 166); fill-opacity: 0.22; stroke: rgb(127, 147, 166); stroke-opacity: 1;"/><path class="point" transform="translate(462.35,161.79)" d="M4,0A4,4 0 1,1 0,-4A4,4 0 0,1 4,0Z" style="opacity: 1; stroke-width: 2px; fill: rgb(127, 147, 166); fill-opacity: 0.22; stroke: rgb(127, 147, 166); stroke-opacity: 1;"/><path class="point" transform="translate(471.85,175.39)" d="M4,0A4,4 0 1,1 0,-4A4,4 0 0,1 4,0Z" style="opacity: 1; stroke-width: 2px; fill: rgb(127, 147, 166); fill-opacity: 0.22; stroke: rgb(127, 147, 166); stroke-opacity: 1;"/><path class="point" transform="translate(481.36,174.32)" d="M4,0A4,4 0 1,1 0,-4A4,4 0 0,1 4,0Z" style="opacity: 1; stroke-width: 2px; fill: rgb(127, 147, 166); fill-opacity: 0.22; stroke: rgb(127, 147, 166); stroke-opacity: 1;"/><path class="point" transform="translate(490.86,188.77)" d="M4,0A4,4 0 1,1 0,-4A4,4 0 0,1 4,0Z" style="opacity: 1; stroke-width: 2px; fill: rgb(127, 147, 166); fill-opacity: 0.22; stroke: rgb(127, 147, 166); stroke-opacity: 1;"/><path class="point" transform="translate(500.37,176.07)" d="M4,0A4,4 0 1,1 0,-4A4,4 0 0,1 4,0Z" style="opacity: 1; stroke-width: 2px; fill: rgb(127, 147, 166); fill-opacity: 0.22; stroke: rgb(127, 147, 166); stroke-opacity: 1;"/><path class="point" transform="translate(509.87,169.21)" d="M4,0A4,4 0 1,1 0,-4A4,4 0 0,1 4,0Z" style="opacity: 1; stroke-width: 2px; fill: rgb(127, 147, 166); fill-opacity: 0.22; stroke: rgb(127, 147, 166); stroke-opacity: 1;"/><path class="point" transform="translate(519.38,167.69)" d="M4,0A4,4 0 1,1 0,-4A4,4 0 0,1 4,0Z" style="opacity: 1; stroke-width: 2px; fill: rgb(127, 147, 166); fill-opacity: 0.22; stroke: rgb(127, 147, 166); stroke-opacity: 1;"/><path class="point" transform="translate(528.88,175.7)" d="M4,0A4,4 0 1,1 0,-4A4,4 0 0,1 4,0Z" style="opacity: 1; stroke-width: 2px; fill: rgb(127, 147, 166); fill-opacity: 0.22; stroke: rgb(127, 147, 166); stroke-opacity: 1;"/><path class="point" transform="translate(538.39,183.8)" d="M4,0A4,4 0 1,1 0,-4A4,4 0 0,1 4,0Z" style="opacity: 1; stroke-width: 2px; fill: rgb(127, 147, 166); fill-opacity: 0.22; stroke: rgb(127, 147, 166); stroke-opacity: 1;"/><path class="point" transform="translate(547.89,179.33)" d="M4,0A4,4 0 1,1 0,-4A4,4 0 0,1 4,0Z" style="opacity: 1; stroke-width: 2px; fill: rgb(127, 147, 166); fill-opacity: 0.22; stroke: rgb(127, 147, 166); stroke-opacity: 1;"/><path class="point" transform="translate(557.4,179.01)" d="M4,0A4,4 0 1,1 0,-4A4,4 0 0,1 4,0Z" style="opacity: 1; stroke-width: 2px; fill: rgb(127, 147, 166); fill-opacity: 0.22; stroke: rgb(127, 147, 166); stroke-opacity: 1;"/></g><g class="text"/></g><g class="trace scatter tracea0c812" style="stroke-miterlimit: 2; opacity: 1;"><g class="fills"/><g class="errorbars"/><g class="lines"/><g class="points"/><g class="text"><g class="textpoint" transform="translate(0,2.75)"><text x="34.6" y="214.79" text-anchor="end" style="font-family: Arial; font-size: 11px; fill: rgb(127, 147, 166); fill-opacity: 1; white-space: pre;">67.4</text></g><g class="textpoint" transform="translate(0,2.75)"><text x="557.4" y="179.01" text-anchor="start" style="font-family: Arial; font-size: 11px; fill: rgb(127, 147, 166); fill-opacity: 1; white-space: pre;">87.4</text></g></g></g></g></g></g><g class="zerolinelayer-above"/><path class="xlines-above crisp" d="M71,416.5H664" style="fill: none; stroke-width: 1px; stroke: rgb(0, 0, 0); stroke-opacity: 1;"/><path class="ylines-above crisp" d="M71.5,112V416" style="fill: none; stroke-width: 1px; stroke: rgb(0, 0, 0); stroke-opacity: 1;"/><g class="overlines-above"/><g class="xaxislayer-above"><g class="xtick"><text text-anchor="middle" x="0" y="436.2" transform="translate(144.62,0)" style="font-family: Arial; font-size: 16px; fill: rgb(0, 0, 0); fill-opacity: 1; white-space: pre;">1970</text></g><g class="xtick"><text text-anchor="middle" x="0" y="436.2" style="font-family: Arial; font-size: 16px; fill: rgb(0, 0, 0); fill-opacity: 1; white-space: pre;" transform="translate(239.68,0)">1980</text></g><g class="xtick"><text text-anchor="middle" x="0" y="436.2" style="font-family: Arial; font-size: 16px; fill: rgb(0, 0, 0); fill-opacity: 1; white-space: pre;" transform="translate(334.73,0)">1990</text></g><g class="xtick"><text text-anchor="middle" x="0" y="436.2" style="font-family: Arial; font-size: 16px; fill: rgb(0, 0, 0); fill-opacity: 1; white-space: pre;" transform="translate(429.79,0)">2000</text></g><g class="xtick"><text text-anchor="middle" x="0" y="436.2" style="font-family: Arial; font-size: 16px; fill: rgb(0, 0, 0); fill-opacity: 1; white-space: pre;" transform="translate(524.8399999999999,0)">2010</text></g><g class="xtick"><text text-anchor="middle" x="0" y="436.2" style="font-family: Arial; font-size: 16px; fill: rgb(0, 0, 0); fill-opacity: 1; white-space: pre;" transform="translate(619.89,0)">2020</text></g></g><g class="yaxislayer-above"><g class="ytick"><text text-anchor="end" x="67.8" y="5.6" transform="translate(0,411.8)" style="font-family: Arial; font-size: 16px; fill: rgb(0, 0, 0); fill-opacity: 1; white-space: pre;">20</text></g><g class="ytick"><text text-anchor="end" x="67.8" y="5.6" style="font-family: Arial; font-size: 16px; fill: rgb(0, 0, 0); fill-opacity: 1; white-space: pre;" transform="translate(0,375.95)">40</text></g><g class="ytick"><text text-anchor="end" x="67.8" y="5.6" style="font-family: Arial; font-size: 16px; fill: rgb(0, 0, 0); fill-opacity: 1; white-space: pre;" transform="translate(0,340.11)">60</text></g><g class="ytick"><text text-anchor="end" x="67.8" y="5.6" style="font-family: Arial; font-size: 16px; fill: rgb(0, 0, 0); fill-opacity: 1; white-space: pre;" transform="translate(0,304.26)">80</text></g><g class="ytick"><text text-anchor="end" x="67.8" y="5.6" style="font-family: Arial; font-size: 16px; fill: rgb(0, 0, 0); fill-opacity: 1; white-space: pre;" transform="translate(0,268.41999999999996)">100</text></g><g class="ytick"><text text-anchor="end" x="67.8" y="5.6" style="font-family: Arial; font-size: 16px; fill: rgb(0, 0, 0); fill-opacity: 1; white-space: pre;" transform="translate(0,232.57)">120</text></g><g class="ytick"><text text-anchor="end" x="67.8" y="5.6" style="font-family: Arial; font-size: 16px; fill: rgb(0, 0, 0); fill-opacity: 1; white-space: pre;" transform="translate(0,196.72)">140</text></g><g class="ytick"><text text-anchor="end" x="67.8" y="5.6" style="font-family: Arial; font-size: 16px; fill: rgb(0, 0, 0); fill-opacity: 1; white-space: pre;" transform="translate(0,160.88)">160</text></g><g class="ytick"><text text-anchor="end" x="67.8" y="5.6" style="font-family: Arial; font-size: 16px; fill: rgb(0, 0, 0); fill-opacity: 1; white-space: pre;" transform="translate(0,125.03)">180</text></g></g><g class="overaxes-above"/></g></g><g class="polarlayer"/><g class="smithlayer"/><g class="ternarylayer"/><g class="geolayer"/><g class="funnelarealayer"/><g class="pielayer"/><g class="iciclelayer"/><g class="treemaplayer"/><g class="sunburstlayer"/><g class="glimages"/><defs id="topdefs-60ee0f"><g class="clips"/><clipPath id="legend60ee0f"><rect width="490" height="33" x="0" y="0"/></clipPath></defs><g class="layer-above"><g class="imagelayer"/><g class="shapelayer"/></g><g class="infolayer"><g class="legend" pointer-events="all" transform="translate(174,72.91999999999999)"><rect class="bg" shape-rendering="crispEdges" style="stroke: rgb(0, 0, 0); stroke-opacity: 0; fill: rgb(0, 0, 0); fill-opacity: 0; stroke-width: 0px;" width="490" height="33" x="0" y="0"/><g class="scrollbox" transform="" clip-path="url(#legend60ee0f)"><g class="groups"><g class="traces" transform="translate(0,16.25)" style="opacity: 1;"><text class="legendtext" text-anchor="start" x="40" y="5.85" style="font-family: Arial; font-size: 15px; fill: rgb(0, 0, 0); fill-opacity: 1; white-space: pre;">1 ROOM</text><g class="layers" style="opacity: 1;"><g class="legendfill"/><g class="legendlines"><path class="js-line" d="M5,0h30" style="fill: none; stroke: rgb(184, 195, 204); stroke-opacity: 1; stroke-width: 2px;"/></g><g class="legendsymbols"><g class="legendpoints"><path class="scatterpts" transform="translate(20,0)" d="M4,0A4,4 0 1,1 0,-4A4,4 0 0,1 4,0Z" style="opacity: 1; stroke-width: 2px; fill: rgb(184, 195, 204); fill-opacity: 0.22; stroke: rgb(184, 195, 204); stroke-opacity: 1;"/></g></g></g><rect class="legendtoggle" x="0" y="-11.25" width="101.6875" height="22.5" style="fill: rgb(0, 0, 0); fill-opacity: 0;"/></g><g class="traces" transform="translate(104.1875,16.25)" style="opacity: 1;"><text class="legendtext" text-anchor="start" x="40" y="5.85" style="font-family: Arial; font-size: 15px; fill: rgb(0, 0, 0); fill-opacity: 1; white-space: pre;">2 ROOM</text><g class="layers" style="opacity: 1;"><g class="legendfill"/><g class="legendlines"><path class="js-line" d="M5,0h30" style="fill: none; stroke: rgb(149, 167, 182); stroke-opacity: 1; stroke-width: 2px;"/></g><g class="legendsymbols"><g class="legendpoints"><path class="scatterpts" transform="translate(20,0)" d="M4,0A4,4 0 1,1 0,-4A4,4 0 0,1 4,0Z" style="opacity: 1; stroke-width: 2px; fill: rgb(149, 167, 182); fill-opacity: 0.22; stroke: rgb(149, 167, 182); stroke-opacity: 1;"/></g></g></g><rect class="legendtoggle" x="0" y="-11.25" width="101.6875" height="22.5" style="fill: rgb(0, 0, 0); fill-opacity: 0;"/></g><g class="traces" transform="translate(208.375,16.25)" style="opacity: 1;"><text class="legendtext" text-anchor="start" x="40" y="5.85" style="font-family: Arial; font-size: 15px; fill: rgb(0, 0, 0); fill-opacity: 1; white-space: pre;">EXECUTIVE</text><g class="layers" style="opacity: 1;"><g class="legendfill"/><g class="legendlines"><path class="js-line" d="M5,0h30" style="fill: none; stroke: rgb(216, 181, 91); stroke-opacity: 1; stroke-width: 2px;"/></g><g class="legendsymbols"><g class="legendpoints"><path class="scatterpts" transform="translate(20,0)" d="M4,0A4,4 0 1,1 0,-4A4,4 0 0,1 4,0Z" style="opacity: 1; stroke-width: 2px; fill: rgb(216, 181, 91); fill-opacity: 0.22; stroke: rgb(216, 181, 91); stroke-opacity: 1;"/></g></g></g><rect class="legendtoggle" x="0" y="-11.25" width="127.53125" height="22.5" style="fill: rgb(0, 0, 0); fill-opacity: 0;"/></g><g class="traces" transform="translate(338.40625,16.25)" style="opacity: 1;"><text class="legendtext" text-anchor="start" x="40" y="5.85" style="font-family: Arial; font-size: 15px; fill: rgb(0, 0, 0); fill-opacity: 1; white-space: pre;">Overall average</text><g class="layers" style="opacity: 1;"><g class="legendfill"/><g class="legendlines"><path class="js-line" d="M5,0h30" style="fill: none; stroke: rgb(127, 147, 166); stroke-opacity: 1; stroke-width: 2px;"/></g><g class="legendsymbols"><g class="legendpoints"><path class="scatterpts" transform="translate(20,0)" d="M4,0A4,4 0 1,1 0,-4A4,4 0 0,1 4,0Z" style="opacity: 1; stroke-width: 2px; fill: rgb(127, 147, 166); fill-opacity: 0.22; stroke: rgb(127, 147, 166); stroke-opacity: 1;"/></g></g></g><rect class="legendtoggle" x="0" y="-11.25" width="148.390625" height="22.5" style="fill: rgb(0, 0, 0); fill-opacity: 0;"/></g></g></g><rect class="scrollbar" rx="20" ry="3" width="0" height="0" style="fill: rgb(128, 139, 164); fill-opacity: 1;" x="0" y="0"/></g><g class="g-gtitle"><text class="gtitle" x="35" y="56" text-anchor="start" dy="0em" style="opacity: 1; font-family: Georgia; font-size: 28px; fill: rgb(0, 0, 0); fill-opacity: 1; white-space: pre;">Sparse and niche flat types</text></g><g class="g-xtitle"/><g class="g-ytitle"/></g></svg>