<svg class="main-svg" xmlns="http://www.w3.org/2000/svg" xmlns:xlink="http://www.w3.org/1999/xlink" width="1280" height="720" style="" viewBox="0 0 1280 720"><rect x="0" y="0" width="1280" height="720" style="fill: rgb(0, 0, 0); fill-opacity: 0;"/><defs id="defs-128560"><g class="clips"><clipPath id="clip128560xyplot" class="plotclip"><rect width="527.4" height="524"/></clipPath><clipPath id="clip128560x2y2plot" class="plotclip"><rect width="527.4" height="524"/></clipPath><clipPath class="axesclip" id="clip128560x"><rect x="72" y="0" width="527.4" height="720"/></clipPath><clipPath class="axesclip" id="clip128560y"><rect x="0" y="112" width="1280" height="524"/></clipPath><clipPath class="axesclip" id="clip128560xy"><rect x="72" y="112" width="527.4" height="524"/></clipPath><clipPath class="axesclip" id="clip128560y2"><rect x="0" y="112" width="1280" height="524"/></clipPath><clipPath class="axesclip" id="clip128560xy2"><rect x="72" y="112" width="527.4" height="524"/></clipPath><clipPath class="axesclip" id="clip128560x2"><rect x="716.6" y="0" width="527.4" height="720"/></clipPath><clipPath class="axesclip" id="clip128560x2y"><rect x="716.6" y="112" width="527.4" height="524"/></clipPath><clipPath class="axesclip" id="clip128560x2y2"><rect x="716.6" y="112" width="527.4" height="524"/></clipPath></g><g class="gradients"/><g class="patterns"/></defs><g class="bglayer"><rect class="bg" x="72" y="112" width="527.4" height="524" style="fill: rgb(0, 0, 0); fill-opacity: 0; stroke-width: 0;"/><rect class="bg" x="716.6" y="112" width="527.4" height="524" style="fill: rgb(0, 0, 0); fill-opacity: 0; stroke-width: 0;"/></g><g class="layer-below"><g class="imagelayer"/><g class="shapelayer"/></g><g class="cartesianlayer"><g class="subplot xy"><g class="layer-subplot"><g class="shapelayer"/><g class="imagelayer"/></g><g class="minor-gridlayer"><g class="x"/><g class="y"/></g><g class="gridlayer"><g class="x"/><g class="y"/></g><g class="zerolinelayer"/><g class="layer-between"><g class="shapelayer"/><g class="imagelayer"/></g><path class="xlines-below"/><path class="ylines-below"/><g class="overlines-below"/><g class="xaxislayer-below"/><g class="yaxislayer-below"/><g class="overaxes-below"/><g class="overplot"><g class="xy" transform="translate(72,112)" clip-path="url(#clip128560xyplot)"><g class="scatterlayer mlayer"><g class="trace scatter tracef2f8bf" style="stroke-miterlimit: 2; opacity: 1;"><g class="fills"/><g class="errorbars"/><g class="lines"><path class="js-line" d="M31.37,375.72L75.62,394.33L97.75,391.59L119.88,384.48L164.13,394.33L186.26,355.52L208.38,394.33L230.51,394.33L252.64,358L274.76,350.68L296.89,353.11L319.02,353.56L341.14,363.53L363.27,360.05L385.4,359.23L407.52,355.66L429.65,355.83L451.78,356.28L473.9,355.71L496.03,357.16" style="vector-effect: none; fill: none; stroke: rgb(169, 183, 196); stroke-opacity: 1; stroke-width: 2px; opacity: 1;"/></g><g class="points"><path class="point" transform="translate(31.37,375.72)" d="M4,0A4,4 0 1,1 0,-4A4,4 0 0,1 4,0Z" style="opacity: 1; stroke-width: 2px; fill: rgb(0, 0, 0); fill-opacity: 0; stroke: rgb(169, 183, 196); stroke-opacity: 1;"/><path class="point" transform="translate(75.62,394.33)" d="M4,0A4,4 0 1,1 0,-4A4,4 0 0,1 4,0Z" style="opacity: 1; stroke-width: 2px; fill: rgb(0, 0, 0); fill-opacity: 0; stroke: rgb(169, 183, 196); stroke-opacity: 1;"/><path class="point" transform="translate(97.75,391.59)" d="M4,0A4,4 0 1,1 0,-4A4,4 0 0,1 4,0Z" style="opacity: 1; stroke-width: 2px; fill: rgb(0, 0, 0); fill-opacity: 0; stroke: rgb(169, 183, 196); stroke-opacity: 1;"/><path class="point" transform="translate(119.88,384.48)" d="M4,0A4,4 0 1,1 0,-4A4,4 0 0,1 4,0Z" style="opacity: 1; stroke-width: 2px; fill: rgb(0, 0, 0); fill-opacity: 0; stroke: rgb(169, 183, 196); stroke-opacity: 1;"/><path class="point" transform="translate(164.13,394.33)" d="M4,0A4,4 0 1,1 0,-4A4,4 0 0,1 4,0Z" style="opacity: 1; stroke-width: 2px; fill: rgb(0, 0, 0); fill-opacity: 0; stroke: rgb(169, 183, 196); stroke-opacity: 1;"/><path class="point" transform="translate(186.26,355.52)" d="M4,0A4,4 0 1,1 0,-4A4,4 0 0,1 4,0Z" style="opacity: 1; stroke-width: 2px; fill: rgb(0, 0, 0); fill-opacity: 0; stroke: rgb(169, 183, 196); stroke-opacity: 1;"/><path class="point" transform="translate(208.38,394.33)" d="M4,0A4,4 0 1,1 0,-4A4,4 0 0,1 4,0Z" style="opacity: 1; stroke-width: 2px; fill: rgb(0, 0, 0); fill-opacity: 0; stroke: rgb(169, 183, 196); stroke-opacity: 1;"/><path class="point" transform="translate(230.51,394.33)" d="M4,0A4,4 0 1,1 0,-4A4,4 0 0,1 4,0Z" style="opacity: 1; stroke-width: 2px; fill: rgb(0, 0, 0); fill-opacity: 0; stroke: rgb(169, 183, 196); stroke-opacity: 1;"/><path class="point" transform="translate(252.64,358)" d="M4,0A4,4 0 1,1 0,-4A4,4 0 0,1 4,0Z" style="opacity: 1; stroke-width: 2px; fill: rgb(0, 0, 0); fill-opacity: 0; stroke: rgb(169, 183, 196); stroke-opacity: 1;"/><path class="point" transform="translate(274.76,350.68)" d="M4,0A4,4 0 1,1 0,-4A4,4 0 0,1 4,0Z" style="opacity: 1; stroke-width: 2px; fill: rgb(0, 0, 0); fill-opacity: 0; stroke: rgb(169, 183, 196); stroke-opacity: 1;"/><path class="point" transform="translate(296.89,353.11)" d="M4,0A4,4 0 1,1 0,-4A4,4 0 0,1 4,0Z" style="opacity: 1; stroke-width: 2px; fill: rgb(0, 0, 0); fill-opacity: 0; stroke: rgb(169, 183, 196); stroke-opacity: 1;"/><path class="point" transform="translate(319.02,353.56)" d="M4,0A4,4 0 1,1 0,-4A4,4 0 0,1 4,0Z" style="opacity: 1; stroke-width: 2px; fill: rgb(0, 0, 0); fill-opacity: 0; stroke: rgb(169, 183, 196); stroke-opacity: 1;"/><path class="point" transform="translate(341.14,363.53)" d="M4,0A4,4 0 1,1 0,-4A4,4 0 0,1 4,0Z" style="opacity: 1; stroke-width: 2px; fill: rgb(0, 0, 0); fill-opacity: 0; stroke: rgb(169, 183, 196); stroke-opacity: 1;"/><path class="point" transform="translate(363.27,360.05)" d="M4,0A4,4 0 1,1 0,-4A4,4 0 0,1 4,0Z" style="opacity: 1; stroke-width: 2px; fill: rgb(0, 0, 0); fill-opacity: 0; stroke: rgb(169, 183, 196); stroke-opacity: 1;"/><path class="point" transform="translate(385.4,359.23)" d="M4,0A4,4 0 1,1 0,-4A4,4 0 0,1 4,0Z" style="opacity: 1; stroke-width: 2px; fill: rgb(0, 0, 0); fill-opacity: 0; stroke: rgb(169, 183, 196); stroke-opacity: 1;"/><path class="point" transform="translate(407.52,355.66)" d="M4,0A4,4 0 1,1 0,-4A4,4 0 0,1 4,0Z" style="opacity: 1; stroke-width: 2px; fill: rgb(0, 0, 0); fill-opacity: 0; stroke: rgb(169, 183, 196); stroke-opacity: 1;"/><path class="point" transform="translate(429.65,355.83)" d="M4,0A4,4 0 1,1 0,-4A4,4 0 0,1 4,0Z" style="opacity: 1; stroke-width: 2px; fill: rgb(0, 0, 0); fill-opacity: 0; stroke: rgb(169, 183, 196); stroke-opacity: 1;"/><path class="point" transform="translate(451.78,356.28)" d="M4,0A4,4 0 1,1 0,-4A4,4 0 0,1 4,0Z" style="opacity: 1; stroke-width: 2px; fill: rgb(0, 0, 0); fill-opacity: 0; stroke: rgb(169, 183, 196); stroke-opacity: 1;"/><path class="point" transform="translate(473.9,355.71)" d="M4,0A4,4 0 1,1 0,-4A4,4 0 0,1 4,0Z" style="opacity: 1; stroke-width: 2px; fill: rgb(0, 0, 0); fill-opacity: 0; stroke: rgb(169, 183, 196); stroke-opacity: 1;"/><path class="point" transform="translate(496.03,357.16)" d="M4,0A4,4 0 1,1 0,-4A4,4 0 0,1 4,0Z" style="opacity: 1; stroke-width: 2px; fill: rgb(0, 0, 0); fill-opacity: 0; stroke: rgb(169, 183, 196); stroke-opacity: 1;"/></g><g class="text"/></g><g class="trace scatter tracef3f17f" style="stroke-miterlimit: 2; opacity: 1;"><g class="fills"/><g class="errorbars"/><g class="lines"/><g class="points"/><g class="text"><g class="textpoint" transform="translate(0,2.75)"><text x="31.37" y="375.72" text-anchor="end" style="font-family: Arial; font-size: 11px; fill: rgb(169, 183, 196); fill-opacity: 1; white-space: pre;">63.8</text></g><g class="textpoint" transform="translate(0,2.75)"><text x="496.03" y="357.16" text-anchor="start" style="font-family: Arial; font-size: 11px; fill: rgb(169, 183, 196); fill-opacity: 1; white-space: pre;">67.5</text></g></g></g><g class="trace scatter trace4a0dc2" style="stroke-miterlimit: 2; opacity: 1;"><g class="fills"/><g class="errorbars"/><g class="lines"><path class="js-line" d="M31.37,219.68L53.5,236.41L75.62,247.7L97.75,247.79L119.88,244.42L142,234.16L164.13,245.11L186.26,239.41L208.38,243.53L230.51,251.8L252.64,226.97L274.76,228.06L296.89,230.96L319.02,228.81L341.14,242.87L363.27,235.88L385.4,236.98L407.52,233.31L429.65,232.35L451.78,233.47L473.9,233.03L496.03,229.82" style="vector-effect: none; fill: none; stroke: rgb(207, 134, 75); stroke-opacity: 1; stroke-width: 2px; opacity: 1;"/></g><g class="points"><path class="point" transform="translate(31.37,219.68)" d="M4,0A4,4 0 1,1 0,-4A4,4 0 0,1 4,0Z" style="opacity: 1; stroke-width: 2px; fill: rgb(0, 0, 0); fill-opacity: 0; stroke: rgb(207, 134, 75); stroke-opacity: 1;"/><path class="point" transform="translate(53.5,236.41)" d="M4,0A4,4 0 1,1 0,-4A4,4 0 0,1 4,0Z" style="opacity: 1; stroke-width: 2px; fill: rgb(0, 0, 0); fill-opacity: 0; stroke: rgb(207, 134, 75); stroke-opacity: 1;"/><path class="point" transform="translate(75.62,247.7)" d="M4,0A4,4 0 1,1 0,-4A4,4 0 0,1 4,0Z" style="opacity: 1; stroke-width: 2px; fill: rgb(0, 0, 0); fill-opacity: 0; stroke: rgb(207, 134, 75); stroke-opacity: 1;"/><path class="point" transform="translate(97.75,247.79)" d="M4,0A4,4 0 1,1 0,-4A4,4 0 0,1 4,0Z" style="opacity: 1; stroke-width: 2px; fill: rgb(0, 0, 0); fill-opacity: 0; stroke: rgb(207, 134, 75); stroke-opacity: 1;"/><path class="point" transform="translate(119.88,244.42)" d="M4,0A4,4 0 1,1 0,-4A4,4 0 0,1 4,0Z" style="opacity: 1; stroke-width: 2px; fill: rgb(0, 0, 0); fill-opacity: 0; stroke: rgb(207, 134, 75); stroke-opacity: 1;"/><path class="point" transform="translate(142,234.16)" d="M4,0A4,4 0 1,1 0,-4A4,4 0 0,1 4,0Z" style="opacity: 1; stroke-width: 2px; fill: rgb(0, 0, 0); fill-opacity: 0; stroke: rgb(207, 134, 75); stroke-opacity: 1;"/><path class="point" transform="translate(164.13,245.11)" d="M4,0A4,4 0 1,1 0,-4A4,4 0 0,1 4,0Z" style="opacity: 1; stroke-width: 2px; fill: rgb(0, 0, 0); fill-opacity: 0; stroke: rgb(207, 134, 75); stroke-opacity: 1;"/><path class="point" transform="translate(186.26,239.41)" d="M4,0A4,4 0 1,1 0,-4A4,4 0 0,1 4,0Z" style="opacity: 1; stroke-width: 2px; fill: rgb(0, 0, 0); fill-opacity: 0; stroke: rgb(207, 134, 75); stroke-opacity: 1;"/><path class="point" transform="translate(208.38,243.53)" d="M4,0A4,4 0 1,1 0,-4A4,4 0 0,1 4,0Z" style="opacity: 1; stroke-width: 2px; fill: rgb(0, 0, 0); fill-opacity: 0; stroke: rgb(207, 134, 75); stroke-opacity: 1;"/><path class="point" transform="translate(230.51,251.8)" d="M4,0A4,4 0 1,1 0,-4A4,4 0 0,1 4,0Z" style="opacity: 1; stroke-width: 2px; fill: rgb(0, 0, 0); fill-opacity: 0; stroke: rgb(207, 134, 75); stroke-opacity: 1;"/><path class="point" transform="translate(252.64,226.97)" d="M4,0A4,4 0 1,1 0,-4A4,4 0 0,1 4,0Z" style="opacity: 1; stroke-width: 2px; fill: rgb(0, 0, 0); fill-opacity: 0; stroke: rgb(207, 134, 75); stroke-opacity: 1;"/><path class="point" transform="translate(274.76,228.06)" d="M4,0A4,4 0 1,1 0,-4A4,4 0 0,1 4,0Z" style="opacity: 1; stroke-width: 2px; fill: rgb(0, 0, 0); fill-opacity: 0; stroke: rgb(207, 134, 75); stroke-opacity: 1;"/><path class="point" transform="translate(296.89,230.96)" d="M4,0A4,4 0 1,1 0,-4A4,4 0 0,1 4,0Z" style="opacity: 1; stroke-width: 2px; fill: rgb(0, 0, 0); fill-opacity: 0; stroke: rgb(207, 134, 75); stroke-opacity: 1;"/><path class="point" transform="translate(319.02,228.81)" d="M4,0A4,4 0 1,1 0,-4A4,4 0 0,1 4,0Z" style="opacity: 1; stroke-width: 2px; fill: rgb(0, 0, 0); fill-opacity: 0; stroke: rgb(207, 134, 75); stroke-opacity: 1;"/><path class="point" transform="translate(341.14,242.87)" d="M4,0A4,4 0 1,1 0,-4A4,4 0 0,1 4,0Z" style="opacity: 1; stroke-width: 2px; fill: rgb(0, 0, 0); fill-opacity: 0; stroke: rgb(207, 134, 75); stroke-opacity: 1;"/><path class="point" transform="translate(363.27,235.88)" d="M4,0A4,4 0 1,1 0,-4A4,4 0 0,1 4,0Z" style="opacity: 1; stroke-width: 2px; fill: rgb(0, 0, 0); fill-opacity: 0; stroke: rgb(207, 134, 75); stroke-opacity: 1;"/><path class="point" transform="translate(385.4,236.98)" d="M4,0A4,4 0 1,1 0,-4A4,4 0 0,1 4,0Z" style="opacity: 1; stroke-width: 2px; fill: rgb(0, 0, 0); fill-opacity: 0; stroke: rgb(207, 134, 75); stroke-opacity: 1;"/><path class="point" transform="translate(407.52,233.31)" d="M4,0A4,4 0 1,1 0,-4A4,4 0 0,1 4,0Z" style="opacity: 1; stroke-width: 2px; fill: rgb(0, 0, 0); fill-opacity: 0; stroke: rgb(207, 134, 75); stroke-opacity: 1;"/><path class="point" transform="translate(429.65,232.35)" d="M4,0A4,4 0 1,1 0,-4A4,4 0 0,1 4,0Z" style="opacity: 1; stroke-width: 2px; fill: rgb(0, 0, 0); fill-opacity: 0; stroke: rgb(207, 134, 75); stroke-opacity: 1;"/><path class="point" transform="translate(451.78,233.47)" d="M4,0A4,4 0 1,1 0,-4A4,4 0 0,1 4,0Z" style="opacity: 1; stroke-width: 2px; fill: rgb(0, 0, 0); fill-opacity: 0; stroke: rgb(207, 134, 75); stroke-opacity: 1;"/><path class="point" transform="translate(473.9,233.03)" d="M4,0A4,4 0 1,1 0,-4A4,4 0 0,1 4,0Z" style="opacity: 1; stroke-width: 2px; fill: rgb(0, 0, 0); fill-opacity: 0; stroke: rgb(207, 134, 75); stroke-opacity: 1;"/><path class="point" transform="translate(496.03,229.82)" d="M4,0A4,4 0 1,1 0,-4A4,4 0 0,1 4,0Z" style="opacity: 1; stroke-width: 2px; fill: rgb(0, 0, 0); fill-opacity: 0; stroke: rgb(207, 134, 75); stroke-opacity: 1;"/></g><g class="text"/></g><g class="trace scatter tracea401ed" style="stroke-miterlimit: 2; opacity: 1;"><g class="fills"/><g class="errorbars"/><g class="lines"/><g class="points"/><g class="text"><g class="textpoint" transform="translate(0,2.75)"><text x="31.37" y="219.68" text-anchor="end" style="font-family: Arial; font-size: 11px; fill: rgb(207, 134, 75); fill-opacity: 1; white-space: pre;">95.5</text></g><g class="textpoint" transform="translate(0,2.75)"><text x="496.03" y="229.82" text-anchor="start" style="font-family: Arial; font-size: 11px; fill: rgb(207, 134, 75); fill-opacity: 1; white-space: pre;">93.4</text></g></g></g><g class="trace scatter trace163925" style="stroke-miterlimit: 2; opacity: 1;"><g class="fills"/><g class="errorbars"/><g class="lines"><path class="js-line" d="M31.37,124.54L53.5,141.73L75.62,145.93L97.75,145L119.88,142.07L142,139.47L164.13,143.11L186.26,123.53L208.38,147.17L230.51,147.27L252.64,136.23L274.76,138.23L296.89,116.87L319.02,125.33L341.14,149.5L363.27,137.14L385.4,136.28L407.52,134.64L429.65,132.16L473.9,130.9L496.03,133.04" style="vector-effect: none; fill: none; stroke: rgb(123, 143, 121); stroke-opacity: 1; stroke-width: 2px; opacity: 1;"/></g><g class="points"><path class="point" transform="translate(31.37,124.54)" d="M4,0A4,4 0 1,1 0,-4A4,4 0 0,1 4,0Z" style="opacity: 1; stroke-width: 2px; fill: rgb(0, 0, 0); fill-opacity: 0; stroke: rgb(123, 143, 121); stroke-opacity: 1;"/><path class="point" transform="translate(53.5,141.73)" d="M4,0A4,4 0 1,1 0,-4A4,4 0 0,1 4,0Z" style="opacity: 1; stroke-width: 2px; fill: rgb(0, 0, 0); fill-opacity: 0; stroke: rgb(123, 143, 121); stroke-opacity: 1;"/><path class="point" transform="translate(75.62,145.93)" d="M4,0A4,4 0 1,1 0,-4A4,4 0 0,1 4,0Z" style="opacity: 1; stroke-width: 2px; fill: rgb(0, 0, 0); fill-opacity: 0; stroke: rgb(123, 143, 121); stroke-opacity: 1;"/><path class="point" transform="translate(97.75,145)" d="M4,0A4,4 0 1,1 0,-4A4,4 0 0,1 4,0Z" style="opacity: 1; stroke-width: 2px; fill: rgb(0, 0, 0); fill-opacity: 0; stroke: rgb(123, 143, 121); stroke-opacity: 1;"/><path class="point" transform="translate(119.88,142.07)" d="M4,0A4,4 0 1,1 0,-4A4,4 0 0,1 4,0Z" style="opacity: 1; stroke-width: 2px; fill: rgb(0, 0, 0); fill-opacity: 0; stroke: rgb(123, 143, 121); stroke-opacity: 1;"/><path class="point" transform="translate(142,139.47)" d="M4,0A4,4 0 1,1 0,-4A4,4 0 0,1 4,0Z" style="opacity: 1; stroke-width: 2px; fill: rgb(0, 0, 0); fill-opacity: 0; stroke: rgb(123, 143, 121); stroke-opacity: 1;"/><path class="point" transform="translate(164.13,143.11)" d="M4,0A4,4 0 1,1 0,-4A4,4 0 0,1 4,0Z" style="opacity: 1; stroke-width: 2px; fill: rgb(0, 0, 0); fill-opacity: 0; stroke: rgb(123, 143, 121); stroke-opacity: 1;"/><path class="point" transform="translate(186.26,123.53)" d="M4,0A4,4 0 1,1 0,-4A4,4 0 0,1 4,0Z" style="opacity: 1; stroke-width: 2px; fill: rgb(0, 0, 0); fill-opacity: 0; stroke: rgb(123, 143, 121); stroke-opacity: 1;"/><path class="point" transform="translate(208.38,147.17)" d="M4,0A4,4 0 1,1 0,-4A4,4 0 0,1 4,0Z" style="opacity: 1; stroke-width: 2px; fill: rgb(0, 0, 0); fill-opacity: 0; stroke: rgb(123, 143, 121); stroke-opacity: 1;"/><path class="point" transform="translate(230.51,147.27)" d="M4,0A4,4 0 1,1 0,-4A4,4 0 0,1 4,0Z" style="opacity: 1; stroke-width: 2px; fill: rgb(0, 0, 0); fill-opacity: 0; stroke: rgb(123, 143, 121); stroke-opacity: 1;"/><path class="point" transform="translate(252.64,136.23)" d="M4,0A4,4 0 1,1 0,-4A4,4 0 0,1 4,0Z" style="opacity: 1; stroke-width: 2px; fill: rgb(0, 0, 0); fill-opacity: 0; stroke: rgb(123, 143, 121); stroke-opacity: 1;"/><path class="point" transform="translate(274.76,138.23)" d="M4,0A4,4 0 1,1 0,-4A4,4 0 0,1 4,0Z" style="opacity: 1; stroke-width: 2px; fill: rgb(0, 0, 0); fill-opacity: 0; stroke: rgb(123, 143, 121); stroke-opacity: 1;"/><path class="point" transform="translate(296.89,116.87)" d="M4,0A4,4 0 1,1 0,-4A4,4 0 0,1 4,0Z" style="opacity: 1; stroke-width: 2px; fill: rgb(0, 0, 0); fill-opacity: 0; stroke: rgb(123, 143, 121); stroke-opacity: 1;"/><path class="point" transform="translate(319.02,125.33)" d="M4,0A4,4 0 1,1 0,-4A4,4 0 0,1 4,0Z" style="opacity: 1; stroke-width: 2px; fill: rgb(0, 0, 0); fill-opacity: 0; stroke: rgb(123, 143, 121); stroke-opacity: 1;"/><path class="point" transform="translate(341.14,149.5)" d="M4,0A4,4 0 1,1 0,-4A4,4 0 0,1 4,0Z" style="opacity: 1; stroke-width: 2px; fill: rgb(0, 0, 0); fill-opacity: 0; stroke: rgb(123, 143, 121); stroke-opacity: 1;"/><path class="point" transform="translate(363.27,137.14)" d="M4,0A4,4 0 1,1 0,-4A4,4 0 0,1 4,0Z" style="opacity: 1; stroke-width: 2px; fill: rgb(0, 0, 0); fill-opacity: 0; stroke: rgb(123, 143, 121); stroke-opacity: 1;"/><path class="point" transform="translate(385.4,136.28)" d="M4,0A4,4 0 1,1 0,-4A4,4 0 0,1 4,0Z" style="opacity: 1; stroke-width: 2px; fill: rgb(0, 0, 0); fill-opacity: 0; stroke: rgb(123, 143, 121); stroke-opacity: 1;"/><path class="point" transform="translate(407.52,134.64)" d="M4,0A4,4 0 1,1 0,-4A4,4 0 0,1 4,0Z" style="opacity: 1; stroke-width: 2px; fill: rgb(0, 0, 0); fill-opacity: 0; stroke: rgb(123, 143, 121); stroke-opacity: 1;"/><path class="point" transform="translate(429.65,132.16)" d="M4,0A4,4 0 1,1 0,-4A4,4 0 0,1 4,0Z" style="opacity: 1; stroke-width: 2px; fill: rgb(0, 0, 0); fill-opacity: 0; stroke: rgb(123, 143, 121); stroke-opacity: 1;"/><path class="point" transform="translate(451.78,131.63)" d="M4,0A4,4 0 1,1 0,-4A4,4 0 0,1 4,0Z" style="opacity: 1; stroke-width: 2px; fill: rgb(0, 0, 0); fill-opacity: 0; stroke: rgb(123, 143, 121); stroke-opacity: 1;"/><path class="point" transform="translate(473.9,130.9)" d="M4,0A4,4 0 1,1 0,-4A4,4 0 0,1 4,0Z" style="opacity: 1; stroke-width: 2px; fill: rgb(0, 0, 0); fill-opacity: 0; stroke: rgb(123, 143, 121); stroke-opacity: 1;"/><path class="point" transform="translate(496.03,133.04)" d="M4,0A4,4 0 1,1 0,-4A4,4 0 0,1 4,0Z" style="opacity: 1; stroke-width: 2px; fill: rgb(0, 0, 0); fill-opacity: 0; stroke: rgb(123, 143, 121); stroke-opacity: 1;"/></g><g class="text"/></g><g class="trace scatter trace1f6653" style="stroke-miterlimit: 2; opacity: 1;"><g class="fills"/><g class="errorbars"/><g class="lines"/><g class="points"/><g class="text"><g class="textpoint" transform="translate(0,2.75)"><text x="31.37" y="124.54" text-anchor="end" style="font-family: Arial; font-size: 11px; fill: rgb(123, 143, 121); fill-opacity: 1; white-space: pre;">114.8</text></g><g class="textpoint" transform="translate(0,2.75)"><text x="496.03" y="133.04" text-anchor="start" style="font-family: Arial; font-size: 11px; fill: rgb(123, 143, 121); fill-opacity: 1; white-space: pre;">113.1</text></g></g></g></g></g></g><g class="zerolinelayer-above"/><path class="xlines-above crisp" d="M71,636.5H599.4" style="fill: none; stroke-width: 1px; stroke: rgb(0, 0, 0); stroke-opacity: 1;"/><path class="ylines-above crisp" d="M71.5,112V636" style="fill: none; stroke-width: 1px; stroke: rgb(0, 0, 0); stroke-opacity: 1;"/><g class="overlines-above"/><g class="xaxislayer-above"><g class="xtick"><text text-anchor="middle" x="0" y="656.2" transform="translate(103.37,0)" style="font-family: Arial; font-size: 16px; fill: rgb(0, 0, 0); fill-opacity: 1; white-space: pre;">2000</text></g><g class="xtick"><text text-anchor="middle" x="0" y="656.2" style="font-family: Arial; font-size: 16px; fill: rgb(0, 0, 0); fill-opacity: 1; white-space: pre;" transform="translate(214,0)">2005</text></g><g class="xtick"><text text-anchor="middle" x="0" y="656.2" style="font-family: Arial; font-size: 16px; fill: rgb(0, 0, 0); fill-opacity: 1; white-space: pre;" transform="translate(324.64,0)">2010</text></g><g class="xtick"><text text-anchor="middle" x="0" y="656.2" style="font-family: Arial; font-size: 16px; fill: rgb(0, 0, 0); fill-opacity: 1; white-space: pre;" transform="translate(435.27,0)">2015</text></g><g class="xtick"><text text-anchor="middle" x="0" y="656.2" style="font-family: Arial; font-size: 16px; fill: rgb(0, 0, 0); fill-opacity: 1; white-space: pre;" transform="translate(545.9,0)">2020</text></g></g><g class="yaxislayer-above"><g class="ytick"><text text-anchor="end" x="67.8" y="5.6" transform="translate(0,604.8)" style="font-family: Arial; font-size: 16px; fill: rgb(0, 0, 0); fill-opacity: 1; white-space: pre;">40</text></g><g class="ytick"><text text-anchor="end" x="67.8" y="5.6" style="font-family: Arial; font-size: 16px; fill: rgb(0, 0, 0); fill-opacity: 1; white-space: pre;" transform="translate(0,506.33)">60</text></g><g class="ytick"><text text-anchor="end" x="67.8" y="5.6" style="font-family: Arial; font-size: 16px; fill: rgb(0, 0, 0); fill-opacity: 1; white-space: pre;" transform="translate(0,407.86)">80</text></g><g class="ytick"><text text-anchor="end" x="67.8" y="5.6" style="font-family: Arial; font-size: 16px; fill: rgb(0, 0, 0); fill-opacity: 1; white-space: pre;" transform="translate(0,309.38)">100</text></g><g class="ytick"><text text-anchor="end" x="67.8" y="5.6" style="font-family: Arial; font-size: 16px; fill: rgb(0, 0, 0); fill-opacity: 1; white-space: pre;" transform="translate(0,210.91)">120</text></g><g class="ytick"><text text-anchor="end" x="67.8" y="5.6" style="font-family: Arial; font-size: 16px; fill: rgb(0, 0, 0); fill-opacity: 1; white-space: pre;" transform="translate(0,112.44)">140</text></g></g><g class="overaxes-above"/></g><g class="subplot x2y2"><g class="layer-subplot"><g class="shapelayer"/><g class="imagelayer"/></g><g class="minor-gridlayer"><g class="x2"/><g class="y2"/></g><g class="gridlayer"><g class="x2"/><g class="y2"/></g><g class="zerolinelayer"/><g class="layer-between"><g class="shapelayer"/><g class="imagelayer"/></g><path class="xlines-below"/><path class="ylines-below"/><g class="overlines-below"/><g class="xaxislayer-below"/><g class="yaxislayer-below"/><g class="overaxes-below"/><g class="overplot"><g class="x2y2" transform="translate(716.6,112)" clip-path="url(#clip128560x2y2plot)"><g class="scatterlayer mlayer"><g class="trace scatter trace939579" style="stroke-miterlimit: 2; opacity: 1;"><g class="fills"/><g class="errorbars"/><g class="lines"><path class="js-line" d="M31.37,492.8L186.26,471.3L208.38,432.03L274.76,475.29L296.89,454.21L319.02,455.44L341.14,463.28L363.27,460.09L385.4,458.33L407.52,458.33L429.65,468.9L451.78,468.84L473.9,467.75L496.03,469.62" style="vector-effect: none; fill: none; stroke: rgb(149, 167, 182); stroke-opacity: 1; stroke-width: 2px; opacity: 1;"/></g><g class="points"><path class="point" transform="translate(31.37,492.8)" d="M4,0A4,4 0 1,1 0,-4A4,4 0 0,1 4,0Z" style="opacity: 1; stroke-width: 2px; fill: rgb(0, 0, 0); fill-opacity: 0; stroke: rgb(149, 167, 182); stroke-opacity: 1;"/><path class="point" transform="translate(186.26,471.3)" d="M4,0A4,4 0 1,1 0,-4A4,4 0 0,1 4,0Z" style="opacity: 1; stroke-width: 2px; fill: rgb(0, 0, 0); fill-opacity: 0; stroke: rgb(149, 167, 182); stroke-opacity: 1;"/><path class="point" transform="translate(208.38,432.03)" d="M4,0A4,4 0 1,1 0,-4A4,4 0 0,1 4,0Z" style="opacity: 1; stroke-width: 2px; fill: rgb(0, 0, 0); fill-opacity: 0; stroke: rgb(149, 167, 182); stroke-opacity: 1;"/><path class="point" transform="translate(274.76,475.29)" d="M4,0A4,4 0 1,1 0,-4A4,4 0 0,1 4,0Z" style="opacity: 1; stroke-width: 2px; fill: rgb(0, 0, 0); fill-opacity: 0; stroke: rgb(149, 167, 182); stroke-opacity: 1;"/><path class="point" transform="translate(296.89,454.21)" d="M4,0A4,4 0 1,1 0,-4A4,4 0 0,1 4,0Z" style="opacity: 1; stroke-width: 2px; fill: rgb(0, 0, 0); fill-opacity: 0; stroke: rgb(149, 167, 182); stroke-opacity: 1;"/><path class="point" transform="translate(319.02,455.44)" d="M4,0A4,4 0 1,1 0,-4A4,4 0 0,1 4,0Z" style="opacity: 1; stroke-width: 2px; fill: rgb(0, 0, 0); fill-opacity: 0; stroke: rgb(149, 167, 182); stroke-opacity: 1;"/><path class="point" transform="translate(341.14,463.28)" d="M4,0A4,4 0 1,1 0,-4A4,4 0 0,1 4,0Z" style="opacity: 1; stroke-width: 2px; fill: rgb(0, 0, 0); fill-opacity: 0; stroke: rgb(149, 167, 182); stroke-opacity: 1;"/><path class="point" transform="translate(363.27,460.09)" d="M4,0A4,4 0 1,1 0,-4A4,4 0 0,1 4,0Z" style="opacity: 1; stroke-width: 2px; fill: rgb(0, 0, 0); fill-opacity: 0; stroke: rgb(149, 167, 182); stroke-opacity: 1;"/><path class="point" transform="translate(385.4,458.33)" d="M4,0A4,4 0 1,1 0,-4A4,4 0 0,1 4,0Z" style="opacity: 1; stroke-width: 2px; fill: rgb(0, 0, 0); fill-opacity: 0; stroke: rgb(149, 167, 182); stroke-opacity: 1;"/><path class="point" transform="translate(407.52,458.33)" d="M4,0A4,4 0 1,1 0,-4A4,4 0 0,1 4,0Z" style="opacity: 1; stroke-width: 2px; fill: rgb(0, 0, 0); fill-opacity: 0; stroke: rgb(149, 167, 182); stroke-opacity: 1;"/><path class="point" transform="translate(429.65,468.9)" d="M4,0A4,4 0 1,1 0,-4A4,4 0 0,1 4,0Z" style="opacity: 1; stroke-width: 2px; fill: rgb(0, 0, 0); fill-opacity: 0; stroke: rgb(149, 167, 182); stroke-opacity: 1;"/><path class="point" transform="translate(451.78,468.84)" d="M4,0A4,4 0 1,1 0,-4A4,4 0 0,1 4,0Z" style="opacity: 1; stroke-width: 2px; fill: rgb(0, 0, 0); fill-opacity: 0; stroke: rgb(149, 167, 182); stroke-opacity: 1;"/><path class="point" transform="translate(473.9,467.75)" d="M4,0A4,4 0 1,1 0,-4A4,4 0 0,1 4,0Z" style="opacity: 1; stroke-width: 2px; fill: rgb(0, 0, 0); fill-opacity: 0; stroke: rgb(149, 167, 182); stroke-opacity: 1;"/><path class="point" transform="translate(496.03,469.62)" d="M4,0A4,4 0 1,1 0,-4A4,4 0 0,1 4,0Z" style="opacity: 1; stroke-width: 2px; fill: rgb(0, 0, 0); fill-opacity: 0; stroke: rgb(149, 167, 182); stroke-opacity: 1;"/></g><g class="text"/></g><g class="trace scatter traceb195c7" style="stroke-miterlimit: 2; opacity: 1;"><g class="fills"/><g class="errorbars"/><g class="lines"/><g class="points"/><g class="text"><g class="textpoint" transform="translate(0,2.75)"><text x="31.37" y="492.8" text-anchor="end" style="font-family: Arial; font-size: 11px; fill: rgb(149, 167, 182); fill-opacity: 1; white-space: pre;">40.0</text></g><g class="textpoint" transform="translate(0,2.75)"><text x="496.03" y="469.62" text-anchor="start" style="font-family: Arial; font-size: 11px; fill: rgb(149, 167, 182); fill-opacity: 1; white-space: pre;">44.7</text></g></g></g><g class="trace scatter trace542ce9" style="stroke-miterlimit: 2; opacity: 1;"><g class="fills"/><g class="errorbars"/><g class="lines"><path class="js-line" d="M31.37,31.2L53.5,41.51L75.62,62.01L97.75,62.74L119.88,59.52" style="vector-effect: none; fill: none; stroke: rgb(216, 181, 91); stroke-opacity: 1; stroke-width: 2px; opacity: 1;"/></g><g class="points"><path class="point" transform="translate(31.37,31.2)" d="M4,0A4,4 0 1,1 0,-4A4,4 0 0,1 4,0Z" style="opacity: 1; stroke-width: 2px; fill: rgb(0, 0, 0); fill-opacity: 0; stroke: rgb(216, 181, 91); stroke-opacity: 1;"/><path class="point" transform="translate(53.5,41.51)" d="M4,0A4,4 0 1,1 0,-4A4,4 0 0,1 4,0Z" style="opacity: 1; stroke-width: 2px; fill: rgb(0, 0, 0); fill-opacity: 0; stroke: rgb(216, 181, 91); stroke-opacity: 1;"/><path class="point" transform="translate(75.62,62.01)" d="M4,0A4,4 0 1,1 0,-4A4,4 0 0,1 4,0Z" style="opacity: 1; stroke-width: 2px; fill: rgb(0, 0, 0); fill-opacity: 0; stroke: rgb(216, 181, 91); stroke-opacity: 1;"/><path class="point" transform="translate(97.75,62.74)" d="M4,0A4,4 0 1,1 0,-4A4,4 0 0,1 4,0Z" style="opacity: 1; stroke-width: 2px; fill: rgb(0, 0, 0); fill-opacity: 0; stroke: rgb(216, 181, 91); stroke-opacity: 1;"/><path class="point" transform="translate(119.88,59.52)" d="M4,0A4,4 0 1,1 0,-4A4,4 0 0,1 4,0Z" style="opacity: 1; stroke-width: 2px; fill: rgb(0, 0, 0); fill-opacity: 0; stroke: rgb(216, 181, 91); stroke-opacity: 1;"/></g><g class="text"/></g><g class="trace scatter tracef7a1da" style="stroke-miterlimit: 2; opacity: 1;"><g class="fills"/><g class="errorbars"/><g class="lines"/><g class="points"/><g class="text"><g class="textpoint" transform="translate(0,2.75)"><text x="31.37" y="31.2" text-anchor="end" style="font-family: Arial; font-size: 11px; fill: rgb(216, 181, 91); fill-opacity: 1; white-space: pre;">133.8</text></g><g class="textpoint" transform="translate(0,2.75)"><text x="119.88" y="59.52" text-anchor="start" style="font-family: Arial; font-size: 11px; fill: rgb(216, 181, 91); fill-opacity: 1; white-space: pre;">128.0</text></g></g></g></g></g></g><g class="zerolinelayer-above"/><path class="xlines-above crisp" d="M715.6,636.5H1244" style="fill: none; stroke-width: 1px; stroke: rgb(0, 0, 0); stroke-opacity: 1;"/><path class="ylines-above crisp" d="M716.1,112V636" style="fill: none; stroke-width: 1px; stroke: rgb(0, 0, 0); stroke-opacity: 1;"/><g class="overlines-above"/><g class="xaxislayer-above"><g class="x2tick"><text text-anchor="middle" x="0" y="656.2" transform="translate(747.97,0)" style="font-family: Arial; font-size: 16px; fill: rgb(0, 0, 0); fill-opacity: 1; white-space: pre;">2000</text></g><g class="x2tick"><text text-anchor="middle" x="0" y="656.2" style="font-family: Arial; font-size: 16px; fill: rgb(0, 0, 0); fill-opacity: 1; white-space: pre;" transform="translate(858.6,0)">2005</text></g><g class="x2tick"><text text-anchor="middle" x="0" y="656.2" style="font-family: Arial; font-size: 16px; fill: rgb(0, 0, 0); fill-opacity: 1; white-space: pre;" transform="translate(969.24,0)">2010</text></g><g class="x2tick"><text text-anchor="middle" x="0" y="656.2" style="font-family: Arial; font-size: 16px; fill: rgb(0, 0, 0); fill-opacity: 1; white-space: pre;" transform="translate(1079.87,0)">2015</text></g><g class="x2tick"><text text-anchor="middle" x="0" y="656.2" style="font-family: Arial; font-size: 16px; fill: rgb(0, 0, 0); fill-opacity: 1; white-space: pre;" transform="translate(1190.5,0)">2020</text></g></g><g class="yaxislayer-above"/><g class="overaxes-above"/></g></g><g class="polarlayer"/><g class="smithlayer"/><g class="ternarylayer"/><g class="geolayer"/><g class="funnelarealayer"/><g class="pielayer"/><g class="iciclelayer"/><g class="treemaplayer"/><g class="sunburstlayer"/><g class="glimages"/><defs id="topdefs-128560"><g class="clips"/><clipPath id="legend128560"><rect width="313" height="33" x="0" y="0"/></clipPath><clipPath id="legend2128560"><rect width="244" height="34" x="0" y="0"/></clipPath></defs><g class="layer-above"><g class="imagelayer"/><g class="shapelayer"/></g><g class="infolayer"><g class="legend" pointer-events="all" transform="translate(931,68.52)"><rect class="bg" shape-rendering="crispEdges" style="stroke: rgb(0, 0, 0); stroke-opacity: 0; fill: rgb(0, 0, 0); fill-opacity: 0; stroke-width: 0px;" width="313" height="33" x="0" y="0"/><g class="scrollbox" transform="" clip-path="url(#legend128560)"><g class="groups" transform=""><g class="traces" transform="translate(0,16.25)" style="opacity: 1;"><text class="legendtext" text-anchor="start" x="40" y="5.85" style="font-family: Arial; font-size: 15px; fill: rgb(0, 0, 0); fill-opacity: 1; white-space: pre;">3 ROOM</text><g class="layers" style="opacity: 1;"><g class="legendfill"/><g class="legendlines"><path class="js-line" d="M5,0h30" style="fill: none; stroke: rgb(169, 183, 196); stroke-opacity: 1; stroke-width: 2px;"/></g><g class="legendsymbols"><g class="legendpoints"><path class="scatterpts" transform="translate(20,0)" d="M4,0A4,4 0 1,1 0,-4A4,4 0 0,1 4,0Z" style="opacity: 1; stroke-width: 2px; fill: rgb(0, 0, 0); fill-opacity: 0; stroke: rgb(169, 183, 196); stroke-opacity: 1;"/></g></g></g><rect class="legendtoggle" x="0" y="-11.25" width="101.6875" height="22.5" style="fill: rgb(0, 0, 0); fill-opacity: 0;"/></g></g><g class="groups" transform="translate(104.1875,0)"><g class="traces" transform="translate(0,16.25)" style="opacity: 1;"><text class="legendtext" text-anchor="start" x="40" y="5.85" style="font-family: Arial; font-size: 15px; fill: rgb(0, 0, 0); fill-opacity: 1; white-space: pre;">4 ROOM</text><g class="layers" style="opacity: 1;"><g class="legendfill"/><g class="legendlines"><path class="js-line" d="M5,0h30" style="fill: none; stroke: rgb(207, 134, 75); stroke-opacity: 1; stroke-width: 2px;"/></g><g class="legendsymbols"><g class="legendpoints"><path class="scatterpts" transform="translate(20,0)" d="M4,0A4,4 0 1,1 0,-4A4,4 0 0,1 4,0Z" style="opacity: 1; stroke-width: 2px; fill: rgb(0, 0, 0); fill-opacity: 0; stroke: rgb(207, 134, 75); stroke-opacity: 1;"/></g></g></g><rect class="legendtoggle" x="0" y="-11.25" width="101.6875" height="22.5" style="fill: rgb(0, 0, 0); fill-opacity: 0;"/></g></g><g class="groups" transform="translate(208.375,0)"><g class="traces" transform="translate(0,16.25)" style="opacity: 1;"><text class="legendtext" text-anchor="start" x="40" y="5.85" style="font-family: Arial; font-size: 15px; fill: rgb(0, 0, 0); fill-opacity: 1; white-space: pre;">5 ROOM</text><g class="layers" style="opacity: 1;"><g class="legendfill"/><g class="legendlines"><path class="js-line" d="M5,0h30" style="fill: none; stroke: rgb(123, 143, 121); stroke-opacity: 1; stroke-width: 2px;"/></g><g class="legendsymbols"><g class="legendpoints"><path class="scatterpts" transform="translate(20,0)" d="M4,0A4,4 0 1,1 0,-4A4,4 0 0,1 4,0Z" style="opacity: 1; stroke-width: 2px; fill: rgb(0, 0, 0); fill-opacity: 0; stroke: rgb(123, 143, 121); stroke-opacity: 1;"/></g></g></g><rect class="legendtoggle" x="0" y="-11.25" width="101.6875" height="22.5" style="fill: rgb(0, 0, 0); fill-opacity: 0;"/></g></g></g><rect class="scrollbar" rx="20" ry="3" width="0" height="0" style="fill: rgb(128, 139, 164); fill-opacity: 1;" x="0" y="0"/></g><g class="legend2" pointer-events="all" transform="translate(852.44,36.079999999999956)"><rect class="bg" shape-rendering="crispEdges" style="stroke: rgb(68, 68, 68); stroke-opacity: 1; fill: rgb(0, 0, 0); fill-opacity: 0; stroke-width: 0px;" width="244" height="34" x="0" y="0"/><g class="scrollbox" transform="" clip-path="url(#legend2128560)"><g class="groups" transform=""><g class="traces" transform="translate(0,16.9)" style="opacity: 1;"><text class="legend2text" text-anchor="start" x="40" y="6.24" style="font-family: Arial; font-size: 16px; fill: rgb(0, 0, 0); fill-opacity: 1; white-space: pre;">2 ROOM</text><g class="layers" style="opacity: 1;"><g class="legendfill"/><g class="legendlines"><path class="js-line" d="M5,0h30" style="fill: none; stroke: rgb(149, 167, 182); stroke-opacity: 1; stroke-width: 2px;"/></g><g class="legendsymbols"><g class="legendpoints"><path class="scatterpts" transform="translate(20,0)" d="M4,0A4,4 0 1,1 0,-4A4,4 0 0,1 4,0Z" style="opacity: 1; stroke-width: 2px; fill: rgb(0, 0, 0); fill-opacity: 0; stroke: rgb(149, 167, 182); stroke-opacity: 1;"/></g></g></g><rect class="legend2toggle" x="0" y="-11.9" width="105.625" height="23.8" style="fill: rgb(0, 0, 0); fill-opacity: 0;"/></g></g><g class="groups" transform="translate(108.125,0)"><g class="traces" transform="translate(0,16.9)" style="opacity: 1;"><text class="legend2text" text-anchor="start" x="40" y="6.24" style="font-family: Arial; font-size: 16px; fill: rgb(0, 0, 0); fill-opacity: 1; white-space: pre;">EXECUTIVE</text><g class="layers" style="opacity: 1;"><g class="legendfill"/><g class="legendlines"><path class="js-line" d="M5,0h30" style="fill: none; stroke: rgb(216, 181, 91); stroke-opacity: 1; stroke-width: 2px;"/></g><g class="legendsymbols"><g class="legendpoints"><path class="scatterpts" transform="translate(20,0)" d="M4,0A4,4 0 1,1 0,-4A4,4 0 0,1 4,0Z" style="opacity: 1; stroke-width: 2px; fill: rgb(0, 0, 0); fill-opacity: 0; stroke: rgb(216, 181, 91); stroke-opacity: 1;"/></g></g></g><rect class="legend2toggle" x="0" y="-11.9" width="133.1875" height="23.8" style="fill: rgb(0, 0, 0); fill-opacity: 0;"/></g></g></g><rect class="scrollbar" rx="20" ry="3" width="0" height="0" style="fill: rgb(128, 139, 164); fill-opacity: 1;" x="0" y="0"/></g><g class="g-gtitle"/><g class="g-xtitle"/><g class="g-x2title"/><g class="g-ytitle"/><g class="g-y2title"/><g class="annotation" data-index="0" style="opacity: 1;"><g class="annotation-text-g" transform="rotate(0,335.7,101.5)"><g class="cursor-pointer" transform="translate(280,91)"><rect class="bg" x="0.5" y="0.5" width="111" height="20" style="stroke-width: 1px; stroke: rgb(0, 0, 0); stroke-opacity: 0; fill: rgb(0, 0, 0); fill-opacity: 0;"/><text class="annotation-text" text-anchor="middle" x="55.796875" y="16" style="font-family: Arial; font-size: 16px; fill: rgb(0, 0, 0); fill-opacity: 1; white-space: pre;">Common types</text></g></g></g><g class="annotation" data-index="1" style="opacity: 1;"><g class="annotation-text-g" transform="rotate(0,980.3000000000001,101.5)"><g class="cursor-pointer" transform="translate(906,91)"><rect class="bg" x="0.5" y="0.5" width="148" height="20" style="stroke-width: 1px; stroke: rgb(0, 0, 0); stroke-opacity: 0; fill: rgb(0, 0, 0); fill-opacity: 0;"/><text class="annotation-text" text-anchor="middle" x="74.484375" y="16" style="font-family: Arial; font-size: 16px; fill: rgb(0, 0, 0); fill-opacity: 1; white-space: pre;">Sparse / niche types</text></g></g></g></g></svg>