<svg class="main-svg" xmlns="http://www.w3.org/2000/svg" xmlns:xlink="http://www.w3.org/1999/xlink" width="700" height="500" style="" viewBox="0 0 700 500"><rect x="0" y="0" width="700" height="500" style="fill: rgb(0, 0, 0); fill-opacity: 0;"/><defs id="defs-652b6e"><g class="clips"><clipPath id="clip652b6exyplot" class="plotclip"><rect width="592" height="348"/></clipPath><clipPath class="axesclip" id="clip652b6ex"><rect x="72" y="0" width="592" height="500"/></clipPath><clipPath class="axesclip" id="clip652b6ey"><rect x="0" y="80" width="700" height="348"/></clipPath><clipPath class="axesclip" id="clip652b6exy"><rect x="72" y="80" width="592" height="348"/></clipPath></g><g class="gradients"/><g class="patterns"/></defs><g class="bglayer"><rect class="bg" x="72" y="80" width="592" height="348" style="fill: rgb(0, 0, 0); fill-opacity: 0; stroke-width: 0;"/></g><g class="layer-below"><g class="imagelayer"/><g class="shapelayer"/></g><g class="cartesianlayer"><g class="subplot xy"><g class="layer-subplot"><g class="shapelayer"/><g class="imagelayer"/></g><g class="minor-gridlayer"><g class="x"/><g class="y"/></g><g class="gridlayer"><g class="x"/><g class="y"/></g><g class="zerolinelayer"/><g class="layer-between"><g class="shapelayer"/><g class="imagelayer"/></g><path class="xlines-below"/><path class="ylines-below"/><g class="overlines-below"/><g class="xaxislayer-below"/><g class="yaxislayer-below"/><g class="overaxes-below"/><g class="overplot"><g class="xy" transform="translate(72,80)" clip-path="url(#clip652b6exyplot)"><g class="scatterlayer mlayer"><g class="trace scatter tracef32728" style="stroke-miterlimit: 2; opacity: 1;"><g class="fills"/><g class="errorbars"/><g class="lines"><path class="js-line" d="M34.6,170.58L121.73,143.22L208.87,245.81L296,291.4L383.13,302.8L557.4,325.6" style="vector-effect: none; fill: none; stroke: rgb(127, 147, 166); stroke-opacity: 1; stroke-width: 2.2px; opacity: 1;"/></g><g class="points"><path class="point" transform="translate(34.6,170.58)" d="M4,0A4,4 0 1,1 0,-4A4,4 0 0,1 4,0Z" style="opacity: 1; stroke-width: 2px; fill: rgb(247, 242, 232); fill-opacity: 0.3; stroke: rgb(127, 147, 166); stroke-opacity: 1;"/><path class="point" transform="translate(121.73,143.22)" d="M4,0A4,4 0 1,1 0,-4A4,4 0 0,1 4,0Z" style="opacity: 1; stroke-width: 2px; fill: rgb(247, 242, 232); fill-opacity: 0.3; stroke: rgb(127, 147, 166); stroke-opacity: 1;"/><path class="point" transform="translate(208.87,245.81)" d="M4,0A4,4 0 1,1 0,-4A4,4 0 0,1 4,0Z" style="opacity: 1; stroke-width: 2px; fill: rgb(247, 242, 232); fill-opacity: 0.3; stroke: rgb(127, 147, 166); stroke-opacity: 1;"/><path class="point" transform="translate(296,291.4)" d="M4,0A4,4 0 1,1 0,-4A4,4 0 0,1 4,0Z" style="opacity: 1; stroke-width: 2px; fill: rgb(247, 242, 232); fill-opacity: 0.3; stroke: rgb(127, 147, 166); stroke-opacity: 1;"/><path class="point" transform="translate(383.13,302.8)" d="M4,0A4,4 0 1,1 0,-4A4,4 0 0,1 4,0Z" style="opacity: 1; stroke-width: 2px; fill: rgb(247, 242, 232); fill-opacity: 0.3; stroke: rgb(127, 147, 166); stroke-opacity: 1;"/><path class="point" transform="translate(470.27,314.2)" d="M4,0A4,4 0 1,1 0,-4A4,4 0 0,1 4,0Z" style="opacity: 1; stroke-width: 2px; fill: rgb(247, 242, 232); fill-opacity: 0.3; stroke: rgb(127, 147, 166); stroke-opacity: 1;"/><path class="point" transform="translate(557.4,325.6)" d="M4,0A4,4 0 1,1 0,-4A4,4 0 0,1 4,0Z" style="opacity: 1; stroke-width: 2px; fill: rgb(247, 242, 232); fill-opacity: 0.3; stroke: rgb(127, 147, 166); stroke-opacity: 1;"/></g><g class="text"><g class="textpoint"/><g class="textpoint"/><g class="textpoint"/><g class="textpoint"/><g class="textpoint"/><g class="textpoint"/><g class="textpoint" transform="translate(0,-9.25)"><text x="557.4" y="325.6" text-anchor="middle" style="font-family: Arial; font-size: 13px; fill: rgb(0, 0, 0); fill-opacity: 1; white-space: pre;">365,000</text></g></g></g><g class="trace scatter traceb2569d" style="stroke-miterlimit: 2; opacity: 1;"><g class="fills"/><g class="errorbars"/><g class="lines"><path class="js-line" d="M34.6,63.43L121.73,22.4L208.87,120.43L296,194.52L383.13,200.22L470.27,144.49L557.4,131.83" style="vector-effect: none; fill: none; stroke: rgb(207, 134, 75); stroke-opacity: 1; stroke-width: 2.2px; opacity: 1;"/></g><g class="points"><path class="point" transform="translate(34.6,63.43)" d="M4,0A4,4 0 1,1 0,-4A4,4 0 0,1 4,0Z" style="opacity: 1; stroke-width: 2px; fill: rgb(247, 242, 232); fill-opacity: 0.3; stroke: rgb(207, 134, 75); stroke-opacity: 1;"/><path class="point" transform="translate(121.73,22.4)" d="M4,0A4,4 0 1,1 0,-4A4,4 0 0,1 4,0Z" style="opacity: 1; stroke-width: 2px; fill: rgb(247, 242, 232); fill-opacity: 0.3; stroke: rgb(207, 134, 75); stroke-opacity: 1;"/><path class="point" transform="translate(208.87,120.43)" d="M4,0A4,4 0 1,1 0,-4A4,4 0 0,1 4,0Z" style="opacity: 1; stroke-width: 2px; fill: rgb(247, 242, 232); fill-opacity: 0.3; stroke: rgb(207, 134, 75); stroke-opacity: 1;"/><path class="point" transform="translate(296,194.52)" d="M4,0A4,4 0 1,1 0,-4A4,4 0 0,1 4,0Z" style="opacity: 1; stroke-width: 2px; fill: rgb(247, 242, 232); fill-opacity: 0.3; stroke: rgb(207, 134, 75); stroke-opacity: 1;"/><path class="point" transform="translate(383.13,200.22)" d="M4,0A4,4 0 1,1 0,-4A4,4 0 0,1 4,0Z" style="opacity: 1; stroke-width: 2px; fill: rgb(247, 242, 232); fill-opacity: 0.3; stroke: rgb(207, 134, 75); stroke-opacity: 1;"/><path class="point" transform="translate(470.27,144.49)" d="M4,0A4,4 0 1,1 0,-4A4,4 0 0,1 4,0Z" style="opacity: 1; stroke-width: 2px; fill: rgb(247, 242, 232); fill-opacity: 0.3; stroke: rgb(207, 134, 75); stroke-opacity: 1;"/><path class="point" transform="translate(557.4,131.83)" d="M4,0A4,4 0 1,1 0,-4A4,4 0 0,1 4,0Z" style="opacity: 1; stroke-width: 2px; fill: rgb(247, 242, 232); fill-opacity: 0.3; stroke: rgb(207, 134, 75); stroke-opacity: 1;"/></g><g class="text"><g class="textpoint"/><g class="textpoint"/><g class="textpoint"/><g class="textpoint"/><g class="textpoint"/><g class="textpoint"/><g class="textpoint" transform="translate(0,-9.25)"><text x="557.4" y="131.83" text-anchor="middle" style="font-family: Arial; font-size: 13px; fill: rgb(0, 0, 0); fill-opacity: 1; white-space: pre;">450,000</text></g></g></g></g></g></g><g class="zerolinelayer-above"/><path class="xlines-above crisp" d="M71,428.5H664" style="fill: none; stroke-width: 1px; stroke: rgb(0, 0, 0); stroke-opacity: 1;"/><path class="ylines-above crisp" d="M71.5,80V428" style="fill: none; stroke-width: 1px; stroke: rgb(0, 0, 0); stroke-opacity: 1;"/><g class="overlines-above"/><g class="xaxislayer-above"><g class="xtick"><text text-anchor="middle" x="0" y="444.6" transform="translate(106.6,0)" style="font-family: Arial; font-size: 13px; fill: rgb(0, 0, 0); fill-opacity: 1; white-space: pre;">2012</text></g><g class="xtick"><text text-anchor="middle" x="0" y="444.6" style="font-family: Arial; font-size: 13px; fill: rgb(0, 0, 0); fill-opacity: 1; white-space: pre;" transform="translate(193.73000000000002,0)">2013</text></g><g class="xtick"><text text-anchor="middle" x="0" y="444.6" style="font-family: Arial; font-size: 13px; fill: rgb(0, 0, 0); fill-opacity: 1; white-space: pre;" transform="translate(280.87,0)">2014</text></g><g class="xtick"><text text-anchor="middle" x="0" y="444.6" style="font-family: Arial; font-size: 13px; fill: rgb(0, 0, 0); fill-opacity: 1; white-space: pre;" transform="translate(368,0)">2015</text></g><g class="xtick"><text text-anchor="middle" x="0" y="444.6" style="font-family: Arial; font-size: 13px; fill: rgb(0, 0, 0); fill-opacity: 1; white-space: pre;" transform="translate(455.13,0)">2016</text></g><g class="xtick"><text text-anchor="middle" x="0" y="444.6" style="font-family: Arial; font-size: 13px; fill: rgb(0, 0, 0); fill-opacity: 1; white-space: pre;" transform="translate(542.27,0)">2017</text></g><g class="xtick"><text text-anchor="middle" x="0" y="444.6" style="font-family: Arial; font-size: 13px; fill: rgb(0, 0, 0); fill-opacity: 1; white-space: pre;" transform="translate(629.4,0)">2018</text></g></g><g class="yaxislayer-above"><g class="ytick"><text text-anchor="end" x="68.4" y="4.55" transform="translate(0,417)" style="font-family: Arial; font-size: 13px; fill: rgb(0, 0, 0); fill-opacity: 1; white-space: pre;">360k</text></g><g class="ytick"><text text-anchor="end" x="68.4" y="4.55" style="font-family: Arial; font-size: 13px; fill: rgb(0, 0, 0); fill-opacity: 1; white-space: pre;" transform="translate(0,371.4)">380k</text></g><g class="ytick"><text text-anchor="end" x="68.4" y="4.55" style="font-family: Arial; font-size: 13px; fill: rgb(0, 0, 0); fill-opacity: 1; white-space: pre;" transform="translate(0,325.81)">400k</text></g><g class="ytick"><text text-anchor="end" x="68.4" y="4.55" style="font-family: Arial; font-size: 13px; fill: rgb(0, 0, 0); fill-opacity: 1; white-space: pre;" transform="translate(0,280.22)">420k</text></g><g class="ytick"><text text-anchor="end" x="68.4" y="4.55" style="font-family: Arial; font-size: 13px; fill: rgb(0, 0, 0); fill-opacity: 1; white-space: pre;" transform="translate(0,234.62)">440k</text></g><g class="ytick"><text text-anchor="end" x="68.4" y="4.55" style="font-family: Arial; font-size: 13px; fill: rgb(0, 0, 0); fill-opacity: 1; white-space: pre;" transform="translate(0,189.03)">460k</text></g><g class="ytick"><text text-anchor="end" x="68.4" y="4.55" style="font-family: Arial; font-size: 13px; fill: rgb(0, 0, 0); fill-opacity: 1; white-space: pre;" transform="translate(0,143.43)">480k</text></g><g class="ytick"><text text-anchor="end" x="68.4" y="4.55" style="font-family: Arial; font-size: 13px; fill: rgb(0, 0, 0); fill-opacity: 1; white-space: pre;" transform="translate(0,97.84)">500k</text></g></g><g class="overaxes-above"/></g></g><g class="polarlayer"/><g class="smithlayer"/><g class="ternarylayer"/><g class="geolayer"/><g class="funnelarealayer"/><g class="pielayer"/><g class="iciclelayer"/><g class="treemaplayer"/><g class="sunburstlayer"/><g class="glimages"/><defs id="topdefs-652b6e"><g class="clips"/><clipPath id="legend652b6e"><rect width="289" height="29" x="0" y="0"/></clipPath></defs><g class="layer-above"><g class="imagelayer"/><g class="shapelayer"><g class="shape-group" data-index="0" clip-path="url(#clip652b6ex)"><path data-index="0" fill-rule="evenodd" d="M455.13,428L455.13,80" style="opacity: 1; stroke: rgb(107, 114, 128); stroke-opacity: 1; fill: rgb(0, 0, 0); fill-opacity: 0; stroke-dasharray: 9px, 9px; stroke-width: 1px;"/></g></g></g><g class="infolayer"><g class="legend" pointer-events="all" transform="translate(375,44.03999999999999)"><rect class="bg" shape-rendering="crispEdges" style="stroke: rgb(0, 0, 0); stroke-opacity: 0; fill: rgb(0, 0, 0); fill-opacity: 0; stroke-width: 0px;" width="289" height="29" x="0" y="0"/><g class="scrollbox" transform="" clip-path="url(#legend652b6e)"><g class="groups"><g class="traces" transform="translate(0,14.5)" style="opacity: 1;"><text class="legendtext" text-anchor="start" x="40" y="4.680000000000001" style="font-family: Arial; font-size: 12px; fill: rgb(0, 0, 0); fill-opacity: 1; white-space: pre;">Control buildings</text><g class="layers" style="opacity: 1;"><g class="legendfill"/><g class="legendlines"><path class="js-line" d="M5,0h30" style="fill: none; stroke: rgb(127, 147, 166); stroke-opacity: 1; stroke-width: 2.2px;"/></g><g class="legendsymbols"><g class="legendpoints"><path class="scatterpts" transform="translate(20,0)" d="M4,0A4,4 0 1,1 0,-4A4,4 0 0,1 4,0Z" style="opacity: 1; stroke-width: 2px; fill: rgb(247, 242, 232); fill-opacity: 0.3; stroke: rgb(127, 147, 166); stroke-opacity: 1;"/></g></g></g><rect class="legendtoggle" x="0" y="-9.5" width="131.890625" height="19" style="fill: rgb(0, 0, 0); fill-opacity: 0;"/></g><g class="traces" transform="translate(134.390625,14.5)" style="opacity: 1;"><text class="legendtext" text-anchor="start" x="40" y="4.680000000000001" style="font-family: Arial; font-size: 12px; fill: rgb(0, 0, 0); fill-opacity: 1; white-space: pre;">Near DTL2 buildings</text><g class="layers" style="opacity: 1;"><g class="legendfill"/><g class="legendlines"><path class="js-line" d="M5,0h30" style="fill: none; stroke: rgb(207, 134, 75); stroke-opacity: 1; stroke-width: 2.2px;"/></g><g class="legendsymbols"><g class="legendpoints"><path class="scatterpts" transform="translate(20,0)" d="M4,0A4,4 0 1,1 0,-4A4,4 0 0,1 4,0Z" style="opacity: 1; stroke-width: 2px; fill: rgb(247, 242, 232); fill-opacity: 0.3; stroke: rgb(207, 134, 75); stroke-opacity: 1;"/></g></g></g><rect class="legendtoggle" x="0" y="-9.5" width="151.890625" height="19" style="fill: rgb(0, 0, 0); fill-opacity: 0;"/></g></g></g><rect class="scrollbar" rx="20" ry="3" width="0" height="0" style="fill: rgb(128, 139, 164); fill-opacity: 1;" x="0" y="0"/></g><g class="g-gtitle"><text class="gtitle" x="35" y="40" text-anchor="start" dy="0em" style="opacity: 1; font-family: Georgia; font-size: 20px; fill: rgb(0, 0, 0); fill-opacity: 1; white-space: pre;">Median resale price: near vs farther buildings in the DTL2 Bukit Timah corridor</text></g><g class="g-xtitle"/><g class="g-ytitle"/></g></svg>