<svg class="main-svg" xmlns="http://www.w3.org/2000/svg" xmlns:xlink="http://www.w3.org/1999/xlink" width="1180" height="760" style="" viewBox="0 0 1180 760"><rect x="0" y="0" width="1180" height="760" style="fill: rgb(0, 0, 0); fill-opacity: 0;"/><defs id="defs-355489"><g class="clips"><clipPath id="clip355489xyplot" class="plotclip"><rect width="435.435" height="249.27999999999994"/></clipPath><clipPath id="clip355489x2y2plot" class="plotclip"><rect width="435.43499999999995" height="249.27999999999994"/></clipPath><clipPath id="clip355489x3y3plot" class="plotclip"><rect width="435.435" height="249.28000000000003"/></clipPath><clipPath class="axesclip" id="clip355489x"><rect x="72" y="0" width="435.435" height="760"/></clipPath><clipPath class="axesclip" id="clip355489y"><rect x="0" y="80" width="1180" height="249.27999999999994"/></clipPath><clipPath class="axesclip" id="clip355489xy"><rect x="72" y="80" width="435.435" height="249.27999999999994"/></clipPath><clipPath class="axesclip" id="clip355489y2"><rect x="0" y="80" width="1180" height="249.27999999999994"/></clipPath><clipPath class="axesclip" id="clip355489xy2"><rect x="72" y="80" width="435.435" height="249.27999999999994"/></clipPath><clipPath class="axesclip" id="clip355489y3"><rect x="0" y="438.71999999999997" width="1180" height="249.28000000000003"/></clipPath><clipPath class="axesclip" id="clip355489xy3"><rect x="72" y="438.71999999999997" width="435.435" height="249.28000000000003"/></clipPath><clipPath class="axesclip" id="clip355489x2"><rect x="593.565" y="0" width="435.43499999999995" height="760"/></clipPath><clipPath class="axesclip" id="clip355489x2y"><rect x="593.565" y="80" width="435.43499999999995" height="249.27999999999994"/></clipPath><clipPath class="axesclip" id="clip355489x2y2"><rect x="593.565" y="80" width="435.43499999999995" height="249.27999999999994"/></clipPath><clipPath class="axesclip" id="clip355489x2y3"><rect x="593.565" y="438.71999999999997" width="435.43499999999995" height="249.28000000000003"/></clipPath><clipPath class="axesclip" id="clip355489x3"><rect x="72" y="0" width="435.435" height="760"/></clipPath><clipPath class="axesclip" id="clip355489x3y"><rect x="72" y="80" width="435.435" height="249.27999999999994"/></clipPath><clipPath class="axesclip" id="clip355489x3y2"><rect x="72" y="80" width="435.435" height="249.27999999999994"/></clipPath><clipPath class="axesclip" id="clip355489x3y3"><rect x="72" y="438.71999999999997" width="435.435" height="249.28000000000003"/></clipPath></g><g class="gradients"><linearGradient x1="0" y1="1" x2="0" y2="0" gradientUnits="objectBoundingBox" id="g355489-cbeeb4e2"><stop offset="0%" stop-color="rgb(127, 147, 166)" stop-opacity="0.25"/><stop offset="50%" stop-color="rgb(216, 198, 175)" stop-opacity="0.55"/><stop offset="100%" stop-color="rgb(207, 134, 75)" stop-opacity="0.55"/></linearGradient></g><g class="patterns"/></defs><g class="bglayer"><rect class="bg" x="72" y="80" width="435.435" height="249.27999999999994" style="fill: rgb(0, 0, 0); fill-opacity: 0; stroke-width: 0;"/><rect class="bg" x="593.565" y="80" width="435.43499999999995" height="249.27999999999994" style="fill: rgb(0, 0, 0); fill-opacity: 0; stroke-width: 0;"/><rect class="bg" x="72" y="438.71999999999997" width="435.435" height="249.28000000000003" style="fill: rgb(0, 0, 0); fill-opacity: 0; stroke-width: 0;"/></g><g class="layer-below"><g class="imagelayer"/><g class="shapelayer"/></g><g class="cartesianlayer"><g class="subplot xy"><g class="layer-subplot"><g class="shapelayer"/><g class="imagelayer"/></g><g class="minor-gridlayer"><g class="x"/><g class="y"/></g><g class="gridlayer"><g class="x"/><g class="y"/></g><g class="zerolinelayer"/><g class="layer-between"><g class="shapelayer"/><g class="imagelayer"/></g><path class="xlines-below"/><path class="ylines-below"/><g class="overlines-below"/><g class="xaxislayer-below"/><g class="yaxislayer-below"/><g class="overaxes-below"/><g class="overplot"><g class="xy" transform="translate(72,80)" clip-path="url(#clip355489xyplot)"><g class="scatterlayer mlayer"><g class="trace scatter trace7d00c6" style="stroke-miterlimit: 2; opacity: 1;"><g class="fills"/><g class="errorbars"/><g class="lines"/><g class="points"><path class="point plotly-customdata" transform="translate(43.02,33.71)" d="M17,0A17,17 0 1,1 0,-17A17,17 0 0,1 17,0Z" style="opacity: 1; stroke-width: 0.8px; fill: rgb(207, 193, 174); fill-opacity: 0.52; stroke: rgb(140, 123, 102); stroke-opacity: 1;"/><path class="point plotly-customdata" transform="translate(150.53,94.33)" d="M17,0A17,17 0 1,1 0,-17A17,17 0 0,1 17,0Z" style="opacity: 1; stroke-width: 0.8px; fill: rgb(210, 154, 107); fill-opacity: 0.55; stroke: rgb(140, 123, 102); stroke-opacity: 1;"/><path class="point plotly-customdata" transform="translate(69.9,33.71)" d="M17,0A17,17 0 1,1 0,-17A17,17 0 0,1 17,0Z" style="opacity: 1; stroke-width: 0.8px; fill: rgb(209, 151, 102); fill-opacity: 0.55; stroke: rgb(140, 123, 102); stroke-opacity: 1;"/><path class="point plotly-customdata" transform="translate(177.4,94.33)" d="M17,0A17,17 0 1,1 0,-17A17,17 0 0,1 17,0Z" style="opacity: 1; stroke-width: 0.8px; fill: rgb(209, 148, 97); fill-opacity: 0.55; stroke: rgb(140, 123, 102); stroke-opacity: 1;"/><path class="point plotly-customdata" transform="translate(204.28,94.33)" d="M17,0A17,17 0 1,1 0,-17A17,17 0 0,1 17,0Z" style="opacity: 1; stroke-width: 0.8px; fill: rgb(209, 148, 97); fill-opacity: 0.55; stroke: rgb(140, 123, 102); stroke-opacity: 1;"/><path class="point plotly-customdata" transform="translate(231.16,94.33)" d="M17,0A17,17 0 1,1 0,-17A17,17 0 0,1 17,0Z" style="opacity: 1; stroke-width: 0.8px; fill: rgb(209, 148, 97); fill-opacity: 0.55; stroke: rgb(140, 123, 102); stroke-opacity: 1;"/><path class="point plotly-customdata" transform="translate(258.03,154.95)" d="M17,0A17,17 0 1,1 0,-17A17,17 0 0,1 17,0Z" style="opacity: 1; stroke-width: 0.8px; fill: rgb(215, 191, 164); fill-opacity: 0.55; stroke: rgb(140, 123, 102); stroke-opacity: 1;"/><path class="point plotly-customdata" transform="translate(284.91,154.95)" d="M17,0A17,17 0 1,1 0,-17A17,17 0 0,1 17,0Z" style="opacity: 1; stroke-width: 0.8px; fill: rgb(215, 191, 164); fill-opacity: 0.55; stroke: rgb(140, 123, 102); stroke-opacity: 1;"/><path class="point plotly-customdata" transform="translate(311.78,154.95)" d="M17,0A17,17 0 1,1 0,-17A17,17 0 0,1 17,0Z" style="opacity: 1; stroke-width: 0.8px; fill: rgb(215, 191, 164); fill-opacity: 0.55; stroke: rgb(140, 123, 102); stroke-opacity: 1;"/><path class="point plotly-customdata" transform="translate(96.77,33.71)" d="M17,0A17,17 0 1,1 0,-17A17,17 0 0,1 17,0Z" style="opacity: 1; stroke-width: 0.8px; fill: rgb(207, 134, 75); fill-opacity: 0.55; stroke: rgb(140, 123, 102); stroke-opacity: 1;"/><path class="point plotly-customdata" transform="translate(123.65,33.71)" d="M17,0A17,17 0 1,1 0,-17A17,17 0 0,1 17,0Z" style="opacity: 1; stroke-width: 0.8px; fill: rgb(207, 134, 75); fill-opacity: 0.55; stroke: rgb(140, 123, 102); stroke-opacity: 1;"/><path class="point plotly-customdata" transform="translate(338.66,154.95)" d="M17,0A17,17 0 1,1 0,-17A17,17 0 0,1 17,0Z" style="opacity: 1; stroke-width: 0.8px; fill: rgb(215, 190, 163); fill-opacity: 0.55; stroke: rgb(140, 123, 102); stroke-opacity: 1;"/><path class="point plotly-customdata" transform="translate(365.54,215.57)" d="M17,0A17,17 0 1,1 0,-17A17,17 0 0,1 17,0Z" style="opacity: 1; stroke-width: 0.8px; fill: rgb(216, 198, 175); fill-opacity: 0.55; stroke: rgb(140, 123, 102); stroke-opacity: 1;"/><path class="point plotly-customdata" transform="translate(392.41,215.57)" d="M17,0A17,17 0 1,1 0,-17A17,17 0 0,1 17,0Z" style="opacity: 1; stroke-width: 0.8px; fill: rgb(216, 198, 175); fill-opacity: 0.55; stroke: rgb(140, 123, 102); stroke-opacity: 1;"/></g><g class="text"><g class="textpoint" transform="translate(0,3.25)"><text x="43.02" y="33.71" text-anchor="middle" style="font-family: Arial; font-size: 13px; fill: rgb(0, 0, 0); fill-opacity: 1; white-space: pre;">3.2%</text></g><g class="textpoint" transform="translate(0,3.25)"><text x="150.53" y="94.33" text-anchor="middle" style="font-family: Arial; font-size: 13px; fill: rgb(0, 0, 0); fill-opacity: 1; white-space: pre;">8.4%</text></g><g class="textpoint" transform="translate(0,3.25)"><text x="69.9" y="33.71" text-anchor="middle" style="font-family: Arial; font-size: 13px; fill: rgb(0, 0, 0); fill-opacity: 1; white-space: pre;">8.8%</text></g><g class="textpoint" transform="translate(0,3.25)"><text x="177.4" y="94.33" text-anchor="middle" style="font-family: Arial; font-size: 13px; fill: rgb(0, 0, 0); fill-opacity: 1; white-space: pre;">9.1%</text></g><g class="textpoint" transform="translate(0,3.25)"><text x="204.28" y="94.33" text-anchor="middle" style="font-family: Arial; font-size: 13px; fill: rgb(0, 0, 0); fill-opacity: 1; white-space: pre;">9.1%</text></g><g class="textpoint" transform="translate(0,3.25)"><text x="231.16" y="94.33" text-anchor="middle" style="font-family: Arial; font-size: 13px; fill: rgb(0, 0, 0); fill-opacity: 1; white-space: pre;">9.1%</text></g><g class="textpoint" transform="translate(0,3.25)"><text x="258.03" y="154.95" text-anchor="middle" style="font-family: Arial; font-size: 13px; fill: rgb(0, 0, 0); fill-opacity: 1; white-space: pre;">4.6%</text></g><g class="textpoint" transform="translate(0,3.25)"><text x="284.91" y="154.95" text-anchor="middle" style="font-family: Arial; font-size: 13px; fill: rgb(0, 0, 0); fill-opacity: 1; white-space: pre;">4.6%</text></g><g class="textpoint" transform="translate(0,3.25)"><text x="311.78" y="154.95" text-anchor="middle" style="font-family: Arial; font-size: 13px; fill: rgb(0, 0, 0); fill-opacity: 1; white-space: pre;">4.6%</text></g><g class="textpoint" transform="translate(0,3.25)"><text x="96.77" y="33.71" text-anchor="middle" style="font-family: Arial; font-size: 13px; fill: rgb(0, 0, 0); fill-opacity: 1; white-space: pre;">10.6%</text></g><g class="textpoint" transform="translate(0,3.25)"><text x="123.65" y="33.71" text-anchor="middle" style="font-family: Arial; font-size: 13px; fill: rgb(0, 0, 0); fill-opacity: 1; white-space: pre;">10.6%</text></g><g class="textpoint" transform="translate(0,3.25)"><text x="338.66" y="154.95" text-anchor="middle" style="font-family: Arial; font-size: 13px; fill: rgb(0, 0, 0); fill-opacity: 1; white-space: pre;">4.7%</text></g><g class="textpoint" transform="translate(0,3.25)"><text x="365.54" y="215.57" text-anchor="middle" style="font-family: Arial; font-size: 13px; fill: rgb(0, 0, 0); fill-opacity: 1; white-space: pre;">3.8%</text></g><g class="textpoint" transform="translate(0,3.25)"><text x="392.41" y="215.57" text-anchor="middle" style="font-family: Arial; font-size: 13px; fill: rgb(0, 0, 0); fill-opacity: 1; white-space: pre;">3.8%</text></g></g></g></g></g></g><g class="zerolinelayer-above"/><path class="xlines-above crisp" d="M71,329.78H507.435" style="fill: none; stroke-width: 1px; stroke: rgb(0, 0, 0); stroke-opacity: 1;"/><path class="ylines-above crisp" d="M71.5,80V329.28" style="fill: none; stroke-width: 1px; stroke: rgb(0, 0, 0); stroke-opacity: 1;"/><g class="overlines-above"/><g class="xaxislayer-above"><g class="xtick"><text text-anchor="end" x="0" y="345.88" transform="translate(115.02000000000001,0) rotate(-30,0,339.38)" style="font-family: Arial; font-size: 13px; fill: rgb(0, 0, 0); fill-opacity: 1; white-space: pre;">(0.25, 0.50]</text></g><g class="xtick"><text text-anchor="end" x="0" y="345.88" transform="translate(141.9,0) rotate(-30,0,339.38)" style="font-family: Arial; font-size: 13px; fill: rgb(0, 0, 0); fill-opacity: 1; white-space: pre;">(0.25, 0.75]</text></g><g class="xtick"><text text-anchor="end" x="0" y="345.88" transform="translate(168.76999999999998,0) rotate(-30,0,339.38)" style="font-family: Arial; font-size: 13px; fill: rgb(0, 0, 0); fill-opacity: 1; white-space: pre;">(0.25, 1.00]</text></g><g class="xtick"><text text-anchor="end" x="0" y="345.88" transform="translate(195.65,0) rotate(-30,0,339.38)" style="font-family: Arial; font-size: 13px; fill: rgb(0, 0, 0); fill-opacity: 1; white-space: pre;">(0.25, 1.25]</text></g><g class="xtick"><text text-anchor="end" x="0" y="345.88" transform="translate(222.53,0) rotate(-30,0,339.38)" style="font-family: Arial; font-size: 13px; fill: rgb(0, 0, 0); fill-opacity: 1; white-space: pre;">(0.50, 0.75]</text></g><g class="xtick"><text text-anchor="end" x="0" y="345.88" transform="translate(249.4,0) rotate(-30,0,339.38)" style="font-family: Arial; font-size: 13px; fill: rgb(0, 0, 0); fill-opacity: 1; white-space: pre;">(0.50, 1.00]</text></g><g class="xtick"><text text-anchor="end" x="0" y="345.88" transform="translate(276.28,0) rotate(-30,0,339.38)" style="font-family: Arial; font-size: 13px; fill: rgb(0, 0, 0); fill-opacity: 1; white-space: pre;">(0.50, 1.25]</text></g><g class="xtick"><text text-anchor="end" x="0" y="345.88" transform="translate(303.15999999999997,0) rotate(-30,0,339.38)" style="font-family: Arial; font-size: 13px; fill: rgb(0, 0, 0); fill-opacity: 1; white-space: pre;">(0.50, 1.50]</text></g><g class="xtick"><text text-anchor="end" x="0" y="345.88" transform="translate(330.03,0) rotate(-30,0,339.38)" style="font-family: Arial; font-size: 13px; fill: rgb(0, 0, 0); fill-opacity: 1; white-space: pre;">(0.75, 1.00]</text></g><g class="xtick"><text text-anchor="end" x="0" y="345.88" transform="translate(356.91,0) rotate(-30,0,339.38)" style="font-family: Arial; font-size: 13px; fill: rgb(0, 0, 0); fill-opacity: 1; white-space: pre;">(0.75, 1.25]</text></g><g class="xtick"><text text-anchor="end" x="0" y="345.88" transform="translate(383.78,0) rotate(-30,0,339.38)" style="font-family: Arial; font-size: 13px; fill: rgb(0, 0, 0); fill-opacity: 1; white-space: pre;">(0.75, 1.50]</text></g><g class="xtick"><text text-anchor="end" x="0" y="345.88" transform="translate(410.66,0) rotate(-30,0,339.38)" style="font-family: Arial; font-size: 13px; fill: rgb(0, 0, 0); fill-opacity: 1; white-space: pre;">(0.75, 1.75]</text></g><g class="xtick"><text text-anchor="end" x="0" y="345.88" transform="translate(437.54,0) rotate(-30,0,339.38)" style="font-family: Arial; font-size: 13px; fill: rgb(0, 0, 0); fill-opacity: 1; white-space: pre;">(1.00, 1.75]</text></g><g class="xtick"><text text-anchor="end" x="0" y="345.88" transform="translate(464.41,0) rotate(-30,0,339.38)" style="font-family: Arial; font-size: 13px; fill: rgb(0, 0, 0); fill-opacity: 1; white-space: pre;">(1.00, 2.00]</text></g></g><g class="yaxislayer-above"><g class="ytick"><text text-anchor="end" x="68.4" y="4.55" transform="translate(0,295.57)" style="font-family: Arial; font-size: 13px; fill: rgb(0, 0, 0); fill-opacity: 1; white-space: pre;">1.00km</text></g><g class="ytick"><text text-anchor="end" x="68.4" y="4.55" transform="translate(0,234.95)" style="font-family: Arial; font-size: 13px; fill: rgb(0, 0, 0); fill-opacity: 1; white-space: pre;">0.75km</text></g><g class="ytick"><text text-anchor="end" x="68.4" y="4.55" transform="translate(0,174.32999999999998)" style="font-family: Arial; font-size: 13px; fill: rgb(0, 0, 0); fill-opacity: 1; white-space: pre;">0.50km</text></g><g class="ytick"><text text-anchor="end" x="68.4" y="4.55" transform="translate(0,113.71000000000001)" style="font-family: Arial; font-size: 13px; fill: rgb(0, 0, 0); fill-opacity: 1; white-space: pre;">0.25km</text></g></g><g class="overaxes-above"/></g><g class="subplot x2y2"><g class="layer-subplot"><g class="shapelayer"/><g class="imagelayer"/></g><g class="minor-gridlayer"><g class="x2"/><g class="y2"/></g><g class="gridlayer"><g class="x2"/><g class="y2"/></g><g class="zerolinelayer"/><g class="layer-between"><g class="shapelayer"/><g class="imagelayer"/></g><path class="xlines-below"/><path class="ylines-below"/><g class="overlines-below"/><g class="xaxislayer-below"/><g class="yaxislayer-below"/><g class="overaxes-below"/><g class="overplot"><g class="x2y2" transform="translate(593.565,80)" clip-path="url(#clip355489x2y2plot)"><g class="scatterlayer mlayer"><g class="trace scatter trace65a505" style="stroke-miterlimit: 2; opacity: 1;"><g class="fills"/><g class="errorbars"/><g class="lines"/><g class="points"><path class="point plotly-customdata" transform="translate(314.77,124.64)" d="M17,0A17,17 0 1,1 0,-17A17,17 0 0,1 17,0Z" style="opacity: 1; stroke-width: 0.8px; fill: rgb(156, 164, 169); fill-opacity: 0.35; stroke: rgb(140, 123, 102); stroke-opacity: 1;"/><path class="point plotly-customdata" transform="translate(198.31,124.64)" d="M17,0A17,17 0 1,1 0,-17A17,17 0 0,1 17,0Z" style="opacity: 1; stroke-width: 0.8px; fill: rgb(160, 166, 169); fill-opacity: 0.36; stroke: rgb(140, 123, 102); stroke-opacity: 1;"/><path class="point plotly-customdata" transform="translate(237.13,124.64)" d="M17,0A17,17 0 1,1 0,-17A17,17 0 0,1 17,0Z" style="opacity: 1; stroke-width: 0.8px; fill: rgb(160, 166, 169); fill-opacity: 0.36; stroke: rgb(140, 123, 102); stroke-opacity: 1;"/><path class="point plotly-customdata" transform="translate(275.95,124.64)" d="M17,0A17,17 0 1,1 0,-17A17,17 0 0,1 17,0Z" style="opacity: 1; stroke-width: 0.8px; fill: rgb(160, 166, 169); fill-opacity: 0.36; stroke: rgb(140, 123, 102); stroke-opacity: 1;"/><path class="point plotly-customdata" transform="translate(43.02,33.71)" d="M17,0A17,17 0 1,1 0,-17A17,17 0 0,1 17,0Z" style="opacity: 1; stroke-width: 0.8px; fill: rgb(127, 147, 166); fill-opacity: 0.25; stroke: rgb(140, 123, 102); stroke-opacity: 1;"/><path class="point plotly-customdata" transform="translate(353.59,215.57)" d="M17,0A17,17 0 1,1 0,-17A17,17 0 0,1 17,0Z" style="opacity: 1; stroke-width: 0.8px; fill: rgb(148, 159, 168); fill-opacity: 0.32; stroke: rgb(140, 123, 102); stroke-opacity: 1;"/><path class="point plotly-customdata" transform="translate(81.84,33.71)" d="M17,0A17,17 0 1,1 0,-17A17,17 0 0,1 17,0Z" style="opacity: 1; stroke-width: 0.8px; fill: rgb(132, 150, 166); fill-opacity: 0.27; stroke: rgb(140, 123, 102); stroke-opacity: 1;"/><path class="point plotly-customdata" transform="translate(120.66,33.71)" d="M17,0A17,17 0 1,1 0,-17A17,17 0 0,1 17,0Z" style="opacity: 1; stroke-width: 0.8px; fill: rgb(132, 150, 166); fill-opacity: 0.27; stroke: rgb(140, 123, 102); stroke-opacity: 1;"/><path class="point plotly-customdata" transform="translate(159.49,33.71)" d="M17,0A17,17 0 1,1 0,-17A17,17 0 0,1 17,0Z" style="opacity: 1; stroke-width: 0.8px; fill: rgb(132, 150, 166); fill-opacity: 0.27; stroke: rgb(140, 123, 102); stroke-opacity: 1;"/><path class="point plotly-customdata" transform="translate(392.41,215.57)" d="M17,0A17,17 0 1,1 0,-17A17,17 0 0,1 17,0Z" style="opacity: 1; stroke-width: 0.8px; fill: rgb(159, 165, 169); fill-opacity: 0.36; stroke: rgb(140, 123, 102); stroke-opacity: 1;"/></g><g class="text"><g class="textpoint" transform="translate(0,3.25)"><text x="314.77" y="124.64" text-anchor="middle" style="font-family: Arial; font-size: 13px; fill: rgb(0, 0, 0); fill-opacity: 1; white-space: pre;">-0.7%</text></g><g class="textpoint" transform="translate(0,3.25)"><text x="198.31" y="124.64" text-anchor="middle" style="font-family: Arial; font-size: 13px; fill: rgb(0, 0, 0); fill-opacity: 1; white-space: pre;">-0.4%</text></g><g class="textpoint" transform="translate(0,3.25)"><text x="237.13" y="124.64" text-anchor="middle" style="font-family: Arial; font-size: 13px; fill: rgb(0, 0, 0); fill-opacity: 1; white-space: pre;">-0.4%</text></g><g class="textpoint" transform="translate(0,3.25)"><text x="275.95" y="124.64" text-anchor="middle" style="font-family: Arial; font-size: 13px; fill: rgb(0, 0, 0); fill-opacity: 1; white-space: pre;">-0.4%</text></g><g class="textpoint" transform="translate(0,3.25)"><text x="43.02" y="33.71" text-anchor="middle" style="font-family: Arial; font-size: 13px; fill: rgb(0, 0, 0); fill-opacity: 1; white-space: pre;">-2.9%</text></g><g class="textpoint" transform="translate(0,3.25)"><text x="353.59" y="215.57" text-anchor="middle" style="font-family: Arial; font-size: 13px; fill: rgb(0, 0, 0); fill-opacity: 1; white-space: pre;">-1.3%</text></g><g class="textpoint" transform="translate(0,3.25)"><text x="81.84" y="33.71" text-anchor="middle" style="font-family: Arial; font-size: 13px; fill: rgb(0, 0, 0); fill-opacity: 1; white-space: pre;">-2.5%</text></g><g class="textpoint" transform="translate(0,3.25)"><text x="120.66" y="33.71" text-anchor="middle" style="font-family: Arial; font-size: 13px; fill: rgb(0, 0, 0); fill-opacity: 1; white-space: pre;">-2.5%</text></g><g class="textpoint" transform="translate(0,3.25)"><text x="159.49" y="33.71" text-anchor="middle" style="font-family: Arial; font-size: 13px; fill: rgb(0, 0, 0); fill-opacity: 1; white-space: pre;">-2.5%</text></g><g class="textpoint" transform="translate(0,3.25)"><text x="392.41" y="215.57" text-anchor="middle" style="font-family: Arial; font-size: 13px; fill: rgb(0, 0, 0); fill-opacity: 1; white-space: pre;">-0.5%</text></g></g></g></g></g></g><g class="zerolinelayer-above"/><path class="xlines-above crisp" d="M592.565,329.78H1029" style="fill: none; stroke-width: 1px; stroke: rgb(0, 0, 0); stroke-opacity: 1;"/><path class="ylines-above crisp" d="M593.065,80V329.28" style="fill: none; stroke-width: 1px; stroke: rgb(0, 0, 0); stroke-opacity: 1;"/><g class="overlines-above"/><g class="xaxislayer-above"><g class="x2tick"><text text-anchor="end" x="0" y="345.88" transform="translate(636.585,0) rotate(-30,0,339.38)" style="font-family: Arial; font-size: 13px; fill: rgb(0, 0, 0); fill-opacity: 1; white-space: pre;">(0.50, 0.75]</text></g><g class="x2tick"><text text-anchor="end" x="0" y="345.88" transform="translate(675.4050000000001,0) rotate(-30,0,339.38)" style="font-family: Arial; font-size: 13px; fill: rgb(0, 0, 0); fill-opacity: 1; white-space: pre;">(0.50, 1.00]</text></g><g class="x2tick"><text text-anchor="end" x="0" y="345.88" transform="translate(714.225,0) rotate(-30,0,339.38)" style="font-family: Arial; font-size: 13px; fill: rgb(0, 0, 0); fill-opacity: 1; white-space: pre;">(0.50, 1.25]</text></g><g class="x2tick"><text text-anchor="end" x="0" y="345.88" transform="translate(753.0550000000001,0) rotate(-30,0,339.38)" style="font-family: Arial; font-size: 13px; fill: rgb(0, 0, 0); fill-opacity: 1; white-space: pre;">(0.50, 1.50]</text></g><g class="x2tick"><text text-anchor="end" x="0" y="345.88" transform="translate(791.875,0) rotate(-30,0,339.38)" style="font-family: Arial; font-size: 13px; fill: rgb(0, 0, 0); fill-opacity: 1; white-space: pre;">(0.75, 1.00]</text></g><g class="x2tick"><text text-anchor="end" x="0" y="345.88" transform="translate(830.695,0) rotate(-30,0,339.38)" style="font-family: Arial; font-size: 13px; fill: rgb(0, 0, 0); fill-opacity: 1; white-space: pre;">(0.75, 1.25]</text></g><g class="x2tick"><text text-anchor="end" x="0" y="345.88" transform="translate(869.5150000000001,0) rotate(-30,0,339.38)" style="font-family: Arial; font-size: 13px; fill: rgb(0, 0, 0); fill-opacity: 1; white-space: pre;">(0.75, 1.50]</text></g><g class="x2tick"><text text-anchor="end" x="0" y="345.88" transform="translate(908.335,0) rotate(-30,0,339.38)" style="font-family: Arial; font-size: 13px; fill: rgb(0, 0, 0); fill-opacity: 1; white-space: pre;">(0.75, 1.75]</text></g><g class="x2tick"><text text-anchor="end" x="0" y="345.88" transform="translate(947.155,0) rotate(-30,0,339.38)" style="font-family: Arial; font-size: 13px; fill: rgb(0, 0, 0); fill-opacity: 1; white-space: pre;">(1.00, 1.75]</text></g><g class="x2tick"><text text-anchor="end" x="0" y="345.88" transform="translate(985.9750000000001,0) rotate(-30,0,339.38)" style="font-family: Arial; font-size: 13px; fill: rgb(0, 0, 0); fill-opacity: 1; white-space: pre;">(1.00, 2.00]</text></g></g><g class="yaxislayer-above"><g class="y2tick"><text text-anchor="end" x="589.965" y="4.55" transform="translate(0,295.57)" style="font-family: Arial; font-size: 13px; fill: rgb(0, 0, 0); fill-opacity: 1; white-space: pre;">1.00km</text></g><g class="y2tick"><text text-anchor="end" x="589.965" y="4.55" transform="translate(0,204.64)" style="font-family: Arial; font-size: 13px; fill: rgb(0, 0, 0); fill-opacity: 1; white-space: pre;">0.75km</text></g><g class="y2tick"><text text-anchor="end" x="589.965" y="4.55" transform="translate(0,113.71000000000001)" style="font-family: Arial; font-size: 13px; fill: rgb(0, 0, 0); fill-opacity: 1; white-space: pre;">0.50km</text></g></g><g class="overaxes-above"/></g><g class="subplot x3y3"><g class="layer-subplot"><g class="shapelayer"/><g class="imagelayer"/></g><g class="minor-gridlayer"><g class="x3"/><g class="y3"/></g><g class="gridlayer"><g class="x3"/><g class="y3"/></g><g class="zerolinelayer"/><g class="layer-between"><g class="shapelayer"/><g class="imagelayer"/></g><path class="xlines-below"/><path class="ylines-below"/><g class="overlines-below"/><g class="xaxislayer-below"/><g class="yaxislayer-below"/><g class="overaxes-below"/><g class="overplot"><g class="x3y3" transform="translate(72,438.71999999999997)" clip-path="url(#clip355489x3y3plot)"><g class="scatterlayer mlayer"><g class="trace scatter traceeeb4e2" style="stroke-miterlimit: 2; opacity: 1;"><g class="fills"/><g class="errorbars"/><g class="lines"/><g class="points"><path class="point plotly-customdata" transform="translate(43.02,124.64)" d="M17,0A17,17 0 1,1 0,-17A17,17 0 0,1 17,0Z" style="opacity: 1; stroke-width: 0.8px; fill: rgb(163, 168, 170); fill-opacity: 0.37; stroke: rgb(140, 123, 102); stroke-opacity: 1;"/><path class="point plotly-customdata" transform="translate(217.72,124.64)" d="M17,0A17,17 0 1,1 0,-17A17,17 0 0,1 17,0Z" style="opacity: 1; stroke-width: 0.8px; fill: rgb(163, 168, 170); fill-opacity: 0.37; stroke: rgb(140, 123, 102); stroke-opacity: 1;"/><path class="point plotly-customdata" transform="translate(392.41,124.64)" d="M17,0A17,17 0 1,1 0,-17A17,17 0 0,1 17,0Z" style="opacity: 1; stroke-width: 0.8px; fill: rgb(163, 168, 170); fill-opacity: 0.37; stroke: rgb(140, 123, 102); stroke-opacity: 1;"/></g><g class="text"><g class="textpoint" transform="translate(0,3.25)"><text x="43.02" y="124.64" text-anchor="middle" style="font-family: Arial; font-size: 13px; fill: rgb(0, 0, 0); fill-opacity: 1; white-space: pre;">-0.2%</text></g><g class="textpoint" transform="translate(0,3.25)"><text x="217.72" y="124.64" text-anchor="middle" style="font-family: Arial; font-size: 13px; fill: rgb(0, 0, 0); fill-opacity: 1; white-space: pre;">-0.2%</text></g><g class="textpoint" transform="translate(0,3.25)"><text x="392.41" y="124.64" text-anchor="middle" style="font-family: Arial; font-size: 13px; fill: rgb(0, 0, 0); fill-opacity: 1; white-space: pre;">-0.2%</text></g></g></g></g></g></g><g class="zerolinelayer-above"/><path class="xlines-above crisp" d="M71,688.5H507.435" style="fill: none; stroke-width: 1px; stroke: rgb(0, 0, 0); stroke-opacity: 1;"/><path class="ylines-above crisp" d="M71.5,438.71999999999997V688" style="fill: none; stroke-width: 1px; stroke: rgb(0, 0, 0); stroke-opacity: 1;"/><g class="overlines-above"/><g class="xaxislayer-above"><g class="x3tick"><text text-anchor="end" x="0" y="704.6" transform="translate(115.02000000000001,0) rotate(-30,0,698.1)" style="font-family: Arial; font-size: 13px; fill: rgb(0, 0, 0); fill-opacity: 1; white-space: pre;">(0.50, 1.00]</text></g><g class="x3tick"><text text-anchor="end" x="0" y="704.6" transform="translate(289.72,0) rotate(-30,0,698.1)" style="font-family: Arial; font-size: 13px; fill: rgb(0, 0, 0); fill-opacity: 1; white-space: pre;">(0.50, 1.25]</text></g><g class="x3tick"><text text-anchor="end" x="0" y="704.6" transform="translate(464.41,0) rotate(-30,0,698.1)" style="font-family: Arial; font-size: 13px; fill: rgb(0, 0, 0); fill-opacity: 1; white-space: pre;">(0.50, 1.50]</text></g></g><g class="yaxislayer-above"><g class="y3tick"><text text-anchor="end" x="68.4" y="4.55" transform="translate(0,688)" style="font-family: Arial; font-size: 13px; fill: rgb(0, 0, 0); fill-opacity: 1; white-space: pre;">0.75km</text></g><g class="y3tick"><text text-anchor="end" x="68.4" y="4.55" transform="translate(0,563.36)" style="font-family: Arial; font-size: 13px; fill: rgb(0, 0, 0); fill-opacity: 1; white-space: pre;">0.50km</text></g><g class="y3tick"><text text-anchor="end" x="68.4" y="4.55" transform="translate(0,438.71999999999997)" style="font-family: Arial; font-size: 13px; fill: rgb(0, 0, 0); fill-opacity: 1; white-space: pre;">0.25km</text></g></g><g class="overaxes-above"/></g></g><g class="polarlayer"/><g class="smithlayer"/><g class="ternarylayer"/><g class="geolayer"/><g class="funnelarealayer"/><g class="pielayer"/><g class="iciclelayer"/><g class="treemaplayer"/><g class="sunburstlayer"/><g class="glimages"/><defs id="topdefs-355489"><g class="clips"/></defs><g class="layer-above"><g class="imagelayer"/><g class="shapelayer"/></g><g class="infolayer"><g class="cbeeb4e2 colorbar" transform="translate(72,80)"><rect class="cbbg" x="985.5" y="55" width="110.4287109375" height="500" style="fill: rgb(0, 0, 0); fill-opacity: 0; stroke: rgb(68, 68, 68); stroke-opacity: 1; stroke-width: 0;"/><g class="cbfills" transform="translate(0,87)"><rect class="cbfill gradient_filled" style="fill: url('#g355489-cbeeb4e2');" x="996" y="0" width="30" height="457"/></g><g class="cblines" transform="translate(0,87)"/><g class="cbaxis crisp" transform="translate(0,-80)"><g class="ycbeeb4e2tick"><text text-anchor="start" x="1029.6" y="4.55" transform="translate(0,594.3371875)" style="font-family: Arial; font-size: 13px; fill: rgb(0, 0, 0); fill-opacity: 1; white-space: pre;">−2</text></g><g class="ycbeeb4e2tick"><text text-anchor="start" x="1029.6" y="4.55" style="font-family: Arial; font-size: 13px; fill: rgb(0, 0, 0); fill-opacity: 1; white-space: pre;" transform="translate(0,526.4071875)">0</text></g><g class="ycbeeb4e2tick"><text text-anchor="start" x="1029.6" y="4.55" style="font-family: Arial; font-size: 13px; fill: rgb(0, 0, 0); fill-opacity: 1; white-space: pre;" transform="translate(0,458.4771875)">2</text></g><g class="ycbeeb4e2tick"><text text-anchor="start" x="1029.6" y="4.55" style="font-family: Arial; font-size: 13px; fill: rgb(0, 0, 0); fill-opacity: 1; white-space: pre;" transform="translate(0,390.5571875)">4</text></g><g class="ycbeeb4e2tick"><text text-anchor="start" x="1029.6" y="4.55" style="font-family: Arial; font-size: 13px; fill: rgb(0, 0, 0); fill-opacity: 1; white-space: pre;" transform="translate(0,322.6271875)">6</text></g><g class="ycbeeb4e2tick"><text text-anchor="start" x="1029.6" y="4.55" style="font-family: Arial; font-size: 13px; fill: rgb(0, 0, 0); fill-opacity: 1; white-space: pre;" transform="translate(0,254.69718749999998)">8</text></g><g class="ycbeeb4e2tick"><text text-anchor="start" x="1029.6" y="4.55" style="font-family: Arial; font-size: 13px; fill: rgb(0, 0, 0); fill-opacity: 1; white-space: pre;" transform="translate(0,186.7771875)">10</text></g></g><g class="cbtitleunshift" transform="translate(-72,-80)"><g class="cbtitle" transform="translate(-0.5,-0.5)"><text class="ycbeeb4e2title" x="1067.71" y="159.5" text-anchor="start" style="opacity: 1; font-family: Arial; font-size: 16px; fill: rgb(0, 0, 0); fill-opacity: 1; white-space: pre;">β3 (% effect)</text></g></g><rect class="cboutline" x="996" y="87.3671875" width="30" height="456.6328125" style="stroke: rgb(68, 68, 68); stroke-opacity: 1; fill: none; stroke-width: 1;"/></g><g class="g-gtitle"><text class="gtitle" x="59" y="40" text-anchor="start" dy="0em" style="opacity: 1; font-family: Georgia; font-size: 20px; fill: rgb(0, 0, 0); fill-opacity: 1; white-space: pre;">Question C design search: β3 across treatment and control choices</text></g><g class="g-xtitle"/><g class="g-x2title"/><g class="g-x3title"/><g class="g-ytitle"/><g class="g-y2title"/><g class="g-y3title"/><g class="annotation" data-index="0" style="opacity: 1;"><g class="annotation-text-g" transform="rotate(0,289.7175,71)"><g class="cursor-pointer" transform="translate(251,62)"><rect class="bg" x="0.5" y="0.5" width="77" height="17" style="stroke-width: 1px; stroke: rgb(0, 0, 0); stroke-opacity: 0; fill: rgb(0, 0, 0); fill-opacity: 0;"/><text class="annotation-text" text-anchor="middle" x="39.03125" y="13" style="font-family: Arial; font-size: 12px; fill: rgb(0, 0, 0); fill-opacity: 1; white-space: pre;">Bukit Panjang</text></g></g></g><g class="annotation" data-index="1" style="opacity: 1;"><g class="annotation-text-g" transform="rotate(0,811.2824999999999,71)"><g class="cursor-pointer" transform="translate(767,62)"><rect class="bg" x="0.5" y="0.5" width="88" height="17" style="stroke-width: 1px; stroke: rgb(0, 0, 0); stroke-opacity: 0; fill: rgb(0, 0, 0); fill-opacity: 0;"/><text class="annotation-text" text-anchor="middle" x="44.703125" y="13" style="font-family: Arial; font-size: 12px; fill: rgb(0, 0, 0); fill-opacity: 1; white-space: pre;">Choa Chu Kang</text></g></g></g><g class="annotation" data-index="2" style="opacity: 1;"><g class="annotation-text-g" transform="rotate(0,289.7175,429.71999999999997)"><g class="cursor-pointer" transform="translate(256,421)"><rect class="bg" x="0.5" y="0.5" width="66" height="17" style="stroke-width: 1px; stroke: rgb(0, 0, 0); stroke-opacity: 0; fill: rgb(0, 0, 0); fill-opacity: 0;"/><text class="annotation-text" text-anchor="middle" x="33.3515625" y="13" style="font-family: Arial; font-size: 12px; fill: rgb(0, 0, 0); fill-opacity: 1; white-space: pre;">Bukit Timah</text></g></g></g><g class="annotation" data-index="3" style="opacity: 1;"><g class="annotation-text-g" transform="rotate(0,400.07,750.72)"><g class="cursor-pointer" transform="translate(82,743)"><rect class="bg" x="0.5" y="0.5" width="636" height="15" style="stroke-width: 1px; stroke: rgb(0, 0, 0); stroke-opacity: 0; fill: rgb(0, 0, 0); fill-opacity: 0;"/><text class="annotation-text" text-anchor="middle" x="318.5390625" y="12" style="font-family: Arial; font-size: 11px; fill: rgb(0, 0, 0); fill-opacity: 1; white-space: pre;">Each dot is one in-town DiD design. Color and label show β3; hover shows the parallel-trend diagnostics used to rank the designs.</text></g></g></g></g></svg>