<svg class="main-svg" xmlns="http://www.w3.org/2000/svg" xmlns:xlink="http://www.w3.org/1999/xlink" width="700" height="500" style="" viewBox="0 0 700 500"><rect x="0" y="0" width="700" height="500" style="fill: rgb(0, 0, 0); fill-opacity: 0;"/><defs id="defs-00fbff"><g class="clips"><clipPath id="clip00fbffxyplot" class="plotclip"><rect width="592" height="348"/></clipPath><clipPath class="axesclip" id="clip00fbffx"><rect x="72" y="0" width="592" height="500"/></clipPath><clipPath class="axesclip" id="clip00fbffy"><rect x="0" y="80" width="700" height="348"/></clipPath><clipPath class="axesclip" id="clip00fbffxy"><rect x="72" y="80" width="592" height="348"/></clipPath></g><g class="gradients"/><g class="patterns"/></defs><g class="bglayer"><rect class="bg" x="72" y="80" width="592" height="348" style="fill: rgb(0, 0, 0); fill-opacity: 0; stroke-width: 0;"/></g><g class="layer-below"><g class="imagelayer"/><g class="shapelayer"/></g><g class="cartesianlayer"><g class="subplot xy"><g class="layer-subplot"><g class="shapelayer"/><g class="imagelayer"/></g><g class="minor-gridlayer"><g class="x"/><g class="y"/></g><g class="gridlayer"><g class="x"/><g class="y"/></g><g class="zerolinelayer"><path class="xzl zl crisp" transform="translate(454.93,0)" d="M0,80v348" style="stroke: rgb(0, 0, 0); stroke-opacity: 1; stroke-width: 2px;"/></g><g class="layer-between"><g class="shapelayer"/><g class="imagelayer"/></g><path class="xlines-below"/><path class="ylines-below"/><g class="overlines-below"/><g class="xaxislayer-below"/><g class="yaxislayer-below"/><g class="overaxes-below"/><g class="overplot"><g class="xy" transform="translate(72,80)" clip-path="url(#clip00fbffxyplot)"><g class="scatterlayer mlayer"><g class="trace scatter trace54b636" style="stroke-miterlimit: 2; opacity: 1;"><g class="fills"/><g class="errorbars"><g class="errorbar"><path class="yerror" d="M382.93,25.05h0m-0,0V82.4m-0,0h0" style="vector-effect: none; stroke-width: 1.6px; stroke: rgb(123, 143, 121); stroke-opacity: 1;"/></g><g class="errorbar"><path class="yerror" d="M469.85,17.4h0m-0,0V78.3m-0,0h0" style="vector-effect: none; stroke-width: 1.6px; stroke: rgb(123, 143, 121); stroke-opacity: 1;"/></g><g class="errorbar"><path class="yerror" d="M556.78,23.55h0m-0,0V83.68m-0,0h0" style="vector-effect: none; stroke-width: 1.6px; stroke: rgb(123, 143, 121); stroke-opacity: 1;"/></g></g><g class="lines"/><g class="points"><path class="point" transform="translate(382.93,53.99)" d="M4.5,0A4.5,4.5 0 1,1 0,-4.5A4.5,4.5 0 0,1 4.5,0Z" style="opacity: 1; stroke-width: 2px; fill: rgb(247, 242, 232); fill-opacity: 0.35; stroke: rgb(123, 143, 121); stroke-opacity: 1;"/><path class="point" transform="translate(469.85,48.16)" d="M4.5,0A4.5,4.5 0 1,1 0,-4.5A4.5,4.5 0 0,1 4.5,0Z" style="opacity: 1; stroke-width: 2px; fill: rgb(247, 242, 232); fill-opacity: 0.35; stroke: rgb(123, 143, 121); stroke-opacity: 1;"/><path class="point" transform="translate(556.78,53.91)" d="M4.5,0A4.5,4.5 0 1,1 0,-4.5A4.5,4.5 0 0,1 4.5,0Z" style="opacity: 1; stroke-width: 2px; fill: rgb(247, 242, 232); fill-opacity: 0.35; stroke: rgb(123, 143, 121); stroke-opacity: 1;"/></g><g class="text"><g class="textpoint" transform="translate(0,16.375)"><text x="382.93" y="53.99" text-anchor="middle" style="font-family: Arial; font-size: 13px; fill: rgb(0, 0, 0); fill-opacity: 1; white-space: pre;">23.9%</text></g><g class="textpoint" transform="translate(0,16.375)"><text x="469.85" y="48.16" text-anchor="middle" style="font-family: Arial; font-size: 13px; fill: rgb(0, 0, 0); fill-opacity: 1; white-space: pre;">24.4%</text></g><g class="textpoint" transform="translate(0,16.375)"><text x="556.78" y="53.91" text-anchor="middle" style="font-family: Arial; font-size: 13px; fill: rgb(0, 0, 0); fill-opacity: 1; white-space: pre;">23.9%</text></g></g></g><g class="trace scatter trace98aa83" style="stroke-miterlimit: 2; opacity: 1;"><g class="fills"/><g class="errorbars"><g class="errorbar"><path class="yerror" d="M35.23,117.81h0m-0,0V162.08m-0,0h0" style="vector-effect: none; stroke-width: 1.6px; stroke: rgb(207, 134, 75); stroke-opacity: 1;"/></g><g class="errorbar"><path class="yerror" d="M122.15,73.77h0m-0,0V133.91m-0,0h0" style="vector-effect: none; stroke-width: 1.6px; stroke: rgb(207, 134, 75); stroke-opacity: 1;"/></g><g class="errorbar"><path class="yerror" d="M209.08,65.3h0m-0,0V135.46m-0,0h0" style="vector-effect: none; stroke-width: 1.6px; stroke: rgb(207, 134, 75); stroke-opacity: 1;"/></g></g><g class="lines"/><g class="points"><path class="point" transform="translate(35.23,140.12)" d="M4.5,0A4.5,4.5 0 1,1 0,-4.5A4.5,4.5 0 0,1 4.5,0Z" style="opacity: 1; stroke-width: 2px; fill: rgb(247, 242, 232); fill-opacity: 0.35; stroke: rgb(207, 134, 75); stroke-opacity: 1;"/><path class="point" transform="translate(122.15,104.15)" d="M4.5,0A4.5,4.5 0 1,1 0,-4.5A4.5,4.5 0 0,1 4.5,0Z" style="opacity: 1; stroke-width: 2px; fill: rgb(247, 242, 232); fill-opacity: 0.35; stroke: rgb(207, 134, 75); stroke-opacity: 1;"/><path class="point" transform="translate(209.08,100.8)" d="M4.5,0A4.5,4.5 0 1,1 0,-4.5A4.5,4.5 0 0,1 4.5,0Z" style="opacity: 1; stroke-width: 2px; fill: rgb(247, 242, 232); fill-opacity: 0.35; stroke: rgb(207, 134, 75); stroke-opacity: 1;"/></g><g class="text"><g class="textpoint" transform="translate(0,16.375)"><text x="35.23" y="140.12" text-anchor="middle" style="font-family: Arial; font-size: 13px; fill: rgb(0, 0, 0); fill-opacity: 1; white-space: pre;">16.9%</text></g><g class="textpoint" transform="translate(0,16.375)"><text x="122.15" y="104.15" text-anchor="middle" style="font-family: Arial; font-size: 13px; fill: rgb(0, 0, 0); fill-opacity: 1; white-space: pre;">19.8%</text></g><g class="textpoint" transform="translate(0,16.375)"><text x="209.08" y="100.8" text-anchor="middle" style="font-family: Arial; font-size: 13px; fill: rgb(0, 0, 0); fill-opacity: 1; white-space: pre;">20.1%</text></g></g></g></g></g></g><g class="zerolinelayer-above"/><path class="xlines-above crisp" d="M71,428.5H664" style="fill: none; stroke-width: 1px; stroke: rgb(0, 0, 0); stroke-opacity: 1;"/><path class="ylines-above crisp" d="M71.5,80V428" style="fill: none; stroke-width: 1px; stroke: rgb(0, 0, 0); stroke-opacity: 1;"/><g class="overlines-above"/><g class="xaxislayer-above"><g class="xtick"><text text-anchor="middle" x="0" y="444.6" transform="translate(107.22999999999999,0)" style="font-family: Arial; font-size: 13px; fill: rgb(0, 0, 0); fill-opacity: 1; white-space: pre;">−4</text></g><g class="xtick"><text text-anchor="middle" x="0" y="444.6" style="font-family: Arial; font-size: 13px; fill: rgb(0, 0, 0); fill-opacity: 1; white-space: pre;" transform="translate(194.15,0)">−3</text></g><g class="xtick"><text text-anchor="middle" x="0" y="444.6" style="font-family: Arial; font-size: 13px; fill: rgb(0, 0, 0); fill-opacity: 1; white-space: pre;" transform="translate(281.08000000000004,0)">−2</text></g><g class="xtick"><text text-anchor="middle" x="0" y="444.6" style="font-family: Arial; font-size: 13px; fill: rgb(0, 0, 0); fill-opacity: 1; white-space: pre;" transform="translate(368,0)">−1</text></g><g class="xtick"><text text-anchor="middle" x="0" y="444.6" style="font-family: Arial; font-size: 13px; fill: rgb(0, 0, 0); fill-opacity: 1; white-space: pre;" transform="translate(454.93,0)">0</text></g><g class="xtick"><text text-anchor="middle" x="0" y="444.6" style="font-family: Arial; font-size: 13px; fill: rgb(0, 0, 0); fill-opacity: 1; white-space: pre;" transform="translate(541.85,0)">1</text></g><g class="xtick"><text text-anchor="middle" x="0" y="444.6" style="font-family: Arial; font-size: 13px; fill: rgb(0, 0, 0); fill-opacity: 1; white-space: pre;" transform="translate(628.78,0)">2</text></g></g><g class="yaxislayer-above"><g class="ytick"><text text-anchor="end" x="68.4" y="4.55" transform="translate(0,427.5)" style="font-family: Arial; font-size: 13px; fill: rgb(0, 0, 0); fill-opacity: 1; white-space: pre;">0</text></g><g class="ytick"><text text-anchor="end" x="68.4" y="4.55" style="font-family: Arial; font-size: 13px; fill: rgb(0, 0, 0); fill-opacity: 1; white-space: pre;" transform="translate(0,366.04)">5</text></g><g class="ytick"><text text-anchor="end" x="68.4" y="4.55" style="font-family: Arial; font-size: 13px; fill: rgb(0, 0, 0); fill-opacity: 1; white-space: pre;" transform="translate(0,304.58000000000004)">10</text></g><g class="ytick"><text text-anchor="end" x="68.4" y="4.55" style="font-family: Arial; font-size: 13px; fill: rgb(0, 0, 0); fill-opacity: 1; white-space: pre;" transform="translate(0,243.12)">15</text></g><g class="ytick"><text text-anchor="end" x="68.4" y="4.55" style="font-family: Arial; font-size: 13px; fill: rgb(0, 0, 0); fill-opacity: 1; white-space: pre;" transform="translate(0,181.65)">20</text></g><g class="ytick"><text text-anchor="end" x="68.4" y="4.55" style="font-family: Arial; font-size: 13px; fill: rgb(0, 0, 0); fill-opacity: 1; white-space: pre;" transform="translate(0,120.19)">25</text></g></g><g class="overaxes-above"/></g></g><g class="polarlayer"/><g class="smithlayer"/><g class="ternarylayer"/><g class="geolayer"/><g class="funnelarealayer"/><g class="pielayer"/><g class="iciclelayer"/><g class="treemaplayer"/><g class="sunburstlayer"/><g class="glimages"/><defs id="topdefs-00fbff"><g class="clips"/><clipPath id="legend00fbff"><rect width="227" height="29" x="0" y="0"/></clipPath></defs><g class="layer-above"><g class="imagelayer"/><g class="shapelayer"><g class="shape-group" data-index="0" clip-path="url(#clip00fbffy)"><path data-index="0" fill-rule="evenodd" d="M72,427.5L664,427.5" style="opacity: 1; stroke: rgb(107, 114, 128); stroke-opacity: 1; fill: rgb(0, 0, 0); fill-opacity: 0; stroke-dasharray: 9px, 9px; stroke-width: 1px;"/></g><g class="shape-group" data-index="1" clip-path="url(#clip00fbffx)"><path data-index="1" fill-rule="evenodd" d="M411.46,428L411.46,80" style="opacity: 1; stroke: rgb(107, 114, 128); stroke-opacity: 1; fill: rgb(0, 0, 0); fill-opacity: 0; stroke-dasharray: 3px, 3px; stroke-width: 1px;"/></g></g></g><g class="infolayer"><g class="legend" pointer-events="all" transform="translate(437,44.03999999999999)"><rect class="bg" shape-rendering="crispEdges" style="stroke: rgb(0, 0, 0); stroke-opacity: 0; fill: rgb(0, 0, 0); fill-opacity: 0; stroke-width: 0px;" width="227" height="29" x="0" y="0"/><g class="scrollbox" transform="" clip-path="url(#legend00fbff)"><g class="groups"><g class="traces" transform="translate(0,14.5)" style="opacity: 1;"><text class="legendtext" text-anchor="start" x="40" y="4.680000000000001" style="font-family: Arial; font-size: 12px; fill: rgb(0, 0, 0); fill-opacity: 1; white-space: pre;">Post-opening</text><g class="layers" style="opacity: 1;"><g class="legendfill"/><g class="legendlines"/><g class="legendsymbols"><g class="legendpoints"><path class="scatterpts" transform="translate(20,0)" d="M4.5,0A4.5,4.5 0 1,1 0,-4.5A4.5,4.5 0 0,1 4.5,0Z" style="opacity: 1; stroke-width: 2px; fill: rgb(247, 242, 232); fill-opacity: 0.35; stroke: rgb(123, 143, 121); stroke-opacity: 1;"/></g></g></g><rect class="legendtoggle" x="0" y="-9.5" width="113.21875" height="19" style="fill: rgb(0, 0, 0); fill-opacity: 0;"/></g><g class="traces" transform="translate(115.71875,14.5)" style="opacity: 1;"><text class="legendtext" text-anchor="start" x="40" y="4.680000000000001" style="font-family: Arial; font-size: 12px; fill: rgb(0, 0, 0); fill-opacity: 1; white-space: pre;">Pre-opening</text><g class="layers" style="opacity: 1;"><g class="legendfill"/><g class="legendlines"/><g class="legendsymbols"><g class="legendpoints"><path class="scatterpts" transform="translate(20,0)" d="M4.5,0A4.5,4.5 0 1,1 0,-4.5A4.5,4.5 0 0,1 4.5,0Z" style="opacity: 1; stroke-width: 2px; fill: rgb(247, 242, 232); fill-opacity: 0.35; stroke: rgb(207, 134, 75); stroke-opacity: 1;"/></g></g></g><rect class="legendtoggle" x="0" y="-9.5" width="107.890625" height="19" style="fill: rgb(0, 0, 0); fill-opacity: 0;"/></g></g></g><rect class="scrollbar" rx="20" ry="3" width="0" height="0" style="fill: rgb(128, 139, 164); fill-opacity: 1;" x="0" y="0"/></g><g class="g-gtitle"><text class="gtitle" x="35" y="40" text-anchor="start" dy="0em" style="opacity: 1; font-family: Georgia; font-size: 20px; fill: rgb(0, 0, 0); fill-opacity: 1; white-space: pre;">Event-study coefficients around the DTL2 opening: Bukit Panjang</text></g><g class="g-xtitle"/><g class="g-ytitle"/><g class="annotation" data-index="0" style="opacity: 1;"><g class="annotation-text-g" transform="rotate(0,365.42,413.04)"><g class="cursor-pointer" transform="translate(78,405)"><rect class="bg" x="0.5" y="0.5" width="574" height="15" style="stroke-width: 1px; stroke: rgb(0, 0, 0); stroke-opacity: 0; fill: rgb(0, 0, 0); fill-opacity: 0;"/><text class="annotation-text" text-anchor="middle" x="287.6640625" y="12" style="font-family: Arial; font-size: 11px; fill: rgb(0, 0, 0); fill-opacity: 1; white-space: pre;">Lead coefficients test whether near-station flats were already on a different path before the first full post-opening year.</text></g></g></g></g></svg>