<svg class="main-svg" xmlns="http://www.w3.org/2000/svg" xmlns:xlink="http://www.w3.org/1999/xlink" width="700" height="500" style="" viewBox="0 0 700 500"><rect x="0" y="0" width="700" height="500" style="fill: rgb(0, 0, 0); fill-opacity: 0;"/><defs id="defs-6f70de"><g class="clips"><clipPath id="clip6f70dexyplot" class="plotclip"><rect width="514" height="275"/></clipPath><clipPath class="axesclip" id="clip6f70dex"><rect x="72" y="0" width="514" height="500"/></clipPath><clipPath class="axesclip" id="clip6f70dey"><rect x="0" y="112" width="700" height="275"/></clipPath><clipPath class="axesclip" id="clip6f70dexy"><rect x="72" y="112" width="514" height="275"/></clipPath></g><g class="gradients"/><g class="patterns"/></defs><g class="bglayer"><rect class="bg" x="72" y="112" width="514" height="275" style="fill: rgb(0, 0, 0); fill-opacity: 0; stroke-width: 0;"/></g><g class="layer-below"><g class="imagelayer"/><g class="shapelayer"/></g><g class="cartesianlayer"><g class="subplot xy"><g class="layer-subplot"><g class="shapelayer"/><g class="imagelayer"/></g><g class="minor-gridlayer"><g class="x"/><g class="y"/></g><g class="gridlayer"><g class="x"/><g class="y"/></g><g class="zerolinelayer"/><g class="layer-between"><g class="shapelayer"/><g class="imagelayer"/></g><path class="xlines-below"/><path class="ylines-below"/><g class="overlines-below"/><g class="xaxislayer-below"/><g class="yaxislayer-below"/><g class="overaxes-below"/><g class="overplot"><g class="xy" transform="translate(72,112)" clip-path="url(#clip6f70dexyplot)"><g class="boxlayer mlayer"><g class="trace boxes" style="opacity: 1;"><path class="box" d="M18.72,248H54.7M18.72,248H54.7V248H18.72ZM36.71,248V248M36.71,248V248M24.12,248H49.31M24.12,248H49.31" style="vector-effect: none; stroke-width: 1.6px; stroke: rgb(127, 147, 166); stroke-opacity: 1; fill: rgb(127, 147, 166); fill-opacity: 0.35;"/><path class="box" d="M92.15,227.63H128.13M92.15,229.09H128.13V224.72H92.15ZM110.14,229.09V243.64M110.14,224.72V211.63M97.55,243.64H122.74M97.55,211.63H122.74" style="vector-effect: none; stroke-width: 1.6px; stroke: rgb(127, 147, 166); stroke-opacity: 1; fill: rgb(127, 147, 166); fill-opacity: 0.35;"/><path class="box" d="M165.58,195.62H201.56M165.58,198.53H201.56V186.89H165.58ZM183.57,198.53V221.81M183.57,186.89V93.77M170.98,221.81H196.16M170.98,93.77H196.16" style="vector-effect: none; stroke-width: 1.6px; stroke: rgb(127, 147, 166); stroke-opacity: 1; fill: rgb(127, 147, 166); fill-opacity: 0.35;"/><path class="box" d="M239.01,156.34H274.99M239.01,162.16H274.99V141.79H239.01ZM257,162.16V185.44M257,141.79V95.23M244.41,185.44H269.59M244.41,95.23H269.59" style="vector-effect: none; stroke-width: 1.6px; stroke: rgb(127, 147, 166); stroke-opacity: 1; fill: rgb(127, 147, 166); fill-opacity: 0.35;"/><path class="box" d="M312.44,118.51H348.42M312.44,133.06H348.42V115.6H312.44ZM330.43,133.06V141.79M330.43,115.6V73.4M317.84,141.79H343.02M317.84,73.4H343.02" style="vector-effect: none; stroke-width: 1.6px; stroke: rgb(127, 147, 166); stroke-opacity: 1; fill: rgb(127, 147, 166); fill-opacity: 0.35;"/><path class="box" d="M385.87,80.68H421.85M385.87,89.41H421.85V77.77H385.87ZM403.86,89.41V111.23M403.86,77.77V13.75M391.26,111.23H416.45M391.26,13.75H416.45" style="vector-effect: none; stroke-width: 1.6px; stroke: rgb(127, 147, 166); stroke-opacity: 1; fill: rgb(127, 147, 166); fill-opacity: 0.35;"/><path class="box" d="M459.3,78.22H495.28M459.3,79.22H495.28V66.86H459.3ZM477.29,79.22V79.22M477.29,66.86V54.49M464.69,79.22H489.88M464.69,54.49H489.88" style="vector-effect: none; stroke-width: 1.6px; stroke: rgb(127, 147, 166); stroke-opacity: 1; fill: rgb(127, 147, 166); fill-opacity: 0.35;"/></g></g></g></g><g class="zerolinelayer-above"/><path class="xlines-above crisp" d="M71,387.5H586" style="fill: none; stroke-width: 1px; stroke: rgb(0, 0, 0); stroke-opacity: 1;"/><path class="ylines-above crisp" d="M71.5,112V387" style="fill: none; stroke-width: 1px; stroke: rgb(0, 0, 0); stroke-opacity: 1;"/><g class="overlines-above"/><g class="xaxislayer-above"><g class="xtick"><text text-anchor="start" x="0" y="407.2" transform="translate(108.71000000000001,0) rotate(29.999999999999996,0,399.2)" style="font-family: Arial; font-size: 16px; fill: rgb(0, 0, 0); fill-opacity: 1; white-space: pre;">1 ROOM</text></g><g class="xtick"><text text-anchor="start" x="0" y="407.2" transform="translate(182.14,0) rotate(29.999999999999996,0,399.2)" style="font-family: Arial; font-size: 16px; fill: rgb(0, 0, 0); fill-opacity: 1; white-space: pre;">2 ROOM</text></g><g class="xtick"><text text-anchor="start" x="0" y="407.2" transform="translate(255.57,0) rotate(29.999999999999996,0,399.2)" style="font-family: Arial; font-size: 16px; fill: rgb(0, 0, 0); fill-opacity: 1; white-space: pre;">3 ROOM</text></g><g class="xtick"><text text-anchor="start" x="0" y="407.2" transform="translate(329,0) rotate(29.999999999999996,0,399.2)" style="font-family: Arial; font-size: 16px; fill: rgb(0, 0, 0); fill-opacity: 1; white-space: pre;">4 ROOM</text></g><g class="xtick"><text text-anchor="start" x="0" y="407.2" transform="translate(402.43,0) rotate(29.999999999999996,0,399.2)" style="font-family: Arial; font-size: 16px; fill: rgb(0, 0, 0); fill-opacity: 1; white-space: pre;">5 ROOM</text></g><g class="xtick"><text text-anchor="start" x="0" y="407.2" transform="translate(475.86,0) rotate(29.999999999999996,0,399.2)" style="font-family: Arial; font-size: 16px; fill: rgb(0, 0, 0); fill-opacity: 1; white-space: pre;">EXECUTIVE</text></g><g class="xtick"><text text-anchor="start" x="0" y="407.2" transform="translate(549.29,0) rotate(29.999999999999996,0,399.2)" style="font-family: Arial; font-size: 16px; fill: rgb(0, 0, 0); fill-opacity: 1; white-space: pre;">MULTI-GENERATION</text></g></g><g class="yaxislayer-above"><g class="ytick"><text text-anchor="end" x="67.8" y="5.6" transform="translate(0,332.36)" style="font-family: Arial; font-size: 16px; fill: rgb(0, 0, 0); fill-opacity: 1; white-space: pre;">50</text></g><g class="ytick"><text text-anchor="end" x="67.8" y="5.6" style="font-family: Arial; font-size: 16px; fill: rgb(0, 0, 0); fill-opacity: 1; white-space: pre;" transform="translate(0,259.61)">100</text></g><g class="ytick"><text text-anchor="end" x="67.8" y="5.6" style="font-family: Arial; font-size: 16px; fill: rgb(0, 0, 0); fill-opacity: 1; white-space: pre;" transform="translate(0,186.86)">150</text></g><g class="ytick"><text text-anchor="end" x="67.8" y="5.6" style="font-family: Arial; font-size: 16px; fill: rgb(0, 0, 0); fill-opacity: 1; white-space: pre;" transform="translate(0,114.11)">200</text></g></g><g class="overaxes-above"/></g></g><g class="polarlayer"/><g class="smithlayer"/><g class="ternarylayer"/><g class="geolayer"/><g class="funnelarealayer"/><g class="pielayer"/><g class="iciclelayer"/><g class="treemaplayer"/><g class="sunburstlayer"/><g class="glimages"/><defs id="topdefs-6f70de"><g class="clips"/></defs><g class="layer-above"><g class="imagelayer"/><g class="shapelayer"/></g><g class="infolayer"><g class="g-gtitle"/><g class="g-xtitle"/><g class="g-ytitle"/><g class="annotation" data-index="0" style="opacity: 1;"><g class="annotation-text-g" transform="rotate(0,90.71000000000001,377)"><g class="cursor-pointer" transform="translate(81,367)"><rect class="bg" x="0.5" y="0.5" width="19" height="19" style="stroke-width: 1px; stroke: rgb(0, 0, 0); stroke-opacity: 0; fill: rgb(0, 0, 0); fill-opacity: 0;"/><text class="annotation-text" text-anchor="middle" x="9.7890625" y="14.5" style="font-family: Arial; font-size: 14px; fill: rgb(0, 0, 0); fill-opacity: 1; white-space: pre;">31</text></g></g></g><g class="annotation" data-index="1" style="opacity: 1;"><g class="annotation-text-g" transform="rotate(0,108.71000000000001,377)"><g class="cursor-pointer" transform="translate(99,367)"><rect class="bg" x="0.5" y="0.5" width="19" height="19" style="stroke-width: 1px; stroke: rgb(0, 0, 0); stroke-opacity: 0; fill: rgb(0, 0, 0); fill-opacity: 0;"/><text class="annotation-text" text-anchor="middle" x="9.7890625" y="14.5" style="font-family: Arial; font-size: 14px; fill: rgb(0, 0, 0); fill-opacity: 1; white-space: pre;">31</text></g></g></g><g class="annotation" data-index="2" style="opacity: 1;"><g class="annotation-text-g" transform="rotate(0,126.71000000000001,377)"><g class="cursor-pointer" transform="translate(117,367)"><rect class="bg" x="0.5" y="0.5" width="19" height="19" style="stroke-width: 1px; stroke: rgb(0, 0, 0); stroke-opacity: 0; fill: rgb(0, 0, 0); fill-opacity: 0;"/><text class="annotation-text" text-anchor="middle" x="9.7890625" y="14.5" style="font-family: Arial; font-size: 14px; fill: rgb(0, 0, 0); fill-opacity: 1; white-space: pre;">31</text></g></g></g><g class="annotation" data-index="3" style="opacity: 1;"><g class="annotation-text-g" transform="rotate(0,164.14,358.09000000000003)"><g class="cursor-pointer" transform="translate(154,348)"><rect class="bg" x="0.5" y="0.5" width="19" height="19" style="stroke-width: 1px; stroke: rgb(0, 0, 0); stroke-opacity: 0; fill: rgb(0, 0, 0); fill-opacity: 0;"/><text class="annotation-text" text-anchor="middle" x="9.7890625" y="14.5" style="font-family: Arial; font-size: 14px; fill: rgb(0, 0, 0); fill-opacity: 1; white-space: pre;">44</text></g></g></g><g class="annotation" data-index="4" style="opacity: 1;"><g class="annotation-text-g" transform="rotate(0,182.14,356.63)"><g class="cursor-pointer" transform="translate(172,347)"><rect class="bg" x="0.5" y="0.5" width="19" height="19" style="stroke-width: 1px; stroke: rgb(0, 0, 0); stroke-opacity: 0; fill: rgb(0, 0, 0); fill-opacity: 0;"/><text class="annotation-text" text-anchor="middle" x="9.7890625" y="14.5" style="font-family: Arial; font-size: 14px; fill: rgb(0, 0, 0); fill-opacity: 1; white-space: pre;">45</text></g></g></g><g class="annotation" data-index="5" style="opacity: 1;"><g class="annotation-text-g" transform="rotate(0,200.14,353.72)"><g class="cursor-pointer" transform="translate(190,344)"><rect class="bg" x="0.5" y="0.5" width="19" height="19" style="stroke-width: 1px; stroke: rgb(0, 0, 0); stroke-opacity: 0; fill: rgb(0, 0, 0); fill-opacity: 0;"/><text class="annotation-text" text-anchor="middle" x="9.7890625" y="14.5" style="font-family: Arial; font-size: 14px; fill: rgb(0, 0, 0); fill-opacity: 1; white-space: pre;">47</text></g></g></g><g class="annotation" data-index="6" style="opacity: 1;"><g class="annotation-text-g" transform="rotate(0,237.57,327.53)"><g class="cursor-pointer" transform="translate(228,318)"><rect class="bg" x="0.5" y="0.5" width="19" height="19" style="stroke-width: 1px; stroke: rgb(0, 0, 0); stroke-opacity: 0; fill: rgb(0, 0, 0); fill-opacity: 0;"/><text class="annotation-text" text-anchor="middle" x="9.7890625" y="14.5" style="font-family: Arial; font-size: 14px; fill: rgb(0, 0, 0); fill-opacity: 1; white-space: pre;">65</text></g></g></g><g class="annotation" data-index="7" style="opacity: 1;"><g class="annotation-text-g" transform="rotate(0,255.57,324.62)"><g class="cursor-pointer" transform="translate(246,315)"><rect class="bg" x="0.5" y="0.5" width="19" height="19" style="stroke-width: 1px; stroke: rgb(0, 0, 0); stroke-opacity: 0; fill: rgb(0, 0, 0); fill-opacity: 0;"/><text class="annotation-text" text-anchor="middle" x="9.7890625" y="14.5" style="font-family: Arial; font-size: 14px; fill: rgb(0, 0, 0); fill-opacity: 1; white-space: pre;">67</text></g></g></g><g class="annotation" data-index="8" style="opacity: 1;"><g class="annotation-text-g" transform="rotate(0,273.57,315.89)"><g class="cursor-pointer" transform="translate(264,306)"><rect class="bg" x="0.5" y="0.5" width="19" height="19" style="stroke-width: 1px; stroke: rgb(0, 0, 0); stroke-opacity: 0; fill: rgb(0, 0, 0); fill-opacity: 0;"/><text class="annotation-text" text-anchor="middle" x="9.7890625" y="14.5" style="font-family: Arial; font-size: 14px; fill: rgb(0, 0, 0); fill-opacity: 1; white-space: pre;">73</text></g></g></g><g class="annotation" data-index="9" style="opacity: 1;"><g class="annotation-text-g" transform="rotate(0,311,291.15999999999997)"><g class="cursor-pointer" transform="translate(301,281)"><rect class="bg" x="0.5" y="0.5" width="19" height="19" style="stroke-width: 1px; stroke: rgb(0, 0, 0); stroke-opacity: 0; fill: rgb(0, 0, 0); fill-opacity: 0;"/><text class="annotation-text" text-anchor="middle" x="9.7890625" y="14.5" style="font-family: Arial; font-size: 14px; fill: rgb(0, 0, 0); fill-opacity: 1; white-space: pre;">90</text></g></g></g><g class="annotation" data-index="10" style="opacity: 1;"><g class="annotation-text-g" transform="rotate(0,329,285.34000000000003)"><g class="cursor-pointer" transform="translate(319,275)"><rect class="bg" x="0.5" y="0.5" width="19" height="19" style="stroke-width: 1px; stroke: rgb(0, 0, 0); stroke-opacity: 0; fill: rgb(0, 0, 0); fill-opacity: 0;"/><text class="annotation-text" text-anchor="middle" x="9.7890625" y="14.5" style="font-family: Arial; font-size: 14px; fill: rgb(0, 0, 0); fill-opacity: 1; white-space: pre;">94</text></g></g></g><g class="annotation" data-index="11" style="opacity: 1;"><g class="annotation-text-g" transform="rotate(0,350.5,270.78999999999996)"><g class="cursor-pointer" transform="translate(337,261)"><rect class="bg" x="0.5" y="0.5" width="26" height="19" style="stroke-width: 1px; stroke: rgb(0, 0, 0); stroke-opacity: 0; fill: rgb(0, 0, 0); fill-opacity: 0;"/><text class="annotation-text" text-anchor="middle" x="13.6796875" y="14.5" style="font-family: Arial; font-size: 14px; fill: rgb(0, 0, 0); fill-opacity: 1; white-space: pre;">104</text></g></g></g><g class="annotation" data-index="12" style="opacity: 1;"><g class="annotation-text-g" transform="rotate(0,381.43,262.06)"><g class="cursor-pointer" transform="translate(368,252)"><rect class="bg" x="0.5" y="0.5" width="25" height="19" style="stroke-width: 1px; stroke: rgb(0, 0, 0); stroke-opacity: 0; fill: rgb(0, 0, 0); fill-opacity: 0;"/><text class="annotation-text" text-anchor="middle" x="13.16015625" y="14.5" style="font-family: Arial; font-size: 14px; fill: rgb(0, 0, 0); fill-opacity: 1; white-space: pre;">110</text></g></g></g><g class="annotation" data-index="13" style="opacity: 1;"><g class="annotation-text-g" transform="rotate(0,402.43,247.51)"><g class="cursor-pointer" transform="translate(389,238)"><rect class="bg" x="0.5" y="0.5" width="26" height="19" style="stroke-width: 1px; stroke: rgb(0, 0, 0); stroke-opacity: 0; fill: rgb(0, 0, 0); fill-opacity: 0;"/><text class="annotation-text" text-anchor="middle" x="13.6796875" y="14.5" style="font-family: Arial; font-size: 14px; fill: rgb(0, 0, 0); fill-opacity: 1; white-space: pre;">120</text></g></g></g><g class="annotation" data-index="14" style="opacity: 1;"><g class="annotation-text-g" transform="rotate(0,423.93,244.6)"><g class="cursor-pointer" transform="translate(410,235)"><rect class="bg" x="0.5" y="0.5" width="26" height="19" style="stroke-width: 1px; stroke: rgb(0, 0, 0); stroke-opacity: 0; fill: rgb(0, 0, 0); fill-opacity: 0;"/><text class="annotation-text" text-anchor="middle" x="13.6796875" y="14.5" style="font-family: Arial; font-size: 14px; fill: rgb(0, 0, 0); fill-opacity: 1; white-space: pre;">122</text></g></g></g><g class="annotation" data-index="15" style="opacity: 1;"><g class="annotation-text-g" transform="rotate(0,454.36,218.41)"><g class="cursor-pointer" transform="translate(441,208)"><rect class="bg" x="0.5" y="0.5" width="26" height="19" style="stroke-width: 1px; stroke: rgb(0, 0, 0); stroke-opacity: 0; fill: rgb(0, 0, 0); fill-opacity: 0;"/><text class="annotation-text" text-anchor="middle" x="13.6796875" y="14.5" style="font-family: Arial; font-size: 14px; fill: rgb(0, 0, 0); fill-opacity: 1; white-space: pre;">140</text></g></g></g><g class="annotation" data-index="16" style="opacity: 1;"><g class="annotation-text-g" transform="rotate(0,475.86,209.68)"><g class="cursor-pointer" transform="translate(462,200)"><rect class="bg" x="0.5" y="0.5" width="26" height="19" style="stroke-width: 1px; stroke: rgb(0, 0, 0); stroke-opacity: 0; fill: rgb(0, 0, 0); fill-opacity: 0;"/><text class="annotation-text" text-anchor="middle" x="13.6796875" y="14.5" style="font-family: Arial; font-size: 14px; fill: rgb(0, 0, 0); fill-opacity: 1; white-space: pre;">146</text></g></g></g><g class="annotation" data-index="17" style="opacity: 1;"><g class="annotation-text-g" transform="rotate(0,497.36,206.76999999999998)"><g class="cursor-pointer" transform="translate(484,197)"><rect class="bg" x="0.5" y="0.5" width="26" height="19" style="stroke-width: 1px; stroke: rgb(0, 0, 0); stroke-opacity: 0; fill: rgb(0, 0, 0); fill-opacity: 0;"/><text class="annotation-text" text-anchor="middle" x="13.6796875" y="14.5" style="font-family: Arial; font-size: 14px; fill: rgb(0, 0, 0); fill-opacity: 1; white-space: pre;">148</text></g></g></g><g class="annotation" data-index="18" style="opacity: 1;"><g class="annotation-text-g" transform="rotate(0,527.79,208.22)"><g class="cursor-pointer" transform="translate(514,198)"><rect class="bg" x="0.5" y="0.5" width="26" height="19" style="stroke-width: 1px; stroke: rgb(0, 0, 0); stroke-opacity: 0; fill: rgb(0, 0, 0); fill-opacity: 0;"/><text class="annotation-text" text-anchor="middle" x="13.6796875" y="14.5" style="font-family: Arial; font-size: 14px; fill: rgb(0, 0, 0); fill-opacity: 1; white-space: pre;">147</text></g></g></g><g class="annotation" data-index="19" style="opacity: 1;"><g class="annotation-text-g" transform="rotate(0,549.29,208.22)"><g class="cursor-pointer" transform="translate(536,198)"><rect class="bg" x="0.5" y="0.5" width="26" height="19" style="stroke-width: 1px; stroke: rgb(0, 0, 0); stroke-opacity: 0; fill: rgb(0, 0, 0); fill-opacity: 0;"/><text class="annotation-text" text-anchor="middle" x="13.6796875" y="14.5" style="font-family: Arial; font-size: 14px; fill: rgb(0, 0, 0); fill-opacity: 1; white-space: pre;">147</text></g></g></g><g class="annotation" data-index="20" style="opacity: 1;"><g class="annotation-text-g" transform="rotate(0,570.79,195.86)"><g class="cursor-pointer" transform="translate(557,186)"><rect class="bg" x="0.5" y="0.5" width="26" height="19" style="stroke-width: 1px; stroke: rgb(0, 0, 0); stroke-opacity: 0; fill: rgb(0, 0, 0); fill-opacity: 0;"/><text class="annotation-text" text-anchor="middle" x="13.6796875" y="14.5" style="font-family: Arial; font-size: 14px; fill: rgb(0, 0, 0); fill-opacity: 1; white-space: pre;">156</text></g></g></g></g></svg>