<svg class="main-svg" xmlns="http://www.w3.org/2000/svg" xmlns:xlink="http://www.w3.org/1999/xlink" width="700" height="500" style="" viewBox="0 0 700 500"><rect x="0" y="0" width="700" height="500" style="fill: rgb(0, 0, 0); fill-opacity: 0;"/><defs id="defs-aef6f6"><g class="clips"><clipPath id="clipaef6f6xyplot" class="plotclip"><rect width="592" height="304"/></clipPath><clipPath class="axesclip" id="clipaef6f6x"><rect x="72" y="0" width="592" height="500"/></clipPath><clipPath class="axesclip" id="clipaef6f6y"><rect x="0" y="112" width="700" height="304"/></clipPath><clipPath class="axesclip" id="clipaef6f6xy"><rect x="72" y="112" width="592" height="304"/></clipPath></g><g class="gradients"/><g class="patterns"/></defs><g class="bglayer"><rect class="bg" x="72" y="112" width="592" height="304" style="fill: rgb(0, 0, 0); fill-opacity: 0; stroke-width: 0;"/></g><g class="layer-below"><g class="imagelayer"/><g class="shapelayer"/></g><g class="cartesianlayer"><g class="subplot xy"><g class="layer-subplot"><g class="shapelayer"/><g class="imagelayer"/></g><g class="minor-gridlayer"><g class="x"/><g class="y"/></g><g class="gridlayer"><g class="x"/><g class="y"/></g><g class="zerolinelayer"><path class="xzl zl crisp" transform="translate(97.74,0)" d="M0,112v304" style="stroke: rgb(0, 0, 0); stroke-opacity: 1; stroke-width: 2px;"/></g><g class="layer-between"><g class="shapelayer"/><g class="imagelayer"/></g><path class="xlines-below"/><path class="ylines-below"/><g class="overlines-below"/><g class="xaxislayer-below"/><g class="yaxislayer-below"/><g class="overaxes-below"/><g class="overplot"><g class="xy" transform="translate(72,112)" clip-path="url(#clipaef6f6xyplot)"><g class="scatterlayer mlayer"><g class="trace scatter traceb9ae4b" style="stroke-miterlimit: 2;"><g class="fills"><g><path class="js-fill" d="M34.6,279.2L43.46,264.42L52.32,266.11L61.18,255.31L70.04,251.18L78.91,264.42L87.77,263.03L96.63,249.41L105.49,252.49L114.35,250.15L123.21,243.56L140.93,254.2L149.79,247.98L158.65,233.05L167.52,243.56L176.38,252.14L185.24,234.71L194.1,231.25L202.96,234.71L211.82,235.52L220.68,232.75L229.54,224.06L238.4,248.16L247.26,240.69L256.13,217.83L264.99,224.26L273.85,227.94L282.71,225.01L291.57,210.68L300.43,243.56L309.29,205.18L318.15,240.69L327.01,225.6L335.87,222.54L344.74,202.1L353.6,206.26L362.46,233.11L371.32,216.47L380.18,222.73L389.04,214.53L397.9,215.19L406.76,240.69L415.62,200.83L424.48,206.46L433.35,233.49L442.21,195.72L451.07,200.59L459.93,198.52L468.79,191.37L477.65,196.29L486.51,181.19L495.37,164.75L504.23,197.5L513.09,136.29L521.96,168.53L530.82,102.03L539.68,124.15L548.54,124.96L557.4,100.15L557.4,62.42L548.54,124L539.68,104.5L530.82,63.06L521.96,146.95L513.09,132.58L504.23,189.51L495.37,157.18L486.51,176.43L477.65,175.71L468.79,185.56L459.93,190L451.07,197.73L442.21,194.93L433.35,214.5L415.62,196.08L406.76,238.97L397.9,207.96L389.04,207.59L380.18,216.24L371.32,205.55L362.46,214.45L353.6,204.11L344.74,189.48L335.87,211.87L327.01,217.35L318.15,238.97L309.29,201.07L300.43,224.55L291.57,204.74L282.71,215.41L273.85,227.58L264.99,215.51L256.13,211.34L247.26,238.97L238.4,244.35L229.54,217.86L220.68,232.1L211.82,232.63L202.96,229.03L194.1,229.73L185.24,229.03L176.38,243.82L167.52,224.55L158.65,232.17L149.79,245.91L140.93,246.61L123.21,224.55L114.35,248.79L105.49,247.66L96.63,239.73L87.77,259.84L78.91,254.5L70.04,246.17L61.18,250.47L52.32,258.8L43.46,254.5L34.6,278.88Z" style="fill: rgb(127, 147, 166); fill-opacity: 0.22; stroke-width: 0;"/></g></g><g class="errorbars"/><g class="lines"><path class="js-line" d="M34.6,278.88L43.46,254.5L52.32,258.8L61.18,250.47L70.04,246.17L78.91,254.5L87.77,259.84L96.63,239.73L105.49,247.66L114.35,248.79L123.21,224.55L140.93,246.61L149.79,245.91L158.65,232.17L167.52,224.55L176.38,243.82L185.24,229.03L194.1,229.73L202.96,229.03L211.82,232.63L220.68,232.1L229.54,217.86L238.4,244.35L247.26,238.97L256.13,211.34L264.99,215.51L273.85,227.58L282.71,215.41L291.57,204.74L300.43,224.55L309.29,201.07L318.15,238.97L327.01,217.35L335.87,211.87L344.74,189.48L353.6,204.11L362.46,214.45L371.32,205.55L380.18,216.24L389.04,207.59L397.9,207.96L406.76,238.97L415.62,196.08L433.35,214.5L442.21,194.93L451.07,197.73L459.93,190L468.79,185.56L477.65,175.71L486.51,176.43L495.37,157.18L504.23,189.51L513.09,132.58L521.96,146.95L530.82,63.06L539.68,104.5L548.54,124L557.4,62.42" style="vector-effect: none; fill: none; stroke: rgb(127, 147, 166); stroke-opacity: 0; stroke-width: 0.5px; opacity: 1;"/></g><g class="points"/><g class="text"/></g><g class="trace scatter tracecea9e9" style="stroke-miterlimit: 2;"><g class="fills"/><g class="errorbars"/><g class="lines"><path class="js-line" d="M34.6,279.2L43.46,264.42L52.32,266.11L61.18,255.31L70.04,251.18L78.91,264.42L87.77,263.03L96.63,249.41L105.49,252.49L114.35,250.15L123.21,243.56L140.93,254.2L149.79,247.98L158.65,233.05L167.52,243.56L176.38,252.14L185.24,234.71L194.1,231.25L202.96,234.71L211.82,235.52L220.68,232.75L229.54,224.06L238.4,248.16L247.26,240.69L256.13,217.83L264.99,224.26L273.85,227.94L282.71,225.01L291.57,210.68L300.43,243.56L309.29,205.18L318.15,240.69L327.01,225.6L335.87,222.54L344.74,202.1L353.6,206.26L362.46,233.11L371.32,216.47L380.18,222.73L389.04,214.53L397.9,215.19L406.76,240.69L415.62,200.83L424.48,206.46L433.35,233.49L442.21,195.72L451.07,200.59L459.93,198.52L468.79,191.37L477.65,196.29L486.51,181.19L495.37,164.75L504.23,197.5L513.09,136.29L521.96,168.53L530.82,102.03L539.68,124.15L548.54,124.96L557.4,100.15" style="vector-effect: none; fill: none; stroke: rgb(127, 147, 166); stroke-opacity: 0; stroke-width: 0.5px; opacity: 1;"/></g><g class="points"/><g class="text"/></g><g class="trace scatter traced36edb" style="stroke-miterlimit: 2; opacity: 1;"><g class="fills"/><g class="errorbars"/><g class="lines"/><g class="points"><path class="point" transform="translate(52.32,261.01)" d="M4,0A4,4 0 1,1 0,-4A4,4 0 0,1 4,0Z" style="opacity: 1; stroke-width: 1px; fill: rgb(123, 143, 121); fill-opacity: 1; stroke: rgb(123, 143, 121); stroke-opacity: 1;"/><path class="point" transform="translate(78.91,255.31)" d="M4,0A4,4 0 1,1 0,-4A4,4 0 0,1 4,0Z" style="opacity: 1; stroke-width: 1px; fill: rgb(123, 143, 121); fill-opacity: 1; stroke: rgb(123, 143, 121); stroke-opacity: 1;"/><path class="point" transform="translate(105.49,250.81)" d="M4,0A4,4 0 1,1 0,-4A4,4 0 0,1 4,0Z" style="opacity: 1; stroke-width: 1px; fill: rgb(123, 143, 121); fill-opacity: 1; stroke: rgb(123, 143, 121); stroke-opacity: 1;"/><path class="point" transform="translate(114.35,249.91)" d="M4,0A4,4 0 1,1 0,-4A4,4 0 0,1 4,0Z" style="opacity: 1; stroke-width: 1px; fill: rgb(123, 143, 121); fill-opacity: 1; stroke: rgb(123, 143, 121); stroke-opacity: 1;"/><path class="point" transform="translate(132.07,246.91)" d="M4,0A4,4 0 1,1 0,-4A4,4 0 0,1 4,0Z" style="opacity: 1; stroke-width: 1px; fill: rgb(123, 143, 121); fill-opacity: 1; stroke: rgb(123, 143, 121); stroke-opacity: 1;"/><path class="point" transform="translate(167.52,241.21)" d="M4,0A4,4 0 1,1 0,-4A4,4 0 0,1 4,0Z" style="opacity: 1; stroke-width: 1px; fill: rgb(123, 143, 121); fill-opacity: 1; stroke: rgb(123, 143, 121); stroke-opacity: 1;"/><path class="point" transform="translate(202.96,234.31)" d="M4,0A4,4 0 1,1 0,-4A4,4 0 0,1 4,0Z" style="opacity: 1; stroke-width: 1px; fill: rgb(123, 143, 121); fill-opacity: 1; stroke: rgb(123, 143, 121); stroke-opacity: 1;"/><path class="point" transform="translate(211.82,232.81)" d="M4,0A4,4 0 1,1 0,-4A4,4 0 0,1 4,0Z" style="opacity: 1; stroke-width: 1px; fill: rgb(123, 143, 121); fill-opacity: 1; stroke: rgb(123, 143, 121); stroke-opacity: 1;"/><path class="point" transform="translate(220.68,232.36)" d="M4,0A4,4 0 1,1 0,-4A4,4 0 0,1 4,0Z" style="opacity: 1; stroke-width: 1px; fill: rgb(123, 143, 121); fill-opacity: 1; stroke: rgb(123, 143, 121); stroke-opacity: 1;"/><path class="point" transform="translate(282.71,222.32)" d="M4,0A4,4 0 1,1 0,-4A4,4 0 0,1 4,0Z" style="opacity: 1; stroke-width: 1px; fill: rgb(123, 143, 121); fill-opacity: 1; stroke: rgb(123, 143, 121); stroke-opacity: 1;"/><path class="point" transform="translate(335.87,214.22)" d="M4,0A4,4 0 1,1 0,-4A4,4 0 0,1 4,0Z" style="opacity: 1; stroke-width: 1px; fill: rgb(123, 143, 121); fill-opacity: 1; stroke: rgb(123, 143, 121); stroke-opacity: 1;"/><path class="point" transform="translate(371.32,208.82)" d="M4,0A4,4 0 1,1 0,-4A4,4 0 0,1 4,0Z" style="opacity: 1; stroke-width: 1px; fill: rgb(123, 143, 121); fill-opacity: 1; stroke: rgb(123, 143, 121); stroke-opacity: 1;"/><path class="point" transform="translate(415.62,198.32)" d="M4,0A4,4 0 1,1 0,-4A4,4 0 0,1 4,0Z" style="opacity: 1; stroke-width: 1px; fill: rgb(123, 143, 121); fill-opacity: 1; stroke: rgb(123, 143, 121); stroke-opacity: 1;"/><path class="point" transform="translate(477.65,176.43)" d="M4,0A4,4 0 1,1 0,-4A4,4 0 0,1 4,0Z" style="opacity: 1; stroke-width: 1px; fill: rgb(123, 143, 121); fill-opacity: 1; stroke: rgb(123, 143, 121); stroke-opacity: 1;"/></g><g class="text"/></g><g class="trace scatter trace5c49ab" style="stroke-miterlimit: 2; opacity: 1;"><g class="fills"/><g class="errorbars"/><g class="lines"/><g class="points"><path class="point" transform="translate(34.6,283.8)" d="M5.2,0L0,5.2L-5.2,0L0,-5.2Z" style="opacity: 1; stroke-width: 1px; fill: rgb(207, 134, 75); fill-opacity: 1; stroke: rgb(207, 134, 75); stroke-opacity: 1;"/><path class="point" transform="translate(43.46,264.6)" d="M5.2,0L0,5.2L-5.2,0L0,-5.2Z" style="opacity: 1; stroke-width: 1px; fill: rgb(207, 134, 75); fill-opacity: 1; stroke: rgb(207, 134, 75); stroke-opacity: 1;"/><path class="point" transform="translate(61.18,258.31)" d="M5.2,0L0,5.2L-5.2,0L0,-5.2Z" style="opacity: 1; stroke-width: 1px; fill: rgb(207, 134, 75); fill-opacity: 1; stroke: rgb(207, 134, 75); stroke-opacity: 1;"/><path class="point" transform="translate(70.04,256.81)" d="M5.2,0L0,5.2L-5.2,0L0,-5.2Z" style="opacity: 1; stroke-width: 1px; fill: rgb(207, 134, 75); fill-opacity: 1; stroke: rgb(207, 134, 75); stroke-opacity: 1;"/><path class="point" transform="translate(87.77,253.81)" d="M5.2,0L0,5.2L-5.2,0L0,-5.2Z" style="opacity: 1; stroke-width: 1px; fill: rgb(207, 134, 75); fill-opacity: 1; stroke: rgb(207, 134, 75); stroke-opacity: 1;"/><path class="point" transform="translate(96.63,252.31)" d="M5.2,0L0,5.2L-5.2,0L0,-5.2Z" style="opacity: 1; stroke-width: 1px; fill: rgb(207, 134, 75); fill-opacity: 1; stroke: rgb(207, 134, 75); stroke-opacity: 1;"/><path class="point" transform="translate(123.21,248.41)" d="M5.2,0L0,5.2L-5.2,0L0,-5.2Z" style="opacity: 1; stroke-width: 1px; fill: rgb(207, 134, 75); fill-opacity: 1; stroke: rgb(207, 134, 75); stroke-opacity: 1;"/><path class="point" transform="translate(140.93,245.41)" d="M5.2,0L0,5.2L-5.2,0L0,-5.2Z" style="opacity: 1; stroke-width: 1px; fill: rgb(207, 134, 75); fill-opacity: 1; stroke: rgb(207, 134, 75); stroke-opacity: 1;"/><path class="point" transform="translate(149.79,244.21)" d="M5.2,0L0,5.2L-5.2,0L0,-5.2Z" style="opacity: 1; stroke-width: 1px; fill: rgb(207, 134, 75); fill-opacity: 1; stroke: rgb(207, 134, 75); stroke-opacity: 1;"/><path class="point" transform="translate(158.65,243.01)" d="M5.2,0L0,5.2L-5.2,0L0,-5.2Z" style="opacity: 1; stroke-width: 1px; fill: rgb(207, 134, 75); fill-opacity: 1; stroke: rgb(207, 134, 75); stroke-opacity: 1;"/><path class="point" transform="translate(176.38,239.17)" d="M5.2,0L0,5.2L-5.2,0L0,-5.2Z" style="opacity: 1; stroke-width: 1px; fill: rgb(207, 134, 75); fill-opacity: 1; stroke: rgb(207, 134, 75); stroke-opacity: 1;"/><path class="point" transform="translate(185.24,237.31)" d="M5.2,0L0,5.2L-5.2,0L0,-5.2Z" style="opacity: 1; stroke-width: 1px; fill: rgb(207, 134, 75); fill-opacity: 1; stroke: rgb(207, 134, 75); stroke-opacity: 1;"/><path class="point" transform="translate(194.1,235.81)" d="M5.2,0L0,5.2L-5.2,0L0,-5.2Z" style="opacity: 1; stroke-width: 1px; fill: rgb(207, 134, 75); fill-opacity: 1; stroke: rgb(207, 134, 75); stroke-opacity: 1;"/><path class="point" transform="translate(229.54,231.01)" d="M5.2,0L0,5.2L-5.2,0L0,-5.2Z" style="opacity: 1; stroke-width: 1px; fill: rgb(207, 134, 75); fill-opacity: 1; stroke: rgb(207, 134, 75); stroke-opacity: 1;"/><path class="point" transform="translate(238.4,229.81)" d="M5.2,0L0,5.2L-5.2,0L0,-5.2Z" style="opacity: 1; stroke-width: 1px; fill: rgb(207, 134, 75); fill-opacity: 1; stroke: rgb(207, 134, 75); stroke-opacity: 1;"/><path class="point" transform="translate(247.26,228.31)" d="M5.2,0L0,5.2L-5.2,0L0,-5.2Z" style="opacity: 1; stroke-width: 1px; fill: rgb(207, 134, 75); fill-opacity: 1; stroke: rgb(207, 134, 75); stroke-opacity: 1;"/><path class="point" transform="translate(256.13,226.81)" d="M5.2,0L0,5.2L-5.2,0L0,-5.2Z" style="opacity: 1; stroke-width: 1px; fill: rgb(207, 134, 75); fill-opacity: 1; stroke: rgb(207, 134, 75); stroke-opacity: 1;"/><path class="point" transform="translate(264.99,225.31)" d="M5.2,0L0,5.2L-5.2,0L0,-5.2Z" style="opacity: 1; stroke-width: 1px; fill: rgb(207, 134, 75); fill-opacity: 1; stroke: rgb(207, 134, 75); stroke-opacity: 1;"/><path class="point" transform="translate(273.85,223.82)" d="M5.2,0L0,5.2L-5.2,0L0,-5.2Z" style="opacity: 1; stroke-width: 1px; fill: rgb(207, 134, 75); fill-opacity: 1; stroke: rgb(207, 134, 75); stroke-opacity: 1;"/><path class="point" transform="translate(291.57,220.82)" d="M5.2,0L0,5.2L-5.2,0L0,-5.2Z" style="opacity: 1; stroke-width: 1px; fill: rgb(207, 134, 75); fill-opacity: 1; stroke: rgb(207, 134, 75); stroke-opacity: 1;"/><path class="point" transform="translate(300.43,220.07)" d="M5.2,0L0,5.2L-5.2,0L0,-5.2Z" style="opacity: 1; stroke-width: 1px; fill: rgb(207, 134, 75); fill-opacity: 1; stroke: rgb(207, 134, 75); stroke-opacity: 1;"/><path class="point" transform="translate(309.29,218.42)" d="M5.2,0L0,5.2L-5.2,0L0,-5.2Z" style="opacity: 1; stroke-width: 1px; fill: rgb(207, 134, 75); fill-opacity: 1; stroke: rgb(207, 134, 75); stroke-opacity: 1;"/><path class="point" transform="translate(318.15,217.22)" d="M5.2,0L0,5.2L-5.2,0L0,-5.2Z" style="opacity: 1; stroke-width: 1px; fill: rgb(207, 134, 75); fill-opacity: 1; stroke: rgb(207, 134, 75); stroke-opacity: 1;"/><path class="point" transform="translate(327.01,215.42)" d="M5.2,0L0,5.2L-5.2,0L0,-5.2Z" style="opacity: 1; stroke-width: 1px; fill: rgb(207, 134, 75); fill-opacity: 1; stroke: rgb(207, 134, 75); stroke-opacity: 1;"/><path class="point" transform="translate(344.74,212.42)" d="M5.2,0L0,5.2L-5.2,0L0,-5.2Z" style="opacity: 1; stroke-width: 1px; fill: rgb(207, 134, 75); fill-opacity: 1; stroke: rgb(207, 134, 75); stroke-opacity: 1;"/><path class="point" transform="translate(353.6,211.82)" d="M5.2,0L0,5.2L-5.2,0L0,-5.2Z" style="opacity: 1; stroke-width: 1px; fill: rgb(207, 134, 75); fill-opacity: 1; stroke: rgb(207, 134, 75); stroke-opacity: 1;"/><path class="point" transform="translate(362.46,210.32)" d="M5.2,0L0,5.2L-5.2,0L0,-5.2Z" style="opacity: 1; stroke-width: 1px; fill: rgb(207, 134, 75); fill-opacity: 1; stroke: rgb(207, 134, 75); stroke-opacity: 1;"/><path class="point" transform="translate(380.18,207.32)" d="M5.2,0L0,5.2L-5.2,0L0,-5.2Z" style="opacity: 1; stroke-width: 1px; fill: rgb(207, 134, 75); fill-opacity: 1; stroke: rgb(207, 134, 75); stroke-opacity: 1;"/><path class="point" transform="translate(389.04,205.82)" d="M5.2,0L0,5.2L-5.2,0L0,-5.2Z" style="opacity: 1; stroke-width: 1px; fill: rgb(207, 134, 75); fill-opacity: 1; stroke: rgb(207, 134, 75); stroke-opacity: 1;"/><path class="point" transform="translate(397.9,203.42)" d="M5.2,0L0,5.2L-5.2,0L0,-5.2Z" style="opacity: 1; stroke-width: 1px; fill: rgb(207, 134, 75); fill-opacity: 1; stroke: rgb(207, 134, 75); stroke-opacity: 1;"/><path class="point" transform="translate(406.76,201.32)" d="M5.2,0L0,5.2L-5.2,0L0,-5.2Z" style="opacity: 1; stroke-width: 1px; fill: rgb(207, 134, 75); fill-opacity: 1; stroke: rgb(207, 134, 75); stroke-opacity: 1;"/><path class="point" transform="translate(424.48,196.82)" d="M5.2,0L0,5.2L-5.2,0L0,-5.2Z" style="opacity: 1; stroke-width: 1px; fill: rgb(207, 134, 75); fill-opacity: 1; stroke: rgb(207, 134, 75); stroke-opacity: 1;"/><path class="point" transform="translate(433.35,193.82)" d="M5.2,0L0,5.2L-5.2,0L0,-5.2Z" style="opacity: 1; stroke-width: 1px; fill: rgb(207, 134, 75); fill-opacity: 1; stroke: rgb(207, 134, 75); stroke-opacity: 1;"/><path class="point" transform="translate(442.21,190.82)" d="M5.2,0L0,5.2L-5.2,0L0,-5.2Z" style="opacity: 1; stroke-width: 1px; fill: rgb(207, 134, 75); fill-opacity: 1; stroke: rgb(207, 134, 75); stroke-opacity: 1;"/><path class="point" transform="translate(451.07,188.12)" d="M5.2,0L0,5.2L-5.2,0L0,-5.2Z" style="opacity: 1; stroke-width: 1px; fill: rgb(207, 134, 75); fill-opacity: 1; stroke: rgb(207, 134, 75); stroke-opacity: 1;"/><path class="point" transform="translate(459.93,184.82)" d="M5.2,0L0,5.2L-5.2,0L0,-5.2Z" style="opacity: 1; stroke-width: 1px; fill: rgb(207, 134, 75); fill-opacity: 1; stroke: rgb(207, 134, 75); stroke-opacity: 1;"/><path class="point" transform="translate(468.79,181.83)" d="M5.2,0L0,5.2L-5.2,0L0,-5.2Z" style="opacity: 1; stroke-width: 1px; fill: rgb(207, 134, 75); fill-opacity: 1; stroke: rgb(207, 134, 75); stroke-opacity: 1;"/><path class="point" transform="translate(486.51,171.33)" d="M5.2,0L0,5.2L-5.2,0L0,-5.2Z" style="opacity: 1; stroke-width: 1px; fill: rgb(207, 134, 75); fill-opacity: 1; stroke: rgb(207, 134, 75); stroke-opacity: 1;"/><path class="point" transform="translate(495.37,166.83)" d="M5.2,0L0,5.2L-5.2,0L0,-5.2Z" style="opacity: 1; stroke-width: 1px; fill: rgb(207, 134, 75); fill-opacity: 1; stroke: rgb(207, 134, 75); stroke-opacity: 1;"/><path class="point" transform="translate(504.23,159.93)" d="M5.2,0L0,5.2L-5.2,0L0,-5.2Z" style="opacity: 1; stroke-width: 1px; fill: rgb(207, 134, 75); fill-opacity: 1; stroke: rgb(207, 134, 75); stroke-opacity: 1;"/><path class="point" transform="translate(513.09,151.83)" d="M5.2,0L0,5.2L-5.2,0L0,-5.2Z" style="opacity: 1; stroke-width: 1px; fill: rgb(207, 134, 75); fill-opacity: 1; stroke: rgb(207, 134, 75); stroke-opacity: 1;"/><path class="point" transform="translate(521.96,144.34)" d="M5.2,0L0,5.2L-5.2,0L0,-5.2Z" style="opacity: 1; stroke-width: 1px; fill: rgb(207, 134, 75); fill-opacity: 1; stroke: rgb(207, 134, 75); stroke-opacity: 1;"/><path class="point" transform="translate(530.82,136.84)" d="M5.2,0L0,5.2L-5.2,0L0,-5.2Z" style="opacity: 1; stroke-width: 1px; fill: rgb(207, 134, 75); fill-opacity: 1; stroke: rgb(207, 134, 75); stroke-opacity: 1;"/><path class="point" transform="translate(539.68,127.84)" d="M5.2,0L0,5.2L-5.2,0L0,-5.2Z" style="opacity: 1; stroke-width: 1px; fill: rgb(207, 134, 75); fill-opacity: 1; stroke: rgb(207, 134, 75); stroke-opacity: 1;"/><path class="point" transform="translate(548.54,106.84)" d="M5.2,0L0,5.2L-5.2,0L0,-5.2Z" style="opacity: 1; stroke-width: 1px; fill: rgb(207, 134, 75); fill-opacity: 1; stroke: rgb(207, 134, 75); stroke-opacity: 1;"/><path class="point" transform="translate(557.4,20.2)" d="M5.2,0L0,5.2L-5.2,0L0,-5.2Z" style="opacity: 1; stroke-width: 1px; fill: rgb(207, 134, 75); fill-opacity: 1; stroke: rgb(207, 134, 75); stroke-opacity: 1;"/></g><g class="text"/></g></g></g></g><g class="zerolinelayer-above"/><path class="xlines-above crisp" d="M71,416.5H664" style="fill: none; stroke-width: 1px; stroke: rgb(0, 0, 0); stroke-opacity: 1;"/><path class="ylines-above crisp" d="M71.5,112V416" style="fill: none; stroke-width: 1px; stroke: rgb(0, 0, 0); stroke-opacity: 1;"/><g class="overlines-above"/><g class="xaxislayer-above"><g class="xtick"><text text-anchor="middle" x="0" y="436.2" transform="translate(97.74,0)" style="font-family: Arial; font-size: 16px; fill: rgb(0, 0, 0); fill-opacity: 1; white-space: pre;">0</text></g><g class="xtick"><text text-anchor="middle" x="0" y="436.2" style="font-family: Arial; font-size: 16px; fill: rgb(0, 0, 0); fill-opacity: 1; white-space: pre;" transform="translate(186.35,0)">10</text></g><g class="xtick"><text text-anchor="middle" x="0" y="436.2" style="font-family: Arial; font-size: 16px; fill: rgb(0, 0, 0); fill-opacity: 1; white-space: pre;" transform="translate(274.96000000000004,0)">20</text></g><g class="xtick"><text text-anchor="middle" x="0" y="436.2" style="font-family: Arial; font-size: 16px; fill: rgb(0, 0, 0); fill-opacity: 1; white-space: pre;" transform="translate(363.57,0)">30</text></g><g class="xtick"><text text-anchor="middle" x="0" y="436.2" style="font-family: Arial; font-size: 16px; fill: rgb(0, 0, 0); fill-opacity: 1; white-space: pre;" transform="translate(452.18,0)">40</text></g><g class="xtick"><text text-anchor="middle" x="0" y="436.2" style="font-family: Arial; font-size: 16px; fill: rgb(0, 0, 0); fill-opacity: 1; white-space: pre;" transform="translate(540.79,0)">50</text></g><g class="xtick"><text text-anchor="middle" x="0" y="436.2" style="font-family: Arial; font-size: 16px; fill: rgb(0, 0, 0); fill-opacity: 1; white-space: pre;" transform="translate(629.4,0)">60</text></g></g><g class="yaxislayer-above"><g class="ytick"><text text-anchor="end" x="67.8" y="5.6" transform="translate(0,398.8)" style="font-family: Arial; font-size: 16px; fill: rgb(0, 0, 0); fill-opacity: 1; white-space: pre;">0.2M</text></g><g class="ytick"><text text-anchor="end" x="67.8" y="5.6" style="font-family: Arial; font-size: 16px; fill: rgb(0, 0, 0); fill-opacity: 1; white-space: pre;" transform="translate(0,338.81)">0.4M</text></g><g class="ytick"><text text-anchor="end" x="67.8" y="5.6" style="font-family: Arial; font-size: 16px; fill: rgb(0, 0, 0); fill-opacity: 1; white-space: pre;" transform="translate(0,278.83000000000004)">0.6M</text></g><g class="ytick"><text text-anchor="end" x="67.8" y="5.6" style="font-family: Arial; font-size: 16px; fill: rgb(0, 0, 0); fill-opacity: 1; white-space: pre;" transform="translate(0,218.84)">0.8M</text></g><g class="ytick"><text text-anchor="end" x="67.8" y="5.6" style="font-family: Arial; font-size: 16px; fill: rgb(0, 0, 0); fill-opacity: 1; white-space: pre;" transform="translate(0,158.86)">1M</text></g></g><g class="overaxes-above"/></g></g><g class="polarlayer"/><g class="smithlayer"/><g class="ternarylayer"/><g class="geolayer"/><g class="funnelarealayer"/><g class="pielayer"/><g class="iciclelayer"/><g class="treemaplayer"/><g class="sunburstlayer"/><g class="glimages"/><defs id="topdefs-aef6f6"><g class="clips"/><clipPath id="legendaef6f6"><rect width="492" height="33" x="0" y="0"/></clipPath></defs><g class="layer-above"><g class="imagelayer"/><g class="shapelayer"/></g><g class="infolayer"><g class="legend" pointer-events="all" transform="translate(172,72.91999999999999)"><rect class="bg" shape-rendering="crispEdges" style="stroke: rgb(0, 0, 0); stroke-opacity: 0; fill: rgb(0, 0, 0); fill-opacity: 0; stroke-width: 0px;" width="492" height="33" x="0" y="0"/><g class="scrollbox" transform="" clip-path="url(#legendaef6f6)"><g class="groups"><g class="traces" transform="translate(0,16.25)" style="opacity: 1;"><text class="legendtext" text-anchor="start" x="40" y="5.85" style="font-family: Arial; font-size: 15px; fill: rgb(0, 0, 0); fill-opacity: 1; white-space: pre;">Actual out of Range</text><g class="layers" style="opacity: 1;"><g class="legendfill"/><g class="legendlines"/><g class="legendsymbols"><g class="legendpoints"><path class="scatterpts" transform="translate(20,0)" d="M5.2,0L0,5.2L-5.2,0L0,-5.2Z" style="opacity: 1; stroke-width: 1px; fill: rgb(207, 134, 75); fill-opacity: 1; stroke: rgb(207, 134, 75); stroke-opacity: 1;"/></g></g></g><rect class="legendtoggle" x="0" y="-11.25" width="174.279296875" height="22.5" style="fill: rgb(0, 0, 0); fill-opacity: 0;"/></g><g class="traces" transform="translate(176.779296875,16.25)" style="opacity: 1;"><text class="legendtext" text-anchor="start" x="40" y="5.85" style="font-family: Arial; font-size: 15px; fill: rgb(0, 0, 0); fill-opacity: 1; white-space: pre;">Actual in Range</text><g class="layers" style="opacity: 1;"><g class="legendfill"/><g class="legendlines"/><g class="legendsymbols"><g class="legendpoints"><path class="scatterpts" transform="translate(20,0)" d="M4,0A4,4 0 1,1 0,-4A4,4 0 0,1 4,0Z" style="opacity: 1; stroke-width: 1px; fill: rgb(123, 143, 121); fill-opacity: 1; stroke: rgb(123, 143, 121); stroke-opacity: 1;"/></g></g></g><rect class="legendtoggle" x="0" y="-11.25" width="148.427734375" height="22.5" style="fill: rgb(0, 0, 0); fill-opacity: 0;"/></g><g class="traces" transform="translate(327.70703125,16.25)" style="opacity: 1;"><text class="legendtext" text-anchor="start" x="40" y="5.85" style="font-family: Arial; font-size: 15px; fill: rgb(0, 0, 0); fill-opacity: 1; white-space: pre;">p25 to p75 Range</text><g class="layers"><g class="legendfill"><path class="js-fill" d="M5,-2h30v6h-30z" style="stroke-width: 0; fill: rgb(127, 147, 166); fill-opacity: 0.22;"/></g><g class="legendlines"><path class="js-line" d="M5,-2h30" style="fill: none; stroke: rgb(127, 147, 166); stroke-opacity: 0; stroke-width: 0.5px;"/></g><g class="legendsymbols"><g class="legendpoints"/></g></g><rect class="legendtoggle" x="0" y="-11.25" width="161.7734375" height="22.5" style="fill: rgb(0, 0, 0); fill-opacity: 0;"/></g></g></g><rect class="scrollbar" rx="20" ry="3" width="0" height="0" style="fill: rgb(128, 139, 164); fill-opacity: 1;" x="0" y="0"/></g><g class="g-gtitle"/><g class="g-xtitle"/><g class="g-ytitle"/><g class="annotation" data-index="0" style="opacity: 1;"><g class="annotation-text-g" transform="rotate(0,297.92,86.01999999999998)"><g class="cursor-pointer" transform="translate(78,76)"><rect class="bg" x="0.5" y="0.5" width="439" height="20" style="stroke-width: 1px; stroke: rgb(0, 0, 0); stroke-opacity: 0; fill: rgb(0, 0, 0); fill-opacity: 0;"/><text class="annotation-text" text-anchor="middle" x="220.0390625" y="15.5" style="font-family: Arial; font-size: 15px; fill: rgb(0, 0, 0); fill-opacity: 1; white-space: pre;">Coverage: 29.2% | Avg width: SGD 29K | Median width: SGD 23K</text></g></g></g></g></svg>