<svg class="main-svg" xmlns="http://www.w3.org/2000/svg" xmlns:xlink="http://www.w3.org/1999/xlink" width="700" height="500" style="" viewBox="0 0 700 500"><rect x="0" y="0" width="700" height="500" style="fill: rgb(0, 0, 0); fill-opacity: 0;"/><defs id="defs-5bd75a"><g class="clips"><clipPath id="clip5bd75axyplot" class="plotclip"><rect width="542" height="326"/></clipPath><clipPath class="axesclip" id="clip5bd75ax"><rect x="72" y="0" width="542" height="500"/></clipPath><clipPath class="axesclip" id="clip5bd75ay"><rect x="0" y="80" width="700" height="326"/></clipPath><clipPath class="axesclip" id="clip5bd75axy"><rect x="72" y="80" width="542" height="326"/></clipPath></g><g class="gradients"/><g class="patterns"/></defs><g class="bglayer"><rect class="bg" x="72" y="80" width="542" height="326" style="fill: rgb(0, 0, 0); fill-opacity: 0; stroke-width: 0;"/></g><g class="layer-below"><g class="imagelayer"/><g class="shapelayer"/></g><g class="cartesianlayer"><g class="subplot xy"><g class="layer-subplot"><g class="shapelayer"/><g class="imagelayer"/></g><g class="minor-gridlayer"><g class="x"/><g class="y"/></g><g class="gridlayer"><g class="x"/><g class="y"/></g><g class="zerolinelayer"/><g class="layer-between"><g class="shapelayer"/><g class="imagelayer"/></g><path class="xlines-below"/><path class="ylines-below"/><g class="overlines-below"/><g class="xaxislayer-below"/><g class="yaxislayer-below"/><g class="overaxes-below"/><g class="overplot"><g class="xy" transform="translate(72,80)" clip-path="url(#clip5bd75axyplot)"><g class="boxlayer mlayer"><g class="trace boxes" style="opacity: 1;"><path class="box" d="M19.74,300H57.68M19.74,300H57.68V300H19.74ZM38.71,300V300M38.71,300V300M25.44,300H51.99M25.44,300H51.99" style="vector-effect: none; stroke-width: 1.6px; stroke: rgb(127, 147, 166); stroke-opacity: 1; fill: rgb(127, 147, 166); fill-opacity: 0.35;"/><path class="box" d="M97.17,275.33H135.11M97.17,277.09H135.11V271.81H97.17ZM116.14,277.09V294.71M116.14,271.81V255.95M102.86,294.71H129.42M102.86,255.95H129.42" style="vector-effect: none; stroke-width: 1.6px; stroke: rgb(127, 147, 166); stroke-opacity: 1; fill: rgb(127, 147, 166); fill-opacity: 0.35;"/><path class="box" d="M174.6,236.56H212.54M174.6,240.09H212.54V225.99H174.6ZM193.57,240.09V268.28M193.57,225.99V113.22M180.29,268.28H206.85M180.29,113.22H206.85" style="vector-effect: none; stroke-width: 1.6px; stroke: rgb(127, 147, 166); stroke-opacity: 1; fill: rgb(127, 147, 166); fill-opacity: 0.35;"/><path class="box" d="M252.03,188.99H289.97M252.03,196.04H289.97V171.37H252.03ZM271,196.04V224.23M271,171.37V114.98M257.72,224.23H284.28M257.72,114.98H284.28" style="vector-effect: none; stroke-width: 1.6px; stroke: rgb(127, 147, 166); stroke-opacity: 1; fill: rgb(127, 147, 166); fill-opacity: 0.35;"/><path class="box" d="M329.46,143.17H367.4M329.46,160.79H367.4V139.65H329.46ZM348.43,160.79V171.37M348.43,139.65V88.55M335.15,171.37H361.71M335.15,88.55H361.71" style="vector-effect: none; stroke-width: 1.6px; stroke: rgb(127, 147, 166); stroke-opacity: 1; fill: rgb(127, 147, 166); fill-opacity: 0.35;"/><path class="box" d="M406.89,97.36H444.83M406.89,107.93H444.83V93.83H406.89ZM425.86,107.93V134.36M425.86,93.83V16.3M412.58,134.36H439.14M412.58,16.3H439.14" style="vector-effect: none; stroke-width: 1.6px; stroke: rgb(127, 147, 166); stroke-opacity: 1; fill: rgb(127, 147, 166); fill-opacity: 0.35;"/><path class="box" d="M484.32,94.6H522.26M484.32,95.6H522.26V80.62H484.32ZM503.29,95.6V95.6M503.29,80.62V65.64M490.01,95.6H516.56M490.01,65.64H516.56" style="vector-effect: none; stroke-width: 1.6px; stroke: rgb(127, 147, 166); stroke-opacity: 1; fill: rgb(127, 147, 166); fill-opacity: 0.35;"/></g></g></g></g><g class="zerolinelayer-above"/><path class="xlines-above crisp" d="M71,406.5H614" style="fill: none; stroke-width: 1px; stroke: rgb(0, 0, 0); stroke-opacity: 1;"/><path class="ylines-above crisp" d="M71.5,80V406" style="fill: none; stroke-width: 1px; stroke: rgb(0, 0, 0); stroke-opacity: 1;"/><g class="overlines-above"/><g class="xaxislayer-above"><g class="xtick"><text text-anchor="start" x="0" y="422.6" transform="translate(110.71000000000001,0) rotate(29.999999999999996,0,416.1)" style="font-family: Arial; font-size: 13px; fill: rgb(0, 0, 0); fill-opacity: 1; white-space: pre;">1 ROOM</text></g><g class="xtick"><text text-anchor="start" x="0" y="422.6" transform="translate(188.14,0) rotate(29.999999999999996,0,416.1)" style="font-family: Arial; font-size: 13px; fill: rgb(0, 0, 0); fill-opacity: 1; white-space: pre;">2 ROOM</text></g><g class="xtick"><text text-anchor="start" x="0" y="422.6" transform="translate(265.57,0) rotate(29.999999999999996,0,416.1)" style="font-family: Arial; font-size: 13px; fill: rgb(0, 0, 0); fill-opacity: 1; white-space: pre;">3 ROOM</text></g><g class="xtick"><text text-anchor="start" x="0" y="422.6" transform="translate(343,0) rotate(29.999999999999996,0,416.1)" style="font-family: Arial; font-size: 13px; fill: rgb(0, 0, 0); fill-opacity: 1; white-space: pre;">4 ROOM</text></g><g class="xtick"><text text-anchor="start" x="0" y="422.6" transform="translate(420.43,0) rotate(29.999999999999996,0,416.1)" style="font-family: Arial; font-size: 13px; fill: rgb(0, 0, 0); fill-opacity: 1; white-space: pre;">5 ROOM</text></g><g class="xtick"><text text-anchor="start" x="0" y="422.6" transform="translate(497.86,0) rotate(29.999999999999996,0,416.1)" style="font-family: Arial; font-size: 13px; fill: rgb(0, 0, 0); fill-opacity: 1; white-space: pre;">EXECUTIVE</text></g><g class="xtick"><text text-anchor="start" x="0" y="422.6" transform="translate(575.29,0) rotate(29.999999999999996,0,416.1)" style="font-family: Arial; font-size: 13px; fill: rgb(0, 0, 0); fill-opacity: 1; white-space: pre;">MULTI-GENERATION</text></g></g><g class="yaxislayer-above"><g class="ytick"><text text-anchor="end" x="68.4" y="4.55" transform="translate(0,346.52)" style="font-family: Arial; font-size: 13px; fill: rgb(0, 0, 0); fill-opacity: 1; white-space: pre;">50</text></g><g class="ytick"><text text-anchor="end" x="68.4" y="4.55" style="font-family: Arial; font-size: 13px; fill: rgb(0, 0, 0); fill-opacity: 1; white-space: pre;" transform="translate(0,258.40999999999997)">100</text></g><g class="ytick"><text text-anchor="end" x="68.4" y="4.55" style="font-family: Arial; font-size: 13px; fill: rgb(0, 0, 0); fill-opacity: 1; white-space: pre;" transform="translate(0,170.31)">150</text></g><g class="ytick"><text text-anchor="end" x="68.4" y="4.55" style="font-family: Arial; font-size: 13px; fill: rgb(0, 0, 0); fill-opacity: 1; white-space: pre;" transform="translate(0,82.2)">200</text></g></g><g class="overaxes-above"/></g></g><g class="polarlayer"/><g class="smithlayer"/><g class="ternarylayer"/><g class="geolayer"/><g class="funnelarealayer"/><g class="pielayer"/><g class="iciclelayer"/><g class="treemaplayer"/><g class="sunburstlayer"/><g class="glimages"/><defs id="topdefs-5bd75a"><g class="clips"/></defs><g class="layer-above"><g class="imagelayer"/><g class="shapelayer"/></g><g class="infolayer"><g class="g-gtitle"/><g class="g-xtitle"/><g class="g-ytitle"/><g class="annotation" data-index="0" style="opacity: 1;"><g class="annotation-text-g" transform="rotate(0,94.21000000000001,397)"><g class="cursor-pointer" transform="translate(86,388)"><rect class="bg" x="0.5" y="0.5" width="16" height="17" style="stroke-width: 1px; stroke: rgb(0, 0, 0); stroke-opacity: 0; fill: rgb(0, 0, 0); fill-opacity: 0;"/><text class="annotation-text" text-anchor="middle" x="8.6875" y="13" style="font-family: Arial; font-size: 12px; fill: rgb(0, 0, 0); fill-opacity: 1; white-space: pre;">31</text></g></g></g><g class="annotation" data-index="1" style="opacity: 1;"><g class="annotation-text-g" transform="rotate(0,110.71000000000001,397)"><g class="cursor-pointer" transform="translate(102,388)"><rect class="bg" x="0.5" y="0.5" width="16" height="17" style="stroke-width: 1px; stroke: rgb(0, 0, 0); stroke-opacity: 0; fill: rgb(0, 0, 0); fill-opacity: 0;"/><text class="annotation-text" text-anchor="middle" x="8.6875" y="13" style="font-family: Arial; font-size: 12px; fill: rgb(0, 0, 0); fill-opacity: 1; white-space: pre;">31</text></g></g></g><g class="annotation" data-index="2" style="opacity: 1;"><g class="annotation-text-g" transform="rotate(0,127.21000000000001,397)"><g class="cursor-pointer" transform="translate(119,388)"><rect class="bg" x="0.5" y="0.5" width="16" height="17" style="stroke-width: 1px; stroke: rgb(0, 0, 0); stroke-opacity: 0; fill: rgb(0, 0, 0); fill-opacity: 0;"/><text class="annotation-text" text-anchor="middle" x="8.6875" y="13" style="font-family: Arial; font-size: 12px; fill: rgb(0, 0, 0); fill-opacity: 1; white-space: pre;">31</text></g></g></g><g class="annotation" data-index="3" style="opacity: 1;"><g class="annotation-text-g" transform="rotate(0,171.64,374.09)"><g class="cursor-pointer" transform="translate(163,365)"><rect class="bg" x="0.5" y="0.5" width="16" height="17" style="stroke-width: 1px; stroke: rgb(0, 0, 0); stroke-opacity: 0; fill: rgb(0, 0, 0); fill-opacity: 0;"/><text class="annotation-text" text-anchor="middle" x="8.6875" y="13" style="font-family: Arial; font-size: 12px; fill: rgb(0, 0, 0); fill-opacity: 1; white-space: pre;">44</text></g></g></g><g class="annotation" data-index="4" style="opacity: 1;"><g class="annotation-text-g" transform="rotate(0,188.14,372.33)"><g class="cursor-pointer" transform="translate(180,363)"><rect class="bg" x="0.5" y="0.5" width="16" height="17" style="stroke-width: 1px; stroke: rgb(0, 0, 0); stroke-opacity: 0; fill: rgb(0, 0, 0); fill-opacity: 0;"/><text class="annotation-text" text-anchor="middle" x="8.6875" y="13" style="font-family: Arial; font-size: 12px; fill: rgb(0, 0, 0); fill-opacity: 1; white-space: pre;">45</text></g></g></g><g class="annotation" data-index="5" style="opacity: 1;"><g class="annotation-text-g" transform="rotate(0,204.64,368.81)"><g class="cursor-pointer" transform="translate(196,360)"><rect class="bg" x="0.5" y="0.5" width="16" height="17" style="stroke-width: 1px; stroke: rgb(0, 0, 0); stroke-opacity: 0; fill: rgb(0, 0, 0); fill-opacity: 0;"/><text class="annotation-text" text-anchor="middle" x="8.6875" y="13" style="font-family: Arial; font-size: 12px; fill: rgb(0, 0, 0); fill-opacity: 1; white-space: pre;">47</text></g></g></g><g class="annotation" data-index="6" style="opacity: 1;"><g class="annotation-text-g" transform="rotate(0,249.07,337.09000000000003)"><g class="cursor-pointer" transform="translate(241,328)"><rect class="bg" x="0.5" y="0.5" width="16" height="17" style="stroke-width: 1px; stroke: rgb(0, 0, 0); stroke-opacity: 0; fill: rgb(0, 0, 0); fill-opacity: 0;"/><text class="annotation-text" text-anchor="middle" x="8.6875" y="13" style="font-family: Arial; font-size: 12px; fill: rgb(0, 0, 0); fill-opacity: 1; white-space: pre;">65</text></g></g></g><g class="annotation" data-index="7" style="opacity: 1;"><g class="annotation-text-g" transform="rotate(0,265.57,333.56)"><g class="cursor-pointer" transform="translate(257,325)"><rect class="bg" x="0.5" y="0.5" width="16" height="17" style="stroke-width: 1px; stroke: rgb(0, 0, 0); stroke-opacity: 0; fill: rgb(0, 0, 0); fill-opacity: 0;"/><text class="annotation-text" text-anchor="middle" x="8.6875" y="13" style="font-family: Arial; font-size: 12px; fill: rgb(0, 0, 0); fill-opacity: 1; white-space: pre;">67</text></g></g></g><g class="annotation" data-index="8" style="opacity: 1;"><g class="annotation-text-g" transform="rotate(0,282.07,322.99)"><g class="cursor-pointer" transform="translate(274,314)"><rect class="bg" x="0.5" y="0.5" width="16" height="17" style="stroke-width: 1px; stroke: rgb(0, 0, 0); stroke-opacity: 0; fill: rgb(0, 0, 0); fill-opacity: 0;"/><text class="annotation-text" text-anchor="middle" x="8.6875" y="13" style="font-family: Arial; font-size: 12px; fill: rgb(0, 0, 0); fill-opacity: 1; white-space: pre;">73</text></g></g></g><g class="annotation" data-index="9" style="opacity: 1;"><g class="annotation-text-g" transform="rotate(0,326.5,293.03999999999996)"><g class="cursor-pointer" transform="translate(318,284)"><rect class="bg" x="0.5" y="0.5" width="16" height="17" style="stroke-width: 1px; stroke: rgb(0, 0, 0); stroke-opacity: 0; fill: rgb(0, 0, 0); fill-opacity: 0;"/><text class="annotation-text" text-anchor="middle" x="8.6875" y="13" style="font-family: Arial; font-size: 12px; fill: rgb(0, 0, 0); fill-opacity: 1; white-space: pre;">90</text></g></g></g><g class="annotation" data-index="10" style="opacity: 1;"><g class="annotation-text-g" transform="rotate(0,343,285.99)"><g class="cursor-pointer" transform="translate(335,277)"><rect class="bg" x="0.5" y="0.5" width="16" height="17" style="stroke-width: 1px; stroke: rgb(0, 0, 0); stroke-opacity: 0; fill: rgb(0, 0, 0); fill-opacity: 0;"/><text class="annotation-text" text-anchor="middle" x="8.6875" y="13" style="font-family: Arial; font-size: 12px; fill: rgb(0, 0, 0); fill-opacity: 1; white-space: pre;">94</text></g></g></g><g class="annotation" data-index="11" style="opacity: 1;"><g class="annotation-text-g" transform="rotate(0,363,268.37)"><g class="cursor-pointer" transform="translate(351,259)"><rect class="bg" x="0.5" y="0.5" width="23" height="17" style="stroke-width: 1px; stroke: rgb(0, 0, 0); stroke-opacity: 0; fill: rgb(0, 0, 0); fill-opacity: 0;"/><text class="annotation-text" text-anchor="middle" x="12.015625" y="13" style="font-family: Arial; font-size: 12px; fill: rgb(0, 0, 0); fill-opacity: 1; white-space: pre;">104</text></g></g></g><g class="annotation" data-index="12" style="opacity: 1;"><g class="annotation-text-g" transform="rotate(0,400.93,257.78999999999996)"><g class="cursor-pointer" transform="translate(389,249)"><rect class="bg" x="0.5" y="0.5" width="22" height="17" style="stroke-width: 1px; stroke: rgb(0, 0, 0); stroke-opacity: 0; fill: rgb(0, 0, 0); fill-opacity: 0;"/><text class="annotation-text" text-anchor="middle" x="11.578125" y="13" style="font-family: Arial; font-size: 12px; fill: rgb(0, 0, 0); fill-opacity: 1; white-space: pre;">110</text></g></g></g><g class="annotation" data-index="13" style="opacity: 1;"><g class="annotation-text-g" transform="rotate(0,420.43,240.17)"><g class="cursor-pointer" transform="translate(408,231)"><rect class="bg" x="0.5" y="0.5" width="23" height="17" style="stroke-width: 1px; stroke: rgb(0, 0, 0); stroke-opacity: 0; fill: rgb(0, 0, 0); fill-opacity: 0;"/><text class="annotation-text" text-anchor="middle" x="12.015625" y="13" style="font-family: Arial; font-size: 12px; fill: rgb(0, 0, 0); fill-opacity: 1; white-space: pre;">120</text></g></g></g><g class="annotation" data-index="14" style="opacity: 1;"><g class="annotation-text-g" transform="rotate(0,440.43,236.65)"><g class="cursor-pointer" transform="translate(428,228)"><rect class="bg" x="0.5" y="0.5" width="23" height="17" style="stroke-width: 1px; stroke: rgb(0, 0, 0); stroke-opacity: 0; fill: rgb(0, 0, 0); fill-opacity: 0;"/><text class="annotation-text" text-anchor="middle" x="12.015625" y="13" style="font-family: Arial; font-size: 12px; fill: rgb(0, 0, 0); fill-opacity: 1; white-space: pre;">122</text></g></g></g><g class="annotation" data-index="15" style="opacity: 1;"><g class="annotation-text-g" transform="rotate(0,477.86,204.93)"><g class="cursor-pointer" transform="translate(466,196)"><rect class="bg" x="0.5" y="0.5" width="23" height="17" style="stroke-width: 1px; stroke: rgb(0, 0, 0); stroke-opacity: 0; fill: rgb(0, 0, 0); fill-opacity: 0;"/><text class="annotation-text" text-anchor="middle" x="12.015625" y="13" style="font-family: Arial; font-size: 12px; fill: rgb(0, 0, 0); fill-opacity: 1; white-space: pre;">140</text></g></g></g><g class="annotation" data-index="16" style="opacity: 1;"><g class="annotation-text-g" transform="rotate(0,497.86,194.36)"><g class="cursor-pointer" transform="translate(486,185)"><rect class="bg" x="0.5" y="0.5" width="23" height="17" style="stroke-width: 1px; stroke: rgb(0, 0, 0); stroke-opacity: 0; fill: rgb(0, 0, 0); fill-opacity: 0;"/><text class="annotation-text" text-anchor="middle" x="12.015625" y="13" style="font-family: Arial; font-size: 12px; fill: rgb(0, 0, 0); fill-opacity: 1; white-space: pre;">146</text></g></g></g><g class="annotation" data-index="17" style="opacity: 1;"><g class="annotation-text-g" transform="rotate(0,517.86,190.82999999999998)"><g class="cursor-pointer" transform="translate(506,182)"><rect class="bg" x="0.5" y="0.5" width="23" height="17" style="stroke-width: 1px; stroke: rgb(0, 0, 0); stroke-opacity: 0; fill: rgb(0, 0, 0); fill-opacity: 0;"/><text class="annotation-text" text-anchor="middle" x="12.015625" y="13" style="font-family: Arial; font-size: 12px; fill: rgb(0, 0, 0); fill-opacity: 1; white-space: pre;">148</text></g></g></g><g class="annotation" data-index="18" style="opacity: 1;"><g class="annotation-text-g" transform="rotate(0,555.29,192.6)"><g class="cursor-pointer" transform="translate(543,184)"><rect class="bg" x="0.5" y="0.5" width="23" height="17" style="stroke-width: 1px; stroke: rgb(0, 0, 0); stroke-opacity: 0; fill: rgb(0, 0, 0); fill-opacity: 0;"/><text class="annotation-text" text-anchor="middle" x="12.015625" y="13" style="font-family: Arial; font-size: 12px; fill: rgb(0, 0, 0); fill-opacity: 1; white-space: pre;">147</text></g></g></g><g class="annotation" data-index="19" style="opacity: 1;"><g class="annotation-text-g" transform="rotate(0,575.29,192.6)"><g class="cursor-pointer" transform="translate(563,184)"><rect class="bg" x="0.5" y="0.5" width="23" height="17" style="stroke-width: 1px; stroke: rgb(0, 0, 0); stroke-opacity: 0; fill: rgb(0, 0, 0); fill-opacity: 0;"/><text class="annotation-text" text-anchor="middle" x="12.015625" y="13" style="font-family: Arial; font-size: 12px; fill: rgb(0, 0, 0); fill-opacity: 1; white-space: pre;">147</text></g></g></g><g class="annotation" data-index="20" style="opacity: 1;"><g class="annotation-text-g" transform="rotate(0,595.29,177.62)"><g class="cursor-pointer" transform="translate(583,169)"><rect class="bg" x="0.5" y="0.5" width="23" height="17" style="stroke-width: 1px; stroke: rgb(0, 0, 0); stroke-opacity: 0; fill: rgb(0, 0, 0); fill-opacity: 0;"/><text class="annotation-text" text-anchor="middle" x="12.015625" y="13" style="font-family: Arial; font-size: 12px; fill: rgb(0, 0, 0); fill-opacity: 1; white-space: pre;">156</text></g></g></g></g></svg>