<svg class="main-svg" xmlns="http://www.w3.org/2000/svg" xmlns:xlink="http://www.w3.org/1999/xlink" width="700" height="500" style="" viewBox="0 0 700 500"><rect x="0" y="0" width="700" height="500" style="fill: rgb(0, 0, 0); fill-opacity: 0;"/><defs id="defs-26ebe1"><g class="clips"><clipPath id="clip26ebe1xyplot" class="plotclip"><rect width="580" height="260"/></clipPath><clipPath id="clip26ebe1xy2plot" class="plotclip"><rect width="580" height="260"/></clipPath><clipPath class="axesclip" id="clip26ebe1x"><rect x="72" y="0" width="580" height="500"/></clipPath><clipPath class="axesclip" id="clip26ebe1y"><rect x="0" y="112" width="700" height="260"/></clipPath><clipPath class="axesclip" id="clip26ebe1xy"><rect x="72" y="112" width="580" height="260"/></clipPath><clipPath class="axesclip" id="clip26ebe1y2"><rect x="0" y="112" width="700" height="260"/></clipPath><clipPath class="axesclip" id="clip26ebe1xy2"><rect x="72" y="112" width="580" height="260"/></clipPath></g><g class="gradients"/><g class="patterns"/></defs><g class="bglayer"><rect class="bg" x="72" y="112" width="580" height="260" style="fill: rgb(0, 0, 0); fill-opacity: 0; stroke-width: 0;"/></g><g class="layer-below"><g class="imagelayer"/><g class="shapelayer"/></g><g class="cartesianlayer"><g class="subplot xy"><g class="layer-subplot"><g class="shapelayer"/><g class="imagelayer"/></g><g class="minor-gridlayer"><g class="x"/><g class="y"/><g class="y2"/></g><g class="gridlayer"><g class="x"/><g class="y"/><g class="y2"/></g><g class="zerolinelayer"><path class="yzl zl crisp" transform="translate(0,372)" d="M72,0h580" style="stroke: rgb(0, 0, 0); stroke-opacity: 1; stroke-width: 2px;"/></g><g class="layer-between"><g class="shapelayer"/><g class="imagelayer"/></g><path class="xlines-below"/><path class="ylines-below"/><g class="overlines-below"><path class="xy2-x"/><path class="xy2-y"/></g><g class="xaxislayer-below"/><g class="yaxislayer-below"/><g class="overaxes-below"><g class="xy2-x"/><g class="xy2-y"/></g><g class="overplot"><g class="xy" transform="translate(72,112)"><g class="barlayer mlayer"><g class="trace bars" style="opacity: 1;"><g class="points"><g class="point"><path d="M39.15,260V38.1H105.85V260Z" clip-path="url(#clip26ebe1xyplot)" style="vector-effect: none; opacity: 1; stroke-width: 1px; fill: rgb(127, 147, 166); fill-opacity: 0.55; stroke: rgb(127, 147, 166); stroke-opacity: 1;"/><text class="bartext bartext-outside" text-anchor="middle" data-notex="1" x="0" y="0" style="font-family: Arial; font-size: 17px; fill: rgb(0, 0, 0); fill-opacity: 1; white-space: pre;" transform="translate(72.5,32.22732166890982)scale(0.8207652374543356)">SGD 104K</text></g><g class="point"><path d="M184.15,260V155.3H250.85V260Z" clip-path="url(#clip26ebe1xyplot)" style="vector-effect: none; opacity: 1; stroke-width: 1px; fill: rgb(127, 147, 166); fill-opacity: 0.55; stroke: rgb(127, 147, 166); stroke-opacity: 1;"/><text class="bartext bartext-outside" text-anchor="middle" data-notex="1" x="0" y="0" style="font-family: Arial; font-size: 17px; fill: rgb(0, 0, 0); fill-opacity: 1; white-space: pre;" transform="translate(217.5,149.04917319408182)scale(0.9288076588337684)">SGD 49K</text></g><g class="point"><path d="M329.15,260V181.85H395.85V260Z" clip-path="url(#clip26ebe1xyplot)" style="vector-effect: none; opacity: 1; stroke-width: 1px; fill: rgb(127, 147, 166); fill-opacity: 0.55; stroke: rgb(127, 147, 166); stroke-opacity: 1;"/><text class="bartext bartext-outside" text-anchor="middle" data-notex="1" x="0" y="0" style="font-family: Arial; font-size: 17px; fill: rgb(0, 0, 0); fill-opacity: 1; white-space: pre;" transform="translate(362.5,175.5991731940818)scale(0.9288076588337691)">SGD 37K</text></g><g class="point"><path d="M474.15,260V172.5H540.85V260Z" clip-path="url(#clip26ebe1xyplot)" style="vector-effect: none; opacity: 1; stroke-width: 1px; fill: rgb(127, 147, 166); fill-opacity: 0.55; stroke: rgb(127, 147, 166); stroke-opacity: 1;"/><text class="bartext bartext-outside" text-anchor="middle" data-notex="1" x="0" y="0" style="font-family: Arial; font-size: 17px; fill: rgb(0, 0, 0); fill-opacity: 1; white-space: pre;" transform="translate(507.5,166.2491731940818)scale(0.9288076588337691)">SGD 41K</text></g></g></g></g></g><g class="xy2" transform="translate(72,112)"><g class="scatterlayer mlayer"><g class="trace scatter trace9a2d47" style="stroke-miterlimit: 2; opacity: 1;"><g class="fills" clip-path="url(#clip26ebe1xy2plot)"/><g class="errorbars"/><g class="lines"><path class="js-line" d="M72.5,19.25L217.5,207.33L362.5,240.75L507.5,217.07" clip-path="url(#clip26ebe1xy2plot)" style="vector-effect: none; fill: none; stroke: rgb(138, 90, 52); stroke-opacity: 1; stroke-width: 3px; opacity: 1;"/></g><g class="points"><path class="point plotly-customdata" transform="translate(72.5,19.25)" d="M5,0A5,5 0 1,1 0,-5A5,5 0 0,1 5,0Z" style="opacity: 1; stroke-width: 0px; fill: rgb(138, 90, 52); fill-opacity: 1;"/><path class="point plotly-customdata" transform="translate(217.5,207.33)" d="M5,0A5,5 0 1,1 0,-5A5,5 0 0,1 5,0Z" style="opacity: 1; stroke-width: 0px; fill: rgb(138, 90, 52); fill-opacity: 1;"/><path class="point plotly-customdata" transform="translate(362.5,240.75)" d="M5,0A5,5 0 1,1 0,-5A5,5 0 0,1 5,0Z" style="opacity: 1; stroke-width: 0px; fill: rgb(138, 90, 52); fill-opacity: 1;"/><path class="point plotly-customdata" transform="translate(507.5,217.07)" d="M5,0A5,5 0 1,1 0,-5A5,5 0 0,1 5,0Z" style="opacity: 1; stroke-width: 0px; fill: rgb(138, 90, 52); fill-opacity: 1;"/></g><g class="text"><g class="textpoint" transform="translate(0,-11.5)"><text x="72.5" y="19.25" text-anchor="middle" style="font-family: Arial; font-size: 17px; fill: rgb(0, 0, 0); fill-opacity: 1; white-space: pre;">21.9%</text></g><g class="textpoint" transform="translate(0,-11.5)"><text x="217.5" y="207.33" text-anchor="middle" style="font-family: Arial; font-size: 17px; fill: rgb(0, 0, 0); fill-opacity: 1; white-space: pre;">10.2%</text></g><g class="textpoint" transform="translate(0,-11.5)"><text x="362.5" y="240.75" text-anchor="middle" style="font-family: Arial; font-size: 17px; fill: rgb(0, 0, 0); fill-opacity: 1; white-space: pre;">8.1%</text></g><g class="textpoint" transform="translate(0,-11.5)"><text x="507.5" y="217.07" text-anchor="middle" style="font-family: Arial; font-size: 17px; fill: rgb(0, 0, 0); fill-opacity: 1; white-space: pre;">9.6%</text></g></g></g></g></g></g><g class="zerolinelayer-above"/><path class="xlines-above crisp" d="M71,372.5H653" style="fill: none; stroke-width: 1px; stroke: rgb(0, 0, 0); stroke-opacity: 1;"/><path class="ylines-above crisp" d="M71.5,112V372" style="fill: none; stroke-width: 1px; stroke: rgb(0, 0, 0); stroke-opacity: 1;"/><g class="overlines-above"><path class="xy2-x crisp" d="M0,0" style="fill: none;"/><path class="xy2-y crisp" d="M652.5,112V372" style="fill: none; stroke-width: 1px; stroke: rgb(0, 0, 0); stroke-opacity: 1;"/></g><g class="xaxislayer-above"><g class="xtick"><text text-anchor="end" x="-2.8" y="387.4" transform="translate(144.5,0) rotate(-90,-2.8,379.4)" style="font-family: Arial; font-size: 16px; fill: rgb(0, 0, 0); fill-opacity: 1; white-space: pre;">Full History</text></g><g class="xtick"><text text-anchor="end" x="-2.8" y="387.4" transform="translate(289.5,0) rotate(-90,-2.8,379.4)" style="font-family: Arial; font-size: 16px; fill: rgb(0, 0, 0); fill-opacity: 1; white-space: pre;">Recent 5 Years</text></g><g class="xtick"><text text-anchor="end" x="-2.8" y="387.4" transform="translate(434.5,0) rotate(-90,-2.8,379.4)" style="font-family: Arial; font-size: 16px; fill: rgb(0, 0, 0); fill-opacity: 1; white-space: pre;">Recent 3 Years</text></g><g class="xtick"><text text-anchor="end" x="-2.8" y="387.4" transform="translate(579.5,0) rotate(-90,-2.8,379.4)" style="font-family: Arial; font-size: 16px; fill: rgb(0, 0, 0); fill-opacity: 1; white-space: pre;">Recent 1 Year</text></g></g><g class="yaxislayer-above"><g class="ytick"><text text-anchor="end" x="67.8" y="5.6" transform="translate(0,372)" style="font-family: Arial; font-size: 16px; fill: rgb(0, 0, 0); fill-opacity: 1; white-space: pre;">0</text></g><g class="ytick"><text text-anchor="end" x="67.8" y="5.6" style="font-family: Arial; font-size: 16px; fill: rgb(0, 0, 0); fill-opacity: 1; white-space: pre;" transform="translate(0,329.23)">20k</text></g><g class="ytick"><text text-anchor="end" x="67.8" y="5.6" style="font-family: Arial; font-size: 16px; fill: rgb(0, 0, 0); fill-opacity: 1; white-space: pre;" transform="translate(0,286.46000000000004)">40k</text></g><g class="ytick"><text text-anchor="end" x="67.8" y="5.6" style="font-family: Arial; font-size: 16px; fill: rgb(0, 0, 0); fill-opacity: 1; white-space: pre;" transform="translate(0,243.69)">60k</text></g><g class="ytick"><text text-anchor="end" x="67.8" y="5.6" style="font-family: Arial; font-size: 16px; fill: rgb(0, 0, 0); fill-opacity: 1; white-space: pre;" transform="translate(0,200.92000000000002)">80k</text></g><g class="ytick"><text text-anchor="end" x="67.8" y="5.6" style="font-family: Arial; font-size: 16px; fill: rgb(0, 0, 0); fill-opacity: 1; white-space: pre;" transform="translate(0,158.14)">100k</text></g><g class="ytick"><text text-anchor="end" x="67.8" y="5.6" style="font-family: Arial; font-size: 16px; fill: rgb(0, 0, 0); fill-opacity: 1; white-space: pre;" transform="translate(0,115.37)">120k</text></g></g><g class="overaxes-above"><g class="xy2-x"/><g class="xy2-y"><g class="y2tick"><text text-anchor="start" x="656.2" y="5.6" transform="translate(0,322.4)" style="font-family: Arial; font-size: 16px; fill: rgb(0, 0, 0); fill-opacity: 1; white-space: pre;">10%</text></g><g class="y2tick"><text text-anchor="start" x="656.2" y="5.6" style="font-family: Arial; font-size: 16px; fill: rgb(0, 0, 0); fill-opacity: 1; white-space: pre;" transform="translate(0,242.04)">15%</text></g><g class="y2tick"><text text-anchor="start" x="656.2" y="5.6" style="font-family: Arial; font-size: 16px; fill: rgb(0, 0, 0); fill-opacity: 1; white-space: pre;" transform="translate(0,161.68)">20%</text></g></g></g></g><g class="subplot xy2"/></g><g class="polarlayer"/><g class="smithlayer"/><g class="ternarylayer"/><g class="geolayer"/><g class="funnelarealayer"/><g class="pielayer"/><g class="iciclelayer"/><g class="treemaplayer"/><g class="sunburstlayer"/><g class="glimages"/><defs id="topdefs-26ebe1"><g class="clips"/><clipPath id="legend26ebe1"><rect width="166" height="33" x="0" y="0"/></clipPath></defs><g class="layer-above"><g class="imagelayer"/><g class="shapelayer"/></g><g class="infolayer"><g class="legend" pointer-events="all" transform="translate(486,73.8)"><rect class="bg" shape-rendering="crispEdges" style="stroke: rgb(0, 0, 0); stroke-opacity: 0; fill: rgb(0, 0, 0); fill-opacity: 0; stroke-width: 0px;" width="166" height="33" x="0" y="0"/><g class="scrollbox" transform="" clip-path="url(#legend26ebe1)"><g class="groups"><g class="traces" transform="translate(0,16.25)" style="opacity: 1;"><text class="legendtext" text-anchor="start" x="40" y="5.85" style="font-family: Arial; font-size: 15px; fill: rgb(0, 0, 0); fill-opacity: 1; white-space: pre;">MAE</text><g class="layers" style="opacity: 1;"><g class="legendfill"/><g class="legendlines"/><g class="legendsymbols"><g class="legendpoints"><path class="legendundefined" d="M6,6H-6V-6H6Z" transform="translate(20,0)" style="stroke-width: 1px; fill: rgb(127, 147, 166); fill-opacity: 0.55; stroke: rgb(127, 147, 166); stroke-opacity: 1;"/></g></g></g><rect class="legendtoggle" x="0" y="-11.25" width="75.0078125" height="22.5" style="fill: rgb(0, 0, 0); fill-opacity: 0;"/></g><g class="traces" transform="translate(77.5078125,16.25)" style="opacity: 1;"><text class="legendtext" text-anchor="start" x="40" y="5.85" style="font-family: Arial; font-size: 15px; fill: rgb(0, 0, 0); fill-opacity: 1; white-space: pre;">MAPE</text><g class="layers" style="opacity: 1;"><g class="legendfill"/><g class="legendlines"><path class="js-line" d="M5,0h30" style="fill: none; stroke: rgb(138, 90, 52); stroke-opacity: 1; stroke-width: 3px;"/></g><g class="legendsymbols"><g class="legendpoints"><path class="scatterpts" transform="translate(20,0)" d="M5,0A5,5 0 1,1 0,-5A5,5 0 0,1 5,0Z" style="opacity: 1; stroke-width: 0px; fill: rgb(138, 90, 52); fill-opacity: 1;"/></g></g></g><rect class="legendtoggle" x="0" y="-11.25" width="85.015625" height="22.5" style="fill: rgb(0, 0, 0); fill-opacity: 0;"/></g></g></g><rect class="scrollbar" rx="20" ry="3" width="0" height="0" style="fill: rgb(128, 139, 164); fill-opacity: 1;" x="0" y="0"/></g><g class="g-gtitle"/><g class="g-xtitle"/><g class="g-ytitle"/><g class="g-y2title"/></g></svg>