<svg class="main-svg" xmlns="http://www.w3.org/2000/svg" xmlns:xlink="http://www.w3.org/1999/xlink" width="700" height="500" style="" viewBox="0 0 700 500"><rect x="0" y="0" width="700" height="500" style="fill: rgb(0, 0, 0); fill-opacity: 0;"/><defs id="defs-0d1b66"><g class="clips"><clipPath id="clip0d1b66xyplot" class="plotclip"><rect width="592" height="348"/></clipPath><clipPath class="axesclip" id="clip0d1b66x"><rect x="72" y="0" width="592" height="500"/></clipPath><clipPath class="axesclip" id="clip0d1b66y"><rect x="0" y="80" width="700" height="348"/></clipPath><clipPath class="axesclip" id="clip0d1b66xy"><rect x="72" y="80" width="592" height="348"/></clipPath></g><g class="gradients"/><g class="patterns"/></defs><g class="bglayer"><rect class="bg" x="72" y="80" width="592" height="348" style="fill: rgb(0, 0, 0); fill-opacity: 0; stroke-width: 0;"/></g><g class="layer-below"><g class="imagelayer"/><g class="shapelayer"/></g><g class="cartesianlayer"><g class="subplot xy"><g class="layer-subplot"><g class="shapelayer"/><g class="imagelayer"/></g><g class="minor-gridlayer"><g class="x"/><g class="y"/></g><g class="gridlayer"><g class="x"/><g class="y"/></g><g class="zerolinelayer"><path class="xzl zl crisp" transform="translate(97.74,0)" d="M0,80v348" style="stroke: rgb(0, 0, 0); stroke-opacity: 1; stroke-width: 2px;"/></g><g class="layer-between"><g class="shapelayer"/><g class="imagelayer"/></g><path class="xlines-below"/><path class="ylines-below"/><g class="overlines-below"/><g class="xaxislayer-below"/><g class="yaxislayer-below"/><g class="overaxes-below"/><g class="overplot"><g class="xy" transform="translate(72,80)" clip-path="url(#clip0d1b66xyplot)"><g class="scatterlayer mlayer"><g class="trace scatter tracea270d8" style="stroke-miterlimit: 2;"><g class="fills"><g><path class="js-fill" d="M34.6,241.39L43.46,261.52L52.32,267.13L61.18,260.31L70.04,264.79L78.91,249.92L87.77,264.41L96.63,270.83L105.49,268.43L114.35,263.09L123.21,268.43L132.07,276.92L140.93,256.85L149.79,264.41L158.65,267.02L167.52,262.09L176.38,258.57L185.24,270.28L194.1,264.41L202.96,258.7L211.82,270.83L220.68,270.9L229.54,268.03L238.4,270.28L247.26,250.31L264.99,270.57L273.85,260.56L282.71,259.55L291.57,260.65L300.43,256.1L309.29,264.44L318.15,260.65L327.01,270.94L335.87,269L344.74,232.96L353.6,255.75L362.46,255.25L371.32,267.61L380.18,240.96L389.04,260.2L397.9,238.49L406.76,262.6L415.62,267.55L424.48,254.42L433.35,258.09L442.21,267.49L451.07,271.35L459.93,250.14L468.79,254.42L477.65,253.86L486.51,241.65L495.37,236.04L504.23,262.23L513.09,204.4L521.96,245.99L530.82,251.3L539.68,243.65L548.54,249.77L557.4,235.41L557.4,133.33L548.54,153.28L539.68,130.72L530.82,187.37L521.96,150.59L513.09,123.1L504.23,211.27L495.37,168.94L486.51,156.98L477.65,195.29L468.79,196.09L459.93,173.16L451.07,209.69L442.21,226.52L433.35,194.25L424.48,196.09L415.62,225.97L406.76,208.15L397.9,129.74L389.04,221.77L380.18,202.46L371.32,226.03L362.46,213.95L353.6,190.1L344.74,169.17L335.87,205.71L327.01,217L318.15,226.91L309.29,218.65L300.43,203.65L291.57,226.91L282.71,217.69L273.85,204.93L264.99,231.65L256.13,226.91L247.26,193.02L238.4,227.97L229.54,239.65L220.68,238.18L211.82,228.05L202.96,183.4L194.1,204.94L185.24,227.97L176.38,207.23L167.52,187.64L158.65,243.71L149.79,204.94L140.93,155.86L132.07,218.99L123.21,208.23L114.35,176.57L105.49,208.23L96.63,228.05L87.77,204.29L78.91,161.89L70.04,189.06L61.18,184.26L52.32,197.03L43.46,190.75L34.6,149.67Z" style="fill: rgb(127, 147, 166); fill-opacity: 0.22; stroke-width: 0;"/></g></g><g class="errorbars"/><g class="lines"><path class="js-line" d="M34.6,149.67L43.46,190.75L52.32,197.03L61.18,184.26L70.04,189.06L78.91,161.89L87.77,204.29L96.63,228.05L105.49,208.23L114.35,176.57L123.21,208.23L132.07,218.99L140.93,155.86L149.79,204.94L158.65,243.71L167.52,187.64L176.38,207.23L185.24,227.97L194.1,204.94L202.96,183.4L211.82,228.05L220.68,238.18L229.54,239.65L238.4,227.97L247.26,193.02L256.13,226.91L264.99,231.65L273.85,204.93L282.71,217.69L291.57,226.91L300.43,203.65L309.29,218.65L318.15,226.91L327.01,217L335.87,205.71L344.74,169.17L353.6,190.1L362.46,213.95L371.32,226.03L380.18,202.46L389.04,221.77L397.9,129.74L406.76,208.15L415.62,225.97L424.48,196.09L433.35,194.25L442.21,226.52L451.07,209.69L459.93,173.16L468.79,196.09L477.65,195.29L486.51,156.98L495.37,168.94L504.23,211.27L513.09,123.1L521.96,150.59L530.82,187.37L539.68,130.72L548.54,153.28L557.4,133.33" style="vector-effect: none; fill: none; stroke: rgb(127, 147, 166); stroke-opacity: 0; stroke-width: 0.5px; opacity: 1;"/></g><g class="points"/><g class="text"/></g><g class="trace scatter trace8ae5ff" style="stroke-miterlimit: 2;"><g class="fills"/><g class="errorbars"/><g class="lines"><path class="js-line" d="M34.6,241.39L43.46,261.52L52.32,267.13L61.18,260.31L70.04,264.79L78.91,249.92L87.77,264.41L96.63,270.83L105.49,268.43L114.35,263.09L123.21,268.43L132.07,276.92L140.93,256.85L149.79,264.41L158.65,267.02L167.52,262.09L176.38,258.57L185.24,270.28L194.1,264.41L202.96,258.7L211.82,270.83L220.68,270.9L229.54,268.03L238.4,270.28L247.26,250.31L264.99,270.57L273.85,260.56L282.71,259.55L291.57,260.65L300.43,256.1L309.29,264.44L318.15,260.65L327.01,270.94L335.87,269L344.74,232.96L353.6,255.75L362.46,255.25L371.32,267.61L380.18,240.96L389.04,260.2L397.9,238.49L406.76,262.6L415.62,267.55L424.48,254.42L433.35,258.09L442.21,267.49L451.07,271.35L459.93,250.14L468.79,254.42L477.65,253.86L486.51,241.65L495.37,236.04L504.23,262.23L513.09,204.4L521.96,245.99L530.82,251.3L539.68,243.65L548.54,249.77L557.4,235.41" style="vector-effect: none; fill: none; stroke: rgb(127, 147, 166); stroke-opacity: 0; stroke-width: 0.5px; opacity: 1;"/></g><g class="points"/><g class="text"/></g><g class="trace scatter tracedc0b6a" style="stroke-miterlimit: 2; opacity: 1;"><g class="fills"/><g class="errorbars"/><g class="lines"/><g class="points"><path class="point" transform="translate(185.24,267.94)" d="M4,0A4,4 0 1,1 0,-4A4,4 0 0,1 4,0Z" style="opacity: 1; stroke-width: 1px; fill: rgb(123, 143, 121); fill-opacity: 1; stroke: rgb(123, 143, 121); stroke-opacity: 1;"/><path class="point" transform="translate(211.82,262.85)" d="M4,0A4,4 0 1,1 0,-4A4,4 0 0,1 4,0Z" style="opacity: 1; stroke-width: 1px; fill: rgb(123, 143, 121); fill-opacity: 1; stroke: rgb(123, 143, 121); stroke-opacity: 1;"/><path class="point" transform="translate(220.68,262.34)" d="M4,0A4,4 0 1,1 0,-4A4,4 0 0,1 4,0Z" style="opacity: 1; stroke-width: 1px; fill: rgb(123, 143, 121); fill-opacity: 1; stroke: rgb(123, 143, 121); stroke-opacity: 1;"/><path class="point" transform="translate(229.54,260.81)" d="M4,0A4,4 0 1,1 0,-4A4,4 0 0,1 4,0Z" style="opacity: 1; stroke-width: 1px; fill: rgb(123, 143, 121); fill-opacity: 1; stroke: rgb(123, 143, 121); stroke-opacity: 1;"/><path class="point" transform="translate(238.4,259.46)" d="M4,0A4,4 0 1,1 0,-4A4,4 0 0,1 4,0Z" style="opacity: 1; stroke-width: 1px; fill: rgb(123, 143, 121); fill-opacity: 1; stroke: rgb(123, 143, 121); stroke-opacity: 1;"/><path class="point" transform="translate(256.13,256.07)" d="M4,0A4,4 0 1,1 0,-4A4,4 0 0,1 4,0Z" style="opacity: 1; stroke-width: 1px; fill: rgb(123, 143, 121); fill-opacity: 1; stroke: rgb(123, 143, 121); stroke-opacity: 1;"/><path class="point" transform="translate(264.99,254.88)" d="M4,0A4,4 0 1,1 0,-4A4,4 0 0,1 4,0Z" style="opacity: 1; stroke-width: 1px; fill: rgb(123, 143, 121); fill-opacity: 1; stroke: rgb(123, 143, 121); stroke-opacity: 1;"/><path class="point" transform="translate(273.85,253.01)" d="M4,0A4,4 0 1,1 0,-4A4,4 0 0,1 4,0Z" style="opacity: 1; stroke-width: 1px; fill: rgb(123, 143, 121); fill-opacity: 1; stroke: rgb(123, 143, 121); stroke-opacity: 1;"/><path class="point" transform="translate(282.71,251.66)" d="M4,0A4,4 0 1,1 0,-4A4,4 0 0,1 4,0Z" style="opacity: 1; stroke-width: 1px; fill: rgb(123, 143, 121); fill-opacity: 1; stroke: rgb(123, 143, 121); stroke-opacity: 1;"/><path class="point" transform="translate(291.57,249.96)" d="M4,0A4,4 0 1,1 0,-4A4,4 0 0,1 4,0Z" style="opacity: 1; stroke-width: 1px; fill: rgb(123, 143, 121); fill-opacity: 1; stroke: rgb(123, 143, 121); stroke-opacity: 1;"/><path class="point" transform="translate(300.43,249.28)" d="M4,0A4,4 0 1,1 0,-4A4,4 0 0,1 4,0Z" style="opacity: 1; stroke-width: 1px; fill: rgb(123, 143, 121); fill-opacity: 1; stroke: rgb(123, 143, 121); stroke-opacity: 1;"/><path class="point" transform="translate(309.29,247.59)" d="M4,0A4,4 0 1,1 0,-4A4,4 0 0,1 4,0Z" style="opacity: 1; stroke-width: 1px; fill: rgb(123, 143, 121); fill-opacity: 1; stroke: rgb(123, 143, 121); stroke-opacity: 1;"/><path class="point" transform="translate(318.15,245.89)" d="M4,0A4,4 0 1,1 0,-4A4,4 0 0,1 4,0Z" style="opacity: 1; stroke-width: 1px; fill: rgb(123, 143, 121); fill-opacity: 1; stroke: rgb(123, 143, 121); stroke-opacity: 1;"/><path class="point" transform="translate(327.01,244.19)" d="M4,0A4,4 0 1,1 0,-4A4,4 0 0,1 4,0Z" style="opacity: 1; stroke-width: 1px; fill: rgb(123, 143, 121); fill-opacity: 1; stroke: rgb(123, 143, 121); stroke-opacity: 1;"/><path class="point" transform="translate(335.87,242.5)" d="M4,0A4,4 0 1,1 0,-4A4,4 0 0,1 4,0Z" style="opacity: 1; stroke-width: 1px; fill: rgb(123, 143, 121); fill-opacity: 1; stroke: rgb(123, 143, 121); stroke-opacity: 1;"/><path class="point" transform="translate(353.6,239.11)" d="M4,0A4,4 0 1,1 0,-4A4,4 0 0,1 4,0Z" style="opacity: 1; stroke-width: 1px; fill: rgb(123, 143, 121); fill-opacity: 1; stroke: rgb(123, 143, 121); stroke-opacity: 1;"/><path class="point" transform="translate(362.46,237.41)" d="M4,0A4,4 0 1,1 0,-4A4,4 0 0,1 4,0Z" style="opacity: 1; stroke-width: 1px; fill: rgb(123, 143, 121); fill-opacity: 1; stroke: rgb(123, 143, 121); stroke-opacity: 1;"/><path class="point" transform="translate(371.32,235.71)" d="M4,0A4,4 0 1,1 0,-4A4,4 0 0,1 4,0Z" style="opacity: 1; stroke-width: 1px; fill: rgb(123, 143, 121); fill-opacity: 1; stroke: rgb(123, 143, 121); stroke-opacity: 1;"/><path class="point" transform="translate(380.18,234.02)" d="M4,0A4,4 0 1,1 0,-4A4,4 0 0,1 4,0Z" style="opacity: 1; stroke-width: 1px; fill: rgb(123, 143, 121); fill-opacity: 1; stroke: rgb(123, 143, 121); stroke-opacity: 1;"/><path class="point" transform="translate(389.04,232.32)" d="M4,0A4,4 0 1,1 0,-4A4,4 0 0,1 4,0Z" style="opacity: 1; stroke-width: 1px; fill: rgb(123, 143, 121); fill-opacity: 1; stroke: rgb(123, 143, 121); stroke-opacity: 1;"/><path class="point" transform="translate(397.9,229.58)" d="M4,0A4,4 0 1,1 0,-4A4,4 0 0,1 4,0Z" style="opacity: 1; stroke-width: 1px; fill: rgb(123, 143, 121); fill-opacity: 1; stroke: rgb(123, 143, 121); stroke-opacity: 1;"/><path class="point" transform="translate(406.76,227.23)" d="M4,0A4,4 0 1,1 0,-4A4,4 0 0,1 4,0Z" style="opacity: 1; stroke-width: 1px; fill: rgb(123, 143, 121); fill-opacity: 1; stroke: rgb(123, 143, 121); stroke-opacity: 1;"/><path class="point" transform="translate(424.48,222.15)" d="M4,0A4,4 0 1,1 0,-4A4,4 0 0,1 4,0Z" style="opacity: 1; stroke-width: 1px; fill: rgb(123, 143, 121); fill-opacity: 1; stroke: rgb(123, 143, 121); stroke-opacity: 1;"/><path class="point" transform="translate(433.35,219.13)" d="M4,0A4,4 0 1,1 0,-4A4,4 0 0,1 4,0Z" style="opacity: 1; stroke-width: 1px; fill: rgb(123, 143, 121); fill-opacity: 1; stroke: rgb(123, 143, 121); stroke-opacity: 1;"/><path class="point" transform="translate(451.07,213.67)" d="M4,0A4,4 0 1,1 0,-4A4,4 0 0,1 4,0Z" style="opacity: 1; stroke-width: 1px; fill: rgb(123, 143, 121); fill-opacity: 1; stroke: rgb(123, 143, 121); stroke-opacity: 1;"/><path class="point" transform="translate(459.93,210.27)" d="M4,0A4,4 0 1,1 0,-4A4,4 0 0,1 4,0Z" style="opacity: 1; stroke-width: 1px; fill: rgb(123, 143, 121); fill-opacity: 1; stroke: rgb(123, 143, 121); stroke-opacity: 1;"/><path class="point" transform="translate(468.79,205.19)" d="M4,0A4,4 0 1,1 0,-4A4,4 0 0,1 4,0Z" style="opacity: 1; stroke-width: 1px; fill: rgb(123, 143, 121); fill-opacity: 1; stroke: rgb(123, 143, 121); stroke-opacity: 1;"/><path class="point" transform="translate(477.65,200.78)" d="M4,0A4,4 0 1,1 0,-4A4,4 0 0,1 4,0Z" style="opacity: 1; stroke-width: 1px; fill: rgb(123, 143, 121); fill-opacity: 1; stroke: rgb(123, 143, 121); stroke-opacity: 1;"/><path class="point" transform="translate(486.51,195.01)" d="M4,0A4,4 0 1,1 0,-4A4,4 0 0,1 4,0Z" style="opacity: 1; stroke-width: 1px; fill: rgb(123, 143, 121); fill-opacity: 1; stroke: rgb(123, 143, 121); stroke-opacity: 1;"/><path class="point" transform="translate(495.37,189.58)" d="M4,0A4,4 0 1,1 0,-4A4,4 0 0,1 4,0Z" style="opacity: 1; stroke-width: 1px; fill: rgb(123, 143, 121); fill-opacity: 1; stroke: rgb(123, 143, 121); stroke-opacity: 1;"/><path class="point" transform="translate(513.09,174.66)" d="M4,0A4,4 0 1,1 0,-4A4,4 0 0,1 4,0Z" style="opacity: 1; stroke-width: 1px; fill: rgb(123, 143, 121); fill-opacity: 1; stroke: rgb(123, 143, 121); stroke-opacity: 1;"/><path class="point" transform="translate(521.96,164.48)" d="M4,0A4,4 0 1,1 0,-4A4,4 0 0,1 4,0Z" style="opacity: 1; stroke-width: 1px; fill: rgb(123, 143, 121); fill-opacity: 1; stroke: rgb(123, 143, 121); stroke-opacity: 1;"/><path class="point" transform="translate(539.68,144.13)" d="M4,0A4,4 0 1,1 0,-4A4,4 0 0,1 4,0Z" style="opacity: 1; stroke-width: 1px; fill: rgb(123, 143, 121); fill-opacity: 1; stroke: rgb(123, 143, 121); stroke-opacity: 1;"/></g><g class="text"/></g><g class="trace scatter trace7c0495" style="stroke-miterlimit: 2; opacity: 1;"><g class="fills"/><g class="errorbars"/><g class="lines"/><g class="points"><path class="point" transform="translate(34.6,325.6)" d="M5.2,0L0,5.2L-5.2,0L0,-5.2Z" style="opacity: 1; stroke-width: 1px; fill: rgb(207, 134, 75); fill-opacity: 1; stroke: rgb(207, 134, 75); stroke-opacity: 1;"/><path class="point" transform="translate(43.46,299.82)" d="M5.2,0L0,5.2L-5.2,0L0,-5.2Z" style="opacity: 1; stroke-width: 1px; fill: rgb(207, 134, 75); fill-opacity: 1; stroke: rgb(207, 134, 75); stroke-opacity: 1;"/><path class="point" transform="translate(52.32,295.07)" d="M5.2,0L0,5.2L-5.2,0L0,-5.2Z" style="opacity: 1; stroke-width: 1px; fill: rgb(207, 134, 75); fill-opacity: 1; stroke: rgb(207, 134, 75); stroke-opacity: 1;"/><path class="point" transform="translate(61.18,292.36)" d="M5.2,0L0,5.2L-5.2,0L0,-5.2Z" style="opacity: 1; stroke-width: 1px; fill: rgb(207, 134, 75); fill-opacity: 1; stroke: rgb(207, 134, 75); stroke-opacity: 1;"/><path class="point" transform="translate(70.04,289.98)" d="M5.2,0L0,5.2L-5.2,0L0,-5.2Z" style="opacity: 1; stroke-width: 1px; fill: rgb(207, 134, 75); fill-opacity: 1; stroke: rgb(207, 134, 75); stroke-opacity: 1;"/><path class="point" transform="translate(78.91,288.29)" d="M5.2,0L0,5.2L-5.2,0L0,-5.2Z" style="opacity: 1; stroke-width: 1px; fill: rgb(207, 134, 75); fill-opacity: 1; stroke: rgb(207, 134, 75); stroke-opacity: 1;"/><path class="point" transform="translate(87.77,286.59)" d="M5.2,0L0,5.2L-5.2,0L0,-5.2Z" style="opacity: 1; stroke-width: 1px; fill: rgb(207, 134, 75); fill-opacity: 1; stroke: rgb(207, 134, 75); stroke-opacity: 1;"/><path class="point" transform="translate(96.63,284.9)" d="M5.2,0L0,5.2L-5.2,0L0,-5.2Z" style="opacity: 1; stroke-width: 1px; fill: rgb(207, 134, 75); fill-opacity: 1; stroke: rgb(207, 134, 75); stroke-opacity: 1;"/><path class="point" transform="translate(105.49,283.2)" d="M5.2,0L0,5.2L-5.2,0L0,-5.2Z" style="opacity: 1; stroke-width: 1px; fill: rgb(207, 134, 75); fill-opacity: 1; stroke: rgb(207, 134, 75); stroke-opacity: 1;"/><path class="point" transform="translate(114.35,281.5)" d="M5.2,0L0,5.2L-5.2,0L0,-5.2Z" style="opacity: 1; stroke-width: 1px; fill: rgb(207, 134, 75); fill-opacity: 1; stroke: rgb(207, 134, 75); stroke-opacity: 1;"/><path class="point" transform="translate(123.21,279.81)" d="M5.2,0L0,5.2L-5.2,0L0,-5.2Z" style="opacity: 1; stroke-width: 1px; fill: rgb(207, 134, 75); fill-opacity: 1; stroke: rgb(207, 134, 75); stroke-opacity: 1;"/><path class="point" transform="translate(132.07,278.79)" d="M5.2,0L0,5.2L-5.2,0L0,-5.2Z" style="opacity: 1; stroke-width: 1px; fill: rgb(207, 134, 75); fill-opacity: 1; stroke: rgb(207, 134, 75); stroke-opacity: 1;"/><path class="point" transform="translate(140.93,276.79)" d="M5.2,0L0,5.2L-5.2,0L0,-5.2Z" style="opacity: 1; stroke-width: 1px; fill: rgb(207, 134, 75); fill-opacity: 1; stroke: rgb(207, 134, 75); stroke-opacity: 1;"/><path class="point" transform="translate(149.79,275.4)" d="M5.2,0L0,5.2L-5.2,0L0,-5.2Z" style="opacity: 1; stroke-width: 1px; fill: rgb(207, 134, 75); fill-opacity: 1; stroke: rgb(207, 134, 75); stroke-opacity: 1;"/><path class="point" transform="translate(158.65,273.03)" d="M5.2,0L0,5.2L-5.2,0L0,-5.2Z" style="opacity: 1; stroke-width: 1px; fill: rgb(207, 134, 75); fill-opacity: 1; stroke: rgb(207, 134, 75); stroke-opacity: 1;"/><path class="point" transform="translate(167.52,272.01)" d="M5.2,0L0,5.2L-5.2,0L0,-5.2Z" style="opacity: 1; stroke-width: 1px; fill: rgb(207, 134, 75); fill-opacity: 1; stroke: rgb(207, 134, 75); stroke-opacity: 1;"/><path class="point" transform="translate(176.38,269.63)" d="M5.2,0L0,5.2L-5.2,0L0,-5.2Z" style="opacity: 1; stroke-width: 1px; fill: rgb(207, 134, 75); fill-opacity: 1; stroke: rgb(207, 134, 75); stroke-opacity: 1;"/><path class="point" transform="translate(194.1,266.24)" d="M5.2,0L0,5.2L-5.2,0L0,-5.2Z" style="opacity: 1; stroke-width: 1px; fill: rgb(207, 134, 75); fill-opacity: 1; stroke: rgb(207, 134, 75); stroke-opacity: 1;"/><path class="point" transform="translate(202.96,264.55)" d="M5.2,0L0,5.2L-5.2,0L0,-5.2Z" style="opacity: 1; stroke-width: 1px; fill: rgb(207, 134, 75); fill-opacity: 1; stroke: rgb(207, 134, 75); stroke-opacity: 1;"/><path class="point" transform="translate(247.26,257.76)" d="M5.2,0L0,5.2L-5.2,0L0,-5.2Z" style="opacity: 1; stroke-width: 1px; fill: rgb(207, 134, 75); fill-opacity: 1; stroke: rgb(207, 134, 75); stroke-opacity: 1;"/><path class="point" transform="translate(344.74,240.8)" d="M5.2,0L0,5.2L-5.2,0L0,-5.2Z" style="opacity: 1; stroke-width: 1px; fill: rgb(207, 134, 75); fill-opacity: 1; stroke: rgb(207, 134, 75); stroke-opacity: 1;"/><path class="point" transform="translate(415.62,223.84)" d="M5.2,0L0,5.2L-5.2,0L0,-5.2Z" style="opacity: 1; stroke-width: 1px; fill: rgb(207, 134, 75); fill-opacity: 1; stroke: rgb(207, 134, 75); stroke-opacity: 1;"/><path class="point" transform="translate(442.21,217.06)" d="M5.2,0L0,5.2L-5.2,0L0,-5.2Z" style="opacity: 1; stroke-width: 1px; fill: rgb(207, 134, 75); fill-opacity: 1; stroke: rgb(207, 134, 75); stroke-opacity: 1;"/><path class="point" transform="translate(504.23,182.12)" d="M5.2,0L0,5.2L-5.2,0L0,-5.2Z" style="opacity: 1; stroke-width: 1px; fill: rgb(207, 134, 75); fill-opacity: 1; stroke: rgb(207, 134, 75); stroke-opacity: 1;"/><path class="point" transform="translate(530.82,154.99)" d="M5.2,0L0,5.2L-5.2,0L0,-5.2Z" style="opacity: 1; stroke-width: 1px; fill: rgb(207, 134, 75); fill-opacity: 1; stroke: rgb(207, 134, 75); stroke-opacity: 1;"/><path class="point" transform="translate(548.54,123.78)" d="M5.2,0L0,5.2L-5.2,0L0,-5.2Z" style="opacity: 1; stroke-width: 1px; fill: rgb(207, 134, 75); fill-opacity: 1; stroke: rgb(207, 134, 75); stroke-opacity: 1;"/><path class="point" transform="translate(557.4,22.4)" d="M5.2,0L0,5.2L-5.2,0L0,-5.2Z" style="opacity: 1; stroke-width: 1px; fill: rgb(207, 134, 75); fill-opacity: 1; stroke: rgb(207, 134, 75); stroke-opacity: 1;"/></g><g class="text"/></g></g></g></g><g class="zerolinelayer-above"/><path class="xlines-above crisp" d="M71,428.5H664" style="fill: none; stroke-width: 1px; stroke: rgb(0, 0, 0); stroke-opacity: 1;"/><path class="ylines-above crisp" d="M71.5,80V428" style="fill: none; stroke-width: 1px; stroke: rgb(0, 0, 0); stroke-opacity: 1;"/><g class="overlines-above"/><g class="xaxislayer-above"><g class="xtick"><text text-anchor="middle" x="0" y="444.6" transform="translate(97.74,0)" style="font-family: Arial; font-size: 13px; fill: rgb(0, 0, 0); fill-opacity: 1; white-space: pre;">0</text></g><g class="xtick"><text text-anchor="middle" x="0" y="444.6" style="font-family: Arial; font-size: 13px; fill: rgb(0, 0, 0); fill-opacity: 1; white-space: pre;" transform="translate(186.35,0)">10</text></g><g class="xtick"><text text-anchor="middle" x="0" y="444.6" style="font-family: Arial; font-size: 13px; fill: rgb(0, 0, 0); fill-opacity: 1; white-space: pre;" transform="translate(274.96000000000004,0)">20</text></g><g class="xtick"><text text-anchor="middle" x="0" y="444.6" style="font-family: Arial; font-size: 13px; fill: rgb(0, 0, 0); fill-opacity: 1; white-space: pre;" transform="translate(363.57,0)">30</text></g><g class="xtick"><text text-anchor="middle" x="0" y="444.6" style="font-family: Arial; font-size: 13px; fill: rgb(0, 0, 0); fill-opacity: 1; white-space: pre;" transform="translate(452.18,0)">40</text></g><g class="xtick"><text text-anchor="middle" x="0" y="444.6" style="font-family: Arial; font-size: 13px; fill: rgb(0, 0, 0); fill-opacity: 1; white-space: pre;" transform="translate(540.79,0)">50</text></g><g class="xtick"><text text-anchor="middle" x="0" y="444.6" style="font-family: Arial; font-size: 13px; fill: rgb(0, 0, 0); fill-opacity: 1; white-space: pre;" transform="translate(629.4,0)">60</text></g></g><g class="yaxislayer-above"><g class="ytick"><text text-anchor="end" x="68.4" y="4.55" transform="translate(0,403.9)" style="font-family: Arial; font-size: 13px; fill: rgb(0, 0, 0); fill-opacity: 1; white-space: pre;">0.2M</text></g><g class="ytick"><text text-anchor="end" x="68.4" y="4.55" style="font-family: Arial; font-size: 13px; fill: rgb(0, 0, 0); fill-opacity: 1; white-space: pre;" transform="translate(0,336.07)">0.4M</text></g><g class="ytick"><text text-anchor="end" x="68.4" y="4.55" style="font-family: Arial; font-size: 13px; fill: rgb(0, 0, 0); fill-opacity: 1; white-space: pre;" transform="translate(0,268.23)">0.6M</text></g><g class="ytick"><text text-anchor="end" x="68.4" y="4.55" style="font-family: Arial; font-size: 13px; fill: rgb(0, 0, 0); fill-opacity: 1; white-space: pre;" transform="translate(0,200.39)">0.8M</text></g><g class="ytick"><text text-anchor="end" x="68.4" y="4.55" style="font-family: Arial; font-size: 13px; fill: rgb(0, 0, 0); fill-opacity: 1; white-space: pre;" transform="translate(0,132.55)">1M</text></g></g><g class="overaxes-above"/></g></g><g class="polarlayer"/><g class="smithlayer"/><g class="ternarylayer"/><g class="geolayer"/><g class="funnelarealayer"/><g class="pielayer"/><g class="iciclelayer"/><g class="treemaplayer"/><g class="sunburstlayer"/><g class="glimages"/><defs id="topdefs-0d1b66"><g class="clips"/><clipPath id="legend0d1b66"><rect width="421" height="29" x="0" y="0"/></clipPath></defs><g class="layer-above"><g class="imagelayer"/><g class="shapelayer"/></g><g class="infolayer"><g class="legend" pointer-events="all" transform="translate(243,44.03999999999999)"><rect class="bg" shape-rendering="crispEdges" style="stroke: rgb(0, 0, 0); stroke-opacity: 0; fill: rgb(0, 0, 0); fill-opacity: 0; stroke-width: 0px;" width="421" height="29" x="0" y="0"/><g class="scrollbox" transform="" clip-path="url(#legend0d1b66)"><g class="groups"><g class="traces" transform="translate(0,14.5)" style="opacity: 1;"><text class="legendtext" text-anchor="start" x="40" y="4.680000000000001" style="font-family: Arial; font-size: 12px; fill: rgb(0, 0, 0); fill-opacity: 1; white-space: pre;">Actual out of Range</text><g class="layers" style="opacity: 1;"><g class="legendfill"/><g class="legendlines"/><g class="legendsymbols"><g class="legendpoints"><path class="scatterpts" transform="translate(20,0)" d="M5.2,0L0,5.2L-5.2,0L0,-5.2Z" style="opacity: 1; stroke-width: 1px; fill: rgb(207, 134, 75); fill-opacity: 1; stroke: rgb(207, 134, 75); stroke-opacity: 1;"/></g></g></g><rect class="legendtoggle" x="0" y="-9.5" width="147.9375" height="19" style="fill: rgb(0, 0, 0); fill-opacity: 0;"/></g><g class="traces" transform="translate(150.4375,14.5)" style="opacity: 1;"><text class="legendtext" text-anchor="start" x="40" y="4.680000000000001" style="font-family: Arial; font-size: 12px; fill: rgb(0, 0, 0); fill-opacity: 1; white-space: pre;">Actual in Range</text><g class="layers" style="opacity: 1;"><g class="legendfill"/><g class="legendlines"/><g class="legendsymbols"><g class="legendpoints"><path class="scatterpts" transform="translate(20,0)" d="M4,0A4,4 0 1,1 0,-4A4,4 0 0,1 4,0Z" style="opacity: 1; stroke-width: 1px; fill: rgb(123, 143, 121); fill-opacity: 1; stroke: rgb(123, 143, 121); stroke-opacity: 1;"/></g></g></g><rect class="legendtoggle" x="0" y="-9.5" width="127.265625" height="19" style="fill: rgb(0, 0, 0); fill-opacity: 0;"/></g><g class="traces" transform="translate(280.203125,14.5)" style="opacity: 1;"><text class="legendtext" text-anchor="start" x="40" y="4.680000000000001" style="font-family: Arial; font-size: 12px; fill: rgb(0, 0, 0); fill-opacity: 1; white-space: pre;">p25 to p75 Range</text><g class="layers"><g class="legendfill"><path class="js-fill" d="M5,-2h30v6h-30z" style="stroke-width: 0; fill: rgb(127, 147, 166); fill-opacity: 0.22;"/></g><g class="legendlines"><path class="js-line" d="M5,-2h30" style="fill: none; stroke: rgb(127, 147, 166); stroke-opacity: 0; stroke-width: 0.5px;"/></g><g class="legendsymbols"><g class="legendpoints"/></g></g><rect class="legendtoggle" x="0" y="-9.5" width="137.921875" height="19" style="fill: rgb(0, 0, 0); fill-opacity: 0;"/></g></g></g><rect class="scrollbar" rx="20" ry="3" width="0" height="0" style="fill: rgb(128, 139, 164); fill-opacity: 1;" x="0" y="0"/></g><g class="g-gtitle"/><g class="g-xtitle"/><g class="g-ytitle"/><g class="annotation" data-index="0" style="opacity: 1;"><g class="annotation-text-g" transform="rotate(0,261.42,47.23999999999998)"><g class="cursor-pointer" transform="translate(78,38)"><rect class="bg" x="0.5" y="0.5" width="366" height="17" style="stroke-width: 1px; stroke: rgb(0, 0, 0); stroke-opacity: 0; fill: rgb(0, 0, 0); fill-opacity: 0;"/><text class="annotation-text" text-anchor="middle" x="183.4375" y="13" style="font-family: Arial; font-size: 12px; fill: rgb(0, 0, 0); fill-opacity: 1; white-space: pre;">Coverage: 50.5% | Avg width: SGD 168K | Median width: SGD 163K</text></g></g></g></g></svg>