<svg class="main-svg" xmlns="http://www.w3.org/2000/svg" xmlns:xlink="http://www.w3.org/1999/xlink" width="700" height="500" style="" viewBox="0 0 700 500"><rect x="0" y="0" width="700" height="500" style="fill: rgb(0, 0, 0); fill-opacity: 0;"/><defs id="defs-83ea39"><g class="clips"><clipPath id="clip83ea39xyplot" class="plotclip"><rect width="587" height="348"/></clipPath><clipPath id="clip83ea39xy2plot" class="plotclip"><rect width="587" height="348"/></clipPath><clipPath class="axesclip" id="clip83ea39x"><rect x="72" y="0" width="587" height="500"/></clipPath><clipPath class="axesclip" id="clip83ea39y"><rect x="0" y="80" width="700" height="348"/></clipPath><clipPath class="axesclip" id="clip83ea39xy"><rect x="72" y="80" width="587" height="348"/></clipPath><clipPath class="axesclip" id="clip83ea39y2"><rect x="0" y="80" width="700" height="348"/></clipPath><clipPath class="axesclip" id="clip83ea39xy2"><rect x="72" y="80" width="587" height="348"/></clipPath></g><g class="gradients"/><g class="patterns"/></defs><g class="bglayer"><rect class="bg" x="72" y="80" width="587" height="348" style="fill: rgb(0, 0, 0); fill-opacity: 0; stroke-width: 0;"/></g><g class="layer-below"><g class="imagelayer"/><g class="shapelayer"/></g><g class="cartesianlayer"><g class="subplot xy"><g class="layer-subplot"><g class="shapelayer"/><g class="imagelayer"/></g><g class="minor-gridlayer"><g class="x"/><g class="y"/><g class="y2"/></g><g class="gridlayer"><g class="x"/><g class="y"/><g class="y2"/></g><g class="zerolinelayer"/><g class="layer-between"><g class="shapelayer"/><g class="imagelayer"/></g><path class="xlines-below"/><path class="ylines-below"/><g class="overlines-below"><path class="xy2-x"/><path class="xy2-y"/></g><g class="xaxislayer-below"/><g class="yaxislayer-below"/><g class="overaxes-below"><g class="xy2-x"/><g class="xy2-y"/></g><g class="overplot"><g class="xy" transform="translate(72,80)" clip-path="url(#clip83ea39xyplot)"><g class="scatterlayer mlayer"><g class="trace scatter tracee5de66" style="stroke-miterlimit: 2; opacity: 1;"><g class="fills"/><g class="errorbars"/><g class="lines"><path class="js-line" d="M34.98,23.02L99.61,119L164.24,159L228.87,192.54L293.5,246.74L358.13,235.46L422.76,278.72L487.39,305L552.03,312.45" style="vector-effect: none; fill: none; stroke: rgb(127, 147, 166); stroke-opacity: 1; stroke-width: 3px; opacity: 1;"/></g><g class="points"><path class="point" transform="translate(34.98,23.02)" d="M4.5,0A4.5,4.5 0 1,1 0,-4.5A4.5,4.5 0 0,1 4.5,0Z" style="opacity: 1; stroke-width: 1.2px; fill: rgb(127, 147, 166); fill-opacity: 0.42; stroke: rgb(127, 147, 166); stroke-opacity: 1;"/><path class="point" transform="translate(99.61,119)" d="M4.5,0A4.5,4.5 0 1,1 0,-4.5A4.5,4.5 0 0,1 4.5,0Z" style="opacity: 1; stroke-width: 1.2px; fill: rgb(127, 147, 166); fill-opacity: 0.42; stroke: rgb(127, 147, 166); stroke-opacity: 1;"/><path class="point" transform="translate(164.24,159)" d="M4.5,0A4.5,4.5 0 1,1 0,-4.5A4.5,4.5 0 0,1 4.5,0Z" style="opacity: 1; stroke-width: 1.2px; fill: rgb(127, 147, 166); fill-opacity: 0.42; stroke: rgb(127, 147, 166); stroke-opacity: 1;"/><path class="point" transform="translate(228.87,192.54)" d="M4.5,0A4.5,4.5 0 1,1 0,-4.5A4.5,4.5 0 0,1 4.5,0Z" style="opacity: 1; stroke-width: 1.2px; fill: rgb(127, 147, 166); fill-opacity: 0.42; stroke: rgb(127, 147, 166); stroke-opacity: 1;"/><path class="point" transform="translate(293.5,246.74)" d="M4.5,0A4.5,4.5 0 1,1 0,-4.5A4.5,4.5 0 0,1 4.5,0Z" style="opacity: 1; stroke-width: 1.2px; fill: rgb(127, 147, 166); fill-opacity: 0.42; stroke: rgb(127, 147, 166); stroke-opacity: 1;"/><path class="point" transform="translate(358.13,235.46)" d="M4.5,0A4.5,4.5 0 1,1 0,-4.5A4.5,4.5 0 0,1 4.5,0Z" style="opacity: 1; stroke-width: 1.2px; fill: rgb(127, 147, 166); fill-opacity: 0.42; stroke: rgb(127, 147, 166); stroke-opacity: 1;"/><path class="point" transform="translate(422.76,278.72)" d="M4.5,0A4.5,4.5 0 1,1 0,-4.5A4.5,4.5 0 0,1 4.5,0Z" style="opacity: 1; stroke-width: 1.2px; fill: rgb(127, 147, 166); fill-opacity: 0.42; stroke: rgb(127, 147, 166); stroke-opacity: 1;"/><path class="point" transform="translate(487.39,305)" d="M4.5,0A4.5,4.5 0 1,1 0,-4.5A4.5,4.5 0 0,1 4.5,0Z" style="opacity: 1; stroke-width: 1.2px; fill: rgb(127, 147, 166); fill-opacity: 0.42; stroke: rgb(127, 147, 166); stroke-opacity: 1;"/><path class="point" transform="translate(552.03,312.45)" d="M4.5,0A4.5,4.5 0 1,1 0,-4.5A4.5,4.5 0 0,1 4.5,0Z" style="opacity: 1; stroke-width: 1.2px; fill: rgb(127, 147, 166); fill-opacity: 0.42; stroke: rgb(127, 147, 166); stroke-opacity: 1;"/></g><g class="text"/></g></g></g><g class="xy2" transform="translate(72,80)" clip-path="url(#clip83ea39xy2plot)"><g class="scatterlayer mlayer"><g class="trace scatter tracea6c676" style="stroke-miterlimit: 2; opacity: 1;"><g class="fills"/><g class="errorbars"/><g class="lines"><path class="js-line" d="M34.98,307.88L99.61,219L164.24,325.6L228.87,97.59L293.5,209.08L358.13,217.94L422.76,105.53L487.39,39L552.03,33.71" style="vector-effect: none; fill: none; stroke: rgb(127, 147, 166); stroke-opacity: 1; stroke-dasharray: 3px, 3px; stroke-width: 2px; opacity: 1;"/></g><g class="points"><path class="point" transform="translate(34.98,307.88)" d="M4,0A4,4 0 1,1 0,-4A4,4 0 0,1 4,0Z" style="opacity: 1; stroke-width: 1.1px; fill: rgb(127, 147, 166); fill-opacity: 0.38; stroke: rgb(127, 147, 166); stroke-opacity: 1;"/><path class="point" transform="translate(99.61,219)" d="M4,0A4,4 0 1,1 0,-4A4,4 0 0,1 4,0Z" style="opacity: 1; stroke-width: 1.1px; fill: rgb(127, 147, 166); fill-opacity: 0.38; stroke: rgb(127, 147, 166); stroke-opacity: 1;"/><path class="point" transform="translate(164.24,325.6)" d="M4,0A4,4 0 1,1 0,-4A4,4 0 0,1 4,0Z" style="opacity: 1; stroke-width: 1.1px; fill: rgb(127, 147, 166); fill-opacity: 0.38; stroke: rgb(127, 147, 166); stroke-opacity: 1;"/><path class="point" transform="translate(228.87,97.59)" d="M4,0A4,4 0 1,1 0,-4A4,4 0 0,1 4,0Z" style="opacity: 1; stroke-width: 1.1px; fill: rgb(127, 147, 166); fill-opacity: 0.38; stroke: rgb(127, 147, 166); stroke-opacity: 1;"/><path class="point" transform="translate(293.5,209.08)" d="M4,0A4,4 0 1,1 0,-4A4,4 0 0,1 4,0Z" style="opacity: 1; stroke-width: 1.1px; fill: rgb(127, 147, 166); fill-opacity: 0.38; stroke: rgb(127, 147, 166); stroke-opacity: 1;"/><path class="point" transform="translate(358.13,217.94)" d="M4,0A4,4 0 1,1 0,-4A4,4 0 0,1 4,0Z" style="opacity: 1; stroke-width: 1.1px; fill: rgb(127, 147, 166); fill-opacity: 0.38; stroke: rgb(127, 147, 166); stroke-opacity: 1;"/><path class="point" transform="translate(422.76,105.53)" d="M4,0A4,4 0 1,1 0,-4A4,4 0 0,1 4,0Z" style="opacity: 1; stroke-width: 1.1px; fill: rgb(127, 147, 166); fill-opacity: 0.38; stroke: rgb(127, 147, 166); stroke-opacity: 1;"/><path class="point" transform="translate(487.39,39)" d="M4,0A4,4 0 1,1 0,-4A4,4 0 0,1 4,0Z" style="opacity: 1; stroke-width: 1.1px; fill: rgb(127, 147, 166); fill-opacity: 0.38; stroke: rgb(127, 147, 166); stroke-opacity: 1;"/><path class="point" transform="translate(552.03,33.71)" d="M4,0A4,4 0 1,1 0,-4A4,4 0 0,1 4,0Z" style="opacity: 1; stroke-width: 1.1px; fill: rgb(127, 147, 166); fill-opacity: 0.38; stroke: rgb(127, 147, 166); stroke-opacity: 1;"/></g><g class="text"/></g></g></g></g><g class="zerolinelayer-above"/><path class="xlines-above crisp" d="M71,428.5H660" style="fill: none; stroke-width: 1px; stroke: rgb(0, 0, 0); stroke-opacity: 1;"/><path class="ylines-above crisp" d="M71.5,80V428" style="fill: none; stroke-width: 1px; stroke: rgb(0, 0, 0); stroke-opacity: 1;"/><g class="overlines-above"><path class="xy2-x crisp" d="M0,0" style="fill: none;"/><path class="xy2-y crisp" d="M659.5,80V428" style="fill: none; stroke-width: 1px; stroke: rgb(0, 0, 0); stroke-opacity: 1;"/></g><g class="xaxislayer-above"><g class="xtick"><text text-anchor="middle" x="0" y="444.6" transform="translate(106.97999999999999,0)" style="font-family: Arial; font-size: 13px; fill: rgb(0, 0, 0); fill-opacity: 1; white-space: pre;">2</text></g><g class="xtick"><text text-anchor="middle" x="0" y="444.6" style="font-family: Arial; font-size: 13px; fill: rgb(0, 0, 0); fill-opacity: 1; white-space: pre;" transform="translate(236.24,0)">4</text></g><g class="xtick"><text text-anchor="middle" x="0" y="444.6" style="font-family: Arial; font-size: 13px; fill: rgb(0, 0, 0); fill-opacity: 1; white-space: pre;" transform="translate(365.5,0)">6</text></g><g class="xtick"><text text-anchor="middle" x="0" y="444.6" style="font-family: Arial; font-size: 13px; fill: rgb(0, 0, 0); fill-opacity: 1; white-space: pre;" transform="translate(494.76,0)">8</text></g><g class="xtick"><text text-anchor="middle" x="0" y="444.6" style="font-family: Arial; font-size: 13px; fill: rgb(0, 0, 0); fill-opacity: 1; white-space: pre;" transform="translate(624.03,0)">10</text></g></g><g class="yaxislayer-above"><g class="ytick"><text text-anchor="end" x="68.4" y="4.55" transform="translate(0,414.88)" style="font-family: Arial; font-size: 13px; fill: rgb(0, 0, 0); fill-opacity: 1; white-space: pre;">140k</text></g><g class="ytick"><text text-anchor="end" x="68.4" y="4.55" style="font-family: Arial; font-size: 13px; fill: rgb(0, 0, 0); fill-opacity: 1; white-space: pre;" transform="translate(0,360.24)">160k</text></g><g class="ytick"><text text-anchor="end" x="68.4" y="4.55" style="font-family: Arial; font-size: 13px; fill: rgb(0, 0, 0); fill-opacity: 1; white-space: pre;" transform="translate(0,305.6)">180k</text></g><g class="ytick"><text text-anchor="end" x="68.4" y="4.55" style="font-family: Arial; font-size: 13px; fill: rgb(0, 0, 0); fill-opacity: 1; white-space: pre;" transform="translate(0,250.96)">200k</text></g><g class="ytick"><text text-anchor="end" x="68.4" y="4.55" style="font-family: Arial; font-size: 13px; fill: rgb(0, 0, 0); fill-opacity: 1; white-space: pre;" transform="translate(0,196.32)">220k</text></g><g class="ytick"><text text-anchor="end" x="68.4" y="4.55" style="font-family: Arial; font-size: 13px; fill: rgb(0, 0, 0); fill-opacity: 1; white-space: pre;" transform="translate(0,141.67000000000002)">240k</text></g><g class="ytick"><text text-anchor="end" x="68.4" y="4.55" style="font-family: Arial; font-size: 13px; fill: rgb(0, 0, 0); fill-opacity: 1; white-space: pre;" transform="translate(0,87.03)">260k</text></g></g><g class="overaxes-above"><g class="xy2-x"/><g class="xy2-y"><g class="y2tick"><text text-anchor="start" x="662.6" y="4.55" transform="translate(0,425.93)" style="font-family: Arial; font-size: 13px; fill: rgb(0, 0, 0); fill-opacity: 1; white-space: pre;">0.46</text></g><g class="y2tick"><text text-anchor="start" x="662.6" y="4.55" style="font-family: Arial; font-size: 13px; fill: rgb(0, 0, 0); fill-opacity: 1; white-space: pre;" transform="translate(0,384.62)">0.48</text></g><g class="y2tick"><text text-anchor="start" x="662.6" y="4.55" style="font-family: Arial; font-size: 13px; fill: rgb(0, 0, 0); fill-opacity: 1; white-space: pre;" transform="translate(0,343.31)">0.5</text></g><g class="y2tick"><text text-anchor="start" x="662.6" y="4.55" style="font-family: Arial; font-size: 13px; fill: rgb(0, 0, 0); fill-opacity: 1; white-space: pre;" transform="translate(0,302)">0.52</text></g><g class="y2tick"><text text-anchor="start" x="662.6" y="4.55" style="font-family: Arial; font-size: 13px; fill: rgb(0, 0, 0); fill-opacity: 1; white-space: pre;" transform="translate(0,260.68)">0.54</text></g><g class="y2tick"><text text-anchor="start" x="662.6" y="4.55" style="font-family: Arial; font-size: 13px; fill: rgb(0, 0, 0); fill-opacity: 1; white-space: pre;" transform="translate(0,219.37)">0.56</text></g><g class="y2tick"><text text-anchor="start" x="662.6" y="4.55" style="font-family: Arial; font-size: 13px; fill: rgb(0, 0, 0); fill-opacity: 1; white-space: pre;" transform="translate(0,178.06)">0.58</text></g><g class="y2tick"><text text-anchor="start" x="662.6" y="4.55" style="font-family: Arial; font-size: 13px; fill: rgb(0, 0, 0); fill-opacity: 1; white-space: pre;" transform="translate(0,136.75)">0.6</text></g><g class="y2tick"><text text-anchor="start" x="662.6" y="4.55" style="font-family: Arial; font-size: 13px; fill: rgb(0, 0, 0); fill-opacity: 1; white-space: pre;" transform="translate(0,95.44)">0.62</text></g></g></g></g><g class="subplot xy2"/></g><g class="polarlayer"/><g class="smithlayer"/><g class="ternarylayer"/><g class="geolayer"/><g class="funnelarealayer"/><g class="pielayer"/><g class="iciclelayer"/><g class="treemaplayer"/><g class="sunburstlayer"/><g class="glimages"/><defs id="topdefs-83ea39"><g class="clips"/><clipPath id="legend83ea39"><rect width="220" height="29" x="0" y="0"/></clipPath></defs><g class="layer-above"><g class="imagelayer"/><g class="shapelayer"><g class="shape-group" data-index="0" clip-path="url(#clip83ea39x)"><path data-index="0" fill-rule="evenodd" d="M430.13,428L430.13,80" style="opacity: 1; stroke: rgb(216, 181, 91); stroke-opacity: 1; fill: rgb(0, 0, 0); fill-opacity: 0; stroke-dasharray: 9px, 9px; stroke-width: 2px;"/></g></g></g><g class="infolayer"><g class="legend" pointer-events="all" transform="translate(439,44.03999999999999)"><rect class="bg" shape-rendering="crispEdges" style="stroke: rgb(0, 0, 0); stroke-opacity: 0; fill: rgb(0, 0, 0); fill-opacity: 0; stroke-width: 0px;" width="220" height="29" x="0" y="0"/><g class="scrollbox" transform="" clip-path="url(#legend83ea39)"><g class="groups"><g class="traces" transform="translate(0,14.5)" style="opacity: 1;"><text class="legendtext" text-anchor="start" x="40" y="4.680000000000001" style="font-family: Arial; font-size: 12px; fill: rgb(0, 0, 0); fill-opacity: 1; white-space: pre;">Inertia</text><g class="layers" style="opacity: 1;"><g class="legendfill"/><g class="legendlines"><path class="js-line" d="M5,0h30" style="fill: none; stroke: rgb(127, 147, 166); stroke-opacity: 1; stroke-width: 3px;"/></g><g class="legendsymbols"><g class="legendpoints"><path class="scatterpts" transform="translate(20,0)" d="M4.5,0A4.5,4.5 0 1,1 0,-4.5A4.5,4.5 0 0,1 4.5,0Z" style="opacity: 1; stroke-width: 1.2px; fill: rgb(127, 147, 166); fill-opacity: 0.42; stroke: rgb(127, 147, 166); stroke-opacity: 1;"/></g></g></g><rect class="legendtoggle" x="0" y="-9.5" width="75.859375" height="19" style="fill: rgb(0, 0, 0); fill-opacity: 0;"/></g><g class="traces" transform="translate(78.359375,14.5)" style="opacity: 1;"><text class="legendtext" text-anchor="start" x="40" y="4.680000000000001" style="font-family: Arial; font-size: 12px; fill: rgb(0, 0, 0); fill-opacity: 1; white-space: pre;">Mapped Accuracy</text><g class="layers" style="opacity: 1;"><g class="legendfill"/><g class="legendlines"><path class="js-line" d="M5,0h30" style="fill: none; stroke: rgb(127, 147, 166); stroke-opacity: 1; stroke-dasharray: 3px, 3px; stroke-width: 2px;"/></g><g class="legendsymbols"><g class="legendpoints"><path class="scatterpts" transform="translate(20,0)" d="M4,0A4,4 0 1,1 0,-4A4,4 0 0,1 4,0Z" style="opacity: 1; stroke-width: 1.1px; fill: rgb(127, 147, 166); fill-opacity: 0.38; stroke: rgb(127, 147, 166); stroke-opacity: 1;"/></g></g></g><rect class="legendtoggle" x="0" y="-9.5" width="138.546875" height="19" style="fill: rgb(0, 0, 0); fill-opacity: 0;"/></g></g></g><rect class="scrollbar" rx="20" ry="3" width="0" height="0" style="fill: rgb(128, 139, 164); fill-opacity: 1;" x="0" y="0"/></g><g class="g-gtitle"/><g class="g-xtitle"/><g class="g-ytitle"/><g class="g-y2title"/><g class="annotation" data-index="0" style="opacity: 1;"><g class="annotation-text-g" transform="rotate(0,106.97999999999999,121.02)"><g class="cursor-pointer" transform="translate(83,112)"><rect class="bg" x="0.5" y="0.5" width="46" height="17" style="stroke-width: 1px; stroke: rgb(0, 0, 0); stroke-opacity: 0; fill: rgb(0, 0, 0); fill-opacity: 0;"/><text class="annotation-text" text-anchor="middle" x="23.703125" y="13" style="font-family: Arial; font-size: 12px; fill: rgb(0, 0, 0); fill-opacity: 1; white-space: pre;">254,146</text></g></g></g><g class="annotation" data-index="1" style="opacity: 1;"><g class="annotation-text-g" transform="rotate(0,106.97999999999999,371.88)"><g class="cursor-pointer" transform="translate(90,363)"><rect class="bg" x="0.5" y="0.5" width="33" height="17" style="stroke-width: 1px; stroke: rgb(0, 0, 0); stroke-opacity: 0; fill: rgb(0, 0, 0); fill-opacity: 0;"/><text class="annotation-text" text-anchor="middle" x="17.015625" y="13" style="font-family: Arial; font-size: 12px; fill: rgb(0, 0, 0); fill-opacity: 1; white-space: pre;">0.478</text></g></g></g><g class="annotation" data-index="2" style="opacity: 1;"><g class="annotation-text-g" transform="rotate(0,171.61,233)"><g class="cursor-pointer" transform="translate(148,224)"><rect class="bg" x="0.5" y="0.5" width="46" height="17" style="stroke-width: 1px; stroke: rgb(0, 0, 0); stroke-opacity: 0; fill: rgb(0, 0, 0); fill-opacity: 0;"/><text class="annotation-text" text-anchor="middle" x="23.703125" y="13" style="font-family: Arial; font-size: 12px; fill: rgb(0, 0, 0); fill-opacity: 1; white-space: pre;">219,017</text></g></g></g><g class="annotation" data-index="3" style="opacity: 1;"><g class="annotation-text-g" transform="rotate(0,171.61,269)"><g class="cursor-pointer" transform="translate(155,260)"><rect class="bg" x="0.5" y="0.5" width="33" height="17" style="stroke-width: 1px; stroke: rgb(0, 0, 0); stroke-opacity: 0; fill: rgb(0, 0, 0); fill-opacity: 0;"/><text class="annotation-text" text-anchor="middle" x="17.015625" y="13" style="font-family: Arial; font-size: 12px; fill: rgb(0, 0, 0); fill-opacity: 1; white-space: pre;">0.521</text></g></g></g><g class="annotation" data-index="4" style="opacity: 1;"><g class="annotation-text-g" transform="rotate(0,236.24,257)"><g class="cursor-pointer" transform="translate(213,248)"><rect class="bg" x="0.5" y="0.5" width="46" height="17" style="stroke-width: 1px; stroke: rgb(0, 0, 0); stroke-opacity: 0; fill: rgb(0, 0, 0); fill-opacity: 0;"/><text class="annotation-text" text-anchor="middle" x="23.703125" y="13" style="font-family: Arial; font-size: 12px; fill: rgb(0, 0, 0); fill-opacity: 1; white-space: pre;">204,376</text></g></g></g><g class="annotation" data-index="5" style="opacity: 1;"><g class="annotation-text-g" transform="rotate(0,236.24,389.6)"><g class="cursor-pointer" transform="translate(219,381)"><rect class="bg" x="0.5" y="0.5" width="33" height="17" style="stroke-width: 1px; stroke: rgb(0, 0, 0); stroke-opacity: 0; fill: rgb(0, 0, 0); fill-opacity: 0;"/><text class="annotation-text" text-anchor="middle" x="17.015625" y="13" style="font-family: Arial; font-size: 12px; fill: rgb(0, 0, 0); fill-opacity: 1; white-space: pre;">0.470</text></g></g></g><g class="annotation" data-index="6" style="opacity: 1;"><g class="annotation-text-g" transform="rotate(0,300.87,306.53999999999996)"><g class="cursor-pointer" transform="translate(277,298)"><rect class="bg" x="0.5" y="0.5" width="46" height="17" style="stroke-width: 1px; stroke: rgb(0, 0, 0); stroke-opacity: 0; fill: rgb(0, 0, 0); fill-opacity: 0;"/><text class="annotation-text" text-anchor="middle" x="23.703125" y="13" style="font-family: Arial; font-size: 12px; fill: rgb(0, 0, 0); fill-opacity: 1; white-space: pre;">192,101</text></g></g></g><g class="annotation" data-index="7" style="opacity: 1;"><g class="annotation-text-g" transform="rotate(0,300.87,147.59)"><g class="cursor-pointer" transform="translate(284,139)"><rect class="bg" x="0.5" y="0.5" width="33" height="17" style="stroke-width: 1px; stroke: rgb(0, 0, 0); stroke-opacity: 0; fill: rgb(0, 0, 0); fill-opacity: 0;"/><text class="annotation-text" text-anchor="middle" x="17.015625" y="13" style="font-family: Arial; font-size: 12px; fill: rgb(0, 0, 0); fill-opacity: 1; white-space: pre;">0.580</text></g></g></g><g class="annotation" data-index="8" style="opacity: 1;"><g class="annotation-text-g" transform="rotate(0,365.5,344.74)"><g class="cursor-pointer" transform="translate(342,336)"><rect class="bg" x="0.5" y="0.5" width="46" height="17" style="stroke-width: 1px; stroke: rgb(0, 0, 0); stroke-opacity: 0; fill: rgb(0, 0, 0); fill-opacity: 0;"/><text class="annotation-text" text-anchor="middle" x="23.703125" y="13" style="font-family: Arial; font-size: 12px; fill: rgb(0, 0, 0); fill-opacity: 1; white-space: pre;">172,262</text></g></g></g><g class="annotation" data-index="9" style="opacity: 1;"><g class="annotation-text-g" transform="rotate(0,365.5,273.08000000000004)"><g class="cursor-pointer" transform="translate(349,264)"><rect class="bg" x="0.5" y="0.5" width="33" height="17" style="stroke-width: 1px; stroke: rgb(0, 0, 0); stroke-opacity: 0; fill: rgb(0, 0, 0); fill-opacity: 0;"/><text class="annotation-text" text-anchor="middle" x="17.015625" y="13" style="font-family: Arial; font-size: 12px; fill: rgb(0, 0, 0); fill-opacity: 1; white-space: pre;">0.526</text></g></g></g><g class="annotation" data-index="10" style="opacity: 1;"><g class="annotation-text-g" transform="rotate(0,430.13,349.46000000000004)"><g class="cursor-pointer" transform="translate(407,340)"><rect class="bg" x="0.5" y="0.5" width="46" height="17" style="stroke-width: 1px; stroke: rgb(0, 0, 0); stroke-opacity: 0; fill: rgb(0, 0, 0); fill-opacity: 0;"/><text class="annotation-text" text-anchor="middle" x="23.703125" y="13" style="font-family: Arial; font-size: 12px; fill: rgb(0, 0, 0); fill-opacity: 1; white-space: pre;">176,392</text></g></g></g><g class="annotation" data-index="11" style="opacity: 1;"><g class="annotation-text-g" transform="rotate(0,430.13,267.94)"><g class="cursor-pointer" transform="translate(413,259)"><rect class="bg" x="0.5" y="0.5" width="33" height="17" style="stroke-width: 1px; stroke: rgb(0, 0, 0); stroke-opacity: 0; fill: rgb(0, 0, 0); fill-opacity: 0;"/><text class="annotation-text" text-anchor="middle" x="17.015625" y="13" style="font-family: Arial; font-size: 12px; fill: rgb(0, 0, 0); fill-opacity: 1; white-space: pre;">0.522</text></g></g></g><g class="annotation" data-index="12" style="opacity: 1;"><g class="annotation-text-g" transform="rotate(0,494.76,376.72)"><g class="cursor-pointer" transform="translate(471,368)"><rect class="bg" x="0.5" y="0.5" width="46" height="17" style="stroke-width: 1px; stroke: rgb(0, 0, 0); stroke-opacity: 0; fill: rgb(0, 0, 0); fill-opacity: 0;"/><text class="annotation-text" text-anchor="middle" x="23.703125" y="13" style="font-family: Arial; font-size: 12px; fill: rgb(0, 0, 0); fill-opacity: 1; white-space: pre;">160,556</text></g></g></g><g class="annotation" data-index="13" style="opacity: 1;"><g class="annotation-text-g" transform="rotate(0,494.76,169.53)"><g class="cursor-pointer" transform="translate(478,161)"><rect class="bg" x="0.5" y="0.5" width="33" height="17" style="stroke-width: 1px; stroke: rgb(0, 0, 0); stroke-opacity: 0; fill: rgb(0, 0, 0); fill-opacity: 0;"/><text class="annotation-text" text-anchor="middle" x="17.015625" y="13" style="font-family: Arial; font-size: 12px; fill: rgb(0, 0, 0); fill-opacity: 1; white-space: pre;">0.576</text></g></g></g><g class="annotation" data-index="14" style="opacity: 1;"><g class="annotation-text-g" transform="rotate(0,559.39,419)"><g class="cursor-pointer" transform="translate(536,410)"><rect class="bg" x="0.5" y="0.5" width="46" height="17" style="stroke-width: 1px; stroke: rgb(0, 0, 0); stroke-opacity: 0; fill: rgb(0, 0, 0); fill-opacity: 0;"/><text class="annotation-text" text-anchor="middle" x="23.703125" y="13" style="font-family: Arial; font-size: 12px; fill: rgb(0, 0, 0); fill-opacity: 1; white-space: pre;">150,938</text></g></g></g><g class="annotation" data-index="15" style="opacity: 1;"><g class="annotation-text-g" transform="rotate(0,559.39,89)"><g class="cursor-pointer" transform="translate(542,80)"><rect class="bg" x="0.5" y="0.5" width="33" height="17" style="stroke-width: 1px; stroke: rgb(0, 0, 0); stroke-opacity: 0; fill: rgb(0, 0, 0); fill-opacity: 0;"/><text class="annotation-text" text-anchor="middle" x="17.015625" y="13" style="font-family: Arial; font-size: 12px; fill: rgb(0, 0, 0); fill-opacity: 1; white-space: pre;">0.609</text></g></g></g><g class="annotation" data-index="16" style="opacity: 1;"><g class="annotation-text-g" transform="rotate(0,624.03,410.45)"><g class="cursor-pointer" transform="translate(601,401)"><rect class="bg" x="0.5" y="0.5" width="46" height="17" style="stroke-width: 1px; stroke: rgb(0, 0, 0); stroke-opacity: 0; fill: rgb(0, 0, 0); fill-opacity: 0;"/><text class="annotation-text" text-anchor="middle" x="23.703125" y="13" style="font-family: Arial; font-size: 12px; fill: rgb(0, 0, 0); fill-opacity: 1; white-space: pre;">148,210</text></g></g></g><g class="annotation" data-index="17" style="opacity: 1;"><g class="annotation-text-g" transform="rotate(0,624.03,97.71000000000001)"><g class="cursor-pointer" transform="translate(608,89)"><rect class="bg" x="0.5" y="0.5" width="32" height="17" style="stroke-width: 1px; stroke: rgb(0, 0, 0); stroke-opacity: 0; fill: rgb(0, 0, 0); fill-opacity: 0;"/><text class="annotation-text" text-anchor="middle" x="16.578125" y="13" style="font-family: Arial; font-size: 12px; fill: rgb(0, 0, 0); fill-opacity: 1; white-space: pre;">0.611</text></g></g></g><g class="annotation" data-index="18" style="opacity: 1;"><g class="annotation-text-g" transform="rotate(0,518.13,259.46000000000004)"><g class="cursor-pointer" transform="translate(402,250)"><rect class="bg" x="0.5" y="0.5" width="232" height="17" style="stroke-width: 1px; stroke: rgb(216, 181, 91); stroke-opacity: 0.55; fill: rgb(252, 247, 241); fill-opacity: 0.94;"/><text class="annotation-text" text-anchor="middle" x="116.546875" y="13" style="font-family: Arial; font-size: 12px; fill: rgb(0, 0, 0); fill-opacity: 1; white-space: pre;">k=7 aligns with primary HDB flat categories</text></g></g><g class="annotation-arrow-g" style="opacity: 1;"><path d="M504.77285714285716,267.96000000000004L430.13,315.46000000000004" style="stroke-width: 1px; stroke: rgb(42, 63, 95); stroke-opacity: 1; stroke-dasharray: 0px, 0px, 87.1749px, 88.4749px;"/><path d="M-3.7,-2.5V2.5L1.3,0Z" transform="translate(431.2267761230469,314.7620544433594)rotate(147.52746642161955)" style="fill: rgb(42, 63, 95); stroke-width: 0;"/></g></g></g></svg>