<svg class="main-svg" xmlns="http://www.w3.org/2000/svg" xmlns:xlink="http://www.w3.org/1999/xlink" width="700" height="500" style="" viewBox="0 0 700 500"><rect x="0" y="0" width="700" height="500" style="fill: rgb(0, 0, 0); fill-opacity: 0;"/><defs id="defs-221724"><g class="clips"><clipPath id="clip221724xyplot" class="plotclip"><rect width="542" height="321"/></clipPath><clipPath class="axesclip" id="clip221724x"><rect x="72" y="0" width="542" height="500"/></clipPath><clipPath class="axesclip" id="clip221724y"><rect x="0" y="85" width="700" height="321"/></clipPath><clipPath class="axesclip" id="clip221724xy"><rect x="72" y="85" width="542" height="321"/></clipPath></g><g class="gradients"/><g class="patterns"/></defs><g class="bglayer"><rect class="bg" x="72" y="85" width="542" height="321" style="fill: rgb(0, 0, 0); fill-opacity: 0; stroke-width: 0;"/></g><g class="layer-below"><g class="imagelayer"/><g class="shapelayer"/></g><g class="cartesianlayer"><g class="subplot xy"><g class="layer-subplot"><g class="shapelayer"/><g class="imagelayer"/></g><g class="minor-gridlayer"><g class="x"/><g class="y"/></g><g class="gridlayer"><g class="x"/><g class="y"/></g><g class="zerolinelayer"/><g class="layer-between"><g class="shapelayer"/><g class="imagelayer"/></g><path class="xlines-below"/><path class="ylines-below"/><g class="overlines-below"/><g class="xaxislayer-below"/><g class="yaxislayer-below"/><g class="overaxes-below"/><g class="overplot"><g class="xy" transform="translate(72,85)" clip-path="url(#clip221724xyplot)"><g class="boxlayer mlayer"><g class="trace boxes" style="opacity: 1;"><path class="box" d="M19.74,304.95H57.68M19.74,304.95H57.68V304.95H19.74ZM38.71,304.95V304.95M38.71,304.95V304.95M29.23,304.95H48.2M29.23,304.95H48.2" style="vector-effect: none; stroke-width: 2px; stroke: rgb(127, 147, 166); stroke-opacity: 1; fill: rgb(127, 147, 166); fill-opacity: 0.16;"/><path class="mean" d="M19.74,304.95H57.68" style="fill: none; vector-effect: non-scaling-stroke; stroke-width: 2; stroke-dasharray: 4px, 2px; stroke: rgb(127, 147, 166); stroke-opacity: 1;"/></g><g class="trace boxes" style="opacity: 1;"><path class="box" d="M97.17,288.71H135.11M97.17,289.87H135.11V286.39H97.17ZM116.14,289.87V301.47M116.14,286.39V266.66M106.66,301.47H125.63M106.66,266.66H125.63" style="vector-effect: none; stroke-width: 2px; stroke: rgb(207, 134, 75); stroke-opacity: 1; fill: rgb(207, 134, 75); fill-opacity: 0.16;"/><path class="mean" d="M97.17,288.37H135.11" style="fill: none; vector-effect: non-scaling-stroke; stroke-width: 2; stroke-dasharray: 4px, 2px; stroke: rgb(207, 134, 75); stroke-opacity: 1;"/></g><g class="trace boxes" style="opacity: 1;"><path class="box" d="M174.6,263.18H212.54M174.6,265.5H212.54V256.22H174.6ZM193.57,265.5V281.75M193.57,256.22V16.05M184.09,281.75H203.06M184.09,16.05H203.06" style="vector-effect: none; stroke-width: 2px; stroke: rgb(127, 147, 166); stroke-opacity: 1; fill: rgb(127, 147, 166); fill-opacity: 0.16;"/><path class="mean" d="M174.6,261.56H212.54" style="fill: none; vector-effect: non-scaling-stroke; stroke-width: 2; stroke-dasharray: 4px, 2px; stroke: rgb(127, 147, 166); stroke-opacity: 1;"/></g><g class="trace boxes" style="opacity: 1;"><path class="box" d="M252.03,231.85H289.97M252.03,235.34H289.97V221.41H252.03ZM271,235.34V255.06M271,221.41V183.12M261.52,255.06H280.49M261.52,183.12H280.49" style="vector-effect: none; stroke-width: 2px; stroke: rgb(216, 181, 91); stroke-opacity: 1; fill: rgb(216, 181, 91); fill-opacity: 0.16;"/><path class="mean" d="M252.03,229.59H289.97" style="fill: none; vector-effect: non-scaling-stroke; stroke-width: 2; stroke-dasharray: 4px, 2px; stroke: rgb(216, 181, 91); stroke-opacity: 1;"/></g><g class="trace boxes" style="opacity: 1;"><path class="box" d="M329.46,202.85H367.4M329.46,213.29H367.4V199.37H329.46ZM348.43,213.29V220.25M348.43,199.37V155.28M338.94,220.25H357.91M338.94,155.28H357.91" style="vector-effect: none; stroke-width: 2px; stroke: rgb(138, 90, 52); stroke-opacity: 1; fill: rgb(138, 90, 52); fill-opacity: 0.16;"/><path class="mean" d="M329.46,203.64H367.4" style="fill: none; vector-effect: non-scaling-stroke; stroke-width: 2; stroke-dasharray: 4px, 2px; stroke: rgb(138, 90, 52); stroke-opacity: 1;"/></g><g class="trace boxes" style="opacity: 1;"><path class="box" d="M406.89,172.68H444.83M406.89,178.48H444.83V169.2H406.89ZM425.86,178.48V197.05M425.86,169.2V91.47M416.37,197.05H435.34M416.37,91.47H435.34" style="vector-effect: none; stroke-width: 2px; stroke: rgb(127, 147, 166); stroke-opacity: 1; fill: rgb(127, 147, 166); fill-opacity: 0.16;"/><path class="mean" d="M406.89,173.83H444.83" style="fill: none; vector-effect: non-scaling-stroke; stroke-width: 2; stroke-dasharray: 4px, 2px; stroke: rgb(127, 147, 166); stroke-opacity: 1;"/></g><g class="trace boxes" style="opacity: 1;"><path class="box" d="M484.32,151.64H522.26M484.32,165.72H522.26V150.64H484.32ZM503.29,165.72V170.36M503.29,150.64V148.32M493.8,170.36H512.77M493.8,148.32H512.77" style="vector-effect: none; stroke-width: 2px; stroke: rgb(207, 134, 75); stroke-opacity: 1; fill: rgb(207, 134, 75); fill-opacity: 0.16;"/><path class="mean" d="M484.32,156.25H522.26" style="fill: none; vector-effect: non-scaling-stroke; stroke-width: 2; stroke-dasharray: 4px, 2px; stroke: rgb(207, 134, 75); stroke-opacity: 1;"/></g></g></g></g><g class="zerolinelayer-above"/><path class="xlines-above crisp" d="M71,406.5H614" style="fill: none; stroke-width: 1px; stroke: rgb(0, 0, 0); stroke-opacity: 1;"/><path class="ylines-above crisp" d="M71.5,85V406" style="fill: none; stroke-width: 1px; stroke: rgb(0, 0, 0); stroke-opacity: 1;"/><g class="overlines-above"/><g class="xaxislayer-above"><g class="xtick"><text text-anchor="start" x="0" y="422.6" transform="translate(110.71000000000001,0) rotate(29.999999999999996,0,416.1)" style="font-family: Arial; font-size: 13px; fill: rgb(0, 0, 0); fill-opacity: 1; white-space: pre;">1 ROOM</text></g><g class="xtick"><text text-anchor="start" x="0" y="422.6" transform="translate(188.14,0) rotate(29.999999999999996,0,416.1)" style="font-family: Arial; font-size: 13px; fill: rgb(0, 0, 0); fill-opacity: 1; white-space: pre;">2 ROOM</text></g><g class="xtick"><text text-anchor="start" x="0" y="422.6" transform="translate(265.57,0) rotate(29.999999999999996,0,416.1)" style="font-family: Arial; font-size: 13px; fill: rgb(0, 0, 0); fill-opacity: 1; white-space: pre;">3 ROOM</text></g><g class="xtick"><text text-anchor="start" x="0" y="422.6" transform="translate(343,0) rotate(29.999999999999996,0,416.1)" style="font-family: Arial; font-size: 13px; fill: rgb(0, 0, 0); fill-opacity: 1; white-space: pre;">4 ROOM</text></g><g class="xtick"><text text-anchor="start" x="0" y="422.6" transform="translate(420.43,0) rotate(29.999999999999996,0,416.1)" style="font-family: Arial; font-size: 13px; fill: rgb(0, 0, 0); fill-opacity: 1; white-space: pre;">5 ROOM</text></g><g class="xtick"><text text-anchor="start" x="0" y="422.6" transform="translate(497.86,0) rotate(29.999999999999996,0,416.1)" style="font-family: Arial; font-size: 13px; fill: rgb(0, 0, 0); fill-opacity: 1; white-space: pre;">EXECUTIVE</text></g><g class="xtick"><text text-anchor="start" x="0" y="422.6" transform="translate(575.29,0) rotate(29.999999999999996,0,416.1)" style="font-family: Arial; font-size: 13px; fill: rgb(0, 0, 0); fill-opacity: 1; white-space: pre;">MULTI-GENERATION</text></g></g><g class="yaxislayer-above"><g class="ytick"><text text-anchor="end" x="68.4" y="4.55" transform="translate(0,367.91)" style="font-family: Arial; font-size: 13px; fill: rgb(0, 0, 0); fill-opacity: 1; white-space: pre;">50</text></g><g class="ytick"><text text-anchor="end" x="68.4" y="4.55" style="font-family: Arial; font-size: 13px; fill: rgb(0, 0, 0); fill-opacity: 1; white-space: pre;" transform="translate(0,309.89)">100</text></g><g class="ytick"><text text-anchor="end" x="68.4" y="4.55" style="font-family: Arial; font-size: 13px; fill: rgb(0, 0, 0); fill-opacity: 1; white-space: pre;" transform="translate(0,251.88)">150</text></g><g class="ytick"><text text-anchor="end" x="68.4" y="4.55" style="font-family: Arial; font-size: 13px; fill: rgb(0, 0, 0); fill-opacity: 1; white-space: pre;" transform="translate(0,193.87)">200</text></g><g class="ytick"><text text-anchor="end" x="68.4" y="4.55" style="font-family: Arial; font-size: 13px; fill: rgb(0, 0, 0); fill-opacity: 1; white-space: pre;" transform="translate(0,135.86)">250</text></g></g><g class="overaxes-above"/></g></g><g class="polarlayer"/><g class="smithlayer"/><g class="ternarylayer"/><g class="geolayer"/><g class="funnelarealayer"/><g class="pielayer"/><g class="iciclelayer"/><g class="treemaplayer"/><g class="sunburstlayer"/><g class="glimages"/><defs id="topdefs-221724"><g class="clips"/><clipPath id="legend221724"><rect width="439" height="67" x="0" y="0"/></clipPath></defs><g class="layer-above"><g class="imagelayer"/><g class="shapelayer"/></g><g class="infolayer"><g class="legend" pointer-events="all" transform="translate(175,11.579999999999998)"><rect class="bg" shape-rendering="crispEdges" style="stroke: rgb(0, 0, 0); stroke-opacity: 0; fill: rgb(0, 0, 0); fill-opacity: 0; stroke-width: 0px;" width="439" height="67" x="0" y="0"/><g class="scrollbox" transform="" clip-path="url(#legend221724)"><g class="groups"><g class="traces" transform="translate(0,14.5)" style="opacity: 1;"><text class="legendtext" text-anchor="start" x="40" y="4.680000000000001" style="font-family: Arial; font-size: 12px; fill: rgb(0, 0, 0); fill-opacity: 1; white-space: pre;">1 ROOM</text><g class="layers" style="opacity: 1;"><g class="legendfill"/><g class="legendlines"/><g class="legendsymbols"><g class="legendpoints"><path class="legendbox" d="M6,6H-6V-6H6Z" transform="translate(20,0)" style="stroke-width: 2px; fill: rgb(127, 147, 166); fill-opacity: 0.16; stroke: rgb(127, 147, 166); stroke-opacity: 1;"/></g></g></g><rect class="legendtoggle" x="0" y="-9.5" width="89.84375" height="19" style="fill: rgb(0, 0, 0); fill-opacity: 0;"/></g><g class="traces" transform="translate(162.5625,14.5)" style="opacity: 1;"><text class="legendtext" text-anchor="start" x="40" y="4.680000000000001" style="font-family: Arial; font-size: 12px; fill: rgb(0, 0, 0); fill-opacity: 1; white-space: pre;">2 ROOM</text><g class="layers" style="opacity: 1;"><g class="legendfill"/><g class="legendlines"/><g class="legendsymbols"><g class="legendpoints"><path class="legendbox" d="M6,6H-6V-6H6Z" transform="translate(20,0)" style="stroke-width: 2px; fill: rgb(207, 134, 75); fill-opacity: 0.16; stroke: rgb(207, 134, 75); stroke-opacity: 1;"/></g></g></g><rect class="legendtoggle" x="0" y="-9.5" width="89.84375" height="19" style="fill: rgb(0, 0, 0); fill-opacity: 0;"/></g><g class="traces" transform="translate(325.125,14.5)" style="opacity: 1;"><text class="legendtext" text-anchor="start" x="40" y="4.680000000000001" style="font-family: Arial; font-size: 12px; fill: rgb(0, 0, 0); fill-opacity: 1; white-space: pre;">3 ROOM</text><g class="layers" style="opacity: 1;"><g class="legendfill"/><g class="legendlines"/><g class="legendsymbols"><g class="legendpoints"><path class="legendbox" d="M6,6H-6V-6H6Z" transform="translate(20,0)" style="stroke-width: 2px; fill: rgb(127, 147, 166); fill-opacity: 0.16; stroke: rgb(127, 147, 166); stroke-opacity: 1;"/></g></g></g><rect class="legendtoggle" x="0" y="-9.5" width="89.84375" height="19" style="fill: rgb(0, 0, 0); fill-opacity: 0;"/></g><g class="traces" transform="translate(0,33.5)" style="opacity: 1;"><text class="legendtext" text-anchor="start" x="40" y="4.680000000000001" style="font-family: Arial; font-size: 12px; fill: rgb(0, 0, 0); fill-opacity: 1; white-space: pre;">4 ROOM</text><g class="layers" style="opacity: 1;"><g class="legendfill"/><g class="legendlines"/><g class="legendsymbols"><g class="legendpoints"><path class="legendbox" d="M6,6H-6V-6H6Z" transform="translate(20,0)" style="stroke-width: 2px; fill: rgb(216, 181, 91); fill-opacity: 0.16; stroke: rgb(216, 181, 91); stroke-opacity: 1;"/></g></g></g><rect class="legendtoggle" x="0" y="-9.5" width="89.84375" height="19" style="fill: rgb(0, 0, 0); fill-opacity: 0;"/></g><g class="traces" transform="translate(162.5625,33.5)" style="opacity: 1;"><text class="legendtext" text-anchor="start" x="40" y="4.680000000000001" style="font-family: Arial; font-size: 12px; fill: rgb(0, 0, 0); fill-opacity: 1; white-space: pre;">5 ROOM</text><g class="layers" style="opacity: 1;"><g class="legendfill"/><g class="legendlines"/><g class="legendsymbols"><g class="legendpoints"><path class="legendbox" d="M6,6H-6V-6H6Z" transform="translate(20,0)" style="stroke-width: 2px; fill: rgb(138, 90, 52); fill-opacity: 0.16; stroke: rgb(138, 90, 52); stroke-opacity: 1;"/></g></g></g><rect class="legendtoggle" x="0" y="-9.5" width="89.84375" height="19" style="fill: rgb(0, 0, 0); fill-opacity: 0;"/></g><g class="traces" transform="translate(325.125,33.5)" style="opacity: 1;"><text class="legendtext" text-anchor="start" x="40" y="4.680000000000001" style="font-family: Arial; font-size: 12px; fill: rgb(0, 0, 0); fill-opacity: 1; white-space: pre;">EXECUTIVE</text><g class="layers" style="opacity: 1;"><g class="legendfill"/><g class="legendlines"/><g class="legendsymbols"><g class="legendpoints"><path class="legendbox" d="M6,6H-6V-6H6Z" transform="translate(20,0)" style="stroke-width: 2px; fill: rgb(127, 147, 166); fill-opacity: 0.16; stroke: rgb(127, 147, 166); stroke-opacity: 1;"/></g></g></g><rect class="legendtoggle" x="0" y="-9.5" width="110.515625" height="19" style="fill: rgb(0, 0, 0); fill-opacity: 0;"/></g><g class="traces" transform="translate(0,52.5)" style="opacity: 1;"><text class="legendtext" text-anchor="start" x="40" y="4.680000000000001" style="font-family: Arial; font-size: 12px; fill: rgb(0, 0, 0); fill-opacity: 1; white-space: pre;">MULTI-GENERATION</text><g class="layers" style="opacity: 1;"><g class="legendfill"/><g class="legendlines"/><g class="legendsymbols"><g class="legendpoints"><path class="legendbox" d="M6,6H-6V-6H6Z" transform="translate(20,0)" style="stroke-width: 2px; fill: rgb(207, 134, 75); fill-opacity: 0.16; stroke: rgb(207, 134, 75); stroke-opacity: 1;"/></g></g></g><rect class="legendtoggle" x="0" y="-9.5" width="160.0625" height="19" style="fill: rgb(0, 0, 0); fill-opacity: 0;"/></g></g></g><rect class="scrollbar" rx="20" ry="3" width="0" height="0" style="fill: rgb(128, 139, 164); fill-opacity: 1;" x="0" y="0"/></g><g class="g-gtitle"/><g class="g-xtitle"/><g class="g-ytitle"/><g class="annotation" data-index="0" style="opacity: 1;"><g class="annotation-text-g" transform="rotate(0,110.71000000000001,367.95)"><g class="cursor-pointer" transform="translate(102,359)"><rect class="bg" x="0.5" y="0.5" width="16" height="17" style="stroke-width: 1px; stroke: rgb(0, 0, 0); stroke-opacity: 0; fill: rgb(252, 247, 241); fill-opacity: 0.92;"/><text class="annotation-text" text-anchor="middle" x="8.6875" y="13" style="font-family: Arial; font-size: 12px; fill: rgb(0, 0, 0); fill-opacity: 1; white-space: pre;">31</text></g></g></g><g class="annotation" data-index="1" style="opacity: 1;"><g class="annotation-text-g" transform="rotate(0,188.14,351.71)"><g class="cursor-pointer" transform="translate(180,343)"><rect class="bg" x="0.5" y="0.5" width="16" height="17" style="stroke-width: 1px; stroke: rgb(0, 0, 0); stroke-opacity: 0; fill: rgb(252, 247, 241); fill-opacity: 0.92;"/><text class="annotation-text" text-anchor="middle" x="8.6875" y="13" style="font-family: Arial; font-size: 12px; fill: rgb(0, 0, 0); fill-opacity: 1; white-space: pre;">45</text></g></g></g><g class="annotation" data-index="2" style="opacity: 1;"><g class="annotation-text-g" transform="rotate(0,265.57,326.18)"><g class="cursor-pointer" transform="translate(257,317)"><rect class="bg" x="0.5" y="0.5" width="16" height="17" style="stroke-width: 1px; stroke: rgb(0, 0, 0); stroke-opacity: 0; fill: rgb(252, 247, 241); fill-opacity: 0.92;"/><text class="annotation-text" text-anchor="middle" x="8.6875" y="13" style="font-family: Arial; font-size: 12px; fill: rgb(0, 0, 0); fill-opacity: 1; white-space: pre;">67</text></g></g></g><g class="annotation" data-index="3" style="opacity: 1;"><g class="annotation-text-g" transform="rotate(0,343,294.85)"><g class="cursor-pointer" transform="translate(335,286)"><rect class="bg" x="0.5" y="0.5" width="16" height="17" style="stroke-width: 1px; stroke: rgb(0, 0, 0); stroke-opacity: 0; fill: rgb(252, 247, 241); fill-opacity: 0.92;"/><text class="annotation-text" text-anchor="middle" x="8.6875" y="13" style="font-family: Arial; font-size: 12px; fill: rgb(0, 0, 0); fill-opacity: 1; white-space: pre;">94</text></g></g></g><g class="annotation" data-index="4" style="opacity: 1;"><g class="annotation-text-g" transform="rotate(0,420.43,265.85)"><g class="cursor-pointer" transform="translate(409,257)"><rect class="bg" x="0.5" y="0.5" width="22" height="17" style="stroke-width: 1px; stroke: rgb(0, 0, 0); stroke-opacity: 0; fill: rgb(252, 247, 241); fill-opacity: 0.92;"/><text class="annotation-text" text-anchor="middle" x="11.578125" y="13" style="font-family: Arial; font-size: 12px; fill: rgb(0, 0, 0); fill-opacity: 1; white-space: pre;">119</text></g></g></g><g class="annotation" data-index="5" style="opacity: 1;"><g class="annotation-text-g" transform="rotate(0,497.86,235.68)"><g class="cursor-pointer" transform="translate(486,227)"><rect class="bg" x="0.5" y="0.5" width="23" height="17" style="stroke-width: 1px; stroke: rgb(0, 0, 0); stroke-opacity: 0; fill: rgb(252, 247, 241); fill-opacity: 0.92;"/><text class="annotation-text" text-anchor="middle" x="12.015625" y="13" style="font-family: Arial; font-size: 12px; fill: rgb(0, 0, 0); fill-opacity: 1; white-space: pre;">145</text></g></g></g><g class="annotation" data-index="6" style="opacity: 1;"><g class="annotation-text-g" transform="rotate(0,575.29,214.22)"><g class="cursor-pointer" transform="translate(563,205)"><rect class="bg" x="0.5" y="0.5" width="23" height="17" style="stroke-width: 1px; stroke: rgb(0, 0, 0); stroke-opacity: 0; fill: rgb(252, 247, 241); fill-opacity: 0.92;"/><text class="annotation-text" text-anchor="middle" x="12.015625" y="13" style="font-family: Arial; font-size: 12px; fill: rgb(0, 0, 0); fill-opacity: 1; white-space: pre;">164</text></g></g></g></g></svg>